<?xml version="1.0" encoding="UTF-8" standalone="no"?>
<!DOCTYPE svg PUBLIC "-//W3C//DTD SVG 1.1//EN"
 "http://www.w3.org/Graphics/SVG/1.1/DTD/svg11.dtd">
<!-- Generated by graphviz version 8.0.5 (20230430.1635)
 -->
<!-- Pages: 1 -->
<svg width="1000pt" height="548pt"
 viewBox="0.00 0.00 1000.12 548.00" xmlns="http://www.w3.org/2000/svg" xmlns:xlink="http://www.w3.org/1999/xlink">
<g id="graph0" class="graph" transform="scale(1 1) rotate(0) translate(4 544)">
<polygon fill="white" stroke="none" points="-4,4 -4,-544 996.12,-544 996.12,4 -4,4"/>
<!-- [root] openstack_compute_floatingip_associate_v2.http (expand) -->
<g id="node1" class="node">
<title>[root] openstack_compute_floatingip_associate_v2.http (expand)</title>
<polygon fill="none" stroke="black" points="427.62,-396 134.12,-396 134.12,-360 427.62,-360 427.62,-396"/>
<text text-anchor="middle" x="280.88" y="-372.57" font-family="Times New Roman,serif" font-size="14.00">openstack_compute_floatingip_associate_v2.http</text>
</g>
<!-- [root] openstack_compute_instance_v2.instance_1 (expand) -->
<g id="node2" class="node">
<title>[root] openstack_compute_instance_v2.instance_1 (expand)</title>
<polygon fill="none" stroke="black" points="413.75,-324 148,-324 148,-288 413.75,-288 413.75,-324"/>
<text text-anchor="middle" x="280.88" y="-300.57" font-family="Times New Roman,serif" font-size="14.00">openstack_compute_instance_v2.instance_1</text>
</g>
<!-- [root] openstack_compute_floatingip_associate_v2.http (expand)&#45;&gt;[root] openstack_compute_instance_v2.instance_1 (expand) -->
<g id="edge1" class="edge">
<title>[root] openstack_compute_floatingip_associate_v2.http (expand)&#45;&gt;[root] openstack_compute_instance_v2.instance_1 (expand)</title>
<path fill="none" stroke="black" d="M280.88,-359.7C280.88,-352.24 280.88,-343.32 280.88,-334.97"/>
<polygon fill="black" stroke="black" points="284.38,-335.1 280.88,-325.1 277.38,-335.1 284.38,-335.1"/>
</g>
<!-- [root] openstack_networking_floatingip_v2.http (expand) -->
<g id="node6" class="node">
<title>[root] openstack_networking_floatingip_v2.http (expand)</title>
<polygon fill="none" stroke="black" points="247.75,-108 0,-108 0,-72 247.75,-72 247.75,-108"/>
<text text-anchor="middle" x="123.88" y="-84.58" font-family="Times New Roman,serif" font-size="14.00">openstack_networking_floatingip_v2.http</text>
</g>
<!-- [root] openstack_compute_floatingip_associate_v2.http (expand)&#45;&gt;[root] openstack_networking_floatingip_v2.http (expand) -->
<g id="edge2" class="edge">
<title>[root] openstack_compute_floatingip_associate_v2.http (expand)&#45;&gt;[root] openstack_networking_floatingip_v2.http (expand)</title>
<path fill="none" stroke="black" d="M187.78,-359.51C168.85,-351.69 151.04,-340.37 138.88,-324 93.54,-262.98 106.58,-166.32 116.79,-118.99"/>
<polygon fill="black" stroke="black" points="120.41,-119.86 119.23,-109.33 113.59,-118.3 120.41,-119.86"/>
</g>
<!-- [root] openstack_images_image_v2.ubuntu1404 (expand) -->
<g id="node5" class="node">
<title>[root] openstack_images_image_v2.ubuntu1404 (expand)</title>
<polygon fill="none" stroke="black" points="404.12,-252 155.62,-252 155.62,-216 404.12,-216 404.12,-252"/>
<text text-anchor="middle" x="279.88" y="-228.57" font-family="Times New Roman,serif" font-size="14.00">openstack_images_image_v2.ubuntu1404</text>
</g>
<!-- [root] openstack_compute_instance_v2.instance_1 (expand)&#45;&gt;[root] openstack_images_image_v2.ubuntu1404 (expand) -->
<g id="edge3" class="edge">
<title>[root] openstack_compute_instance_v2.instance_1 (expand)&#45;&gt;[root] openstack_images_image_v2.ubuntu1404 (expand)</title>
<path fill="none" stroke="black" d="M280.63,-287.7C280.52,-280.24 280.39,-271.32 280.27,-262.97"/>
<polygon fill="black" stroke="black" points="283.76,-263.05 280.12,-253.1 276.76,-263.15 283.76,-263.05"/>
</g>
<!-- [root] openstack_networking_port_v2.http (expand) -->
<g id="node8" class="node">
<title>[root] openstack_networking_port_v2.http (expand)</title>
<polygon fill="none" stroke="black" points="641.5,-252 422.25,-252 422.25,-216 641.5,-216 641.5,-252"/>
<text text-anchor="middle" x="531.88" y="-228.57" font-family="Times New Roman,serif" font-size="14.00">openstack_networking_port_v2.http</text>
</g>
<!-- [root] openstack_compute_instance_v2.instance_1 (expand)&#45;&gt;[root] openstack_networking_port_v2.http (expand) -->
<g id="edge4" class="edge">
<title>[root] openstack_compute_instance_v2.instance_1 (expand)&#45;&gt;[root] openstack_networking_port_v2.http (expand)</title>
<path fill="none" stroke="black" d="M343.57,-287.52C378.74,-277.71 422.78,-265.43 459.42,-255.21"/>
<polygon fill="black" stroke="black" points="459.86,-258.44 468.55,-252.38 457.98,-251.7 459.86,-258.44"/>
</g>
<!-- [root] openstack_compute_instance_v2.instance_2 (expand) -->
<g id="node3" class="node">
<title>[root] openstack_compute_instance_v2.instance_2 (expand)</title>
<polygon fill="none" stroke="black" points="697.75,-324 432,-324 432,-288 697.75,-288 697.75,-324"/>
<text text-anchor="middle" x="564.88" y="-300.57" font-family="Times New Roman,serif" font-size="14.00">openstack_compute_instance_v2.instance_2</text>
</g>
<!-- [root] openstack_compute_instance_v2.instance_2 (expand)&#45;&gt;[root] openstack_images_image_v2.ubuntu1404 (expand) -->
<g id="edge5" class="edge">
<title>[root] openstack_compute_instance_v2.instance_2 (expand)&#45;&gt;[root] openstack_images_image_v2.ubuntu1404 (expand)</title>
<path fill="none" stroke="black" d="M493.69,-287.52C453.41,-277.62 402.89,-265.22 361.08,-254.94"/>
<polygon fill="black" stroke="black" points="362.19,-251.37 351.64,-252.38 360.52,-258.17 362.19,-251.37"/>
</g>
<!-- [root] openstack_compute_instance_v2.instance_2 (expand)&#45;&gt;[root] openstack_networking_port_v2.http (expand) -->
<g id="edge6" class="edge">
<title>[root] openstack_compute_instance_v2.instance_2 (expand)&#45;&gt;[root] openstack_networking_port_v2.http (expand)</title>
<path fill="none" stroke="black" d="M556.72,-287.7C553.04,-279.9 548.61,-270.51 544.52,-261.83"/>
<polygon fill="black" stroke="black" points="547.37,-260.66 539.94,-253.1 541.04,-263.64 547.37,-260.66"/>
</g>
<!-- [root] openstack_compute_secgroup_v2.icmp (expand) -->
<g id="node4" class="node">
<title>[root] openstack_compute_secgroup_v2.icmp (expand)</title>
<polygon fill="none" stroke="black" points="547.38,-108 306.38,-108 306.38,-72 547.38,-72 547.38,-108"/>
<text text-anchor="middle" x="426.88" y="-84.58" font-family="Times New Roman,serif" font-size="14.00">openstack_compute_secgroup_v2.icmp</text>
</g>
<!-- [root] provider[&quot;registry.terraform.io/terraform&#45;provider&#45;openstack/openstack&quot;] -->
<g id="node12" class="node">
<title>[root] provider[&quot;registry.terraform.io/terraform&#45;provider&#45;openstack/openstack&quot;]</title>
<polygon fill="none" stroke="black" points="426.88,-36 27.22,-18 426.87,0 826.53,-18 426.88,-36"/>
<text text-anchor="middle" x="426.88" y="-12.58" font-family="Times New Roman,serif" font-size="14.00">provider[&quot;registry.terraform.io/terraform&#45;provider&#45;openstack/openstack&quot;]</text>
</g>
<!-- [root] openstack_compute_secgroup_v2.icmp (expand)&#45;&gt;[root] provider[&quot;registry.terraform.io/terraform&#45;provider&#45;openstack/openstack&quot;] -->
<g id="edge7" class="edge">
<title>[root] openstack_compute_secgroup_v2.icmp (expand)&#45;&gt;[root] provider[&quot;registry.terraform.io/terraform&#45;provider&#45;openstack/openstack&quot;]</title>
<path fill="none" stroke="black" d="M426.88,-71.7C426.88,-64.24 426.88,-55.32 426.88,-46.97"/>
<polygon fill="black" stroke="black" points="430.38,-47.1 426.88,-37.1 423.38,-47.1 430.38,-47.1"/>
</g>
<!-- [root] openstack_images_image_v2.ubuntu1404 (expand)&#45;&gt;[root] provider[&quot;registry.terraform.io/terraform&#45;provider&#45;openstack/openstack&quot;] -->
<g id="edge8" class="edge">
<title>[root] openstack_images_image_v2.ubuntu1404 (expand)&#45;&gt;[root] provider[&quot;registry.terraform.io/terraform&#45;provider&#45;openstack/openstack&quot;]</title>
<path fill="none" stroke="black" d="M276.41,-215.68C271.07,-183.77 264.54,-115.03 296.88,-72 308.8,-56.14 326.29,-45 344.59,-37.19"/>
<polygon fill="black" stroke="black" points="345.78,-40.09 353.82,-33.19 343.23,-33.58 345.78,-40.09"/>
</g>
<!-- [root] openstack_networking_floatingip_v2.http (expand)&#45;&gt;[root] provider[&quot;registry.terraform.io/terraform&#45;provider&#45;openstack/openstack&quot;] -->
<g id="edge9" class="edge">
<title>[root] openstack_networking_floatingip_v2.http (expand)&#45;&gt;[root] provider[&quot;registry.terraform.io/terraform&#45;provider&#45;openstack/openstack&quot;]</title>
<path fill="none" stroke="black" d="M199.55,-71.52C246.55,-60.66 306.66,-46.77 353.27,-36.01"/>
<polygon fill="black" stroke="black" points="353.94,-39.21 362.9,-33.55 352.37,-32.39 353.94,-39.21"/>
</g>
<!-- [root] openstack_networking_network_v2.private_1 (expand) -->
<g id="node7" class="node">
<title>[root] openstack_networking_network_v2.private_1 (expand)</title>
<polygon fill="none" stroke="black" points="836.38,-108 565.38,-108 565.38,-72 836.38,-72 836.38,-108"/>
<text text-anchor="middle" x="700.88" y="-84.58" font-family="Times New Roman,serif" font-size="14.00">openstack_networking_network_v2.private_1</text>
</g>
<!-- [root] openstack_networking_network_v2.private_1 (expand)&#45;&gt;[root] provider[&quot;registry.terraform.io/terraform&#45;provider&#45;openstack/openstack&quot;] -->
<g id="edge10" class="edge">
<title>[root] openstack_networking_network_v2.private_1 (expand)&#45;&gt;[root] provider[&quot;registry.terraform.io/terraform&#45;provider&#45;openstack/openstack&quot;]</title>
<path fill="none" stroke="black" d="M632.44,-71.52C590.59,-60.83 537.24,-47.2 495.38,-36.5"/>
<polygon fill="black" stroke="black" points="496.28,-32.86 485.72,-33.78 494.55,-39.65 496.28,-32.86"/>
</g>
<!-- [root] openstack_networking_port_v2.http (expand)&#45;&gt;[root] openstack_compute_secgroup_v2.icmp (expand) -->
<g id="edge11" class="edge">
<title>[root] openstack_networking_port_v2.http (expand)&#45;&gt;[root] openstack_compute_secgroup_v2.icmp (expand)</title>
<path fill="none" stroke="black" d="M491.95,-215.62C476.4,-207 459.74,-195.14 448.88,-180 436.12,-162.22 430.72,-137.87 428.45,-119.14"/>
<polygon fill="black" stroke="black" points="431.85,-118.92 427.41,-109.31 424.88,-119.6 431.85,-118.92"/>
</g>
<!-- [root] openstack_networking_subnet_v2.subnet_1 (expand) -->
<g id="node11" class="node">
<title>[root] openstack_networking_subnet_v2.subnet_1 (expand)</title>
<polygon fill="none" stroke="black" points="719.88,-180 457.88,-180 457.88,-144 719.88,-144 719.88,-180"/>
<text text-anchor="middle" x="588.88" y="-156.57" font-family="Times New Roman,serif" font-size="14.00">openstack_networking_subnet_v2.subnet_1</text>
</g>
<!-- [root] openstack_networking_port_v2.http (expand)&#45;&gt;[root] openstack_networking_subnet_v2.subnet_1 (expand) -->
<g id="edge12" class="edge">
<title>[root] openstack_networking_port_v2.http (expand)&#45;&gt;[root] openstack_networking_subnet_v2.subnet_1 (expand)</title>
<path fill="none" stroke="black" d="M545.96,-215.7C552.66,-207.47 560.8,-197.48 568.18,-188.42"/>
<polygon fill="black" stroke="black" points="571.35,-191.07 574.95,-181.1 565.92,-186.65 571.35,-191.07"/>
</g>
<!-- [root] openstack_networking_router_interface_v2.interface_1 (expand) -->
<g id="node9" class="node">
<title>[root] openstack_networking_router_interface_v2.interface_1 (expand)</title>
<polygon fill="none" stroke="black" points="982.62,-252 659.12,-252 659.12,-216 982.62,-216 982.62,-252"/>
<text text-anchor="middle" x="820.88" y="-228.57" font-family="Times New Roman,serif" font-size="14.00">openstack_networking_router_interface_v2.interface_1</text>
</g>
<!-- [root] openstack_networking_router_v2.router_1 (expand) -->
<g id="node10" class="node">
<title>[root] openstack_networking_router_v2.router_1 (expand)</title>
<polygon fill="none" stroke="black" points="992.12,-180 737.62,-180 737.62,-144 992.12,-144 992.12,-180"/>
<text text-anchor="middle" x="864.88" y="-156.57" font-family="Times New Roman,serif" font-size="14.00">openstack_networking_router_v2.router_1</text>
</g>
<!-- [root] openstack_networking_router_interface_v2.interface_1 (expand)&#45;&gt;[root] openstack_networking_router_v2.router_1 (expand) -->
<g id="edge13" class="edge">
<title>[root] openstack_networking_router_interface_v2.interface_1 (expand)&#45;&gt;[root] openstack_networking_router_v2.router_1 (expand)</title>
<path fill="none" stroke="black" d="M831.75,-215.7C836.76,-207.73 842.81,-198.1 848.37,-189.26"/>
<polygon fill="black" stroke="black" points="851.77,-191.43 854.12,-181.1 845.84,-187.71 851.77,-191.43"/>
</g>
<!-- [root] openstack_networking_router_interface_v2.interface_1 (expand)&#45;&gt;[root] openstack_networking_subnet_v2.subnet_1 (expand) -->
<g id="edge14" class="edge">
<title>[root] openstack_networking_router_interface_v2.interface_1 (expand)&#45;&gt;[root] openstack_networking_subnet_v2.subnet_1 (expand)</title>
<path fill="none" stroke="black" d="M762.93,-215.52C730.7,-205.79 690.41,-193.64 656.71,-183.47"/>
<polygon fill="black" stroke="black" points="658.07,-179.92 647.48,-180.38 656.05,-186.62 658.07,-179.92"/>
</g>
<!-- [root] openstack_networking_router_v2.router_1 (expand)&#45;&gt;[root] provider[&quot;registry.terraform.io/terraform&#45;provider&#45;openstack/openstack&quot;] -->
<g id="edge15" class="edge">
<title>[root] openstack_networking_router_v2.router_1 (expand)&#45;&gt;[root] provider[&quot;registry.terraform.io/terraform&#45;provider&#45;openstack/openstack&quot;]</title>
<path fill="none" stroke="black" d="M866.58,-143.77C867.54,-123.46 865.65,-90.17 845.88,-72 819.28,-47.56 751.09,-34.08 677.26,-26.75"/>
<polygon fill="black" stroke="black" points="677.61,-23.17 667.33,-25.71 676.95,-30.14 677.61,-23.17"/>
</g>
<!-- [root] openstack_networking_subnet_v2.subnet_1 (expand)&#45;&gt;[root] openstack_networking_network_v2.private_1 (expand) -->
<g id="edge16" class="edge">
<title>[root] openstack_networking_subnet_v2.subnet_1 (expand)&#45;&gt;[root] openstack_networking_network_v2.private_1 (expand)</title>
<path fill="none" stroke="black" d="M616.85,-143.52C631.12,-134.6 648.67,-123.63 664.03,-114.03"/>
<polygon fill="black" stroke="black" points="665.63,-116.53 672.26,-108.26 661.92,-110.59 665.63,-116.53"/>
</g>
<!-- [root] provider[&quot;registry.terraform.io/terraform&#45;provider&#45;openstack/openstack&quot;] (close) -->
<g id="node13" class="node">
<title>[root] provider[&quot;registry.terraform.io/terraform&#45;provider&#45;openstack/openstack&quot;] (close)</title>
<ellipse fill="none" stroke="black" cx="564.88" cy="-450" rx="334.49" ry="18"/>
<text text-anchor="middle" x="564.88" y="-444.57" font-family="Times New Roman,serif" font-size="14.00">[root] provider[&quot;registry.terraform.io/terraform&#45;provider&#45;openstack/openstack&quot;] (close)</text>
</g>
<!-- [root] provider[&quot;registry.terraform.io/terraform&#45;provider&#45;openstack/openstack&quot;] (close)&#45;&gt;[root] openstack_compute_floatingip_associate_v2.http (expand) -->
<g id="edge17" class="edge">
<title>[root] provider[&quot;registry.terraform.io/terraform&#45;provider&#45;openstack/openstack&quot;] (close)&#45;&gt;[root] openstack_compute_floatingip_associate_v2.http (expand)</title>
<path fill="none" stroke="black" d="M495.76,-431.97C455.5,-422.04 404.51,-409.47 362.31,-399.07"/>
<polygon fill="black" stroke="black" points="363.33,-395.47 352.78,-396.48 361.65,-402.27 363.33,-395.47"/>
</g>
<!-- [root] provider[&quot;registry.terraform.io/terraform&#45;provider&#45;openstack/openstack&quot;] (close)&#45;&gt;[root] openstack_compute_instance_v2.instance_2 (expand) -->
<g id="edge18" class="edge">
<title>[root] provider[&quot;registry.terraform.io/terraform&#45;provider&#45;openstack/openstack&quot;] (close)&#45;&gt;[root] openstack_compute_instance_v2.instance_2 (expand)</title>
<path fill="none" stroke="black" d="M564.88,-431.59C564.88,-407.5 564.88,-363.75 564.88,-335.03"/>
<polygon fill="black" stroke="black" points="568.38,-335.11 564.88,-325.11 561.38,-335.11 568.38,-335.11"/>
</g>
<!-- [root] provider[&quot;registry.terraform.io/terraform&#45;provider&#45;openstack/openstack&quot;] (close)&#45;&gt;[root] openstack_networking_router_interface_v2.interface_1 (expand) -->
<g id="edge19" class="edge">
<title>[root] provider[&quot;registry.terraform.io/terraform&#45;provider&#45;openstack/openstack&quot;] (close)&#45;&gt;[root] openstack_networking_router_interface_v2.interface_1 (expand)</title>
<path fill="none" stroke="black" d="M585.39,-431.85C630.8,-393.89 739.89,-302.7 792.09,-259.06"/>
<polygon fill="black" stroke="black" points="793.83,-261.33 799.26,-252.23 789.34,-255.96 793.83,-261.33"/>
</g>
<!-- [root] root -->
<g id="node14" class="node">
<title>[root] root</title>
<ellipse fill="none" stroke="black" cx="564.88" cy="-522" rx="50.07" ry="18"/>
<text text-anchor="middle" x="564.88" y="-516.58" font-family="Times New Roman,serif" font-size="14.00">[root] root</text>
</g>
<!-- [root] root&#45;&gt;[root] provider[&quot;registry.terraform.io/terraform&#45;provider&#45;openstack/openstack&quot;] (close) -->
<g id="edge20" class="edge">
<title>[root] root&#45;&gt;[root] provider[&quot;registry.terraform.io/terraform&#45;provider&#45;openstack/openstack&quot;] (close)</title>
<path fill="none" stroke="black" d="M564.88,-503.7C564.88,-496.24 564.88,-487.32 564.88,-478.97"/>
<polygon fill="black" stroke="black" points="568.38,-479.1 564.88,-469.1 561.38,-479.1 568.38,-479.1"/>
</g>
</g>
</svg>
