<?xml version="1.0" encoding="UTF-8" standalone="no"?>
<!DOCTYPE svg PUBLIC "-//W3C//DTD SVG 1.1//EN"
 "http://www.w3.org/Graphics/SVG/1.1/DTD/svg11.dtd">
<!-- Generated by graphviz version 8.0.5 (20230430.1635)
 -->
<!-- Pages: 1 -->
<svg width="1476pt" height="548pt"
 viewBox="0.00 0.00 1476.12 548.00" xmlns="http://www.w3.org/2000/svg" xmlns:xlink="http://www.w3.org/1999/xlink">
<g id="graph0" class="graph" transform="scale(1 1) rotate(0) translate(4 544)">
<polygon fill="white" stroke="none" points="-4,4 -4,-544 1472.12,-544 1472.12,4 -4,4"/>
<!-- [root] openstack_compute_floatingip_associate_v2.http (expand) -->
<g id="node1" class="node">
<title>[root] openstack_compute_floatingip_associate_v2.http (expand)</title>
<polygon fill="none" stroke="black" points="451.62,-396 158.12,-396 158.12,-360 451.62,-360 451.62,-396"/>
<text text-anchor="middle" x="304.88" y="-372.57" font-family="Times New Roman,serif" font-size="14.00">openstack_compute_floatingip_associate_v2.http</text>
</g>
<!-- [root] openstack_compute_instance_v2.instance_1 (expand) -->
<g id="node2" class="node">
<title>[root] openstack_compute_instance_v2.instance_1 (expand)</title>
<polygon fill="none" stroke="black" points="437.75,-324 172,-324 172,-288 437.75,-288 437.75,-324"/>
<text text-anchor="middle" x="304.88" y="-300.57" font-family="Times New Roman,serif" font-size="14.00">openstack_compute_instance_v2.instance_1</text>
</g>
<!-- [root] openstack_compute_floatingip_associate_v2.http (expand)&#45;&gt;[root] openstack_compute_instance_v2.instance_1 (expand) -->
<g id="edge1" class="edge">
<title>[root] openstack_compute_floatingip_associate_v2.http (expand)&#45;&gt;[root] openstack_compute_instance_v2.instance_1 (expand)</title>
<path fill="none" stroke="black" d="M304.88,-359.7C304.88,-352.24 304.88,-343.32 304.88,-334.97"/>
<polygon fill="black" stroke="black" points="308.38,-335.1 304.88,-325.1 301.38,-335.1 308.38,-335.1"/>
</g>
<!-- [root] openstack_networking_floatingip_v2.http (expand) -->
<g id="node10" class="node">
<title>[root] openstack_networking_floatingip_v2.http (expand)</title>
<polygon fill="none" stroke="black" points="247.75,-108 0,-108 0,-72 247.75,-72 247.75,-108"/>
<text text-anchor="middle" x="123.88" y="-84.58" font-family="Times New Roman,serif" font-size="14.00">openstack_networking_floatingip_v2.http</text>
</g>
<!-- [root] openstack_compute_floatingip_associate_v2.http (expand)&#45;&gt;[root] openstack_networking_floatingip_v2.http (expand) -->
<g id="edge2" class="edge">
<title>[root] openstack_compute_floatingip_associate_v2.http (expand)&#45;&gt;[root] openstack_networking_floatingip_v2.http (expand)</title>
<path fill="none" stroke="black" d="M215.54,-359.61C195.63,-351.79 176.44,-340.44 162.88,-324 113.81,-264.52 115.78,-166.74 120.28,-119"/>
<polygon fill="black" stroke="black" points="123.85,-119.57 121.42,-109.25 116.89,-118.83 123.85,-119.57"/>
</g>
<!-- [root] openstack_images_image_v2.ubuntu1404 (expand) -->
<g id="node9" class="node">
<title>[root] openstack_images_image_v2.ubuntu1404 (expand)</title>
<polygon fill="none" stroke="black" points="466.12,-252 217.62,-252 217.62,-216 466.12,-216 466.12,-252"/>
<text text-anchor="middle" x="341.88" y="-228.57" font-family="Times New Roman,serif" font-size="14.00">openstack_images_image_v2.ubuntu1404</text>
</g>
<!-- [root] openstack_compute_instance_v2.instance_1 (expand)&#45;&gt;[root] openstack_images_image_v2.ubuntu1404 (expand) -->
<g id="edge3" class="edge">
<title>[root] openstack_compute_instance_v2.instance_1 (expand)&#45;&gt;[root] openstack_images_image_v2.ubuntu1404 (expand)</title>
<path fill="none" stroke="black" d="M314.02,-287.7C318.14,-279.9 323.11,-270.51 327.69,-261.83"/>
<polygon fill="black" stroke="black" points="331.26,-263.58 332.83,-253.1 325.07,-260.31 331.26,-263.58"/>
</g>
<!-- [root] openstack_networking_port_v2.http (expand) -->
<g id="node12" class="node">
<title>[root] openstack_networking_port_v2.http (expand)</title>
<polygon fill="none" stroke="black" points="746.5,-252 527.25,-252 527.25,-216 746.5,-216 746.5,-252"/>
<text text-anchor="middle" x="636.88" y="-228.57" font-family="Times New Roman,serif" font-size="14.00">openstack_networking_port_v2.http</text>
</g>
<!-- [root] openstack_compute_instance_v2.instance_1 (expand)&#45;&gt;[root] openstack_networking_port_v2.http (expand) -->
<g id="edge4" class="edge">
<title>[root] openstack_compute_instance_v2.instance_1 (expand)&#45;&gt;[root] openstack_networking_port_v2.http (expand)</title>
<path fill="none" stroke="black" d="M387.8,-287.52C435.12,-277.54 494.59,-265 543.55,-254.68"/>
<polygon fill="black" stroke="black" points="544.09,-257.93 553.15,-252.44 542.64,-251.08 544.09,-257.93"/>
</g>
<!-- [root] openstack_compute_instance_v2.instance_2 (expand) -->
<g id="node3" class="node">
<title>[root] openstack_compute_instance_v2.instance_2 (expand)</title>
<polygon fill="none" stroke="black" points="1005.75,-324 740,-324 740,-288 1005.75,-288 1005.75,-324"/>
<text text-anchor="middle" x="872.88" y="-300.57" font-family="Times New Roman,serif" font-size="14.00">openstack_compute_instance_v2.instance_2</text>
</g>
<!-- [root] openstack_compute_instance_v2.instance_2 (expand)&#45;&gt;[root] openstack_images_image_v2.ubuntu1404 (expand) -->
<g id="edge5" class="edge">
<title>[root] openstack_compute_instance_v2.instance_2 (expand)&#45;&gt;[root] openstack_images_image_v2.ubuntu1404 (expand)</title>
<path fill="none" stroke="black" d="M740.25,-287.52C659.99,-276.94 557.91,-263.48 477.17,-252.84"/>
<polygon fill="black" stroke="black" points="477.8,-249.26 467.43,-251.42 476.89,-256.2 477.8,-249.26"/>
</g>
<!-- [root] openstack_compute_instance_v2.instance_2 (expand)&#45;&gt;[root] openstack_networking_port_v2.http (expand) -->
<g id="edge6" class="edge">
<title>[root] openstack_compute_instance_v2.instance_2 (expand)&#45;&gt;[root] openstack_networking_port_v2.http (expand)</title>
<path fill="none" stroke="black" d="M813.93,-287.52C781.14,-277.79 740.16,-265.64 705.88,-255.47"/>
<polygon fill="black" stroke="black" points="707.06,-251.87 696.48,-252.38 705.07,-258.58 707.06,-251.87"/>
</g>
<!-- [root] openstack_compute_instance_v2.instance_3 (expand) -->
<g id="node4" class="node">
<title>[root] openstack_compute_instance_v2.instance_3 (expand)</title>
<polygon fill="none" stroke="black" points="721.75,-324 456,-324 456,-288 721.75,-288 721.75,-324"/>
<text text-anchor="middle" x="588.88" y="-300.57" font-family="Times New Roman,serif" font-size="14.00">openstack_compute_instance_v2.instance_3</text>
</g>
<!-- [root] openstack_compute_instance_v2.instance_3 (expand)&#45;&gt;[root] openstack_images_image_v2.ubuntu1404 (expand) -->
<g id="edge7" class="edge">
<title>[root] openstack_compute_instance_v2.instance_3 (expand)&#45;&gt;[root] openstack_images_image_v2.ubuntu1404 (expand)</title>
<path fill="none" stroke="black" d="M527.18,-287.52C492.72,-277.75 449.6,-265.53 413.64,-255.34"/>
<polygon fill="black" stroke="black" points="414.78,-251.74 404.21,-252.38 412.87,-258.48 414.78,-251.74"/>
</g>
<!-- [root] openstack_compute_instance_v2.instance_3 (expand)&#45;&gt;[root] openstack_networking_port_v2.http (expand) -->
<g id="edge8" class="edge">
<title>[root] openstack_compute_instance_v2.instance_3 (expand)&#45;&gt;[root] openstack_networking_port_v2.http (expand)</title>
<path fill="none" stroke="black" d="M600.74,-287.7C606.26,-279.64 612.95,-269.89 619.06,-260.98"/>
<polygon fill="black" stroke="black" points="622.38,-263.33 625.15,-253.1 616.6,-259.37 622.38,-263.33"/>
</g>
<!-- [root] openstack_compute_secgroup_v2.custom_port (expand) -->
<g id="node5" class="node">
<title>[root] openstack_compute_secgroup_v2.custom_port (expand)</title>
<polygon fill="none" stroke="black" points="589.5,-180 304.25,-180 304.25,-144 589.5,-144 589.5,-180"/>
<text text-anchor="middle" x="446.88" y="-156.57" font-family="Times New Roman,serif" font-size="14.00">openstack_compute_secgroup_v2.custom_port</text>
</g>
<!-- [root] provider[&quot;registry.terraform.io/terraform&#45;provider&#45;openstack/openstack&quot;] -->
<g id="node16" class="node">
<title>[root] provider[&quot;registry.terraform.io/terraform&#45;provider&#45;openstack/openstack&quot;]</title>
<polygon fill="none" stroke="black" points="596.88,-36 197.22,-18 596.87,0 996.53,-18 596.88,-36"/>
<text text-anchor="middle" x="596.88" y="-12.58" font-family="Times New Roman,serif" font-size="14.00">provider[&quot;registry.terraform.io/terraform&#45;provider&#45;openstack/openstack&quot;]</text>
</g>
<!-- [root] openstack_compute_secgroup_v2.custom_port (expand)&#45;&gt;[root] provider[&quot;registry.terraform.io/terraform&#45;provider&#45;openstack/openstack&quot;] -->
<g id="edge9" class="edge">
<title>[root] openstack_compute_secgroup_v2.custom_port (expand)&#45;&gt;[root] provider[&quot;registry.terraform.io/terraform&#45;provider&#45;openstack/openstack&quot;]</title>
<path fill="none" stroke="black" d="M385.48,-143.57C368.41,-135.59 351.83,-124.17 341.88,-108 333.49,-94.37 331.78,-84.41 341.88,-72 357.56,-52.72 406.79,-40.23 457.87,-32.24"/>
<polygon fill="black" stroke="black" points="458.07,-35.6 467.44,-30.66 457.03,-28.68 458.07,-35.6"/>
</g>
<!-- [root] openstack_compute_secgroup_v2.http (expand) -->
<g id="node6" class="node">
<title>[root] openstack_compute_secgroup_v2.http (expand)</title>
<polygon fill="none" stroke="black" points="586.38,-108 351.38,-108 351.38,-72 586.38,-72 586.38,-108"/>
<text text-anchor="middle" x="468.88" y="-84.58" font-family="Times New Roman,serif" font-size="14.00">openstack_compute_secgroup_v2.http</text>
</g>
<!-- [root] openstack_compute_secgroup_v2.http (expand)&#45;&gt;[root] provider[&quot;registry.terraform.io/terraform&#45;provider&#45;openstack/openstack&quot;] -->
<g id="edge10" class="edge">
<title>[root] openstack_compute_secgroup_v2.http (expand)&#45;&gt;[root] provider[&quot;registry.terraform.io/terraform&#45;provider&#45;openstack/openstack&quot;]</title>
<path fill="none" stroke="black" d="M500.84,-71.52C518.17,-62.04 539.71,-50.26 558,-40.26"/>
<polygon fill="black" stroke="black" points="559.41,-42.93 566.5,-35.06 556.05,-36.79 559.41,-42.93"/>
</g>
<!-- [root] openstack_compute_secgroup_v2.icmp (expand) -->
<g id="node7" class="node">
<title>[root] openstack_compute_secgroup_v2.icmp (expand)</title>
<polygon fill="none" stroke="black" points="845.38,-108 604.38,-108 604.38,-72 845.38,-72 845.38,-108"/>
<text text-anchor="middle" x="724.88" y="-84.58" font-family="Times New Roman,serif" font-size="14.00">openstack_compute_secgroup_v2.icmp</text>
</g>
<!-- [root] openstack_compute_secgroup_v2.icmp (expand)&#45;&gt;[root] provider[&quot;registry.terraform.io/terraform&#45;provider&#45;openstack/openstack&quot;] -->
<g id="edge11" class="edge">
<title>[root] openstack_compute_secgroup_v2.icmp (expand)&#45;&gt;[root] provider[&quot;registry.terraform.io/terraform&#45;provider&#45;openstack/openstack&quot;]</title>
<path fill="none" stroke="black" d="M692.91,-71.52C675.58,-62.04 654.04,-50.26 635.75,-40.26"/>
<polygon fill="black" stroke="black" points="637.7,-36.79 627.25,-35.06 634.34,-42.93 637.7,-36.79"/>
</g>
<!-- [root] openstack_compute_secgroup_v2.ssh (expand) -->
<g id="node8" class="node">
<title>[root] openstack_compute_secgroup_v2.ssh (expand)</title>
<polygon fill="none" stroke="black" points="915.88,-180 683.88,-180 683.88,-144 915.88,-144 915.88,-180"/>
<text text-anchor="middle" x="799.88" y="-156.57" font-family="Times New Roman,serif" font-size="14.00">openstack_compute_secgroup_v2.ssh</text>
</g>
<!-- [root] openstack_compute_secgroup_v2.ssh (expand)&#45;&gt;[root] provider[&quot;registry.terraform.io/terraform&#45;provider&#45;openstack/openstack&quot;] -->
<g id="edge12" class="edge">
<title>[root] openstack_compute_secgroup_v2.ssh (expand)&#45;&gt;[root] provider[&quot;registry.terraform.io/terraform&#45;provider&#45;openstack/openstack&quot;]</title>
<path fill="none" stroke="black" d="M823.37,-143.72C845.83,-125.12 873.7,-95.09 854.88,-72 839.06,-52.6 789.6,-40.11 738.16,-32.15"/>
<polygon fill="black" stroke="black" points="738.92,-28.58 728.51,-30.57 737.89,-35.5 738.92,-28.58"/>
</g>
<!-- [root] openstack_images_image_v2.ubuntu1404 (expand)&#45;&gt;[root] provider[&quot;registry.terraform.io/terraform&#45;provider&#45;openstack/openstack&quot;] -->
<g id="edge13" class="edge">
<title>[root] openstack_images_image_v2.ubuntu1404 (expand)&#45;&gt;[root] provider[&quot;registry.terraform.io/terraform&#45;provider&#45;openstack/openstack&quot;]</title>
<path fill="none" stroke="black" d="M320.61,-215.7C310.77,-206.31 300.11,-193.8 294.88,-180 276.87,-132.56 291.38,-102.57 331.88,-72 354.83,-54.67 416.59,-41.78 474.72,-33.05"/>
<polygon fill="black" stroke="black" points="475.13,-36.38 484.52,-31.47 474.12,-29.46 475.13,-36.38"/>
</g>
<!-- [root] openstack_networking_floatingip_v2.http (expand)&#45;&gt;[root] provider[&quot;registry.terraform.io/terraform&#45;provider&#45;openstack/openstack&quot;] -->
<g id="edge14" class="edge">
<title>[root] openstack_networking_floatingip_v2.http (expand)&#45;&gt;[root] provider[&quot;registry.terraform.io/terraform&#45;provider&#45;openstack/openstack&quot;]</title>
<path fill="none" stroke="black" d="M242.01,-71.52C320.12,-59.96 421.44,-44.96 495.81,-33.96"/>
<polygon fill="black" stroke="black" points="496.2,-37.29 505.58,-32.36 495.18,-30.36 496.2,-37.29"/>
</g>
<!-- [root] openstack_networking_network_v2.private_1 (expand) -->
<g id="node11" class="node">
<title>[root] openstack_networking_network_v2.private_1 (expand)</title>
<polygon fill="none" stroke="black" points="1191.38,-108 920.38,-108 920.38,-72 1191.38,-72 1191.38,-108"/>
<text text-anchor="middle" x="1055.88" y="-84.58" font-family="Times New Roman,serif" font-size="14.00">openstack_networking_network_v2.private_1</text>
</g>
<!-- [root] openstack_networking_network_v2.private_1 (expand)&#45;&gt;[root] provider[&quot;registry.terraform.io/terraform&#45;provider&#45;openstack/openstack&quot;] -->
<g id="edge15" class="edge">
<title>[root] openstack_networking_network_v2.private_1 (expand)&#45;&gt;[root] provider[&quot;registry.terraform.io/terraform&#45;provider&#45;openstack/openstack&quot;]</title>
<path fill="none" stroke="black" d="M941.23,-71.52C865.69,-60 767.77,-45.06 695.67,-34.07"/>
<polygon fill="black" stroke="black" points="696.64,-30.52 686.23,-32.47 695.58,-37.44 696.64,-30.52"/>
</g>
<!-- [root] openstack_networking_port_v2.http (expand)&#45;&gt;[root] openstack_compute_secgroup_v2.custom_port (expand) -->
<g id="edge16" class="edge">
<title>[root] openstack_networking_port_v2.http (expand)&#45;&gt;[root] openstack_compute_secgroup_v2.custom_port (expand)</title>
<path fill="none" stroke="black" d="M589.42,-215.52C563.59,-206 531.45,-194.16 504.22,-184.13"/>
<polygon fill="black" stroke="black" points="505.65,-180.55 495.05,-180.38 503.23,-187.12 505.65,-180.55"/>
</g>
<!-- [root] openstack_networking_port_v2.http (expand)&#45;&gt;[root] openstack_compute_secgroup_v2.http (expand) -->
<g id="edge17" class="edge">
<title>[root] openstack_networking_port_v2.http (expand)&#45;&gt;[root] openstack_compute_secgroup_v2.http (expand)</title>
<path fill="none" stroke="black" d="M633.62,-215.7C629.07,-195.94 619,-163.79 598.88,-144 585.02,-130.37 567.19,-120.09 549.19,-112.4"/>
<polygon fill="black" stroke="black" points="550.79,-108.86 540.21,-108.38 548.18,-115.36 550.79,-108.86"/>
</g>
<!-- [root] openstack_networking_port_v2.http (expand)&#45;&gt;[root] openstack_compute_secgroup_v2.icmp (expand) -->
<g id="edge18" class="edge">
<title>[root] openstack_networking_port_v2.http (expand)&#45;&gt;[root] openstack_compute_secgroup_v2.icmp (expand)</title>
<path fill="none" stroke="black" d="M642.22,-215.71C648.43,-197.09 659.78,-167.05 674.88,-144 681.39,-134.06 689.86,-124.27 697.97,-115.87"/>
<polygon fill="black" stroke="black" points="699.96,-118.82 704.56,-109.28 695.01,-113.87 699.96,-118.82"/>
</g>
<!-- [root] openstack_networking_port_v2.http (expand)&#45;&gt;[root] openstack_compute_secgroup_v2.ssh (expand) -->
<g id="edge19" class="edge">
<title>[root] openstack_networking_port_v2.http (expand)&#45;&gt;[root] openstack_compute_secgroup_v2.ssh (expand)</title>
<path fill="none" stroke="black" d="M677.59,-215.52C699.35,-206.17 726.35,-194.57 749.44,-184.66"/>
<polygon fill="black" stroke="black" points="750.59,-187.54 758.4,-180.38 747.83,-181.11 750.59,-187.54"/>
</g>
<!-- [root] openstack_networking_subnet_v2.subnet_1 (expand) -->
<g id="node15" class="node">
<title>[root] openstack_networking_subnet_v2.subnet_1 (expand)</title>
<polygon fill="none" stroke="black" points="1195.88,-180 933.88,-180 933.88,-144 1195.88,-144 1195.88,-180"/>
<text text-anchor="middle" x="1064.88" y="-156.57" font-family="Times New Roman,serif" font-size="14.00">openstack_networking_subnet_v2.subnet_1</text>
</g>
<!-- [root] openstack_networking_port_v2.http (expand)&#45;&gt;[root] openstack_networking_subnet_v2.subnet_1 (expand) -->
<g id="edge20" class="edge">
<title>[root] openstack_networking_port_v2.http (expand)&#45;&gt;[root] openstack_networking_subnet_v2.subnet_1 (expand)</title>
<path fill="none" stroke="black" d="M743.77,-215.52C805.81,-205.37 884.02,-192.58 947.73,-182.16"/>
<polygon fill="black" stroke="black" points="947.92,-185.51 957.23,-180.44 946.79,-178.6 947.92,-185.51"/>
</g>
<!-- [root] openstack_networking_router_interface_v2.interface_1 (expand) -->
<g id="node13" class="node">
<title>[root] openstack_networking_router_interface_v2.interface_1 (expand)</title>
<polygon fill="none" stroke="black" points="1226.62,-252 903.12,-252 903.12,-216 1226.62,-216 1226.62,-252"/>
<text text-anchor="middle" x="1064.88" y="-228.57" font-family="Times New Roman,serif" font-size="14.00">openstack_networking_router_interface_v2.interface_1</text>
</g>
<!-- [root] openstack_networking_router_v2.router_1 (expand) -->
<g id="node14" class="node">
<title>[root] openstack_networking_router_v2.router_1 (expand)</title>
<polygon fill="none" stroke="black" points="1468.12,-180 1213.62,-180 1213.62,-144 1468.12,-144 1468.12,-180"/>
<text text-anchor="middle" x="1340.88" y="-156.57" font-family="Times New Roman,serif" font-size="14.00">openstack_networking_router_v2.router_1</text>
</g>
<!-- [root] openstack_networking_router_interface_v2.interface_1 (expand)&#45;&gt;[root] openstack_networking_router_v2.router_1 (expand) -->
<g id="edge21" class="edge">
<title>[root] openstack_networking_router_interface_v2.interface_1 (expand)&#45;&gt;[root] openstack_networking_router_v2.router_1 (expand)</title>
<path fill="none" stroke="black" d="M1133.81,-215.52C1172.65,-205.67 1221.33,-193.32 1261.72,-183.07"/>
<polygon fill="black" stroke="black" points="1262.51,-186.23 1271.34,-180.38 1260.79,-179.45 1262.51,-186.23"/>
</g>
<!-- [root] openstack_networking_router_interface_v2.interface_1 (expand)&#45;&gt;[root] openstack_networking_subnet_v2.subnet_1 (expand) -->
<g id="edge22" class="edge">
<title>[root] openstack_networking_router_interface_v2.interface_1 (expand)&#45;&gt;[root] openstack_networking_subnet_v2.subnet_1 (expand)</title>
<path fill="none" stroke="black" d="M1064.88,-215.7C1064.88,-208.24 1064.88,-199.32 1064.88,-190.97"/>
<polygon fill="black" stroke="black" points="1068.38,-191.1 1064.88,-181.1 1061.38,-191.1 1068.38,-191.1"/>
</g>
<!-- [root] openstack_networking_router_v2.router_1 (expand)&#45;&gt;[root] provider[&quot;registry.terraform.io/terraform&#45;provider&#45;openstack/openstack&quot;] -->
<g id="edge23" class="edge">
<title>[root] openstack_networking_router_v2.router_1 (expand)&#45;&gt;[root] provider[&quot;registry.terraform.io/terraform&#45;provider&#45;openstack/openstack&quot;]</title>
<path fill="none" stroke="black" d="M1320.7,-143.68C1294.86,-122.61 1247.79,-87.91 1200.88,-72 1132.01,-48.65 961.53,-35.07 819.2,-27.51"/>
<polygon fill="black" stroke="black" points="819.73,-23.98 809.56,-26.95 819.37,-30.97 819.73,-23.98"/>
</g>
<!-- [root] openstack_networking_subnet_v2.subnet_1 (expand)&#45;&gt;[root] openstack_networking_network_v2.private_1 (expand) -->
<g id="edge24" class="edge">
<title>[root] openstack_networking_subnet_v2.subnet_1 (expand)&#45;&gt;[root] openstack_networking_network_v2.private_1 (expand)</title>
<path fill="none" stroke="black" d="M1062.65,-143.7C1061.69,-136.24 1060.54,-127.32 1059.47,-118.97"/>
<polygon fill="black" stroke="black" points="1062.82,-118.58 1058.07,-109.1 1055.88,-119.47 1062.82,-118.58"/>
</g>
<!-- [root] provider[&quot;registry.terraform.io/terraform&#45;provider&#45;openstack/openstack&quot;] (close) -->
<g id="node17" class="node">
<title>[root] provider[&quot;registry.terraform.io/terraform&#45;provider&#45;openstack/openstack&quot;] (close)</title>
<ellipse fill="none" stroke="black" cx="765.88" cy="-450" rx="334.49" ry="18"/>
<text text-anchor="middle" x="765.88" y="-444.57" font-family="Times New Roman,serif" font-size="14.00">[root] provider[&quot;registry.terraform.io/terraform&#45;provider&#45;openstack/openstack&quot;] (close)</text>
</g>
<!-- [root] provider[&quot;registry.terraform.io/terraform&#45;provider&#45;openstack/openstack&quot;] (close)&#45;&gt;[root] openstack_compute_floatingip_associate_v2.http (expand) -->
<g id="edge25" class="edge">
<title>[root] provider[&quot;registry.terraform.io/terraform&#45;provider&#45;openstack/openstack&quot;] (close)&#45;&gt;[root] openstack_compute_floatingip_associate_v2.http (expand)</title>
<path fill="none" stroke="black" d="M657.5,-432.54C589.52,-422.22 501.63,-408.88 430.59,-398.09"/>
<polygon fill="black" stroke="black" points="431.2,-394.49 420.79,-396.45 430.15,-401.41 431.2,-394.49"/>
</g>
<!-- [root] provider[&quot;registry.terraform.io/terraform&#45;provider&#45;openstack/openstack&quot;] (close)&#45;&gt;[root] openstack_compute_instance_v2.instance_2 (expand) -->
<g id="edge26" class="edge">
<title>[root] provider[&quot;registry.terraform.io/terraform&#45;provider&#45;openstack/openstack&quot;] (close)&#45;&gt;[root] openstack_compute_instance_v2.instance_2 (expand)</title>
<path fill="none" stroke="black" d="M779,-431.59C797.63,-406.86 831.88,-361.41 853.46,-332.77"/>
<polygon fill="black" stroke="black" points="856.76,-335.2 859.98,-325.11 851.17,-330.99 856.76,-335.2"/>
</g>
<!-- [root] provider[&quot;registry.terraform.io/terraform&#45;provider&#45;openstack/openstack&quot;] (close)&#45;&gt;[root] openstack_compute_instance_v2.instance_3 (expand) -->
<g id="edge27" class="edge">
<title>[root] provider[&quot;registry.terraform.io/terraform&#45;provider&#45;openstack/openstack&quot;] (close)&#45;&gt;[root] openstack_compute_instance_v2.instance_3 (expand)</title>
<path fill="none" stroke="black" d="M744.17,-431.59C712.77,-406.4 654.54,-359.68 619,-331.17"/>
<polygon fill="black" stroke="black" points="621.47,-327.86 611.48,-324.33 617.09,-333.32 621.47,-327.86"/>
</g>
<!-- [root] provider[&quot;registry.terraform.io/terraform&#45;provider&#45;openstack/openstack&quot;] (close)&#45;&gt;[root] openstack_networking_router_interface_v2.interface_1 (expand) -->
<g id="edge28" class="edge">
<title>[root] provider[&quot;registry.terraform.io/terraform&#45;provider&#45;openstack/openstack&quot;] (close)&#45;&gt;[root] openstack_networking_router_interface_v2.interface_1 (expand)</title>
<path fill="none" stroke="black" d="M821.55,-431.81C876.14,-412.68 959.06,-377.27 1014.88,-324 1032.94,-306.76 1046.27,-281.53 1054.6,-262.34"/>
<polygon fill="black" stroke="black" points="1058.13,-263.96 1058.71,-253.38 1051.66,-261.29 1058.13,-263.96"/>
</g>
<!-- [root] root -->
<g id="node18" class="node">
<title>[root] root</title>
<ellipse fill="none" stroke="black" cx="765.88" cy="-522" rx="50.07" ry="18"/>
<text text-anchor="middle" x="765.88" y="-516.58" font-family="Times New Roman,serif" font-size="14.00">[root] root</text>
</g>
<!-- [root] root&#45;&gt;[root] provider[&quot;registry.terraform.io/terraform&#45;provider&#45;openstack/openstack&quot;] (close) -->
<g id="edge29" class="edge">
<title>[root] root&#45;&gt;[root] provider[&quot;registry.terraform.io/terraform&#45;provider&#45;openstack/openstack&quot;] (close)</title>
<path fill="none" stroke="black" d="M765.88,-503.7C765.88,-496.24 765.88,-487.32 765.88,-478.97"/>
<polygon fill="black" stroke="black" points="769.38,-479.1 765.88,-469.1 762.38,-479.1 769.38,-479.1"/>
</g>
</g>
</svg>
