<?xml version="1.0" encoding="UTF-8" standalone="no"?>
<!DOCTYPE svg PUBLIC "-//W3C//DTD SVG 1.1//EN"
 "http://www.w3.org/Graphics/SVG/1.1/DTD/svg11.dtd">
<!-- Generated by graphviz version 8.0.3 (20230416.2022)
 -->
<!-- Pages: 1 -->
<svg width="1810pt" height="548pt"
 viewBox="0.00 0.00 1809.50 548.00" xmlns="http://www.w3.org/2000/svg" xmlns:xlink="http://www.w3.org/1999/xlink">
<g id="graph0" class="graph" transform="scale(1 1) rotate(0) translate(4 544)">
<polygon fill="white" stroke="none" points="-4,4 -4,-544 1805.5,-544 1805.5,4 -4,4"/>
<!-- [root] openstack_compute_floatingip_associate_v2.http (expand) -->
<g id="node1" class="node">
<title>[root] openstack_compute_floatingip_associate_v2.http (expand)</title>
<polygon fill="none" stroke="black" points="675,-396 381,-396 381,-360 675,-360 675,-396"/>
<text text-anchor="middle" x="528" y="-374.3" font-family="Times New Roman,serif" font-size="14.00">openstack_compute_floatingip_associate_v2.http</text>
</g>
<!-- [root] openstack_compute_instance_v2.instance_1 (expand) -->
<g id="node2" class="node">
<title>[root] openstack_compute_instance_v2.instance_1 (expand)</title>
<polygon fill="none" stroke="black" points="661,-324 395,-324 395,-288 661,-288 661,-324"/>
<text text-anchor="middle" x="528" y="-302.3" font-family="Times New Roman,serif" font-size="14.00">openstack_compute_instance_v2.instance_1</text>
</g>
<!-- [root] openstack_compute_floatingip_associate_v2.http (expand)&#45;&gt;[root] openstack_compute_instance_v2.instance_1 (expand) -->
<g id="edge1" class="edge">
<title>[root] openstack_compute_floatingip_associate_v2.http (expand)&#45;&gt;[root] openstack_compute_instance_v2.instance_1 (expand)</title>
<path fill="none" stroke="black" d="M528,-359.7C528,-352.24 528,-343.32 528,-334.97"/>
<polygon fill="black" stroke="black" points="531.5,-335.1 528,-325.1 524.5,-335.1 531.5,-335.1"/>
</g>
<!-- [root] openstack_networking_floatingip_v2.http (expand) -->
<g id="node10" class="node">
<title>[root] openstack_networking_floatingip_v2.http (expand)</title>
<polygon fill="none" stroke="black" points="248,-108 0,-108 0,-72 248,-72 248,-108"/>
<text text-anchor="middle" x="124" y="-86.3" font-family="Times New Roman,serif" font-size="14.00">openstack_networking_floatingip_v2.http</text>
</g>
<!-- [root] openstack_compute_floatingip_associate_v2.http (expand)&#45;&gt;[root] openstack_networking_floatingip_v2.http (expand) -->
<g id="edge2" class="edge">
<title>[root] openstack_compute_floatingip_associate_v2.http (expand)&#45;&gt;[root] openstack_networking_floatingip_v2.http (expand)</title>
<path fill="none" stroke="black" d="M466.32,-359.52C440.5,-350.82 410.8,-338.93 386,-324 286.1,-263.84 189,-163.24 146.45,-116.41"/>
<polygon fill="black" stroke="black" points="149.44,-114.4 140.15,-109.32 144.24,-119.09 149.44,-114.4"/>
</g>
<!-- [root] openstack_images_image_v2.ubuntu1404 (expand) -->
<g id="node9" class="node">
<title>[root] openstack_images_image_v2.ubuntu1404 (expand)</title>
<polygon fill="none" stroke="black" points="515.5,-108 266.5,-108 266.5,-72 515.5,-72 515.5,-108"/>
<text text-anchor="middle" x="391" y="-86.3" font-family="Times New Roman,serif" font-size="14.00">openstack_images_image_v2.ubuntu1404</text>
</g>
<!-- [root] openstack_compute_instance_v2.instance_1 (expand)&#45;&gt;[root] openstack_images_image_v2.ubuntu1404 (expand) -->
<g id="edge3" class="edge">
<title>[root] openstack_compute_instance_v2.instance_1 (expand)&#45;&gt;[root] openstack_images_image_v2.ubuntu1404 (expand)</title>
<path fill="none" stroke="black" d="M506.28,-287.5C480.16,-265.27 436.87,-224.42 413,-180 402.82,-161.05 397.25,-137.3 394.27,-119.1"/>
<polygon fill="black" stroke="black" points="397.6,-118.7 392.69,-109.31 390.68,-119.71 397.6,-118.7"/>
</g>
<!-- [root] openstack_networking_port_v2.http (expand) -->
<g id="node12" class="node">
<title>[root] openstack_networking_port_v2.http (expand)</title>
<polygon fill="none" stroke="black" points="950,-252 730,-252 730,-216 950,-216 950,-252"/>
<text text-anchor="middle" x="840" y="-230.3" font-family="Times New Roman,serif" font-size="14.00">openstack_networking_port_v2.http</text>
</g>
<!-- [root] openstack_compute_instance_v2.instance_1 (expand)&#45;&gt;[root] openstack_networking_port_v2.http (expand) -->
<g id="edge4" class="edge">
<title>[root] openstack_compute_instance_v2.instance_1 (expand)&#45;&gt;[root] openstack_networking_port_v2.http (expand)</title>
<path fill="none" stroke="black" d="M605.93,-287.52C650.22,-277.58 705.82,-265.1 751.72,-254.81"/>
<polygon fill="black" stroke="black" points="752.27,-258.05 761.26,-252.44 750.73,-251.22 752.27,-258.05"/>
</g>
<!-- [root] openstack_compute_instance_v2.instance_2 (expand) -->
<g id="node3" class="node">
<title>[root] openstack_compute_instance_v2.instance_2 (expand)</title>
<polygon fill="none" stroke="black" points="973,-396 707,-396 707,-360 973,-360 973,-396"/>
<text text-anchor="middle" x="840" y="-374.3" font-family="Times New Roman,serif" font-size="14.00">openstack_compute_instance_v2.instance_2</text>
</g>
<!-- [root] openstack_compute_instance_v2.instance_2 (expand)&#45;&gt;[root] openstack_networking_port_v2.http (expand) -->
<g id="edge5" class="edge">
<title>[root] openstack_compute_instance_v2.instance_2 (expand)&#45;&gt;[root] openstack_networking_port_v2.http (expand)</title>
<path fill="none" stroke="black" d="M840,-359.59C840,-335.5 840,-291.75 840,-263.03"/>
<polygon fill="black" stroke="black" points="843.5,-263.11 840,-253.11 836.5,-263.11 843.5,-263.11"/>
</g>
<!-- [root] openstack_compute_secgroup_v2.custom_port (expand) -->
<g id="node4" class="node">
<title>[root] openstack_compute_secgroup_v2.custom_port (expand)</title>
<polygon fill="none" stroke="black" points="858,-108 572,-108 572,-72 858,-72 858,-108"/>
<text text-anchor="middle" x="715" y="-86.3" font-family="Times New Roman,serif" font-size="14.00">openstack_compute_secgroup_v2.custom_port</text>
</g>
<!-- [root] provider[&quot;registry.terraform.io/terraform&#45;provider&#45;openstack/openstack&quot;] -->
<g id="node16" class="node">
<title>[root] provider[&quot;registry.terraform.io/terraform&#45;provider&#45;openstack/openstack&quot;]</title>
<polygon fill="none" stroke="black" points="886,-36 495.22,-18 886,0 1276.78,-18 886,-36"/>
<text text-anchor="middle" x="886" y="-14.3" font-family="Times New Roman,serif" font-size="14.00">provider[&quot;registry.terraform.io/terraform&#45;provider&#45;openstack/openstack&quot;]</text>
</g>
<!-- [root] openstack_compute_secgroup_v2.custom_port (expand)&#45;&gt;[root] provider[&quot;registry.terraform.io/terraform&#45;provider&#45;openstack/openstack&quot;] -->
<g id="edge6" class="edge">
<title>[root] openstack_compute_secgroup_v2.custom_port (expand)&#45;&gt;[root] provider[&quot;registry.terraform.io/terraform&#45;provider&#45;openstack/openstack&quot;]</title>
<path fill="none" stroke="black" d="M757.71,-71.52C781.97,-61.59 812.42,-49.12 837.56,-38.83"/>
<polygon fill="black" stroke="black" points="838.69,-41.74 846.62,-34.71 836.04,-35.26 838.69,-41.74"/>
</g>
<!-- [root] openstack_compute_secgroup_v2.http (expand) -->
<g id="node5" class="node">
<title>[root] openstack_compute_secgroup_v2.http (expand)</title>
<polygon fill="none" stroke="black" points="958,-180 722,-180 722,-144 958,-144 958,-180"/>
<text text-anchor="middle" x="840" y="-158.3" font-family="Times New Roman,serif" font-size="14.00">openstack_compute_secgroup_v2.http</text>
</g>
<!-- [root] openstack_compute_secgroup_v2.http (expand)&#45;&gt;[root] provider[&quot;registry.terraform.io/terraform&#45;provider&#45;openstack/openstack&quot;] -->
<g id="edge7" class="edge">
<title>[root] openstack_compute_secgroup_v2.http (expand)&#45;&gt;[root] provider[&quot;registry.terraform.io/terraform&#45;provider&#45;openstack/openstack&quot;]</title>
<path fill="none" stroke="black" d="M850.19,-143.84C855.83,-133.71 862.58,-120.46 867,-108 874.06,-88.09 878.93,-64.7 881.97,-46.89"/>
<polygon fill="black" stroke="black" points="885.57,-47.52 883.71,-37.09 878.66,-46.41 885.57,-47.52"/>
</g>
<!-- [root] openstack_compute_secgroup_v2.icmp (expand) -->
<g id="node6" class="node">
<title>[root] openstack_compute_secgroup_v2.icmp (expand)</title>
<polygon fill="none" stroke="black" points="1156,-108 914,-108 914,-72 1156,-72 1156,-108"/>
<text text-anchor="middle" x="1035" y="-86.3" font-family="Times New Roman,serif" font-size="14.00">openstack_compute_secgroup_v2.icmp</text>
</g>
<!-- [root] openstack_compute_secgroup_v2.icmp (expand)&#45;&gt;[root] provider[&quot;registry.terraform.io/terraform&#45;provider&#45;openstack/openstack&quot;] -->
<g id="edge8" class="edge">
<title>[root] openstack_compute_secgroup_v2.icmp (expand)&#45;&gt;[root] provider[&quot;registry.terraform.io/terraform&#45;provider&#45;openstack/openstack&quot;]</title>
<path fill="none" stroke="black" d="M997.79,-71.52C977.1,-61.8 951.24,-49.65 929.61,-39.49"/>
<polygon fill="black" stroke="black" points="931.23,-35.91 920.69,-34.83 928.25,-42.25 931.23,-35.91"/>
</g>
<!-- [root] openstack_compute_secgroup_v2.ssh (expand) -->
<g id="node7" class="node">
<title>[root] openstack_compute_secgroup_v2.ssh (expand)</title>
<polygon fill="none" stroke="black" points="1247.5,-180 1014.5,-180 1014.5,-144 1247.5,-144 1247.5,-180"/>
<text text-anchor="middle" x="1131" y="-158.3" font-family="Times New Roman,serif" font-size="14.00">openstack_compute_secgroup_v2.ssh</text>
</g>
<!-- [root] openstack_compute_secgroup_v2.ssh (expand)&#45;&gt;[root] provider[&quot;registry.terraform.io/terraform&#45;provider&#45;openstack/openstack&quot;] -->
<g id="edge9" class="edge">
<title>[root] openstack_compute_secgroup_v2.ssh (expand)&#45;&gt;[root] provider[&quot;registry.terraform.io/terraform&#45;provider&#45;openstack/openstack&quot;]</title>
<path fill="none" stroke="black" d="M1147.14,-143.58C1163.02,-124.29 1182.51,-93.15 1165,-72 1148.16,-51.66 1096.57,-39.06 1042.26,-31.29"/>
<polygon fill="black" stroke="black" points="1042.75,-27.69 1032.37,-29.8 1041.8,-34.62 1042.75,-27.69"/>
</g>
<!-- [root] openstack_compute_secgroup_v2.telnet (expand) -->
<g id="node8" class="node">
<title>[root] openstack_compute_secgroup_v2.telnet (expand)</title>
<polygon fill="none" stroke="black" points="665.5,-180 422.5,-180 422.5,-144 665.5,-144 665.5,-180"/>
<text text-anchor="middle" x="544" y="-158.3" font-family="Times New Roman,serif" font-size="14.00">openstack_compute_secgroup_v2.telnet</text>
</g>
<!-- [root] openstack_compute_secgroup_v2.telnet (expand)&#45;&gt;[root] provider[&quot;registry.terraform.io/terraform&#45;provider&#45;openstack/openstack&quot;] -->
<g id="edge10" class="edge">
<title>[root] openstack_compute_secgroup_v2.telnet (expand)&#45;&gt;[root] provider[&quot;registry.terraform.io/terraform&#45;provider&#45;openstack/openstack&quot;]</title>
<path fill="none" stroke="black" d="M542.4,-143.53C541.58,-123.31 543.67,-90.43 563,-72 585.5,-50.55 647.76,-37.75 711.7,-30.13"/>
<polygon fill="black" stroke="black" points="711.84,-33.52 721.38,-28.91 711.05,-26.57 711.84,-33.52"/>
</g>
<!-- [root] openstack_images_image_v2.ubuntu1404 (expand)&#45;&gt;[root] provider[&quot;registry.terraform.io/terraform&#45;provider&#45;openstack/openstack&quot;] -->
<g id="edge11" class="edge">
<title>[root] openstack_images_image_v2.ubuntu1404 (expand)&#45;&gt;[root] provider[&quot;registry.terraform.io/terraform&#45;provider&#45;openstack/openstack&quot;]</title>
<path fill="none" stroke="black" d="M514.63,-71.52C596.95,-59.88 703.91,-44.75 781.88,-33.72"/>
<polygon fill="black" stroke="black" points="782.28,-37.06 791.69,-32.2 781.3,-30.13 782.28,-37.06"/>
</g>
<!-- [root] openstack_networking_floatingip_v2.http (expand)&#45;&gt;[root] provider[&quot;registry.terraform.io/terraform&#45;provider&#45;openstack/openstack&quot;] -->
<g id="edge12" class="edge">
<title>[root] openstack_networking_floatingip_v2.http (expand)&#45;&gt;[root] provider[&quot;registry.terraform.io/terraform&#45;provider&#45;openstack/openstack&quot;]</title>
<path fill="none" stroke="black" d="M248.23,-72.95C251.18,-72.62 254.11,-72.31 257,-72 416.92,-55.05 600.19,-40.12 727.49,-30.46"/>
<polygon fill="black" stroke="black" points="727.38,-33.9 737.09,-29.66 726.85,-26.92 727.38,-33.9"/>
</g>
<!-- [root] openstack_networking_network_v2.private_1 (expand) -->
<g id="node11" class="node">
<title>[root] openstack_networking_network_v2.private_1 (expand)</title>
<polygon fill="none" stroke="black" points="1509,-108 1237,-108 1237,-72 1509,-72 1509,-108"/>
<text text-anchor="middle" x="1373" y="-86.3" font-family="Times New Roman,serif" font-size="14.00">openstack_networking_network_v2.private_1</text>
</g>
<!-- [root] openstack_networking_network_v2.private_1 (expand)&#45;&gt;[root] provider[&quot;registry.terraform.io/terraform&#45;provider&#45;openstack/openstack&quot;] -->
<g id="edge13" class="edge">
<title>[root] openstack_networking_network_v2.private_1 (expand)&#45;&gt;[root] provider[&quot;registry.terraform.io/terraform&#45;provider&#45;openstack/openstack&quot;]</title>
<path fill="none" stroke="black" d="M1251.37,-71.52C1170.51,-59.89 1065.5,-44.8 988.82,-33.78"/>
<polygon fill="black" stroke="black" points="989.59,-30.21 979.19,-32.25 988.59,-37.14 989.59,-30.21"/>
</g>
<!-- [root] openstack_networking_port_v2.http (expand)&#45;&gt;[root] openstack_compute_secgroup_v2.custom_port (expand) -->
<g id="edge14" class="edge">
<title>[root] openstack_networking_port_v2.http (expand)&#45;&gt;[root] openstack_compute_secgroup_v2.custom_port (expand)</title>
<path fill="none" stroke="black" d="M759.13,-215.57C741,-207.74 723.93,-196.4 713,-180 701.16,-162.24 702.68,-137.73 706.59,-118.93"/>
<polygon fill="black" stroke="black" points="710.2,-119.89 709.16,-109.35 703.4,-118.24 710.2,-119.89"/>
</g>
<!-- [root] openstack_networking_port_v2.http (expand)&#45;&gt;[root] openstack_compute_secgroup_v2.http (expand) -->
<g id="edge15" class="edge">
<title>[root] openstack_networking_port_v2.http (expand)&#45;&gt;[root] openstack_compute_secgroup_v2.http (expand)</title>
<path fill="none" stroke="black" d="M840,-215.7C840,-208.24 840,-199.32 840,-190.97"/>
<polygon fill="black" stroke="black" points="843.5,-191.1 840,-181.1 836.5,-191.1 843.5,-191.1"/>
</g>
<!-- [root] openstack_networking_port_v2.http (expand)&#45;&gt;[root] openstack_compute_secgroup_v2.icmp (expand) -->
<g id="edge16" class="edge">
<title>[root] openstack_networking_port_v2.http (expand)&#45;&gt;[root] openstack_compute_secgroup_v2.icmp (expand)</title>
<path fill="none" stroke="black" d="M899.37,-215.54C921.96,-207.1 947.04,-195.39 967,-180 989.13,-162.94 1007.85,-136.98 1020,-117.5"/>
<polygon fill="black" stroke="black" points="1023.41,-119.62 1025.59,-109.25 1017.42,-116 1023.41,-119.62"/>
</g>
<!-- [root] openstack_networking_port_v2.http (expand)&#45;&gt;[root] openstack_compute_secgroup_v2.ssh (expand) -->
<g id="edge17" class="edge">
<title>[root] openstack_networking_port_v2.http (expand)&#45;&gt;[root] openstack_compute_secgroup_v2.ssh (expand)</title>
<path fill="none" stroke="black" d="M912.68,-215.52C953.73,-205.64 1005.2,-193.26 1047.85,-183"/>
<polygon fill="black" stroke="black" points="1048.59,-186.18 1057.49,-180.44 1046.95,-179.38 1048.59,-186.18"/>
</g>
<!-- [root] openstack_networking_port_v2.http (expand)&#45;&gt;[root] openstack_compute_secgroup_v2.telnet (expand) -->
<g id="edge18" class="edge">
<title>[root] openstack_networking_port_v2.http (expand)&#45;&gt;[root] openstack_compute_secgroup_v2.telnet (expand)</title>
<path fill="none" stroke="black" d="M766.07,-215.52C724.23,-205.62 671.74,-193.21 628.31,-182.94"/>
<polygon fill="black" stroke="black" points="629.29,-179.34 618.76,-180.44 627.68,-186.15 629.29,-179.34"/>
</g>
<!-- [root] openstack_networking_subnet_v2.subnet_1 (expand) -->
<g id="node15" class="node">
<title>[root] openstack_networking_subnet_v2.subnet_1 (expand)</title>
<polygon fill="none" stroke="black" points="1528.5,-180 1265.5,-180 1265.5,-144 1528.5,-144 1528.5,-180"/>
<text text-anchor="middle" x="1397" y="-158.3" font-family="Times New Roman,serif" font-size="14.00">openstack_networking_subnet_v2.subnet_1</text>
</g>
<!-- [root] openstack_networking_port_v2.http (expand)&#45;&gt;[root] openstack_networking_subnet_v2.subnet_1 (expand) -->
<g id="edge19" class="edge">
<title>[root] openstack_networking_port_v2.http (expand)&#45;&gt;[root] openstack_networking_subnet_v2.subnet_1 (expand)</title>
<path fill="none" stroke="black" d="M950.38,-219.13C1037.49,-208.18 1159.67,-192.83 1254.22,-180.94"/>
<polygon fill="black" stroke="black" points="1254.54,-184.31 1264.03,-179.59 1253.67,-177.36 1254.54,-184.31"/>
</g>
<!-- [root] openstack_networking_router_interface_v2.interface_1 (expand) -->
<g id="node13" class="node">
<title>[root] openstack_networking_router_interface_v2.interface_1 (expand)</title>
<polygon fill="none" stroke="black" points="1559,-252 1235,-252 1235,-216 1559,-216 1559,-252"/>
<text text-anchor="middle" x="1397" y="-230.3" font-family="Times New Roman,serif" font-size="14.00">openstack_networking_router_interface_v2.interface_1</text>
</g>
<!-- [root] openstack_networking_router_v2.router_1 (expand) -->
<g id="node14" class="node">
<title>[root] openstack_networking_router_v2.router_1 (expand)</title>
<polygon fill="none" stroke="black" points="1801.5,-180 1546.5,-180 1546.5,-144 1801.5,-144 1801.5,-180"/>
<text text-anchor="middle" x="1674" y="-158.3" font-family="Times New Roman,serif" font-size="14.00">openstack_networking_router_v2.router_1</text>
</g>
<!-- [root] openstack_networking_router_interface_v2.interface_1 (expand)&#45;&gt;[root] openstack_networking_router_v2.router_1 (expand) -->
<g id="edge20" class="edge">
<title>[root] openstack_networking_router_interface_v2.interface_1 (expand)&#45;&gt;[root] openstack_networking_router_v2.router_1 (expand)</title>
<path fill="none" stroke="black" d="M1466.18,-215.52C1505.17,-205.67 1554.02,-193.32 1594.56,-183.07"/>
<polygon fill="black" stroke="black" points="1595.38,-186.23 1604.22,-180.38 1593.67,-179.44 1595.38,-186.23"/>
</g>
<!-- [root] openstack_networking_router_interface_v2.interface_1 (expand)&#45;&gt;[root] openstack_networking_subnet_v2.subnet_1 (expand) -->
<g id="edge21" class="edge">
<title>[root] openstack_networking_router_interface_v2.interface_1 (expand)&#45;&gt;[root] openstack_networking_subnet_v2.subnet_1 (expand)</title>
<path fill="none" stroke="black" d="M1397,-215.7C1397,-208.24 1397,-199.32 1397,-190.97"/>
<polygon fill="black" stroke="black" points="1400.5,-191.1 1397,-181.1 1393.5,-191.1 1400.5,-191.1"/>
</g>
<!-- [root] openstack_networking_router_v2.router_1 (expand)&#45;&gt;[root] provider[&quot;registry.terraform.io/terraform&#45;provider&#45;openstack/openstack&quot;] -->
<g id="edge22" class="edge">
<title>[root] openstack_networking_router_v2.router_1 (expand)&#45;&gt;[root] provider[&quot;registry.terraform.io/terraform&#45;provider&#45;openstack/openstack&quot;]</title>
<path fill="none" stroke="black" d="M1651.18,-143.68C1622.03,-122.61 1569.22,-87.9 1518,-72 1443.36,-48.82 1257.14,-35.05 1106.05,-27.38"/>
<polygon fill="black" stroke="black" points="1106.4,-23.85 1096.23,-26.84 1106.05,-30.84 1106.4,-23.85"/>
</g>
<!-- [root] openstack_networking_subnet_v2.subnet_1 (expand)&#45;&gt;[root] openstack_networking_network_v2.private_1 (expand) -->
<g id="edge23" class="edge">
<title>[root] openstack_networking_subnet_v2.subnet_1 (expand)&#45;&gt;[root] openstack_networking_network_v2.private_1 (expand)</title>
<path fill="none" stroke="black" d="M1391.07,-143.7C1388.45,-136.07 1385.31,-126.92 1382.39,-118.4"/>
<polygon fill="black" stroke="black" points="1385.42,-117.43 1378.86,-109.1 1378.8,-119.7 1385.42,-117.43"/>
</g>
<!-- [root] provider[&quot;registry.terraform.io/terraform&#45;provider&#45;openstack/openstack&quot;] (close) -->
<g id="node17" class="node">
<title>[root] provider[&quot;registry.terraform.io/terraform&#45;provider&#45;openstack/openstack&quot;] (close)</title>
<ellipse fill="none" stroke="black" cx="840" cy="-450" rx="326.84" ry="18"/>
<text text-anchor="middle" x="840" y="-446.3" font-family="Times New Roman,serif" font-size="14.00">[root] provider[&quot;registry.terraform.io/terraform&#45;provider&#45;openstack/openstack&quot;] (close)</text>
</g>
<!-- [root] provider[&quot;registry.terraform.io/terraform&#45;provider&#45;openstack/openstack&quot;] (close)&#45;&gt;[root] openstack_compute_floatingip_associate_v2.http (expand) -->
<g id="edge24" class="edge">
<title>[root] provider[&quot;registry.terraform.io/terraform&#45;provider&#45;openstack/openstack&quot;] (close)&#45;&gt;[root] openstack_compute_floatingip_associate_v2.http (expand)</title>
<path fill="none" stroke="black" d="M764.47,-432.05C719.88,-422.05 663.22,-409.34 616.53,-398.86"/>
<polygon fill="black" stroke="black" points="617.34,-395.23 606.82,-396.46 615.81,-402.06 617.34,-395.23"/>
</g>
<!-- [root] provider[&quot;registry.terraform.io/terraform&#45;provider&#45;openstack/openstack&quot;] (close)&#45;&gt;[root] openstack_compute_instance_v2.instance_2 (expand) -->
<g id="edge25" class="edge">
<title>[root] provider[&quot;registry.terraform.io/terraform&#45;provider&#45;openstack/openstack&quot;] (close)&#45;&gt;[root] openstack_compute_instance_v2.instance_2 (expand)</title>
<path fill="none" stroke="black" d="M840,-431.7C840,-424.24 840,-415.32 840,-406.97"/>
<polygon fill="black" stroke="black" points="843.5,-407.1 840,-397.1 836.5,-407.1 843.5,-407.1"/>
</g>
<!-- [root] provider[&quot;registry.terraform.io/terraform&#45;provider&#45;openstack/openstack&quot;] (close)&#45;&gt;[root] openstack_networking_router_interface_v2.interface_1 (expand) -->
<g id="edge26" class="edge">
<title>[root] provider[&quot;registry.terraform.io/terraform&#45;provider&#45;openstack/openstack&quot;] (close)&#45;&gt;[root] openstack_networking_router_interface_v2.interface_1 (expand)</title>
<path fill="none" stroke="black" d="M886.74,-431.73C914.47,-421.44 950.27,-408.07 982,-396 1111.43,-346.74 1263.02,-287.55 1342.31,-256.47"/>
<polygon fill="black" stroke="black" points="1343.51,-259.37 1351.55,-252.46 1340.96,-252.85 1343.51,-259.37"/>
</g>
<!-- [root] root -->
<g id="node18" class="node">
<title>[root] root</title>
<ellipse fill="none" stroke="black" cx="840" cy="-522" rx="49.29" ry="18"/>
<text text-anchor="middle" x="840" y="-518.3" font-family="Times New Roman,serif" font-size="14.00">[root] root</text>
</g>
<!-- [root] root&#45;&gt;[root] provider[&quot;registry.terraform.io/terraform&#45;provider&#45;openstack/openstack&quot;] (close) -->
<g id="edge27" class="edge">
<title>[root] root&#45;&gt;[root] provider[&quot;registry.terraform.io/terraform&#45;provider&#45;openstack/openstack&quot;] (close)</title>
<path fill="none" stroke="black" d="M840,-503.7C840,-496.24 840,-487.32 840,-478.97"/>
<polygon fill="black" stroke="black" points="843.5,-479.1 840,-469.1 836.5,-479.1 843.5,-479.1"/>
</g>
</g>
</svg>
