<?xml version="1.0" encoding="UTF-8" standalone="no"?>
<!DOCTYPE svg PUBLIC "-//W3C//DTD SVG 1.1//EN"
 "http://www.w3.org/Graphics/SVG/1.1/DTD/svg11.dtd">
<!-- Generated by graphviz version 8.0.5 (20230430.1635)
 -->
<!-- Pages: 1 -->
<svg width="1480pt" height="548pt"
 viewBox="0.00 0.00 1480.38 548.00" xmlns="http://www.w3.org/2000/svg" xmlns:xlink="http://www.w3.org/1999/xlink">
<g id="graph0" class="graph" transform="scale(1 1) rotate(0) translate(4 544)">
<polygon fill="white" stroke="none" points="-4,4 -4,-544 1476.38,-544 1476.38,4 -4,4"/>
<!-- [root] openstack_compute_floatingip_associate_v2.http (expand) -->
<g id="node1" class="node">
<title>[root] openstack_compute_floatingip_associate_v2.http (expand)</title>
<polygon fill="none" stroke="black" points="530.62,-396 237.12,-396 237.12,-360 530.62,-360 530.62,-396"/>
<text text-anchor="middle" x="383.88" y="-372.57" font-family="Times New Roman,serif" font-size="14.00">openstack_compute_floatingip_associate_v2.http</text>
</g>
<!-- [root] openstack_compute_instance_v2.instance_1 (expand) -->
<g id="node2" class="node">
<title>[root] openstack_compute_instance_v2.instance_1 (expand)</title>
<polygon fill="none" stroke="black" points="516.75,-324 251,-324 251,-288 516.75,-288 516.75,-324"/>
<text text-anchor="middle" x="383.88" y="-300.57" font-family="Times New Roman,serif" font-size="14.00">openstack_compute_instance_v2.instance_1</text>
</g>
<!-- [root] openstack_compute_floatingip_associate_v2.http (expand)&#45;&gt;[root] openstack_compute_instance_v2.instance_1 (expand) -->
<g id="edge1" class="edge">
<title>[root] openstack_compute_floatingip_associate_v2.http (expand)&#45;&gt;[root] openstack_compute_instance_v2.instance_1 (expand)</title>
<path fill="none" stroke="black" d="M383.88,-359.7C383.88,-352.24 383.88,-343.32 383.88,-334.97"/>
<polygon fill="black" stroke="black" points="387.38,-335.1 383.88,-325.1 380.38,-335.1 387.38,-335.1"/>
</g>
<!-- [root] openstack_networking_floatingip_v2.http (expand) -->
<g id="node9" class="node">
<title>[root] openstack_networking_floatingip_v2.http (expand)</title>
<polygon fill="none" stroke="black" points="247.75,-108 0,-108 0,-72 247.75,-72 247.75,-108"/>
<text text-anchor="middle" x="123.88" y="-84.58" font-family="Times New Roman,serif" font-size="14.00">openstack_networking_floatingip_v2.http</text>
</g>
<!-- [root] openstack_compute_floatingip_associate_v2.http (expand)&#45;&gt;[root] openstack_networking_floatingip_v2.http (expand) -->
<g id="edge2" class="edge">
<title>[root] openstack_compute_floatingip_associate_v2.http (expand)&#45;&gt;[root] openstack_networking_floatingip_v2.http (expand)</title>
<path fill="none" stroke="black" d="M306.3,-359.61C283.59,-351.64 260.02,-340.22 241.88,-324 178.04,-266.92 144.17,-167.25 130.79,-118.89"/>
<polygon fill="black" stroke="black" points="133.93,-118.06 127.97,-109.3 127.17,-119.87 133.93,-118.06"/>
</g>
<!-- [root] openstack_images_image_v2.ubuntu1404 (expand) -->
<g id="node8" class="node">
<title>[root] openstack_images_image_v2.ubuntu1404 (expand)</title>
<polygon fill="none" stroke="black" points="508.12,-252 259.62,-252 259.62,-216 508.12,-216 508.12,-252"/>
<text text-anchor="middle" x="383.88" y="-228.57" font-family="Times New Roman,serif" font-size="14.00">openstack_images_image_v2.ubuntu1404</text>
</g>
<!-- [root] openstack_compute_instance_v2.instance_1 (expand)&#45;&gt;[root] openstack_images_image_v2.ubuntu1404 (expand) -->
<g id="edge3" class="edge">
<title>[root] openstack_compute_instance_v2.instance_1 (expand)&#45;&gt;[root] openstack_images_image_v2.ubuntu1404 (expand)</title>
<path fill="none" stroke="black" d="M383.88,-287.7C383.88,-280.24 383.88,-271.32 383.88,-262.97"/>
<polygon fill="black" stroke="black" points="387.38,-263.1 383.88,-253.1 380.38,-263.1 387.38,-263.1"/>
</g>
<!-- [root] openstack_networking_port_v2.http (expand) -->
<g id="node11" class="node">
<title>[root] openstack_networking_port_v2.http (expand)</title>
<polygon fill="none" stroke="black" points="761.5,-252 542.25,-252 542.25,-216 761.5,-216 761.5,-252"/>
<text text-anchor="middle" x="651.88" y="-228.57" font-family="Times New Roman,serif" font-size="14.00">openstack_networking_port_v2.http</text>
</g>
<!-- [root] openstack_compute_instance_v2.instance_1 (expand)&#45;&gt;[root] openstack_networking_port_v2.http (expand) -->
<g id="edge4" class="edge">
<title>[root] openstack_compute_instance_v2.instance_1 (expand)&#45;&gt;[root] openstack_networking_port_v2.http (expand)</title>
<path fill="none" stroke="black" d="M450.81,-287.52C488.45,-277.69 535.59,-265.37 574.77,-255.14"/>
<polygon fill="black" stroke="black" points="575.54,-258.3 584.33,-252.38 573.77,-251.52 575.54,-258.3"/>
</g>
<!-- [root] openstack_compute_instance_v2.instance_2 (expand) -->
<g id="node3" class="node">
<title>[root] openstack_compute_instance_v2.instance_2 (expand)</title>
<polygon fill="none" stroke="black" points="800.75,-324 535,-324 535,-288 800.75,-288 800.75,-324"/>
<text text-anchor="middle" x="667.88" y="-300.57" font-family="Times New Roman,serif" font-size="14.00">openstack_compute_instance_v2.instance_2</text>
</g>
<!-- [root] openstack_compute_instance_v2.instance_2 (expand)&#45;&gt;[root] openstack_images_image_v2.ubuntu1404 (expand) -->
<g id="edge5" class="edge">
<title>[root] openstack_compute_instance_v2.instance_2 (expand)&#45;&gt;[root] openstack_images_image_v2.ubuntu1404 (expand)</title>
<path fill="none" stroke="black" d="M596.94,-287.52C556.89,-277.64 506.68,-265.27 465.06,-255.01"/>
<polygon fill="black" stroke="black" points="465.94,-251.38 455.4,-252.38 464.27,-258.17 465.94,-251.38"/>
</g>
<!-- [root] openstack_compute_instance_v2.instance_2 (expand)&#45;&gt;[root] openstack_networking_port_v2.http (expand) -->
<g id="edge6" class="edge">
<title>[root] openstack_compute_instance_v2.instance_2 (expand)&#45;&gt;[root] openstack_networking_port_v2.http (expand)</title>
<path fill="none" stroke="black" d="M663.92,-287.7C662.2,-280.15 660.13,-271.12 658.2,-262.68"/>
<polygon fill="black" stroke="black" points="661.42,-262.07 655.78,-253.1 654.6,-263.63 661.42,-262.07"/>
</g>
<!-- [root] openstack_compute_secgroup_v2.http (expand) -->
<g id="node4" class="node">
<title>[root] openstack_compute_secgroup_v2.http (expand)</title>
<polygon fill="none" stroke="black" points="1472.38,-108 1237.38,-108 1237.38,-72 1472.38,-72 1472.38,-108"/>
<text text-anchor="middle" x="1354.88" y="-84.58" font-family="Times New Roman,serif" font-size="14.00">openstack_compute_secgroup_v2.http</text>
</g>
<!-- [root] provider[&quot;registry.terraform.io/terraform&#45;provider&#45;openstack/openstack&quot;] -->
<g id="node15" class="node">
<title>[root] provider[&quot;registry.terraform.io/terraform&#45;provider&#45;openstack/openstack&quot;]</title>
<polygon fill="none" stroke="black" points="659.88,-36 260.22,-18 659.87,0 1059.53,-18 659.88,-36"/>
<text text-anchor="middle" x="659.88" y="-12.58" font-family="Times New Roman,serif" font-size="14.00">provider[&quot;registry.terraform.io/terraform&#45;provider&#45;openstack/openstack&quot;]</text>
</g>
<!-- [root] openstack_compute_secgroup_v2.http (expand)&#45;&gt;[root] provider[&quot;registry.terraform.io/terraform&#45;provider&#45;openstack/openstack&quot;] -->
<g id="edge7" class="edge">
<title>[root] openstack_compute_secgroup_v2.http (expand)&#45;&gt;[root] provider[&quot;registry.terraform.io/terraform&#45;provider&#45;openstack/openstack&quot;]</title>
<path fill="none" stroke="black" d="M1236.98,-77.13C1113.14,-64.65 918.89,-45.09 790.48,-32.15"/>
<polygon fill="black" stroke="black" points="791.11,-28.6 780.81,-31.08 790.41,-35.56 791.11,-28.6"/>
</g>
<!-- [root] openstack_compute_secgroup_v2.https (expand) -->
<g id="node5" class="node">
<title>[root] openstack_compute_secgroup_v2.https (expand)</title>
<polygon fill="none" stroke="black" points="583.38,-180 342.38,-180 342.38,-144 583.38,-144 583.38,-180"/>
<text text-anchor="middle" x="462.88" y="-156.57" font-family="Times New Roman,serif" font-size="14.00">openstack_compute_secgroup_v2.https</text>
</g>
<!-- [root] openstack_compute_secgroup_v2.https (expand)&#45;&gt;[root] provider[&quot;registry.terraform.io/terraform&#45;provider&#45;openstack/openstack&quot;] -->
<g id="edge8" class="edge">
<title>[root] openstack_compute_secgroup_v2.https (expand)&#45;&gt;[root] provider[&quot;registry.terraform.io/terraform&#45;provider&#45;openstack/openstack&quot;]</title>
<path fill="none" stroke="black" d="M505.09,-143.56C525.24,-134.34 549.18,-122.03 568.88,-108 595.21,-89.24 621.18,-62.84 638.59,-43.67"/>
<polygon fill="black" stroke="black" points="640.67,-46.47 644.73,-36.68 635.45,-41.81 640.67,-46.47"/>
</g>
<!-- [root] openstack_compute_secgroup_v2.ssh (expand) -->
<g id="node6" class="node">
<title>[root] openstack_compute_secgroup_v2.ssh (expand)</title>
<polygon fill="none" stroke="black" points="833.88,-180 601.88,-180 601.88,-144 833.88,-144 833.88,-180"/>
<text text-anchor="middle" x="717.88" y="-156.57" font-family="Times New Roman,serif" font-size="14.00">openstack_compute_secgroup_v2.ssh</text>
</g>
<!-- [root] openstack_compute_secgroup_v2.ssh (expand)&#45;&gt;[root] provider[&quot;registry.terraform.io/terraform&#45;provider&#45;openstack/openstack&quot;] -->
<g id="edge9" class="edge">
<title>[root] openstack_compute_secgroup_v2.ssh (expand)&#45;&gt;[root] provider[&quot;registry.terraform.io/terraform&#45;provider&#45;openstack/openstack&quot;]</title>
<path fill="none" stroke="black" d="M710.76,-143.59C700.84,-119.29 682.74,-74.97 671.01,-46.27"/>
<polygon fill="black" stroke="black" points="673.89,-45.04 666.86,-37.11 667.41,-47.69 673.89,-45.04"/>
</g>
<!-- [root] openstack_compute_secgroup_v2.telnet (expand) -->
<g id="node7" class="node">
<title>[root] openstack_compute_secgroup_v2.telnet (expand)</title>
<polygon fill="none" stroke="black" points="560.12,-108 317.62,-108 317.62,-72 560.12,-72 560.12,-108"/>
<text text-anchor="middle" x="438.88" y="-84.58" font-family="Times New Roman,serif" font-size="14.00">openstack_compute_secgroup_v2.telnet</text>
</g>
<!-- [root] openstack_compute_secgroup_v2.telnet (expand)&#45;&gt;[root] provider[&quot;registry.terraform.io/terraform&#45;provider&#45;openstack/openstack&quot;] -->
<g id="edge10" class="edge">
<title>[root] openstack_compute_secgroup_v2.telnet (expand)&#45;&gt;[root] provider[&quot;registry.terraform.io/terraform&#45;provider&#45;openstack/openstack&quot;]</title>
<path fill="none" stroke="black" d="M494.07,-71.52C526.72,-61.18 568.05,-48.09 601.27,-37.56"/>
<polygon fill="black" stroke="black" points="602.28,-40.6 610.75,-34.24 600.16,-33.92 602.28,-40.6"/>
</g>
<!-- [root] openstack_images_image_v2.ubuntu1404 (expand)&#45;&gt;[root] provider[&quot;registry.terraform.io/terraform&#45;provider&#45;openstack/openstack&quot;] -->
<g id="edge11" class="edge">
<title>[root] openstack_images_image_v2.ubuntu1404 (expand)&#45;&gt;[root] provider[&quot;registry.terraform.io/terraform&#45;provider&#45;openstack/openstack&quot;]</title>
<path fill="none" stroke="black" d="M355.87,-215.57C343.55,-206.46 330.05,-194.25 321.88,-180 297.81,-138.07 277.34,-108.65 308.88,-72 328.49,-49.2 384.17,-36.08 445.56,-28.58"/>
<polygon fill="black" stroke="black" points="445.74,-31.96 455.27,-27.33 444.93,-25.01 445.74,-31.96"/>
</g>
<!-- [root] openstack_networking_floatingip_v2.http (expand)&#45;&gt;[root] provider[&quot;registry.terraform.io/terraform&#45;provider&#45;openstack/openstack&quot;] -->
<g id="edge12" class="edge">
<title>[root] openstack_networking_floatingip_v2.http (expand)&#45;&gt;[root] provider[&quot;registry.terraform.io/terraform&#45;provider&#45;openstack/openstack&quot;]</title>
<path fill="none" stroke="black" d="M248.19,-72.76C339.33,-60.86 461.95,-44.85 549.61,-33.4"/>
<polygon fill="black" stroke="black" points="549.93,-36.76 559.39,-31.99 549.02,-29.82 549.93,-36.76"/>
</g>
<!-- [root] openstack_networking_network_v2.private_1 (expand) -->
<g id="node10" class="node">
<title>[root] openstack_networking_network_v2.private_1 (expand)</title>
<polygon fill="none" stroke="black" points="1054.38,-108 783.38,-108 783.38,-72 1054.38,-72 1054.38,-108"/>
<text text-anchor="middle" x="918.88" y="-84.58" font-family="Times New Roman,serif" font-size="14.00">openstack_networking_network_v2.private_1</text>
</g>
<!-- [root] openstack_networking_network_v2.private_1 (expand)&#45;&gt;[root] provider[&quot;registry.terraform.io/terraform&#45;provider&#45;openstack/openstack&quot;] -->
<g id="edge13" class="edge">
<title>[root] openstack_networking_network_v2.private_1 (expand)&#45;&gt;[root] provider[&quot;registry.terraform.io/terraform&#45;provider&#45;openstack/openstack&quot;]</title>
<path fill="none" stroke="black" d="M854.19,-71.52C814.93,-60.91 764.98,-47.41 725.55,-36.75"/>
<polygon fill="black" stroke="black" points="726.55,-33.12 715.98,-33.89 724.72,-39.88 726.55,-33.12"/>
</g>
<!-- [root] openstack_networking_port_v2.http (expand)&#45;&gt;[root] openstack_compute_secgroup_v2.https (expand) -->
<g id="edge14" class="edge">
<title>[root] openstack_networking_port_v2.http (expand)&#45;&gt;[root] openstack_compute_secgroup_v2.https (expand)</title>
<path fill="none" stroke="black" d="M604.67,-215.52C578.98,-206 547,-194.16 519.92,-184.13"/>
<polygon fill="black" stroke="black" points="521.4,-180.57 510.81,-180.38 518.97,-187.14 521.4,-180.57"/>
</g>
<!-- [root] openstack_networking_port_v2.http (expand)&#45;&gt;[root] openstack_compute_secgroup_v2.ssh (expand) -->
<g id="edge15" class="edge">
<title>[root] openstack_networking_port_v2.http (expand)&#45;&gt;[root] openstack_compute_secgroup_v2.ssh (expand)</title>
<path fill="none" stroke="black" d="M668.19,-215.7C676.1,-207.3 685.75,-197.07 694.43,-187.86"/>
<polygon fill="black" stroke="black" points="696.43,-190.78 700.75,-181.1 691.34,-185.98 696.43,-190.78"/>
</g>
<!-- [root] openstack_networking_port_v2.http (expand)&#45;&gt;[root] openstack_compute_secgroup_v2.telnet (expand) -->
<g id="edge16" class="edge">
<title>[root] openstack_networking_port_v2.http (expand)&#45;&gt;[root] openstack_compute_secgroup_v2.telnet (expand)</title>
<path fill="none" stroke="black" d="M541.88,-218.14C452.41,-205.52 339.82,-188.19 332.88,-180 322.53,-167.79 324.46,-157.61 332.88,-144 341,-130.85 353.5,-120.85 367.09,-113.29"/>
<polygon fill="black" stroke="black" points="368.31,-116.08 375.64,-108.43 365.14,-109.84 368.31,-116.08"/>
</g>
<!-- [root] openstack_networking_subnet_v2.subnet_1 (expand) -->
<g id="node14" class="node">
<title>[root] openstack_networking_subnet_v2.subnet_1 (expand)</title>
<polygon fill="none" stroke="black" points="1113.88,-180 851.88,-180 851.88,-144 1113.88,-144 1113.88,-180"/>
<text text-anchor="middle" x="982.88" y="-156.57" font-family="Times New Roman,serif" font-size="14.00">openstack_networking_subnet_v2.subnet_1</text>
</g>
<!-- [root] openstack_networking_port_v2.http (expand)&#45;&gt;[root] openstack_networking_subnet_v2.subnet_1 (expand) -->
<g id="edge17" class="edge">
<title>[root] openstack_networking_port_v2.http (expand)&#45;&gt;[root] openstack_networking_subnet_v2.subnet_1 (expand)</title>
<path fill="none" stroke="black" d="M734.55,-215.52C781.73,-205.54 841.02,-193 889.83,-182.68"/>
<polygon fill="black" stroke="black" points="890.34,-185.94 899.4,-180.44 888.89,-179.09 890.34,-185.94"/>
</g>
<!-- [root] openstack_networking_router_interface_v2.interface_1 (expand) -->
<g id="node12" class="node">
<title>[root] openstack_networking_router_interface_v2.interface_1 (expand)</title>
<polygon fill="none" stroke="black" points="1144.62,-252 821.12,-252 821.12,-216 1144.62,-216 1144.62,-252"/>
<text text-anchor="middle" x="982.88" y="-228.57" font-family="Times New Roman,serif" font-size="14.00">openstack_networking_router_interface_v2.interface_1</text>
</g>
<!-- [root] openstack_networking_router_v2.router_1 (expand) -->
<g id="node13" class="node">
<title>[root] openstack_networking_router_v2.router_1 (expand)</title>
<polygon fill="none" stroke="black" points="1386.12,-180 1131.62,-180 1131.62,-144 1386.12,-144 1386.12,-180"/>
<text text-anchor="middle" x="1258.88" y="-156.57" font-family="Times New Roman,serif" font-size="14.00">openstack_networking_router_v2.router_1</text>
</g>
<!-- [root] openstack_networking_router_interface_v2.interface_1 (expand)&#45;&gt;[root] openstack_networking_router_v2.router_1 (expand) -->
<g id="edge18" class="edge">
<title>[root] openstack_networking_router_interface_v2.interface_1 (expand)&#45;&gt;[root] openstack_networking_router_v2.router_1 (expand)</title>
<path fill="none" stroke="black" d="M1051.81,-215.52C1090.65,-205.67 1139.33,-193.32 1179.72,-183.07"/>
<polygon fill="black" stroke="black" points="1180.51,-186.23 1189.34,-180.38 1178.79,-179.45 1180.51,-186.23"/>
</g>
<!-- [root] openstack_networking_router_interface_v2.interface_1 (expand)&#45;&gt;[root] openstack_networking_subnet_v2.subnet_1 (expand) -->
<g id="edge19" class="edge">
<title>[root] openstack_networking_router_interface_v2.interface_1 (expand)&#45;&gt;[root] openstack_networking_subnet_v2.subnet_1 (expand)</title>
<path fill="none" stroke="black" d="M982.88,-215.7C982.88,-208.24 982.88,-199.32 982.88,-190.97"/>
<polygon fill="black" stroke="black" points="986.38,-191.1 982.88,-181.1 979.38,-191.1 986.38,-191.1"/>
</g>
<!-- [root] openstack_networking_router_v2.router_1 (expand)&#45;&gt;[root] provider[&quot;registry.terraform.io/terraform&#45;provider&#45;openstack/openstack&quot;] -->
<g id="edge20" class="edge">
<title>[root] openstack_networking_router_v2.router_1 (expand)&#45;&gt;[root] provider[&quot;registry.terraform.io/terraform&#45;provider&#45;openstack/openstack&quot;]</title>
<path fill="none" stroke="black" d="M1228.23,-143.52C1190.72,-122.97 1124.69,-89.44 1063.88,-72 989.5,-50.67 904.94,-37.89 832.47,-30.25"/>
<polygon fill="black" stroke="black" points="833.17,-26.7 822.86,-29.16 832.45,-33.67 833.17,-26.7"/>
</g>
<!-- [root] openstack_networking_subnet_v2.subnet_1 (expand)&#45;&gt;[root] openstack_networking_network_v2.private_1 (expand) -->
<g id="edge21" class="edge">
<title>[root] openstack_networking_subnet_v2.subnet_1 (expand)&#45;&gt;[root] openstack_networking_network_v2.private_1 (expand)</title>
<path fill="none" stroke="black" d="M967.05,-143.7C959.46,-135.39 950.21,-125.28 941.86,-116.14"/>
<polygon fill="black" stroke="black" points="944.84,-114.12 935.51,-109.1 939.68,-118.85 944.84,-114.12"/>
</g>
<!-- [root] provider[&quot;registry.terraform.io/terraform&#45;provider&#45;openstack/openstack&quot;] (close) -->
<g id="node16" class="node">
<title>[root] provider[&quot;registry.terraform.io/terraform&#45;provider&#45;openstack/openstack&quot;] (close)</title>
<ellipse fill="none" stroke="black" cx="811.88" cy="-450" rx="334.49" ry="18"/>
<text text-anchor="middle" x="811.88" y="-444.57" font-family="Times New Roman,serif" font-size="14.00">[root] provider[&quot;registry.terraform.io/terraform&#45;provider&#45;openstack/openstack&quot;] (close)</text>
</g>
<!-- [root] provider[&quot;registry.terraform.io/terraform&#45;provider&#45;openstack/openstack&quot;] (close)&#45;&gt;[root] openstack_compute_floatingip_associate_v2.http (expand) -->
<g id="edge22" class="edge">
<title>[root] provider[&quot;registry.terraform.io/terraform&#45;provider&#45;openstack/openstack&quot;] (close)&#45;&gt;[root] openstack_compute_floatingip_associate_v2.http (expand)</title>
<path fill="none" stroke="black" d="M710.44,-432.41C647.69,-422.15 566.88,-408.93 501.35,-398.21"/>
<polygon fill="black" stroke="black" points="501.98,-394.61 491.55,-396.45 500.85,-401.52 501.98,-394.61"/>
</g>
<!-- [root] provider[&quot;registry.terraform.io/terraform&#45;provider&#45;openstack/openstack&quot;] (close)&#45;&gt;[root] openstack_compute_instance_v2.instance_2 (expand) -->
<g id="edge23" class="edge">
<title>[root] provider[&quot;registry.terraform.io/terraform&#45;provider&#45;openstack/openstack&quot;] (close)&#45;&gt;[root] openstack_compute_instance_v2.instance_2 (expand)</title>
<path fill="none" stroke="black" d="M794.22,-431.59C768.82,-406.54 721.85,-360.22 692.89,-331.66"/>
<polygon fill="black" stroke="black" points="695.8,-329.64 686.23,-325.11 690.89,-334.62 695.8,-329.64"/>
</g>
<!-- [root] provider[&quot;registry.terraform.io/terraform&#45;provider&#45;openstack/openstack&quot;] (close)&#45;&gt;[root] openstack_compute_secgroup_v2.http (expand) -->
<g id="edge24" class="edge">
<title>[root] provider[&quot;registry.terraform.io/terraform&#45;provider&#45;openstack/openstack&quot;] (close)&#45;&gt;[root] openstack_compute_secgroup_v2.http (expand)</title>
<path fill="none" stroke="black" d="M1045.05,-436.74C1214.37,-421.21 1413.88,-386.13 1413.88,-307 1413.88,-307 1413.88,-307 1413.88,-233 1413.88,-192.55 1411.68,-180.79 1394.88,-144 1390.51,-134.45 1384.19,-124.99 1377.86,-116.76"/>
<polygon fill="black" stroke="black" points="1380.09,-114.95 1371.08,-109.37 1374.64,-119.35 1380.09,-114.95"/>
</g>
<!-- [root] provider[&quot;registry.terraform.io/terraform&#45;provider&#45;openstack/openstack&quot;] (close)&#45;&gt;[root] openstack_networking_router_interface_v2.interface_1 (expand) -->
<g id="edge25" class="edge">
<title>[root] provider[&quot;registry.terraform.io/terraform&#45;provider&#45;openstack/openstack&quot;] (close)&#45;&gt;[root] openstack_networking_router_interface_v2.interface_1 (expand)</title>
<path fill="none" stroke="black" d="M825.58,-431.85C855.53,-394.36 926.98,-304.95 962.34,-260.7"/>
<polygon fill="black" stroke="black" points="965.6,-263.23 969.11,-253.23 960.13,-258.86 965.6,-263.23"/>
</g>
<!-- [root] root -->
<g id="node17" class="node">
<title>[root] root</title>
<ellipse fill="none" stroke="black" cx="811.88" cy="-522" rx="50.07" ry="18"/>
<text text-anchor="middle" x="811.88" y="-516.58" font-family="Times New Roman,serif" font-size="14.00">[root] root</text>
</g>
<!-- [root] root&#45;&gt;[root] provider[&quot;registry.terraform.io/terraform&#45;provider&#45;openstack/openstack&quot;] (close) -->
<g id="edge26" class="edge">
<title>[root] root&#45;&gt;[root] provider[&quot;registry.terraform.io/terraform&#45;provider&#45;openstack/openstack&quot;] (close)</title>
<path fill="none" stroke="black" d="M811.88,-503.7C811.88,-496.24 811.88,-487.32 811.88,-478.97"/>
<polygon fill="black" stroke="black" points="815.38,-479.1 811.88,-469.1 808.38,-479.1 815.38,-479.1"/>
</g>
</g>
</svg>
