<?xml version="1.0" encoding="UTF-8" standalone="no"?>
<!DOCTYPE svg PUBLIC "-//W3C//DTD SVG 1.1//EN"
 "http://www.w3.org/Graphics/SVG/1.1/DTD/svg11.dtd">
<!-- Generated by graphviz version 8.0.5 (20230430.1635)
 -->
<!-- Pages: 1 -->
<svg width="1266pt" height="548pt"
 viewBox="0.00 0.00 1266.12 548.00" xmlns="http://www.w3.org/2000/svg" xmlns:xlink="http://www.w3.org/1999/xlink">
<g id="graph0" class="graph" transform="scale(1 1) rotate(0) translate(4 544)">
<polygon fill="white" stroke="none" points="-4,4 -4,-544 1262.12,-544 1262.12,4 -4,4"/>
<!-- [root] openstack_compute_floatingip_associate_v2.http (expand) -->
<g id="node1" class="node">
<title>[root] openstack_compute_floatingip_associate_v2.http (expand)</title>
<polygon fill="none" stroke="black" points="431.62,-396 138.12,-396 138.12,-360 431.62,-360 431.62,-396"/>
<text text-anchor="middle" x="284.88" y="-372.57" font-family="Times New Roman,serif" font-size="14.00">openstack_compute_floatingip_associate_v2.http</text>
</g>
<!-- [root] openstack_compute_instance_v2.instance_1 (expand) -->
<g id="node2" class="node">
<title>[root] openstack_compute_instance_v2.instance_1 (expand)</title>
<polygon fill="none" stroke="black" points="417.75,-324 152,-324 152,-288 417.75,-288 417.75,-324"/>
<text text-anchor="middle" x="284.88" y="-300.57" font-family="Times New Roman,serif" font-size="14.00">openstack_compute_instance_v2.instance_1</text>
</g>
<!-- [root] openstack_compute_floatingip_associate_v2.http (expand)&#45;&gt;[root] openstack_compute_instance_v2.instance_1 (expand) -->
<g id="edge1" class="edge">
<title>[root] openstack_compute_floatingip_associate_v2.http (expand)&#45;&gt;[root] openstack_compute_instance_v2.instance_1 (expand)</title>
<path fill="none" stroke="black" d="M284.88,-359.7C284.88,-352.24 284.88,-343.32 284.88,-334.97"/>
<polygon fill="black" stroke="black" points="288.38,-335.1 284.88,-325.1 281.38,-335.1 288.38,-335.1"/>
</g>
<!-- [root] openstack_networking_floatingip_v2.http (expand) -->
<g id="node8" class="node">
<title>[root] openstack_networking_floatingip_v2.http (expand)</title>
<polygon fill="none" stroke="black" points="247.75,-108 0,-108 0,-72 247.75,-72 247.75,-108"/>
<text text-anchor="middle" x="123.88" y="-84.58" font-family="Times New Roman,serif" font-size="14.00">openstack_networking_floatingip_v2.http</text>
</g>
<!-- [root] openstack_compute_floatingip_associate_v2.http (expand)&#45;&gt;[root] openstack_networking_floatingip_v2.http (expand) -->
<g id="edge2" class="edge">
<title>[root] openstack_compute_floatingip_associate_v2.http (expand)&#45;&gt;[root] openstack_networking_floatingip_v2.http (expand)</title>
<path fill="none" stroke="black" d="M192.35,-359.51C173.27,-351.69 155.25,-340.37 142.88,-324 96.97,-263.29 108.12,-166.49 117.37,-119.05"/>
<polygon fill="black" stroke="black" points="120.99,-119.88 119.59,-109.38 114.13,-118.46 120.99,-119.88"/>
</g>
<!-- [root] openstack_images_image_v2.ubuntu1404 (expand) -->
<g id="node7" class="node">
<title>[root] openstack_images_image_v2.ubuntu1404 (expand)</title>
<polygon fill="none" stroke="black" points="409.12,-252 160.62,-252 160.62,-216 409.12,-216 409.12,-252"/>
<text text-anchor="middle" x="284.88" y="-228.57" font-family="Times New Roman,serif" font-size="14.00">openstack_images_image_v2.ubuntu1404</text>
</g>
<!-- [root] openstack_compute_instance_v2.instance_1 (expand)&#45;&gt;[root] openstack_images_image_v2.ubuntu1404 (expand) -->
<g id="edge3" class="edge">
<title>[root] openstack_compute_instance_v2.instance_1 (expand)&#45;&gt;[root] openstack_images_image_v2.ubuntu1404 (expand)</title>
<path fill="none" stroke="black" d="M284.88,-287.7C284.88,-280.24 284.88,-271.32 284.88,-262.97"/>
<polygon fill="black" stroke="black" points="288.38,-263.1 284.88,-253.1 281.38,-263.1 288.38,-263.1"/>
</g>
<!-- [root] openstack_networking_port_v2.http (expand) -->
<g id="node10" class="node">
<title>[root] openstack_networking_port_v2.http (expand)</title>
<polygon fill="none" stroke="black" points="662.5,-252 443.25,-252 443.25,-216 662.5,-216 662.5,-252"/>
<text text-anchor="middle" x="552.88" y="-228.57" font-family="Times New Roman,serif" font-size="14.00">openstack_networking_port_v2.http</text>
</g>
<!-- [root] openstack_compute_instance_v2.instance_1 (expand)&#45;&gt;[root] openstack_networking_port_v2.http (expand) -->
<g id="edge4" class="edge">
<title>[root] openstack_compute_instance_v2.instance_1 (expand)&#45;&gt;[root] openstack_networking_port_v2.http (expand)</title>
<path fill="none" stroke="black" d="M351.81,-287.52C389.45,-277.69 436.59,-265.37 475.77,-255.14"/>
<polygon fill="black" stroke="black" points="476.54,-258.3 485.33,-252.38 474.77,-251.52 476.54,-258.3"/>
</g>
<!-- [root] openstack_compute_instance_v2.instance_2 (expand) -->
<g id="node3" class="node">
<title>[root] openstack_compute_instance_v2.instance_2 (expand)</title>
<polygon fill="none" stroke="black" points="701.75,-324 436,-324 436,-288 701.75,-288 701.75,-324"/>
<text text-anchor="middle" x="568.88" y="-300.57" font-family="Times New Roman,serif" font-size="14.00">openstack_compute_instance_v2.instance_2</text>
</g>
<!-- [root] openstack_compute_instance_v2.instance_2 (expand)&#45;&gt;[root] openstack_images_image_v2.ubuntu1404 (expand) -->
<g id="edge5" class="edge">
<title>[root] openstack_compute_instance_v2.instance_2 (expand)&#45;&gt;[root] openstack_images_image_v2.ubuntu1404 (expand)</title>
<path fill="none" stroke="black" d="M497.94,-287.52C457.89,-277.64 407.68,-265.27 366.06,-255.01"/>
<polygon fill="black" stroke="black" points="366.94,-251.38 356.4,-252.38 365.27,-258.17 366.94,-251.38"/>
</g>
<!-- [root] openstack_compute_instance_v2.instance_2 (expand)&#45;&gt;[root] openstack_networking_port_v2.http (expand) -->
<g id="edge6" class="edge">
<title>[root] openstack_compute_instance_v2.instance_2 (expand)&#45;&gt;[root] openstack_networking_port_v2.http (expand)</title>
<path fill="none" stroke="black" d="M564.92,-287.7C563.2,-280.15 561.13,-271.12 559.2,-262.68"/>
<polygon fill="black" stroke="black" points="562.42,-262.07 556.78,-253.1 555.6,-263.63 562.42,-262.07"/>
</g>
<!-- [root] openstack_compute_secgroup_v2.https (expand) -->
<g id="node4" class="node">
<title>[root] openstack_compute_secgroup_v2.https (expand)</title>
<polygon fill="none" stroke="black" points="545.38,-108 304.38,-108 304.38,-72 545.38,-72 545.38,-108"/>
<text text-anchor="middle" x="424.88" y="-84.58" font-family="Times New Roman,serif" font-size="14.00">openstack_compute_secgroup_v2.https</text>
</g>
<!-- [root] provider[&quot;registry.terraform.io/terraform&#45;provider&#45;openstack/openstack&quot;] -->
<g id="node14" class="node">
<title>[root] provider[&quot;registry.terraform.io/terraform&#45;provider&#45;openstack/openstack&quot;]</title>
<polygon fill="none" stroke="black" points="573.88,-36 174.22,-18 573.87,0 973.53,-18 573.88,-36"/>
<text text-anchor="middle" x="573.88" y="-12.58" font-family="Times New Roman,serif" font-size="14.00">provider[&quot;registry.terraform.io/terraform&#45;provider&#45;openstack/openstack&quot;]</text>
</g>
<!-- [root] openstack_compute_secgroup_v2.https (expand)&#45;&gt;[root] provider[&quot;registry.terraform.io/terraform&#45;provider&#45;openstack/openstack&quot;] -->
<g id="edge7" class="edge">
<title>[root] openstack_compute_secgroup_v2.https (expand)&#45;&gt;[root] provider[&quot;registry.terraform.io/terraform&#45;provider&#45;openstack/openstack&quot;]</title>
<path fill="none" stroke="black" d="M462.09,-71.52C482.7,-61.83 508.44,-49.74 530.03,-39.6"/>
<polygon fill="black" stroke="black" points="531.37,-42.37 538.93,-34.95 528.4,-36.03 531.37,-42.37"/>
</g>
<!-- [root] openstack_compute_secgroup_v2.icmp (expand) -->
<g id="node5" class="node">
<title>[root] openstack_compute_secgroup_v2.icmp (expand)</title>
<polygon fill="none" stroke="black" points="583.38,-180 342.38,-180 342.38,-144 583.38,-144 583.38,-180"/>
<text text-anchor="middle" x="462.88" y="-156.57" font-family="Times New Roman,serif" font-size="14.00">openstack_compute_secgroup_v2.icmp</text>
</g>
<!-- [root] openstack_compute_secgroup_v2.icmp (expand)&#45;&gt;[root] provider[&quot;registry.terraform.io/terraform&#45;provider&#45;openstack/openstack&quot;] -->
<g id="edge8" class="edge">
<title>[root] openstack_compute_secgroup_v2.icmp (expand)&#45;&gt;[root] provider[&quot;registry.terraform.io/terraform&#45;provider&#45;openstack/openstack&quot;]</title>
<path fill="none" stroke="black" d="M509.73,-143.53C526.29,-135.15 543.59,-123.5 554.88,-108 567.66,-90.44 572.19,-66.08 573.65,-47.28"/>
<polygon fill="black" stroke="black" points="577.19,-47.57 574.2,-37.4 570.2,-47.21 577.19,-47.57"/>
</g>
<!-- [root] openstack_compute_secgroup_v2.ssh (expand) -->
<g id="node6" class="node">
<title>[root] openstack_compute_secgroup_v2.ssh (expand)</title>
<polygon fill="none" stroke="black" points="833.88,-180 601.88,-180 601.88,-144 833.88,-144 833.88,-180"/>
<text text-anchor="middle" x="717.88" y="-156.57" font-family="Times New Roman,serif" font-size="14.00">openstack_compute_secgroup_v2.ssh</text>
</g>
<!-- [root] openstack_compute_secgroup_v2.ssh (expand)&#45;&gt;[root] provider[&quot;registry.terraform.io/terraform&#45;provider&#45;openstack/openstack&quot;] -->
<g id="edge9" class="edge">
<title>[root] openstack_compute_secgroup_v2.ssh (expand)&#45;&gt;[root] provider[&quot;registry.terraform.io/terraform&#45;provider&#45;openstack/openstack&quot;]</title>
<path fill="none" stroke="black" d="M700.22,-143.59C674.68,-118.41 627.34,-71.72 598.42,-43.2"/>
<polygon fill="black" stroke="black" points="601.36,-41.2 591.78,-36.67 596.44,-46.19 601.36,-41.2"/>
</g>
<!-- [root] openstack_images_image_v2.ubuntu1404 (expand)&#45;&gt;[root] provider[&quot;registry.terraform.io/terraform&#45;provider&#45;openstack/openstack&quot;] -->
<g id="edge10" class="edge">
<title>[root] openstack_images_image_v2.ubuntu1404 (expand)&#45;&gt;[root] provider[&quot;registry.terraform.io/terraform&#45;provider&#45;openstack/openstack&quot;]</title>
<path fill="none" stroke="black" d="M279.84,-215.66C271.53,-183.1 259.22,-112.44 294.88,-72 312.6,-51.89 365.61,-39.3 420.73,-31.47"/>
<polygon fill="black" stroke="black" points="420.97,-34.84 430.4,-30.02 420.02,-27.9 420.97,-34.84"/>
</g>
<!-- [root] openstack_networking_floatingip_v2.http (expand)&#45;&gt;[root] provider[&quot;registry.terraform.io/terraform&#45;provider&#45;openstack/openstack&quot;] -->
<g id="edge11" class="edge">
<title>[root] openstack_networking_floatingip_v2.http (expand)&#45;&gt;[root] provider[&quot;registry.terraform.io/terraform&#45;provider&#45;openstack/openstack&quot;]</title>
<path fill="none" stroke="black" d="M236.27,-71.52C310.06,-60.04 405.62,-45.17 476.23,-34.19"/>
<polygon fill="black" stroke="black" points="476.55,-37.53 485.9,-32.53 475.48,-30.61 476.55,-37.53"/>
</g>
<!-- [root] openstack_networking_network_v2.private_1 (expand) -->
<g id="node9" class="node">
<title>[root] openstack_networking_network_v2.private_1 (expand)</title>
<polygon fill="none" stroke="black" points="964.38,-108 693.38,-108 693.38,-72 964.38,-72 964.38,-108"/>
<text text-anchor="middle" x="828.88" y="-84.58" font-family="Times New Roman,serif" font-size="14.00">openstack_networking_network_v2.private_1</text>
</g>
<!-- [root] openstack_networking_network_v2.private_1 (expand)&#45;&gt;[root] provider[&quot;registry.terraform.io/terraform&#45;provider&#45;openstack/openstack&quot;] -->
<g id="edge12" class="edge">
<title>[root] openstack_networking_network_v2.private_1 (expand)&#45;&gt;[root] provider[&quot;registry.terraform.io/terraform&#45;provider&#45;openstack/openstack&quot;]</title>
<path fill="none" stroke="black" d="M765.19,-71.52C726.59,-60.92 677.49,-47.44 638.69,-36.79"/>
<polygon fill="black" stroke="black" points="640.12,-33.28 629.55,-34.01 638.27,-40.03 640.12,-33.28"/>
</g>
<!-- [root] openstack_networking_port_v2.http (expand)&#45;&gt;[root] openstack_compute_secgroup_v2.https (expand) -->
<g id="edge13" class="edge">
<title>[root] openstack_networking_port_v2.http (expand)&#45;&gt;[root] openstack_compute_secgroup_v2.https (expand)</title>
<path fill="none" stroke="black" d="M442.82,-219.33C395.28,-210.95 347.25,-198.25 332.88,-180 322.97,-167.43 324.87,-157.85 332.88,-144 340.3,-131.16 352.14,-121.15 364.9,-113.47"/>
<polygon fill="black" stroke="black" points="366.24,-116.18 373.3,-108.28 362.85,-110.05 366.24,-116.18"/>
</g>
<!-- [root] openstack_networking_port_v2.http (expand)&#45;&gt;[root] openstack_compute_secgroup_v2.icmp (expand) -->
<g id="edge14" class="edge">
<title>[root] openstack_networking_port_v2.http (expand)&#45;&gt;[root] openstack_compute_secgroup_v2.icmp (expand)</title>
<path fill="none" stroke="black" d="M530.63,-215.7C519.49,-207.03 505.82,-196.4 493.68,-186.96"/>
<polygon fill="black" stroke="black" points="496.22,-183.72 486.18,-180.35 491.92,-189.25 496.22,-183.72"/>
</g>
<!-- [root] openstack_networking_port_v2.http (expand)&#45;&gt;[root] openstack_compute_secgroup_v2.ssh (expand) -->
<g id="edge15" class="edge">
<title>[root] openstack_networking_port_v2.http (expand)&#45;&gt;[root] openstack_compute_secgroup_v2.ssh (expand)</title>
<path fill="none" stroke="black" d="M594.09,-215.52C616.12,-206.17 643.45,-194.57 666.82,-184.66"/>
<polygon fill="black" stroke="black" points="668.06,-187.51 675.9,-180.38 665.33,-181.07 668.06,-187.51"/>
</g>
<!-- [root] openstack_networking_subnet_v2.subnet_1 (expand) -->
<g id="node13" class="node">
<title>[root] openstack_networking_subnet_v2.subnet_1 (expand)</title>
<polygon fill="none" stroke="black" points="1113.88,-180 851.88,-180 851.88,-144 1113.88,-144 1113.88,-180"/>
<text text-anchor="middle" x="982.88" y="-156.57" font-family="Times New Roman,serif" font-size="14.00">openstack_networking_subnet_v2.subnet_1</text>
</g>
<!-- [root] openstack_networking_port_v2.http (expand)&#45;&gt;[root] openstack_networking_subnet_v2.subnet_1 (expand) -->
<g id="edge16" class="edge">
<title>[root] openstack_networking_port_v2.http (expand)&#45;&gt;[root] openstack_networking_subnet_v2.subnet_1 (expand)</title>
<path fill="none" stroke="black" d="M660.27,-215.52C722.6,-205.37 801.18,-192.58 865.18,-182.16"/>
<polygon fill="black" stroke="black" points="865.42,-185.5 874.73,-180.44 864.3,-178.59 865.42,-185.5"/>
</g>
<!-- [root] openstack_networking_router_interface_v2.interface_1 (expand) -->
<g id="node11" class="node">
<title>[root] openstack_networking_router_interface_v2.interface_1 (expand)</title>
<polygon fill="none" stroke="black" points="1144.62,-252 821.12,-252 821.12,-216 1144.62,-216 1144.62,-252"/>
<text text-anchor="middle" x="982.88" y="-228.57" font-family="Times New Roman,serif" font-size="14.00">openstack_networking_router_interface_v2.interface_1</text>
</g>
<!-- [root] openstack_networking_router_v2.router_1 (expand) -->
<g id="node12" class="node">
<title>[root] openstack_networking_router_v2.router_1 (expand)</title>
<polygon fill="none" stroke="black" points="1258.12,-108 1003.62,-108 1003.62,-72 1258.12,-72 1258.12,-108"/>
<text text-anchor="middle" x="1130.88" y="-84.58" font-family="Times New Roman,serif" font-size="14.00">openstack_networking_router_v2.router_1</text>
</g>
<!-- [root] openstack_networking_router_interface_v2.interface_1 (expand)&#45;&gt;[root] openstack_networking_router_v2.router_1 (expand) -->
<g id="edge17" class="edge">
<title>[root] openstack_networking_router_interface_v2.interface_1 (expand)&#45;&gt;[root] openstack_networking_router_v2.router_1 (expand)</title>
<path fill="none" stroke="black" d="M1072.94,-215.63C1092.15,-207.8 1110.38,-196.46 1122.88,-180 1135.91,-162.83 1137.15,-138.08 1135.56,-119.04"/>
<polygon fill="black" stroke="black" points="1138.95,-118.84 1134.33,-109.31 1131.99,-119.64 1138.95,-118.84"/>
</g>
<!-- [root] openstack_networking_router_interface_v2.interface_1 (expand)&#45;&gt;[root] openstack_networking_subnet_v2.subnet_1 (expand) -->
<g id="edge18" class="edge">
<title>[root] openstack_networking_router_interface_v2.interface_1 (expand)&#45;&gt;[root] openstack_networking_subnet_v2.subnet_1 (expand)</title>
<path fill="none" stroke="black" d="M982.88,-215.7C982.88,-208.24 982.88,-199.32 982.88,-190.97"/>
<polygon fill="black" stroke="black" points="986.38,-191.1 982.88,-181.1 979.38,-191.1 986.38,-191.1"/>
</g>
<!-- [root] openstack_networking_router_v2.router_1 (expand)&#45;&gt;[root] provider[&quot;registry.terraform.io/terraform&#45;provider&#45;openstack/openstack&quot;] -->
<g id="edge19" class="edge">
<title>[root] openstack_networking_router_v2.router_1 (expand)&#45;&gt;[root] provider[&quot;registry.terraform.io/terraform&#45;provider&#45;openstack/openstack&quot;]</title>
<path fill="none" stroke="black" d="M1003.44,-72.98C907.99,-60.99 778.59,-44.73 686.83,-33.2"/>
<polygon fill="black" stroke="black" points="687.47,-29.62 677.11,-31.85 686.6,-36.57 687.47,-29.62"/>
</g>
<!-- [root] openstack_networking_subnet_v2.subnet_1 (expand)&#45;&gt;[root] openstack_networking_network_v2.private_1 (expand) -->
<g id="edge20" class="edge">
<title>[root] openstack_networking_subnet_v2.subnet_1 (expand)&#45;&gt;[root] openstack_networking_network_v2.private_1 (expand)</title>
<path fill="none" stroke="black" d="M944.41,-143.52C924.03,-134.25 898.8,-122.78 877.12,-112.93"/>
<polygon fill="black" stroke="black" points="878.67,-109.33 868.11,-108.38 875.77,-115.71 878.67,-109.33"/>
</g>
<!-- [root] provider[&quot;registry.terraform.io/terraform&#45;provider&#45;openstack/openstack&quot;] (close) -->
<g id="node15" class="node">
<title>[root] provider[&quot;registry.terraform.io/terraform&#45;provider&#45;openstack/openstack&quot;] (close)</title>
<ellipse fill="none" stroke="black" cx="568.88" cy="-450" rx="334.49" ry="18"/>
<text text-anchor="middle" x="568.88" y="-444.57" font-family="Times New Roman,serif" font-size="14.00">[root] provider[&quot;registry.terraform.io/terraform&#45;provider&#45;openstack/openstack&quot;] (close)</text>
</g>
<!-- [root] provider[&quot;registry.terraform.io/terraform&#45;provider&#45;openstack/openstack&quot;] (close)&#45;&gt;[root] openstack_compute_floatingip_associate_v2.http (expand) -->
<g id="edge21" class="edge">
<title>[root] provider[&quot;registry.terraform.io/terraform&#45;provider&#45;openstack/openstack&quot;] (close)&#45;&gt;[root] openstack_compute_floatingip_associate_v2.http (expand)</title>
<path fill="none" stroke="black" d="M499.76,-431.97C459.5,-422.04 408.51,-409.47 366.31,-399.07"/>
<polygon fill="black" stroke="black" points="367.33,-395.47 356.78,-396.48 365.65,-402.27 367.33,-395.47"/>
</g>
<!-- [root] provider[&quot;registry.terraform.io/terraform&#45;provider&#45;openstack/openstack&quot;] (close)&#45;&gt;[root] openstack_compute_instance_v2.instance_2 (expand) -->
<g id="edge22" class="edge">
<title>[root] provider[&quot;registry.terraform.io/terraform&#45;provider&#45;openstack/openstack&quot;] (close)&#45;&gt;[root] openstack_compute_instance_v2.instance_2 (expand)</title>
<path fill="none" stroke="black" d="M568.88,-431.59C568.88,-407.5 568.88,-363.75 568.88,-335.03"/>
<polygon fill="black" stroke="black" points="572.38,-335.11 568.88,-325.11 565.38,-335.11 572.38,-335.11"/>
</g>
<!-- [root] provider[&quot;registry.terraform.io/terraform&#45;provider&#45;openstack/openstack&quot;] (close)&#45;&gt;[root] openstack_networking_router_interface_v2.interface_1 (expand) -->
<g id="edge23" class="edge">
<title>[root] provider[&quot;registry.terraform.io/terraform&#45;provider&#45;openstack/openstack&quot;] (close)&#45;&gt;[root] openstack_networking_router_interface_v2.interface_1 (expand)</title>
<path fill="none" stroke="black" d="M602.4,-431.67C676.95,-393.14 856.39,-300.38 939.4,-257.47"/>
<polygon fill="black" stroke="black" points="940.76,-260.19 948.03,-252.49 937.54,-253.98 940.76,-260.19"/>
</g>
<!-- [root] root -->
<g id="node16" class="node">
<title>[root] root</title>
<ellipse fill="none" stroke="black" cx="568.88" cy="-522" rx="50.07" ry="18"/>
<text text-anchor="middle" x="568.88" y="-516.58" font-family="Times New Roman,serif" font-size="14.00">[root] root</text>
</g>
<!-- [root] root&#45;&gt;[root] provider[&quot;registry.terraform.io/terraform&#45;provider&#45;openstack/openstack&quot;] (close) -->
<g id="edge24" class="edge">
<title>[root] root&#45;&gt;[root] provider[&quot;registry.terraform.io/terraform&#45;provider&#45;openstack/openstack&quot;] (close)</title>
<path fill="none" stroke="black" d="M568.88,-503.7C568.88,-496.24 568.88,-487.32 568.88,-478.97"/>
<polygon fill="black" stroke="black" points="572.38,-479.1 568.88,-469.1 565.38,-479.1 572.38,-479.1"/>
</g>
</g>
</svg>
