<svg version="1.1" xmlns="http://www.w3.org/2000/svg" xmlns:xlink="http://www.w3.org/1999/xlink" width="366.90000000000003" height="307.70000000000005"><defs><linearGradient id="eHxwlvaeRMGi" x1="2320.4000021457673px" x2="1472.2000007152558px" y1="1440.4000035762788px" y2="728.2000007152558px" gradientUnits="userSpaceOnUse"><stop offset="0" stop-color="rgb(211,211,211)" stop-opacity="1"/><stop offset="1" stop-color="rgb(211,211,211)" stop-opacity="1"/></linearGradient><linearGradient id="mxrkqZBdBIxF" x1="673.9999999999999px" x2="2520.6000021457676px" y1="1824.400005722046px" y2="984.2000021457673px" gradientUnits="userSpaceOnUse"><stop offset="0" stop-color="rgb(211,211,211)" stop-opacity="1"/><stop offset="1" stop-color="rgb(211,211,211)" stop-opacity="1"/></linearGradient><linearGradient id="lPbIIucouLLL" x1="924.2000007152558px" x2="674px" y1="400px" y2="400px" gradientUnits="userSpaceOnUse"><stop offset="0" stop-color="rgb(211,211,211)" stop-opacity="1"/><stop offset="1" stop-color="rgb(211,211,211)" stop-opacity="1"/></linearGradient><linearGradient id="XVoWGJyyzvcK" x1="1198.2000007152558px" x2="1996.4000014305116px" y1="439px" y2="1401.4000035762788px" gradientUnits="userSpaceOnUse"><stop offset="0" stop-color="rgb(211,211,211)" stop-opacity="1"/><stop offset="1" stop-color="rgb(211,211,211)" stop-opacity="1"/></linearGradient><linearGradient id="JzLtwMxNNKRb" x1="1996.4000014305116px" x2="1198.2000007152558px" y1="1401.4000035762788px" y2="895.2000014305115px" gradientUnits="userSpaceOnUse"><stop offset="0" stop-color="rgb(211,211,211)" stop-opacity="1"/><stop offset="1" stop-color="rgb(211,211,211)" stop-opacity="1"/></linearGradient><linearGradient id="RdFHnLewIhzx" x1="2096.4000014305116px" x2="1198.2000007152558px" y1="2155.100006437302px" y2="767.2000007152558px" gradientUnits="userSpaceOnUse"><stop offset="0" stop-color="rgb(211,211,211)" stop-opacity="1"/><stop offset="1" stop-color="rgb(211,211,211)" stop-opacity="1"/></linearGradient><linearGradient id="oBkRJnqLXHzg" x1="1198.2000007152558px" x2="400px" y1="1913.4000064373017px" y2="895.2000014305115px" gradientUnits="userSpaceOnUse"><stop offset="0" stop-color="rgb(211,211,211)" stop-opacity="1"/><stop offset="1" stop-color="rgb(211,211,211)" stop-opacity="1"/></linearGradient><linearGradient id="LWzRULNqLfkH" x1="1198.2000007152558px" x2="400px" y1="1913.4000064373017px" y2="1479.4000035762788px" gradientUnits="userSpaceOnUse"><stop offset="0" stop-color="rgb(211,211,211)" stop-opacity="1"/><stop offset="1" stop-color="rgb(211,211,211)" stop-opacity="1"/></linearGradient><linearGradient id="aiAKWFylDTCe" x1="1198.2000007152558px" x2="400px" y1="1657.4000050067903px" y2="895.2000014305115px" gradientUnits="userSpaceOnUse"><stop offset="0" stop-color="rgb(211,211,211)" stop-opacity="1"/><stop offset="1" stop-color="rgb(211,211,211)" stop-opacity="1"/></linearGradient><linearGradient id="pGXyozeomJNV" x1="924.2000007152558px" x2="674px" y1="1696.4000050067903px" y2="1824.400005722046px" gradientUnits="userSpaceOnUse"><stop offset="0" stop-color="rgb(211,211,211)" stop-opacity="1"/><stop offset="1" stop-color="rgb(211,211,211)" stop-opacity="1"/></linearGradient><linearGradient id="CUfwWBQGMEbi" x1="1198.2000007152558px" x2="400px" y1="1785.400005722046px" y2="767.2000007152558px" gradientUnits="userSpaceOnUse"><stop offset="0" stop-color="rgb(211,211,211)" stop-opacity="1"/><stop offset="1" stop-color="rgb(211,211,211)" stop-opacity="1"/></linearGradient><linearGradient id="fVNyHwePMylD" x1="924.2000007152558px" x2="674px" y1="1824.400005722046px" y2="1696.4000050067903px" gradientUnits="userSpaceOnUse"><stop offset="0" stop-color="rgb(211,211,211)" stop-opacity="1"/><stop offset="1" stop-color="rgb(211,211,211)" stop-opacity="1"/></linearGradient><linearGradient id="VIopqmhzzaSr" x1="1996.4000014305116px" x2="2794.6000021457676px" y1="439px" y2="1073.200002861023px" gradientUnits="userSpaceOnUse"><stop offset="0" stop-color="rgb(211,211,211)" stop-opacity="1"/><stop offset="1" stop-color="rgb(211,211,211)" stop-opacity="1"/></linearGradient><linearGradient id="cmNNcwkCUKbI" x1="1996.4000014305116px" x2="1996.4000014305116px" y1="439px" y2="817.2000014305115px" gradientUnits="userSpaceOnUse"><stop offset="0" stop-color="rgb(211,211,211)" stop-opacity="1"/><stop offset="1" stop-color="rgb(211,211,211)" stop-opacity="1"/></linearGradient><linearGradient id="fzwggdEJuRom" x1="1996.4000014305116px" x2="1996.4000014305116px" y1="439px" y2="689.2000007152558px" gradientUnits="userSpaceOnUse"><stop offset="0" stop-color="rgb(211,211,211)" stop-opacity="1"/><stop offset="1" stop-color="rgb(211,211,211)" stop-opacity="1"/></linearGradient><linearGradient id="MtaiLeEQpvUg" x1="1198.2000007152558px" x2="400px" y1="2041.4000071525575px" y2="895.2000014305115px" gradientUnits="userSpaceOnUse"><stop offset="0" stop-color="rgb(211,211,211)" stop-opacity="1"/><stop offset="1" stop-color="rgb(211,211,211)" stop-opacity="1"/></linearGradient><linearGradient id="XGAPOfRCJDwR" x1="1198.2000007152558px" x2="400px" y1="2041.4000071525575px" y2="1735.4000050067903px" gradientUnits="userSpaceOnUse"><stop offset="0" stop-color="rgb(211,211,211)" stop-opacity="1"/><stop offset="1" stop-color="rgb(211,211,211)" stop-opacity="1"/></linearGradient><linearGradient id="stwVtASqcdHP" x1="673.9999999999999px" x2="2520.6000021457676px" y1="1440.4000035762788px" y2="728.2000007152558px" gradientUnits="userSpaceOnUse"><stop offset="0" stop-color="rgb(211,211,211)" stop-opacity="1"/><stop offset="1" stop-color="rgb(211,211,211)" stop-opacity="1"/></linearGradient><linearGradient id="TPTbREvtNtwx" x1="2096.4000014305116px" x2="1198.2000007152558px" y1="1570.9000042915345px" y2="767.2000007152558px" gradientUnits="userSpaceOnUse"><stop offset="0" stop-color="rgb(211,211,211)" stop-opacity="1"/><stop offset="1" stop-color="rgb(211,211,211)" stop-opacity="1"/></linearGradient><linearGradient id="dDkomVnzanvT" x1="1198.2000007152558px" x2="400px" y1="1401.4000035762788px" y2="767.2000007152558px" gradientUnits="userSpaceOnUse"><stop offset="0" stop-color="rgb(211,211,211)" stop-opacity="1"/><stop offset="1" stop-color="rgb(211,211,211)" stop-opacity="1"/></linearGradient><linearGradient id="KDNPTivfiXvd" x1="924.2000007152558px" x2="674px" y1="1440.4000035762788px" y2="1568.4000042915345px" gradientUnits="userSpaceOnUse"><stop offset="0" stop-color="rgb(211,211,211)" stop-opacity="1"/><stop offset="1" stop-color="rgb(211,211,211)" stop-opacity="1"/></linearGradient><linearGradient id="FKckhABtavlJ" x1="673.9999999999999px" x2="2520.6000021457676px" y1="1568.4000042915345px" y2="1112.200002861023px" gradientUnits="userSpaceOnUse"><stop offset="0" stop-color="rgb(211,211,211)" stop-opacity="1"/><stop offset="1" stop-color="rgb(211,211,211)" stop-opacity="1"/></linearGradient><linearGradient id="QNeVoyyUyPpN" x1="673.9999999999999px" x2="2520.6000021457676px" y1="1696.4000050067903px" y2="856.2000014305115px" gradientUnits="userSpaceOnUse"><stop offset="0" stop-color="rgb(211,211,211)" stop-opacity="1"/><stop offset="1" stop-color="rgb(211,211,211)" stop-opacity="1"/></linearGradient><linearGradient id="eBhMckGevxPr" x1="1198.2000007152558px" x2="400px" y1="1529.4000042915345px" y2="767.2000007152558px" gradientUnits="userSpaceOnUse"><stop offset="0" stop-color="rgb(211,211,211)" stop-opacity="1"/><stop offset="1" stop-color="rgb(211,211,211)" stop-opacity="1"/></linearGradient><linearGradient id="iUPpGNZtLepv" x1="924.2000007152558px" x2="674px" y1="1568.4000042915345px" y2="1824.400005722046px" gradientUnits="userSpaceOnUse"><stop offset="0" stop-color="rgb(211,211,211)" stop-opacity="1"/><stop offset="1" stop-color="rgb(211,211,211)" stop-opacity="1"/></linearGradient></defs><g transform="translate(23.700000000000003,4.75) scale(0.1,0.1)"><path fill="rgb(244,236,255)" stroke="rgb(255,255,255)" paint-order="fill stroke markers" d=" M 1597.3000010728838 -45.5 L 3421.6000021457676 -45.5 L 3421.6000021457676 -45.5 A 8 8 0 0 1 3429.6000021457676 -37.5 L 3429.6000021457676 3018.900007939339 L 3429.6000021457676 3018.900007939339 A 8 8 0 0 1 3421.6000021457676 3026.900007939339 L -227 3026.900007939339 L -227 3026.900007939339 A 8 8 0 0 1 -235 3018.900007939339 L -235 -37.5 L -235 -37.5 A 8 8 0 0 1 -227 -45.5 L 1597.3000010728838 -45.5 Z" fill-opacity="1" stroke-opacity="1" stroke-miterlimit="10" stroke-width="2"/><text fill="rgb(0,0,0)" stroke="none" font-family="Avenir, Helvetica, Arial, sans-serif" font-size="32px" font-style="normal" font-weight="bold" text-decoration="normal" x="1597.3000010728838" y="29.5" text-anchor="middle" dominant-baseline="text-after-edge" fill-opacity="1">.</text><path fill="rgb(255,255,255)" stroke="rgb(211,211,211)" paint-order="fill stroke markers" d=" M 1597.3000010728838 156 L 3220.1000021457676 156 L 3220.1000021457676 156 A 8 8 0 0 1 3228.1000021457676 164 L 3228.1000021457676 2817.400007939339 L 3228.1000021457676 2817.400007939339 A 8 8 0 0 1 3220.1000021457676 2825.400007939339 L -25.5 2825.400007939339 L -25.5 2825.400007939339 A 8 8 0 0 1 -33.5 2817.400007939339 L -33.5 164 L -33.5 164 A 8 8 0 0 1 -25.5 156 L 1597.3000010728838 156 Z" fill-opacity="1" stroke-opacity="1" stroke-miterlimit="10"/><text fill="rgb(0,0,0)" stroke="none" font-family="Avenir, Helvetica, Arial, sans-serif" font-size="32px" font-style="normal" font-weight="bold" text-decoration="normal" x="1597.3000010728838" y="231" text-anchor="middle" dominant-baseline="text-after-edge" fill-opacity="1">main.tf</text><path fill="rgb(255,255,255)" stroke="rgb(0,0,0)" paint-order="fill stroke markers" d=" M 2295.4000017881394 1285.6000035047532 L 2976.200002217293 1285.6000035047532 L 2976.200002217293 1285.6000035047532 A 8 8 0 0 1 2984.200002217293 1293.6000035047532 L 2984.200002217293 2713.900007939339 L 2984.200002217293 2713.900007939339 A 8 8 0 0 1 2976.200002217293 2721.900007939339 L 1614.600001358986 2721.900007939339 L 1614.600001358986 2721.900007939339 A 8 8 0 0 1 1606.600001358986 2713.900007939339 L 1606.600001358986 1293.6000035047532 L 1606.600001358986 1293.6000035047532 A 8 8 0 0 1 1614.600001358986 1285.6000035047532 L 2295.4000017881394 1285.6000035047532 Z" fill-opacity="1" stroke-opacity="1" stroke-miterlimit="10" stroke-width="5"/><rect fill="rgb(255,255,255)" stroke="none" x="2003.9000017881394" y="1236.6000035047532" width="583" height="96" fill-opacity="1"/><text fill="rgb(0,0,0)" stroke="none" font-family="Avenir, Helvetica, Arial, sans-serif" font-size="32px" font-style="normal" font-weight="bold" text-decoration="normal" x="2295.4000017881394" y="1300.6000035047532" text-anchor="middle" dominant-baseline="text-after-edge" fill-opacity="1">openstack_compute_instance_v2</text><path fill="rgb(255,255,255)" stroke="rgb(0,0,0)" paint-order="fill stroke markers" d=" M 2794.6000021457676 633.2000007152558 L 3116.6000021457676 633.2000007152558 L 3116.6000021457676 633.2000007152558 A 8 8 0 0 1 3124.6000021457676 641.2000007152558 L 3124.6000021457676 1199.200002861023 L 3124.6000021457676 1199.200002861023 A 8 8 0 0 1 3116.6000021457676 1207.200002861023 L 2472.6000021457676 1207.200002861023 L 2472.6000021457676 1207.200002861023 A 8 8 0 0 1 2464.6000021457676 1199.200002861023 L 2464.6000021457676 641.2000007152558 L 2464.6000021457676 641.2000007152558 A 8 8 0 0 1 2472.6000021457676 633.2000007152558 L 2794.6000021457676 633.2000007152558 Z" fill-opacity="1" stroke-opacity="1" stroke-miterlimit="10" stroke-width="5"/><rect fill="rgb(255,255,255)" stroke="none" x="2482.1000021457676" y="584.2000007152558" width="625" height="96" fill-opacity="1"/><text fill="rgb(0,0,0)" stroke="none" font-family="Avenir, Helvetica, Arial, sans-serif" font-size="32px" font-style="normal" font-weight="bold" text-decoration="normal" x="2794.6000021457676" y="648.2000007152558" text-anchor="middle" dominant-baseline="text-after-edge" fill-opacity="1">openstack_networking_network_v2</text><path fill="rgb(255,255,255)" stroke="rgb(0,0,0)" paint-order="fill stroke markers" d=" M 1198.2000007152558 1345.4000035762788 L 1520.2000007152558 1345.4000035762788 L 1520.2000007152558 1345.4000035762788 A 8 8 0 0 1 1528.2000007152558 1353.4000035762788 L 1528.2000007152558 2167.4000071525575 L 1528.2000007152558 2167.4000071525575 A 8 8 0 0 1 1520.2000007152558 2175.4000071525575 L 876.2000007152558 2175.4000071525575 L 876.2000007152558 2175.4000071525575 A 8 8 0 0 1 868.2000007152558 2167.4000071525575 L 868.2000007152558 1353.4000035762788 L 868.2000007152558 1353.4000035762788 A 8 8 0 0 1 876.2000007152558 1345.4000035762788 L 1198.2000007152558 1345.4000035762788 Z" fill-opacity="1" stroke-opacity="1" stroke-miterlimit="10" stroke-width="5"/><rect fill="rgb(255,255,255)" stroke="none" x="823.2000007152558" y="1296.4000035762788" width="750" height="96" fill-opacity="1"/><text fill="rgb(0,0,0)" stroke="none" font-family="Avenir, Helvetica, Arial, sans-serif" font-size="32px" font-style="normal" font-weight="bold" text-decoration="normal" x="1198.2000007152558" y="1360.4000035762788" text-anchor="middle" dominant-baseline="text-after-edge" fill-opacity="1">openstack_networking_router_interface_v2</text><path fill="rgb(255,255,255)" stroke="rgb(0,0,0)" paint-order="fill stroke markers" d=" M 400 1345.4000035762788 L 722 1345.4000035762788 L 722 1345.4000035762788 A 8 8 0 0 1 730 1353.4000035762788 L 730 1911.400005722046 L 730 1911.400005722046 A 8 8 0 0 1 722 1919.400005722046 L 78 1919.400005722046 L 78 1919.400005722046 A 8 8 0 0 1 70 1911.400005722046 L 70 1353.4000035762788 L 70 1353.4000035762788 A 8 8 0 0 1 78 1345.4000035762788 L 400 1345.4000035762788 Z" fill-opacity="1" stroke-opacity="1" stroke-miterlimit="10" stroke-width="5"/><rect fill="rgb(255,255,255)" stroke="none" x="99.5" y="1296.4000035762788" width="601" height="96" fill-opacity="1"/><text fill="rgb(0,0,0)" stroke="none" font-family="Avenir, Helvetica, Arial, sans-serif" font-size="32px" font-style="normal" font-weight="bold" text-decoration="normal" x="400" y="1360.4000035762788" text-anchor="middle" dominant-baseline="text-after-edge" fill-opacity="1">openstack_networking_subnet_v2</text><path fill="rgb(255,255,255)" stroke="rgb(0,0,0)" paint-order="fill stroke markers" d=" M 400 305 L 722 305 L 722 305 A 8 8 0 0 1 730 313 L 730 487 L 730 487 A 8 8 0 0 1 722 495 L 78 495 L 78 495 A 8 8 0 0 1 70 487 L 70 313 L 70 313 A 8 8 0 0 1 78 305 L 400 305 Z" fill-opacity="1" stroke-opacity="1" stroke-miterlimit="10" stroke-width="5"/><rect fill="rgb(255,255,255)" stroke="none" x="78" y="256" width="644" height="96" fill-opacity="1"/><text fill="rgb(0,0,0)" stroke="none" font-family="Avenir, Helvetica, Arial, sans-serif" font-size="32px" font-style="normal" font-weight="bold" text-decoration="normal" x="400" y="320" text-anchor="middle" dominant-baseline="text-after-edge" fill-opacity="1">openstack_networking_floatingip_v2</text><path fill="rgb(255,255,255)" stroke="rgb(0,0,0)" paint-order="fill stroke markers" d=" M 400 633.2000007152558 L 722 633.2000007152558 L 722 633.2000007152558 A 8 8 0 0 1 730 641.2000007152558 L 730 943.2000014305115 L 730 943.2000014305115 A 8 8 0 0 1 722 951.2000014305115 L 78 951.2000014305115 L 78 951.2000014305115 A 8 8 0 0 1 70 943.2000014305115 L 70 641.2000007152558 L 70 641.2000007152558 A 8 8 0 0 1 78 633.2000007152558 L 400 633.2000007152558 Z" fill-opacity="1" stroke-opacity="1" stroke-miterlimit="10" stroke-width="5"/><rect fill="rgb(255,255,255)" stroke="none" x="104" y="584.2000007152558" width="592" height="96" fill-opacity="1"/><text fill="rgb(0,0,0)" stroke="none" font-family="Avenir, Helvetica, Arial, sans-serif" font-size="32px" font-style="normal" font-weight="bold" text-decoration="normal" x="400" y="648.2000007152558" text-anchor="middle" dominant-baseline="text-after-edge" fill-opacity="1">openstack_networking_router_v2</text><path fill="rgb(255,255,255)" stroke="rgb(0,0,0)" paint-order="fill stroke markers" d=" M 1198.2000007152558 633.2000007152558 L 1520.2000007152558 633.2000007152558 L 1520.2000007152558 633.2000007152558 A 8 8 0 0 1 1528.2000007152558 641.2000007152558 L 1528.2000007152558 943.2000014305115 L 1528.2000007152558 943.2000014305115 A 8 8 0 0 1 1520.2000007152558 951.2000014305115 L 876.2000007152558 951.2000014305115 L 876.2000007152558 951.2000014305115 A 8 8 0 0 1 868.2000007152558 943.2000014305115 L 868.2000007152558 641.2000007152558 L 868.2000007152558 641.2000007152558 A 8 8 0 0 1 876.2000007152558 633.2000007152558 L 1198.2000007152558 633.2000007152558 Z" fill-opacity="1" stroke-opacity="1" stroke-miterlimit="10" stroke-width="5"/><rect fill="rgb(255,255,255)" stroke="none" x="940.2000007152558" y="584.2000007152558" width="516" height="96" fill-opacity="1"/><text fill="rgb(0,0,0)" stroke="none" font-family="Avenir, Helvetica, Arial, sans-serif" font-size="32px" font-style="normal" font-weight="bold" text-decoration="normal" x="1198.2000007152558" y="648.2000007152558" text-anchor="middle" dominant-baseline="text-after-edge" fill-opacity="1">openstack_images_image_v2</text><path fill="rgb(255,255,255)" stroke="rgb(0,0,0)" paint-order="fill stroke markers" d=" M 1198.2000007152558 305 L 1520.2000007152558 305 L 1520.2000007152558 305 A 8 8 0 0 1 1528.2000007152558 313 L 1528.2000007152558 487 L 1528.2000007152558 487 A 8 8 0 0 1 1520.2000007152558 495 L 876.2000007152558 495 L 876.2000007152558 495 A 8 8 0 0 1 868.2000007152558 487 L 868.2000007152558 313 L 868.2000007152558 313 A 8 8 0 0 1 876.2000007152558 305 L 1198.2000007152558 305 Z" fill-opacity="1" stroke-opacity="1" stroke-miterlimit="10" stroke-width="5"/><rect fill="rgb(255,255,255)" stroke="none" x="816.2000007152558" y="256" width="764" height="96" fill-opacity="1"/><text fill="rgb(0,0,0)" stroke="none" font-family="Avenir, Helvetica, Arial, sans-serif" font-size="32px" font-style="normal" font-weight="bold" text-decoration="normal" x="1198.2000007152558" y="320" text-anchor="middle" dominant-baseline="text-after-edge" fill-opacity="1">openstack_compute_floatingip_associate_v2</text><path fill="rgb(255,255,255)" stroke="rgb(0,0,0)" paint-order="fill stroke markers" d=" M 1996.4000014305116 305 L 2318.4000014305116 305 L 2318.4000014305116 305 A 8 8 0 0 1 2326.4000014305116 313 L 2326.4000014305116 487 L 2326.4000014305116 487 A 8 8 0 0 1 2318.4000014305116 495 L 1674.4000014305116 495 L 1674.4000014305116 495 A 8 8 0 0 1 1666.4000014305116 487 L 1666.4000014305116 313 L 1666.4000014305116 313 A 8 8 0 0 1 1674.4000014305116 305 L 1996.4000014305116 305 Z" fill-opacity="1" stroke-opacity="1" stroke-miterlimit="10" stroke-width="5"/><rect fill="rgb(255,255,255)" stroke="none" x="1717.4000014305116" y="256" width="558" height="96" fill-opacity="1"/><text fill="rgb(0,0,0)" stroke="none" font-family="Avenir, Helvetica, Arial, sans-serif" font-size="32px" font-style="normal" font-weight="bold" text-decoration="normal" x="1996.4000014305116" y="320" text-anchor="middle" dominant-baseline="text-after-edge" fill-opacity="1">openstack_networking_port_v2</text><path fill="rgb(255,255,255)" stroke="rgb(0,0,0)" paint-order="fill stroke markers" d=" M 1996.4000014305116 633.2000007152558 L 2318.4000014305116 633.2000007152558 L 2318.4000014305116 633.2000007152558 A 8 8 0 0 1 2326.4000014305116 641.2000007152558 L 2326.4000014305116 943.2000014305115 L 2326.4000014305116 943.2000014305115 A 8 8 0 0 1 2318.4000014305116 951.2000014305115 L 1674.4000014305116 951.2000014305115 L 1674.4000014305116 951.2000014305115 A 8 8 0 0 1 1666.4000014305116 943.2000014305115 L 1666.4000014305116 641.2000007152558 L 1666.4000014305116 641.2000007152558 A 8 8 0 0 1 1674.4000014305116 633.2000007152558 L 1996.4000014305116 633.2000007152558 Z" fill-opacity="1" stroke-opacity="1" stroke-miterlimit="10" stroke-width="5"/><rect fill="rgb(255,255,255)" stroke="none" x="1700.9000014305116" y="584.2000007152558" width="591" height="96" fill-opacity="1"/><text fill="rgb(0,0,0)" stroke="none" font-family="Avenir, Helvetica, Arial, sans-serif" font-size="32px" font-style="normal" font-weight="bold" text-decoration="normal" x="1996.4000014305116" y="648.2000007152558" text-anchor="middle" dominant-baseline="text-after-edge" fill-opacity="1">openstack_compute_secgroup_v2</text><path fill="rgb(255,255,255)" stroke="rgb(0,0,0)" paint-order="fill stroke markers" d=" M 2794.6000021457676 305 L 3116.6000021457676 305 L 3116.6000021457676 305 A 8 8 0 0 1 3124.6000021457676 313 L 3124.6000021457676 487 L 3124.6000021457676 487 A 8 8 0 0 1 3116.6000021457676 495 L 2472.6000021457676 495 L 2472.6000021457676 495 A 8 8 0 0 1 2464.6000021457676 487 L 2464.6000021457676 313 L 2464.6000021457676 313 A 8 8 0 0 1 2472.6000021457676 305 L 2794.6000021457676 305 Z" fill-opacity="1" stroke-opacity="1" stroke-miterlimit="10" stroke-width="5"/><rect fill="rgb(255,255,255)" stroke="none" x="2524.1000021457676" y="256" width="541" height="96" fill-opacity="1"/><text fill="rgb(0,0,0)" stroke="none" font-family="Avenir, Helvetica, Arial, sans-serif" font-size="32px" font-style="normal" font-weight="bold" text-decoration="normal" x="2794.6000021457676" y="320" text-anchor="middle" dominant-baseline="text-after-edge" fill-opacity="1">openstack_compute_flavor_v2</text><path fill="rgb(255,255,255)" stroke="rgb(0,0,0)" paint-order="fill stroke markers" d=" M 2096.4000014305116 1573.4000042915345 L 2418.4000014305116 1573.4000042915345 L 2418.4000014305116 1573.4000042915345 A 8 8 0 0 1 2426.4000014305116 1581.4000042915345 L 2426.4000014305116 2011.400005722046 L 2426.4000014305116 2011.400005722046 A 8 8 0 0 1 2418.4000014305116 2019.400005722046 L 1774.4000014305116 2019.400005722046 L 1774.4000014305116 2019.400005722046 A 8 8 0 0 1 1766.4000014305116 2011.400005722046 L 1766.4000014305116 1581.4000042915345 L 1766.4000014305116 1581.4000042915345 A 8 8 0 0 1 1774.4000014305116 1573.4000042915345 L 2096.4000014305116 1573.4000042915345 Z" fill-opacity="1" stroke-opacity="1" stroke-miterlimit="10" stroke-width="5"/><rect fill="rgb(255,255,255)" stroke="none" x="1980.4000014305116" y="1524.4000042915345" width="232" height="96" fill-opacity="1"/><text fill="rgb(0,0,0)" stroke="none" font-family="Avenir, Helvetica, Arial, sans-serif" font-size="32px" font-style="normal" font-weight="bold" text-decoration="normal" x="2096.4000014305116" y="1588.4000042915345" text-anchor="middle" dominant-baseline="text-after-edge" fill-opacity="1">instance_2</text><path fill="rgb(255,255,255)" stroke="rgb(0,0,0)" paint-order="fill stroke markers" d=" M 2096.4000014305116 2157.600006437302 L 2418.4000014305116 2157.600006437302 L 2418.4000014305116 2157.600006437302 A 8 8 0 0 1 2426.4000014305116 2165.600006437302 L 2426.4000014305116 2595.6000078678135 L 2426.4000014305116 2595.6000078678135 A 8 8 0 0 1 2418.4000014305116 2603.6000078678135 L 1774.4000014305116 2603.6000078678135 L 1774.4000014305116 2603.6000078678135 A 8 8 0 0 1 1766.4000014305116 2595.6000078678135 L 1766.4000014305116 2165.600006437302 L 1766.4000014305116 2165.600006437302 A 8 8 0 0 1 1774.4000014305116 2157.600006437302 L 2096.4000014305116 2157.600006437302 Z" fill-opacity="1" stroke-opacity="1" stroke-miterlimit="10" stroke-width="5"/><rect fill="rgb(255,255,255)" stroke="none" x="1980.4000014305116" y="2108.600006437302" width="232" height="96" fill-opacity="1"/><text fill="rgb(0,0,0)" stroke="none" font-family="Avenir, Helvetica, Arial, sans-serif" font-size="32px" font-style="normal" font-weight="bold" text-decoration="normal" x="2096.4000014305116" y="2172.600006437302" text-anchor="middle" dominant-baseline="text-after-edge" fill-opacity="1">instance_3</text><path fill="none" stroke="url(#eHxwlvaeRMGi)" paint-order="fill stroke markers" d=" M 2320.4000021457673 1440.4000035762788 L 1896.3000014305117 1440.4000035762788 L 1896.3000014305117 728.2000007152558 L 1472.2000007152558 728.2000007152558" stroke-linejoin="round" stroke-miterlimit="10" stroke-width="10"/><path fill="none" stroke="url(#mxrkqZBdBIxF)" paint-order="fill stroke markers" d=" M 673.9999999999999 1824.400005722046 L 1597.3000010728838 1824.400005722046 L 1597.3000010728838 984.2000021457673 L 2520.6000021457676 984.2000021457673" stroke-linejoin="round" stroke-miterlimit="10" stroke-width="10"/><path fill="none" stroke="url(#lPbIIucouLLL)" paint-order="fill stroke markers" d=" M 924.2000007152558 400 L 799.1000003576278 400 L 799.1000003576278 400 L 674 400" stroke-linejoin="round" stroke-miterlimit="10" stroke-width="10"/><path fill="none" stroke="url(#XVoWGJyyzvcK)" paint-order="fill stroke markers" d=" M 1198.2000007152558 439 L 1198.2000007152558 920.2000017881394 L 1996.4000014305116 920.2000017881394 L 1996.4000014305116 1401.4000035762788" stroke-linejoin="round" stroke-miterlimit="10" stroke-width="10"/><path fill="none" stroke="url(#JzLtwMxNNKRb)" paint-order="fill stroke markers" d=" M 1996.4000014305116 1401.4000035762788 L 1996.4000014305116 1148.3000025033953 L 1198.2000007152558 1148.3000025033953 L 1198.2000007152558 895.2000014305115" stroke-linejoin="round" stroke-miterlimit="10" stroke-width="10"/><path fill="none" stroke="url(#RdFHnLewIhzx)" paint-order="fill stroke markers" d=" M 2096.4000014305116 2155.100006437302 L 2096.4000014305116 1461.1500035762788 L 1198.2000007152558 1461.1500035762788 L 1198.2000007152558 767.2000007152558" stroke-linejoin="round" stroke-miterlimit="10" stroke-width="10"/><path fill="none" stroke="url(#oBkRJnqLXHzg)" paint-order="fill stroke markers" d=" M 1198.2000007152558 1913.4000064373017 L 1198.2000007152558 1404.3000039339067 L 400 1404.3000039339067 L 400 895.2000014305115" stroke-linejoin="round" stroke-miterlimit="10" stroke-width="10"/><path fill="none" stroke="url(#LWzRULNqLfkH)" paint-order="fill stroke markers" d=" M 1198.2000007152558 1913.4000064373017 L 1198.2000007152558 1696.4000050067903 L 400 1696.4000050067903 L 400 1479.4000035762788" stroke-linejoin="round" stroke-miterlimit="10" stroke-width="10"/><path fill="none" stroke="url(#aiAKWFylDTCe)" paint-order="fill stroke markers" d=" M 1198.2000007152558 1657.4000050067903 L 1198.2000007152558 1276.300003218651 L 400 1276.300003218651 L 400 895.2000014305115" stroke-linejoin="round" stroke-miterlimit="10" stroke-width="10"/><path fill="none" stroke="url(#pGXyozeomJNV)" paint-order="fill stroke markers" d=" M 924.2000007152558 1696.4000050067903 L 799.1000003576278 1696.4000050067903 L 799.1000003576278 1824.400005722046 L 674 1824.400005722046" stroke-linejoin="round" stroke-miterlimit="10" stroke-width="10"/><path fill="none" stroke="url(#CUfwWBQGMEbi)" paint-order="fill stroke markers" d=" M 1198.2000007152558 1785.400005722046 L 1198.2000007152558 1276.300003218651 L 400 1276.300003218651 L 400 767.2000007152558" stroke-linejoin="round" stroke-miterlimit="10" stroke-width="10"/><path fill="none" stroke="url(#fVNyHwePMylD)" paint-order="fill stroke markers" d=" M 924.2000007152558 1824.400005722046 L 799.1000003576278 1824.400005722046 L 799.1000003576278 1696.4000050067903 L 674 1696.4000050067903" stroke-linejoin="round" stroke-miterlimit="10" stroke-width="10"/><path fill="none" stroke="url(#VIopqmhzzaSr)" paint-order="fill stroke markers" d=" M 1996.4000014305116 439 L 1996.4000014305116 756.1000014305115 L 2794.6000021457676 756.1000014305115 L 2794.6000021457676 1073.200002861023" stroke-linejoin="round" stroke-miterlimit="10" stroke-width="10"/><path fill="none" stroke="url(#cmNNcwkCUKbI)" paint-order="fill stroke markers" d=" M 1996.4000014305116 439 L 1996.4000014305116 628.1000007152558 L 1996.4000014305116 628.1000007152558 L 1996.4000014305116 817.2000014305115" stroke-linejoin="round" stroke-miterlimit="10" stroke-width="10"/><path fill="none" stroke="url(#fzwggdEJuRom)" paint-order="fill stroke markers" d=" M 1996.4000014305116 439 L 1996.4000014305116 564.1000003576279 L 1996.4000014305116 564.1000003576279 L 1996.4000014305116 689.2000007152558" stroke-linejoin="round" stroke-miterlimit="10" stroke-width="10"/><path fill="none" stroke="url(#MtaiLeEQpvUg)" paint-order="fill stroke markers" d=" M 1198.2000007152558 2041.4000071525575 L 1198.2000007152558 1468.3000042915346 L 400 1468.3000042915346 L 400 895.2000014305115" stroke-linejoin="round" stroke-miterlimit="10" stroke-width="10"/><path fill="none" stroke="url(#XGAPOfRCJDwR)" paint-order="fill stroke markers" d=" M 1198.2000007152558 2041.4000071525575 L 1198.2000007152558 1888.4000060796739 L 400 1888.4000060796739 L 400 1735.4000050067903" stroke-linejoin="round" stroke-miterlimit="10" stroke-width="10"/><path fill="none" stroke="url(#stwVtASqcdHP)" paint-order="fill stroke markers" d=" M 673.9999999999999 1440.4000035762788 L 1597.3000010728838 1440.4000035762788 L 1597.3000010728838 728.2000007152558 L 2520.6000021457676 728.2000007152558" stroke-linejoin="round" stroke-miterlimit="10" stroke-width="10"/><path fill="none" stroke="url(#TPTbREvtNtwx)" paint-order="fill stroke markers" d=" M 2096.4000014305116 1570.9000042915345 L 2096.4000014305116 1169.0500025033953 L 1198.2000007152558 1169.0500025033953 L 1198.2000007152558 767.2000007152558" stroke-linejoin="round" stroke-miterlimit="10" stroke-width="10"/><path fill="none" stroke="url(#dDkomVnzanvT)" paint-order="fill stroke markers" d=" M 1198.2000007152558 1401.4000035762788 L 1198.2000007152558 1084.3000021457674 L 400 1084.3000021457674 L 400 767.2000007152558" stroke-linejoin="round" stroke-miterlimit="10" stroke-width="10"/><path fill="none" stroke="url(#KDNPTivfiXvd)" paint-order="fill stroke markers" d=" M 924.2000007152558 1440.4000035762788 L 799.1000003576278 1440.4000035762788 L 799.1000003576278 1568.4000042915345 L 674 1568.4000042915345" stroke-linejoin="round" stroke-miterlimit="10" stroke-width="10"/><path fill="none" stroke="url(#FKckhABtavlJ)" paint-order="fill stroke markers" d=" M 673.9999999999999 1568.4000042915345 L 1597.3000010728838 1568.4000042915345 L 1597.3000010728838 1112.200002861023 L 2520.6000021457676 1112.200002861023" stroke-linejoin="round" stroke-miterlimit="10" stroke-width="10"/><path fill="none" stroke="url(#QNeVoyyUyPpN)" paint-order="fill stroke markers" d=" M 673.9999999999999 1696.4000050067903 L 1597.3000010728838 1696.4000050067903 L 1597.3000010728838 856.2000014305115 L 2520.6000021457676 856.2000014305115" stroke-linejoin="round" stroke-miterlimit="10" stroke-width="10"/><path fill="none" stroke="url(#eBhMckGevxPr)" paint-order="fill stroke markers" d=" M 1198.2000007152558 1529.4000042915345 L 1198.2000007152558 1148.3000025033953 L 400 1148.3000025033953 L 400 767.2000007152558" stroke-linejoin="round" stroke-miterlimit="10" stroke-width="10"/><path fill="none" stroke="url(#iUPpGNZtLepv)" paint-order="fill stroke markers" d=" M 924.2000007152558 1568.4000042915345 L 799.1000003576278 1568.4000042915345 L 799.1000003576278 1824.400005722046 L 674 1824.400005722046" stroke-linejoin="round" stroke-miterlimit="10" stroke-width="10"/><path fill="rgb(40,167,69)" stroke="url(#iUPpGNZtLepv)" paint-order="stroke fill markers" d=" M 2096.4000014305116 1629.4000042915345 L 2362.4000014305116 1629.4000042915345 L 2362.4000014305116 1629.4000042915345 A 8 8 0 0 1 2370.4000014305116 1637.4000042915345 L 2370.4000014305116 1699.4000042915345 L 2370.4000014305116 1699.4000042915345 A 8 8 0 0 1 2362.4000014305116 1707.4000042915345 L 1830.4000014305116 1707.4000042915345 L 1830.4000014305116 1707.4000042915345 A 8 8 0 0 1 1822.4000014305116 1699.4000042915345 L 1822.4000014305116 1637.4000042915345 L 1822.4000014305116 1637.4000042915345 A 8 8 0 0 1 1830.4000014305116 1629.4000042915345 L 2096.4000014305116 1629.4000042915345 Z" fill-opacity="1"/><text fill="rgb(255,255,255)" stroke="none" font-family="Avenir, Helvetica, Arial, sans-serif" font-size="32px" font-style="normal" font-weight="bold" text-decoration="normal" x="2096.4000014305116" y="1684.4000042915345" text-anchor="middle" dominant-baseline="text-after-edge" fill-opacity="1">instance_2[0]</text><path fill="rgb(40,167,69)" stroke="none" paint-order="stroke fill markers" d=" M 2096.4000014305116 1757.4000050067903 L 2362.4000014305116 1757.4000050067903 L 2362.4000014305116 1757.4000050067903 A 8 8 0 0 1 2370.4000014305116 1765.4000050067903 L 2370.4000014305116 1827.4000050067903 L 2370.4000014305116 1827.4000050067903 A 8 8 0 0 1 2362.4000014305116 1835.4000050067903 L 1830.4000014305116 1835.4000050067903 L 1830.4000014305116 1835.4000050067903 A 8 8 0 0 1 1822.4000014305116 1827.4000050067903 L 1822.4000014305116 1765.4000050067903 L 1822.4000014305116 1765.4000050067903 A 8 8 0 0 1 1830.4000014305116 1757.4000050067903 L 2096.4000014305116 1757.4000050067903 Z" fill-opacity="1"/><text fill="rgb(255,255,255)" stroke="none" font-family="Avenir, Helvetica, Arial, sans-serif" font-size="32px" font-style="normal" font-weight="bold" text-decoration="normal" x="2096.4000014305116" y="1812.4000050067903" text-anchor="middle" dominant-baseline="text-after-edge" fill-opacity="1">instance_2[1]</text><path fill="rgb(40,167,69)" stroke="none" paint-order="stroke fill markers" d=" M 2096.4000014305116 1885.400005722046 L 2362.4000014305116 1885.400005722046 L 2362.4000014305116 1885.400005722046 A 8 8 0 0 1 2370.4000014305116 1893.400005722046 L 2370.4000014305116 1955.400005722046 L 2370.4000014305116 1955.400005722046 A 8 8 0 0 1 2362.4000014305116 1963.400005722046 L 1830.4000014305116 1963.400005722046 L 1830.4000014305116 1963.400005722046 A 8 8 0 0 1 1822.4000014305116 1955.400005722046 L 1822.4000014305116 1893.400005722046 L 1822.4000014305116 1893.400005722046 A 8 8 0 0 1 1830.4000014305116 1885.400005722046 L 2096.4000014305116 1885.400005722046 Z" fill-opacity="1"/><text fill="rgb(255,255,255)" stroke="none" font-family="Avenir, Helvetica, Arial, sans-serif" font-size="32px" font-style="normal" font-weight="bold" text-decoration="normal" x="2096.4000014305116" y="1940.400005722046" text-anchor="middle" dominant-baseline="text-after-edge" fill-opacity="1">instance_2[2]</text><path fill="rgb(40,167,69)" stroke="none" paint-order="stroke fill markers" d=" M 2794.6000021457676 689.2000007152558 L 3060.6000021457676 689.2000007152558 L 3060.6000021457676 689.2000007152558 A 8 8 0 0 1 3068.6000021457676 697.2000007152558 L 3068.6000021457676 759.2000007152558 L 3068.6000021457676 759.2000007152558 A 8 8 0 0 1 3060.6000021457676 767.2000007152558 L 2528.6000021457676 767.2000007152558 L 2528.6000021457676 767.2000007152558 A 8 8 0 0 1 2520.6000021457676 759.2000007152558 L 2520.6000021457676 697.2000007152558 L 2520.6000021457676 697.2000007152558 A 8 8 0 0 1 2528.6000021457676 689.2000007152558 L 2794.6000021457676 689.2000007152558 Z" fill-opacity="1"/><text fill="rgb(255,255,255)" stroke="none" font-family="Avenir, Helvetica, Arial, sans-serif" font-size="32px" font-style="normal" font-weight="bold" text-decoration="normal" x="2794.6000021457676" y="744.2000007152558" text-anchor="middle" dominant-baseline="text-after-edge" fill-opacity="1">private_3</text><path fill="rgb(40,167,69)" stroke="none" paint-order="stroke fill markers" d=" M 1198.2000007152558 1401.4000035762788 L 1464.2000007152558 1401.4000035762788 L 1464.2000007152558 1401.4000035762788 A 8 8 0 0 1 1472.2000007152558 1409.4000035762788 L 1472.2000007152558 1471.4000035762788 L 1472.2000007152558 1471.4000035762788 A 8 8 0 0 1 1464.2000007152558 1479.4000035762788 L 932.2000007152558 1479.4000035762788 L 932.2000007152558 1479.4000035762788 A 8 8 0 0 1 924.2000007152558 1471.4000035762788 L 924.2000007152558 1409.4000035762788 L 924.2000007152558 1409.4000035762788 A 8 8 0 0 1 932.2000007152558 1401.4000035762788 L 1198.2000007152558 1401.4000035762788 Z" fill-opacity="1"/><text fill="rgb(255,255,255)" stroke="none" font-family="Avenir, Helvetica, Arial, sans-serif" font-size="32px" font-style="normal" font-weight="bold" text-decoration="normal" x="1198.2000007152558" y="1456.4000035762788" text-anchor="middle" dominant-baseline="text-after-edge" fill-opacity="1">interface_1</text><path fill="rgb(40,167,69)" stroke="none" paint-order="stroke fill markers" d=" M 400 1401.4000035762788 L 666 1401.4000035762788 L 666 1401.4000035762788 A 8 8 0 0 1 674 1409.4000035762788 L 674 1471.4000035762788 L 674 1471.4000035762788 A 8 8 0 0 1 666 1479.4000035762788 L 134 1479.4000035762788 L 134 1479.4000035762788 A 8 8 0 0 1 126 1471.4000035762788 L 126 1409.4000035762788 L 126 1409.4000035762788 A 8 8 0 0 1 134 1401.4000035762788 L 400 1401.4000035762788 Z" fill-opacity="1"/><text fill="rgb(255,255,255)" stroke="none" font-family="Avenir, Helvetica, Arial, sans-serif" font-size="32px" font-style="normal" font-weight="bold" text-decoration="normal" x="400" y="1456.4000035762788" text-anchor="middle" dominant-baseline="text-after-edge" fill-opacity="1">subnet_3</text><path fill="rgb(40,167,69)" stroke="none" paint-order="stroke fill markers" d=" M 400 361 L 666 361 L 666 361 A 8 8 0 0 1 674 369 L 674 431 L 674 431 A 8 8 0 0 1 666 439 L 134 439 L 134 439 A 8 8 0 0 1 126 431 L 126 369 L 126 369 A 8 8 0 0 1 134 361 L 400 361 Z" fill-opacity="1"/><text fill="rgb(255,255,255)" stroke="none" font-family="Avenir, Helvetica, Arial, sans-serif" font-size="32px" font-style="normal" font-weight="bold" text-decoration="normal" x="400" y="416" text-anchor="middle" dominant-baseline="text-after-edge" fill-opacity="1">http</text><path fill="rgb(40,167,69)" stroke="none" paint-order="stroke fill markers" d=" M 400 1529.4000042915345 L 666 1529.4000042915345 L 666 1529.4000042915345 A 8 8 0 0 1 674 1537.4000042915345 L 674 1599.4000042915345 L 674 1599.4000042915345 A 8 8 0 0 1 666 1607.4000042915345 L 134 1607.4000042915345 L 134 1607.4000042915345 A 8 8 0 0 1 126 1599.4000042915345 L 126 1537.4000042915345 L 126 1537.4000042915345 A 8 8 0 0 1 134 1529.4000042915345 L 400 1529.4000042915345 Z" fill-opacity="1"/><text fill="rgb(255,255,255)" stroke="none" font-family="Avenir, Helvetica, Arial, sans-serif" font-size="32px" font-style="normal" font-weight="bold" text-decoration="normal" x="400" y="1584.4000042915345" text-anchor="middle" dominant-baseline="text-after-edge" fill-opacity="1">subnet_1</text><path fill="rgb(40,167,69)" stroke="none" paint-order="stroke fill markers" d=" M 2794.6000021457676 817.2000014305115 L 3060.6000021457676 817.2000014305115 L 3060.6000021457676 817.2000014305115 A 8 8 0 0 1 3068.6000021457676 825.2000014305115 L 3068.6000021457676 887.2000014305115 L 3068.6000021457676 887.2000014305115 A 8 8 0 0 1 3060.6000021457676 895.2000014305115 L 2528.6000021457676 895.2000014305115 L 2528.6000021457676 895.2000014305115 A 8 8 0 0 1 2520.6000021457676 887.2000014305115 L 2520.6000021457676 825.2000014305115 L 2520.6000021457676 825.2000014305115 A 8 8 0 0 1 2528.6000021457676 817.2000014305115 L 2794.6000021457676 817.2000014305115 Z" fill-opacity="1"/><text fill="rgb(255,255,255)" stroke="none" font-family="Avenir, Helvetica, Arial, sans-serif" font-size="32px" font-style="normal" font-weight="bold" text-decoration="normal" x="2794.6000021457676" y="872.2000014305115" text-anchor="middle" dominant-baseline="text-after-edge" fill-opacity="1">private_2</text><path fill="rgb(40,167,69)" stroke="none" paint-order="stroke fill markers" d=" M 400 689.2000007152558 L 666 689.2000007152558 L 666 689.2000007152558 A 8 8 0 0 1 674 697.2000007152558 L 674 759.2000007152558 L 674 759.2000007152558 A 8 8 0 0 1 666 767.2000007152558 L 134 767.2000007152558 L 134 767.2000007152558 A 8 8 0 0 1 126 759.2000007152558 L 126 697.2000007152558 L 126 697.2000007152558 A 8 8 0 0 1 134 689.2000007152558 L 400 689.2000007152558 Z" fill-opacity="1"/><text fill="rgb(255,255,255)" stroke="none" font-family="Avenir, Helvetica, Arial, sans-serif" font-size="32px" font-style="normal" font-weight="bold" text-decoration="normal" x="400" y="744.2000007152558" text-anchor="middle" dominant-baseline="text-after-edge" fill-opacity="1">router_1</text><path fill="rgb(40,167,69)" stroke="none" paint-order="stroke fill markers" d=" M 400 1657.4000050067903 L 666 1657.4000050067903 L 666 1657.4000050067903 A 8 8 0 0 1 674 1665.4000050067903 L 674 1727.4000050067903 L 674 1727.4000050067903 A 8 8 0 0 1 666 1735.4000050067903 L 134 1735.4000050067903 L 134 1735.4000050067903 A 8 8 0 0 1 126 1727.4000050067903 L 126 1665.4000050067903 L 126 1665.4000050067903 A 8 8 0 0 1 134 1657.4000050067903 L 400 1657.4000050067903 Z" fill-opacity="1"/><text fill="rgb(255,255,255)" stroke="none" font-family="Avenir, Helvetica, Arial, sans-serif" font-size="32px" font-style="normal" font-weight="bold" text-decoration="normal" x="400" y="1712.4000050067903" text-anchor="middle" dominant-baseline="text-after-edge" fill-opacity="1">subnet_2</text><path fill="rgb(40,167,69)" stroke="none" paint-order="stroke fill markers" d=" M 1198.2000007152558 1529.4000042915345 L 1464.2000007152558 1529.4000042915345 L 1464.2000007152558 1529.4000042915345 A 8 8 0 0 1 1472.2000007152558 1537.4000042915345 L 1472.2000007152558 1599.4000042915345 L 1472.2000007152558 1599.4000042915345 A 8 8 0 0 1 1464.2000007152558 1607.4000042915345 L 932.2000007152558 1607.4000042915345 L 932.2000007152558 1607.4000042915345 A 8 8 0 0 1 924.2000007152558 1599.4000042915345 L 924.2000007152558 1537.4000042915345 L 924.2000007152558 1537.4000042915345 A 8 8 0 0 1 932.2000007152558 1529.4000042915345 L 1198.2000007152558 1529.4000042915345 Z" fill-opacity="1"/><text fill="rgb(255,255,255)" stroke="none" font-family="Avenir, Helvetica, Arial, sans-serif" font-size="32px" font-style="normal" font-weight="bold" text-decoration="normal" x="1198.2000007152558" y="1584.4000042915345" text-anchor="middle" dominant-baseline="text-after-edge" fill-opacity="1">interface_5</text><path fill="rgb(40,167,69)" stroke="none" paint-order="stroke fill markers" d=" M 2794.6000021457676 945.2000021457673 L 3060.6000021457676 945.2000021457673 L 3060.6000021457676 945.2000021457673 A 8 8 0 0 1 3068.6000021457676 953.2000021457673 L 3068.6000021457676 1015.2000021457673 L 3068.6000021457676 1015.2000021457673 A 8 8 0 0 1 3060.6000021457676 1023.2000021457673 L 2528.6000021457676 1023.2000021457673 L 2528.6000021457676 1023.2000021457673 A 8 8 0 0 1 2520.6000021457676 1015.2000021457673 L 2520.6000021457676 953.2000021457673 L 2520.6000021457676 953.2000021457673 A 8 8 0 0 1 2528.6000021457676 945.2000021457673 L 2794.6000021457676 945.2000021457673 Z" fill-opacity="1"/><text fill="rgb(255,255,255)" stroke="none" font-family="Avenir, Helvetica, Arial, sans-serif" font-size="32px" font-style="normal" font-weight="bold" text-decoration="normal" x="2794.6000021457676" y="1000.2000021457673" text-anchor="middle" dominant-baseline="text-after-edge" fill-opacity="1">private_4</text><path fill="rgb(40,167,69)" stroke="none" paint-order="stroke fill markers" d=" M 400 1785.400005722046 L 666 1785.400005722046 L 666 1785.400005722046 A 8 8 0 0 1 674 1793.400005722046 L 674 1855.400005722046 L 674 1855.400005722046 A 8 8 0 0 1 666 1863.400005722046 L 134 1863.400005722046 L 134 1863.400005722046 A 8 8 0 0 1 126 1855.400005722046 L 126 1793.400005722046 L 126 1793.400005722046 A 8 8 0 0 1 134 1785.400005722046 L 400 1785.400005722046 Z" fill-opacity="1"/><text fill="rgb(255,255,255)" stroke="none" font-family="Avenir, Helvetica, Arial, sans-serif" font-size="32px" font-style="normal" font-weight="bold" text-decoration="normal" x="400" y="1840.400005722046" text-anchor="middle" dominant-baseline="text-after-edge" fill-opacity="1">subnet_4</text><path fill="rgb(40,167,69)" stroke="none" paint-order="stroke fill markers" d=" M 1198.2000007152558 689.2000007152558 L 1464.2000007152558 689.2000007152558 L 1464.2000007152558 689.2000007152558 A 8 8 0 0 1 1472.2000007152558 697.2000007152558 L 1472.2000007152558 759.2000007152558 L 1472.2000007152558 759.2000007152558 A 8 8 0 0 1 1464.2000007152558 767.2000007152558 L 932.2000007152558 767.2000007152558 L 932.2000007152558 767.2000007152558 A 8 8 0 0 1 924.2000007152558 759.2000007152558 L 924.2000007152558 697.2000007152558 L 924.2000007152558 697.2000007152558 A 8 8 0 0 1 932.2000007152558 689.2000007152558 L 1198.2000007152558 689.2000007152558 Z" fill-opacity="1"/><text fill="rgb(255,255,255)" stroke="none" font-family="Avenir, Helvetica, Arial, sans-serif" font-size="32px" font-style="normal" font-weight="bold" text-decoration="normal" x="1198.2000007152558" y="744.2000007152558" text-anchor="middle" dominant-baseline="text-after-edge" fill-opacity="1">cirros</text><path fill="rgb(40,167,69)" stroke="none" paint-order="stroke fill markers" d=" M 1198.2000007152558 361 L 1464.2000007152558 361 L 1464.2000007152558 361 A 8 8 0 0 1 1472.2000007152558 369 L 1472.2000007152558 431 L 1472.2000007152558 431 A 8 8 0 0 1 1464.2000007152558 439 L 932.2000007152558 439 L 932.2000007152558 439 A 8 8 0 0 1 924.2000007152558 431 L 924.2000007152558 369 L 924.2000007152558 369 A 8 8 0 0 1 932.2000007152558 361 L 1198.2000007152558 361 Z" fill-opacity="1"/><text fill="rgb(255,255,255)" stroke="none" font-family="Avenir, Helvetica, Arial, sans-serif" font-size="32px" font-style="normal" font-weight="bold" text-decoration="normal" x="1198.2000007152558" y="416" text-anchor="middle" dominant-baseline="text-after-edge" fill-opacity="1">http</text><path fill="rgb(40,167,69)" stroke="none" paint-order="stroke fill markers" d=" M 1996.4000014305116 1401.4000035762788 L 2262.4000014305116 1401.4000035762788 L 2262.4000014305116 1401.4000035762788 A 8 8 0 0 1 2270.4000014305116 1409.4000035762788 L 2270.4000014305116 1471.4000035762788 L 2270.4000014305116 1471.4000035762788 A 8 8 0 0 1 2262.4000014305116 1479.4000035762788 L 1730.4000014305116 1479.4000035762788 L 1730.4000014305116 1479.4000035762788 A 8 8 0 0 1 1722.4000014305116 1471.4000035762788 L 1722.4000014305116 1409.4000035762788 L 1722.4000014305116 1409.4000035762788 A 8 8 0 0 1 1730.4000014305116 1401.4000035762788 L 1996.4000014305116 1401.4000035762788 Z" fill-opacity="1"/><text fill="rgb(255,255,255)" stroke="none" font-family="Avenir, Helvetica, Arial, sans-serif" font-size="32px" font-style="normal" font-weight="bold" text-decoration="normal" x="1996.4000014305116" y="1456.4000035762788" text-anchor="middle" dominant-baseline="text-after-edge" fill-opacity="1">instance_1</text><path fill="rgb(40,167,69)" stroke="none" paint-order="stroke fill markers" d=" M 2096.4000014305116 2213.600006437302 L 2362.4000014305116 2213.600006437302 L 2362.4000014305116 2213.600006437302 A 8 8 0 0 1 2370.4000014305116 2221.600006437302 L 2370.4000014305116 2283.600006437302 L 2370.4000014305116 2283.600006437302 A 8 8 0 0 1 2362.4000014305116 2291.600006437302 L 1830.4000014305116 2291.600006437302 L 1830.4000014305116 2291.600006437302 A 8 8 0 0 1 1822.4000014305116 2283.600006437302 L 1822.4000014305116 2221.600006437302 L 1822.4000014305116 2221.600006437302 A 8 8 0 0 1 1830.4000014305116 2213.600006437302 L 2096.4000014305116 2213.600006437302 Z" fill-opacity="1"/><text fill="rgb(255,255,255)" stroke="none" font-family="Avenir, Helvetica, Arial, sans-serif" font-size="32px" font-style="normal" font-weight="bold" text-decoration="normal" x="2096.4000014305116" y="2268.600006437302" text-anchor="middle" dominant-baseline="text-after-edge" fill-opacity="1">instance_3[0]</text><path fill="rgb(40,167,69)" stroke="none" paint-order="stroke fill markers" d=" M 2096.4000014305116 2341.6000071525577 L 2362.4000014305116 2341.6000071525577 L 2362.4000014305116 2341.6000071525577 A 8 8 0 0 1 2370.4000014305116 2349.6000071525577 L 2370.4000014305116 2411.6000071525577 L 2370.4000014305116 2411.6000071525577 A 8 8 0 0 1 2362.4000014305116 2419.6000071525577 L 1830.4000014305116 2419.6000071525577 L 1830.4000014305116 2419.6000071525577 A 8 8 0 0 1 1822.4000014305116 2411.6000071525577 L 1822.4000014305116 2349.6000071525577 L 1822.4000014305116 2349.6000071525577 A 8 8 0 0 1 1830.4000014305116 2341.6000071525577 L 2096.4000014305116 2341.6000071525577 Z" fill-opacity="1"/><text fill="rgb(255,255,255)" stroke="none" font-family="Avenir, Helvetica, Arial, sans-serif" font-size="32px" font-style="normal" font-weight="bold" text-decoration="normal" x="2096.4000014305116" y="2396.6000071525577" text-anchor="middle" dominant-baseline="text-after-edge" fill-opacity="1">instance_3[1]</text><path fill="rgb(40,167,69)" stroke="none" paint-order="stroke fill markers" d=" M 2096.4000014305116 2469.6000078678135 L 2362.4000014305116 2469.6000078678135 L 2362.4000014305116 2469.6000078678135 A 8 8 0 0 1 2370.4000014305116 2477.6000078678135 L 2370.4000014305116 2539.6000078678135 L 2370.4000014305116 2539.6000078678135 A 8 8 0 0 1 2362.4000014305116 2547.6000078678135 L 1830.4000014305116 2547.6000078678135 L 1830.4000014305116 2547.6000078678135 A 8 8 0 0 1 1822.4000014305116 2539.6000078678135 L 1822.4000014305116 2477.6000078678135 L 1822.4000014305116 2477.6000078678135 A 8 8 0 0 1 1830.4000014305116 2469.6000078678135 L 2096.4000014305116 2469.6000078678135 Z" fill-opacity="1"/><text fill="rgb(255,255,255)" stroke="none" font-family="Avenir, Helvetica, Arial, sans-serif" font-size="32px" font-style="normal" font-weight="bold" text-decoration="normal" x="2096.4000014305116" y="2524.6000078678135" text-anchor="middle" dominant-baseline="text-after-edge" fill-opacity="1">instance_3[2]</text><path fill="rgb(40,167,69)" stroke="none" paint-order="stroke fill markers" d=" M 2594.4000021457673 1401.4000035762788 L 2860.4000021457673 1401.4000035762788 L 2860.4000021457673 1401.4000035762788 A 8 8 0 0 1 2868.4000021457673 1409.4000035762788 L 2868.4000021457673 1471.4000035762788 L 2868.4000021457673 1471.4000035762788 A 8 8 0 0 1 2860.4000021457673 1479.4000035762788 L 2328.4000021457673 1479.4000035762788 L 2328.4000021457673 1479.4000035762788 A 8 8 0 0 1 2320.4000021457673 1471.4000035762788 L 2320.4000021457673 1409.4000035762788 L 2320.4000021457673 1409.4000035762788 A 8 8 0 0 1 2328.4000021457673 1401.4000035762788 L 2594.4000021457673 1401.4000035762788 Z" fill-opacity="1"/><text fill="rgb(255,255,255)" stroke="none" font-family="Avenir, Helvetica, Arial, sans-serif" font-size="32px" font-style="normal" font-weight="bold" text-decoration="normal" x="2594.4000021457673" y="1456.4000035762788" text-anchor="middle" dominant-baseline="text-after-edge" fill-opacity="1">instance_4</text><path fill="rgb(40,167,69)" stroke="none" paint-order="stroke fill markers" d=" M 2794.6000021457676 1073.200002861023 L 3060.6000021457676 1073.200002861023 L 3060.6000021457676 1073.200002861023 A 8 8 0 0 1 3068.6000021457676 1081.200002861023 L 3068.6000021457676 1143.200002861023 L 3068.6000021457676 1143.200002861023 A 8 8 0 0 1 3060.6000021457676 1151.200002861023 L 2528.6000021457676 1151.200002861023 L 2528.6000021457676 1151.200002861023 A 8 8 0 0 1 2520.6000021457676 1143.200002861023 L 2520.6000021457676 1081.200002861023 L 2520.6000021457676 1081.200002861023 A 8 8 0 0 1 2528.6000021457676 1073.200002861023 L 2794.6000021457676 1073.200002861023 Z" fill-opacity="1"/><text fill="rgb(255,255,255)" stroke="none" font-family="Avenir, Helvetica, Arial, sans-serif" font-size="32px" font-style="normal" font-weight="bold" text-decoration="normal" x="2794.6000021457676" y="1128.200002861023" text-anchor="middle" dominant-baseline="text-after-edge" fill-opacity="1">private_1</text><path fill="rgb(40,167,69)" stroke="none" paint-order="stroke fill markers" d=" M 1198.2000007152558 1657.4000050067903 L 1464.2000007152558 1657.4000050067903 L 1464.2000007152558 1657.4000050067903 A 8 8 0 0 1 1472.2000007152558 1665.4000050067903 L 1472.2000007152558 1727.4000050067903 L 1472.2000007152558 1727.4000050067903 A 8 8 0 0 1 1464.2000007152558 1735.4000050067903 L 932.2000007152558 1735.4000050067903 L 932.2000007152558 1735.4000050067903 A 8 8 0 0 1 924.2000007152558 1727.4000050067903 L 924.2000007152558 1665.4000050067903 L 924.2000007152558 1665.4000050067903 A 8 8 0 0 1 932.2000007152558 1657.4000050067903 L 1198.2000007152558 1657.4000050067903 Z" fill-opacity="1"/><text fill="rgb(255,255,255)" stroke="none" font-family="Avenir, Helvetica, Arial, sans-serif" font-size="32px" font-style="normal" font-weight="bold" text-decoration="normal" x="1198.2000007152558" y="1712.4000050067903" text-anchor="middle" dominant-baseline="text-after-edge" fill-opacity="1">interface_4</text><path fill="rgb(40,167,69)" stroke="none" paint-order="stroke fill markers" d=" M 1198.2000007152558 1785.400005722046 L 1464.2000007152558 1785.400005722046 L 1464.2000007152558 1785.400005722046 A 8 8 0 0 1 1472.2000007152558 1793.400005722046 L 1472.2000007152558 1855.400005722046 L 1472.2000007152558 1855.400005722046 A 8 8 0 0 1 1464.2000007152558 1863.400005722046 L 932.2000007152558 1863.400005722046 L 932.2000007152558 1863.400005722046 A 8 8 0 0 1 924.2000007152558 1855.400005722046 L 924.2000007152558 1793.400005722046 L 924.2000007152558 1793.400005722046 A 8 8 0 0 1 932.2000007152558 1785.400005722046 L 1198.2000007152558 1785.400005722046 Z" fill-opacity="1"/><text fill="rgb(255,255,255)" stroke="none" font-family="Avenir, Helvetica, Arial, sans-serif" font-size="32px" font-style="normal" font-weight="bold" text-decoration="normal" x="1198.2000007152558" y="1840.400005722046" text-anchor="middle" dominant-baseline="text-after-edge" fill-opacity="1">interface_2</text><path fill="rgb(40,167,69)" stroke="none" paint-order="stroke fill markers" d=" M 1198.2000007152558 1913.4000064373017 L 1464.2000007152558 1913.4000064373017 L 1464.2000007152558 1913.4000064373017 A 8 8 0 0 1 1472.2000007152558 1921.4000064373017 L 1472.2000007152558 1983.4000064373017 L 1472.2000007152558 1983.4000064373017 A 8 8 0 0 1 1464.2000007152558 1991.4000064373017 L 932.2000007152558 1991.4000064373017 L 932.2000007152558 1991.4000064373017 A 8 8 0 0 1 924.2000007152558 1983.4000064373017 L 924.2000007152558 1921.4000064373017 L 924.2000007152558 1921.4000064373017 A 8 8 0 0 1 932.2000007152558 1913.4000064373017 L 1198.2000007152558 1913.4000064373017 Z" fill-opacity="1"/><text fill="rgb(255,255,255)" stroke="none" font-family="Avenir, Helvetica, Arial, sans-serif" font-size="32px" font-style="normal" font-weight="bold" text-decoration="normal" x="1198.2000007152558" y="1968.4000064373017" text-anchor="middle" dominant-baseline="text-after-edge" fill-opacity="1">interface_3</text><path fill="rgb(40,167,69)" stroke="none" paint-order="stroke fill markers" d=" M 1996.4000014305116 361 L 2262.4000014305116 361 L 2262.4000014305116 361 A 8 8 0 0 1 2270.4000014305116 369 L 2270.4000014305116 431 L 2270.4000014305116 431 A 8 8 0 0 1 2262.4000014305116 439 L 1730.4000014305116 439 L 1730.4000014305116 439 A 8 8 0 0 1 1722.4000014305116 431 L 1722.4000014305116 369 L 1722.4000014305116 369 A 8 8 0 0 1 1730.4000014305116 361 L 1996.4000014305116 361 Z" fill-opacity="1"/><text fill="rgb(255,255,255)" stroke="none" font-family="Avenir, Helvetica, Arial, sans-serif" font-size="32px" font-style="normal" font-weight="bold" text-decoration="normal" x="1996.4000014305116" y="416" text-anchor="middle" dominant-baseline="text-after-edge" fill-opacity="1">http</text><path fill="rgb(40,167,69)" stroke="none" paint-order="stroke fill markers" d=" M 1198.2000007152558 2041.4000071525575 L 1464.2000007152558 2041.4000071525575 L 1464.2000007152558 2041.4000071525575 A 8 8 0 0 1 1472.2000007152558 2049.4000071525575 L 1472.2000007152558 2111.4000071525575 L 1472.2000007152558 2111.4000071525575 A 8 8 0 0 1 1464.2000007152558 2119.4000071525575 L 932.2000007152558 2119.4000071525575 L 932.2000007152558 2119.4000071525575 A 8 8 0 0 1 924.2000007152558 2111.4000071525575 L 924.2000007152558 2049.4000071525575 L 924.2000007152558 2049.4000071525575 A 8 8 0 0 1 932.2000007152558 2041.4000071525575 L 1198.2000007152558 2041.4000071525575 Z" fill-opacity="1"/><text fill="rgb(255,255,255)" stroke="none" font-family="Avenir, Helvetica, Arial, sans-serif" font-size="32px" font-style="normal" font-weight="bold" text-decoration="normal" x="1198.2000007152558" y="2096.4000071525575" text-anchor="middle" dominant-baseline="text-after-edge" fill-opacity="1">interface_6</text><path fill="rgb(40,167,69)" stroke="none" paint-order="stroke fill markers" d=" M 1198.2000007152558 817.2000014305115 L 1464.2000007152558 817.2000014305115 L 1464.2000007152558 817.2000014305115 A 8 8 0 0 1 1472.2000007152558 825.2000014305115 L 1472.2000007152558 887.2000014305115 L 1472.2000007152558 887.2000014305115 A 8 8 0 0 1 1464.2000007152558 895.2000014305115 L 932.2000007152558 895.2000014305115 L 932.2000007152558 895.2000014305115 A 8 8 0 0 1 924.2000007152558 887.2000014305115 L 924.2000007152558 825.2000014305115 L 924.2000007152558 825.2000014305115 A 8 8 0 0 1 932.2000007152558 817.2000014305115 L 1198.2000007152558 817.2000014305115 Z" fill-opacity="1"/><text fill="rgb(255,255,255)" stroke="none" font-family="Avenir, Helvetica, Arial, sans-serif" font-size="32px" font-style="normal" font-weight="bold" text-decoration="normal" x="1198.2000007152558" y="872.2000014305115" text-anchor="middle" dominant-baseline="text-after-edge" fill-opacity="1">ubuntu1804</text><path fill="rgb(40,167,69)" stroke="none" paint-order="stroke fill markers" d=" M 1996.4000014305116 689.2000007152558 L 2262.4000014305116 689.2000007152558 L 2262.4000014305116 689.2000007152558 A 8 8 0 0 1 2270.4000014305116 697.2000007152558 L 2270.4000014305116 759.2000007152558 L 2270.4000014305116 759.2000007152558 A 8 8 0 0 1 2262.4000014305116 767.2000007152558 L 1730.4000014305116 767.2000007152558 L 1730.4000014305116 767.2000007152558 A 8 8 0 0 1 1722.4000014305116 759.2000007152558 L 1722.4000014305116 697.2000007152558 L 1722.4000014305116 697.2000007152558 A 8 8 0 0 1 1730.4000014305116 689.2000007152558 L 1996.4000014305116 689.2000007152558 Z" fill-opacity="1"/><text fill="rgb(255,255,255)" stroke="none" font-family="Avenir, Helvetica, Arial, sans-serif" font-size="32px" font-style="normal" font-weight="bold" text-decoration="normal" x="1996.4000014305116" y="744.2000007152558" text-anchor="middle" dominant-baseline="text-after-edge" fill-opacity="1">service</text><path fill="rgb(40,167,69)" stroke="none" paint-order="stroke fill markers" d=" M 400 817.2000014305115 L 666 817.2000014305115 L 666 817.2000014305115 A 8 8 0 0 1 674 825.2000014305115 L 674 887.2000014305115 L 674 887.2000014305115 A 8 8 0 0 1 666 895.2000014305115 L 134 895.2000014305115 L 134 895.2000014305115 A 8 8 0 0 1 126 887.2000014305115 L 126 825.2000014305115 L 126 825.2000014305115 A 8 8 0 0 1 134 817.2000014305115 L 400 817.2000014305115 Z" fill-opacity="1"/><text fill="rgb(255,255,255)" stroke="none" font-family="Avenir, Helvetica, Arial, sans-serif" font-size="32px" font-style="normal" font-weight="bold" text-decoration="normal" x="400" y="872.2000014305115" text-anchor="middle" dominant-baseline="text-after-edge" fill-opacity="1">router_2</text><path fill="rgb(40,167,69)" stroke="none" paint-order="stroke fill markers" d=" M 1996.4000014305116 817.2000014305115 L 2262.4000014305116 817.2000014305115 L 2262.4000014305116 817.2000014305115 A 8 8 0 0 1 2270.4000014305116 825.2000014305115 L 2270.4000014305116 887.2000014305115 L 2270.4000014305116 887.2000014305115 A 8 8 0 0 1 2262.4000014305116 895.2000014305115 L 1730.4000014305116 895.2000014305115 L 1730.4000014305116 895.2000014305115 A 8 8 0 0 1 1722.4000014305116 887.2000014305115 L 1722.4000014305116 825.2000014305115 L 1722.4000014305116 825.2000014305115 A 8 8 0 0 1 1730.4000014305116 817.2000014305115 L 1996.4000014305116 817.2000014305115 Z" fill-opacity="1"/><text fill="rgb(255,255,255)" stroke="none" font-family="Avenir, Helvetica, Arial, sans-serif" font-size="32px" font-style="normal" font-weight="bold" text-decoration="normal" x="1996.4000014305116" y="872.2000014305115" text-anchor="middle" dominant-baseline="text-after-edge" fill-opacity="1">http</text><path fill="rgb(40,167,69)" stroke="none" paint-order="stroke fill markers" d=" M 2794.6000021457676 361 L 3060.6000021457676 361 L 3060.6000021457676 361 A 8 8 0 0 1 3068.6000021457676 369 L 3068.6000021457676 431 L 3068.6000021457676 431 A 8 8 0 0 1 3060.6000021457676 439 L 2528.6000021457676 439 L 2528.6000021457676 439 A 8 8 0 0 1 2520.6000021457676 431 L 2520.6000021457676 369 L 2520.6000021457676 369 A 8 8 0 0 1 2528.6000021457676 361 L 2794.6000021457676 361 Z" fill-opacity="1"/><text fill="rgb(255,255,255)" stroke="none" font-family="Avenir, Helvetica, Arial, sans-serif" font-size="32px" font-style="normal" font-weight="bold" text-decoration="normal" x="2794.6000021457676" y="416" text-anchor="middle" dominant-baseline="text-after-edge" fill-opacity="1">flavor_1</text><g transform="scale(10,10) translate(-23.700000000000003,-4.75)"/></g></svg>