<svg version="1.1" xmlns="http://www.w3.org/2000/svg" xmlns:xlink="http://www.w3.org/1999/xlink" width="211.4" height="189"><defs><linearGradient id="bhGQOyrJbfWV" x1="400px" x2="400px" y1="945.2000021457673px" y2="439px" gradientUnits="userSpaceOnUse"><stop offset="0" stop-color="rgb(211,211,211)" stop-opacity="1"/><stop offset="1" stop-color="rgb(211,211,211)" stop-opacity="1"/></linearGradient><linearGradient id="bfsTKUyftSVg" x1="400px" x2="400px" y1="1023.2000021457673px" y2="1401.4000035762788px" gradientUnits="userSpaceOnUse"><stop offset="0" stop-color="rgb(211,211,211)" stop-opacity="1"/><stop offset="1" stop-color="rgb(211,211,211)" stop-opacity="1"/></linearGradient><linearGradient id="lQzvUXMugevK" x1="400px" x2="1198.2000007152558px" y1="1401.4000035762788px" y2="439px" gradientUnits="userSpaceOnUse"><stop offset="0" stop-color="rgb(211,211,211)" stop-opacity="1"/><stop offset="1" stop-color="rgb(211,211,211)" stop-opacity="1"/></linearGradient><linearGradient id="TrPKGVnEMIIX" x1="1198.2000007152558px" x2="1198.2000007152558px" y1="895.2000014305115px" y2="1273.400002861023px" gradientUnits="userSpaceOnUse"><stop offset="0" stop-color="rgb(211,211,211)" stop-opacity="1"/><stop offset="1" stop-color="rgb(211,211,211)" stop-opacity="1"/></linearGradient><linearGradient id="zNHbplfiHPgB" x1="1198.2000007152558px" x2="1198.2000007152558px" y1="1023.2000021457673px" y2="1401.4000035762788px" gradientUnits="userSpaceOnUse"><stop offset="0" stop-color="rgb(211,211,211)" stop-opacity="1"/><stop offset="1" stop-color="rgb(211,211,211)" stop-opacity="1"/></linearGradient><linearGradient id="VWIKbUyQyezT" x1="400px" x2="1198.2000007152558px" y1="1273.400002861023px" y2="567.0000007152557px" gradientUnits="userSpaceOnUse"><stop offset="0" stop-color="rgb(211,211,211)" stop-opacity="1"/><stop offset="1" stop-color="rgb(211,211,211)" stop-opacity="1"/></linearGradient><linearGradient id="wfnoBvzZgGJE" x1="400px" x2="400px" y1="817.2000014305115px" y2="439px" gradientUnits="userSpaceOnUse"><stop offset="0" stop-color="rgb(211,211,211)" stop-opacity="1"/><stop offset="1" stop-color="rgb(211,211,211)" stop-opacity="1"/></linearGradient><linearGradient id="GQtnRsPUfGrc" x1="400px" x2="400px" y1="895.2000014305115px" y2="1273.400002861023px" gradientUnits="userSpaceOnUse"><stop offset="0" stop-color="rgb(211,211,211)" stop-opacity="1"/><stop offset="1" stop-color="rgb(211,211,211)" stop-opacity="1"/></linearGradient></defs><g transform="translate(27.84999999999999,4.75) scale(0.1,0.1)"><path fill="rgb(244,236,255)" stroke="rgb(255,255,255)" paint-order="fill stroke markers" d=" M 778.3500003576279 -45.5 L 1825.2000007152556 -45.5 L 1825.2000007152556 -45.5 A 8 8 0 0 1 1833.2000007152556 -37.5 L 1833.2000007152556 1832.4000035762788 L 1833.2000007152556 1832.4000035762788 A 8 8 0 0 1 1825.2000007152556 1840.4000035762788 L -268.4999999999999 1840.4000035762788 L -268.4999999999999 1840.4000035762788 A 8 8 0 0 1 -276.4999999999999 1832.4000035762788 L -276.4999999999999 -37.5 L -276.4999999999999 -37.5 A 8 8 0 0 1 -268.4999999999999 -45.5 L 778.3500003576279 -45.5 Z" fill-opacity="1" stroke-opacity="1" stroke-miterlimit="10" stroke-width="2"/><text fill="rgb(0,0,0)" stroke="none" font-family="Avenir, Helvetica, Arial, sans-serif" font-size="32px" font-style="normal" font-weight="bold" text-decoration="normal" x="778.3500003576279" y="29.5" text-anchor="middle" dominant-baseline="text-after-edge" fill-opacity="1">.</text><path fill="rgb(255,255,255)" stroke="rgb(211,211,211)" paint-order="fill stroke markers" d=" M 778.3500003576279 156 L 1623.7000007152558 156 L 1623.7000007152558 156 A 8 8 0 0 1 1631.7000007152558 164 L 1631.7000007152558 1630.9000035762788 L 1631.7000007152558 1630.9000035762788 A 8 8 0 0 1 1623.7000007152558 1638.9000035762788 L -67 1638.9000035762788 L -67 1638.9000035762788 A 8 8 0 0 1 -75 1630.9000035762788 L -75 164 L -75 164 A 8 8 0 0 1 -67 156 L 778.3500003576279 156 Z" fill-opacity="1" stroke-opacity="1" stroke-miterlimit="10"/><text fill="rgb(0,0,0)" stroke="none" font-family="Avenir, Helvetica, Arial, sans-serif" font-size="32px" font-style="normal" font-weight="bold" text-decoration="normal" x="778.3500003576279" y="231" text-anchor="middle" dominant-baseline="text-after-edge" fill-opacity="1">main.tf</text><path fill="rgb(255,255,255)" stroke="rgb(0,0,0)" paint-order="fill stroke markers" d=" M 1198.2000007152558 305 L 1520.2000007152558 305 L 1520.2000007152558 305 A 8 8 0 0 1 1528.2000007152558 313 L 1528.2000007152558 615.0000007152557 L 1528.2000007152558 615.0000007152557 A 8 8 0 0 1 1520.2000007152558 623.0000007152557 L 876.2000007152558 623.0000007152557 L 876.2000007152558 623.0000007152557 A 8 8 0 0 1 868.2000007152558 615.0000007152557 L 868.2000007152558 313 L 868.2000007152558 313 A 8 8 0 0 1 876.2000007152558 305 L 1198.2000007152558 305 Z" fill-opacity="1" stroke-opacity="1" stroke-miterlimit="10" stroke-width="5"/><rect fill="rgb(255,255,255)" stroke="none" x="885.7000007152558" y="256" width="625" height="96" fill-opacity="1"/><text fill="rgb(0,0,0)" stroke="none" font-family="Avenir, Helvetica, Arial, sans-serif" font-size="32px" font-style="normal" font-weight="bold" text-decoration="normal" x="1198.2000007152558" y="320" text-anchor="middle" dominant-baseline="text-after-edge" fill-opacity="1">openstack_networking_network_v2</text><path fill="rgb(255,255,255)" stroke="rgb(0,0,0)" paint-order="fill stroke markers" d=" M 400 761.2000014305115 L 722 761.2000014305115 L 722 761.2000014305115 A 8 8 0 0 1 730 769.2000014305115 L 730 1071.2000021457673 L 730 1071.2000021457673 A 8 8 0 0 1 722 1079.2000021457673 L 78 1079.2000021457673 L 78 1079.2000021457673 A 8 8 0 0 1 70 1071.2000021457673 L 70 769.2000014305115 L 70 769.2000014305115 A 8 8 0 0 1 78 761.2000014305115 L 400 761.2000014305115 Z" fill-opacity="1" stroke-opacity="1" stroke-miterlimit="10" stroke-width="5"/><rect fill="rgb(255,255,255)" stroke="none" x="25" y="712.2000014305115" width="750" height="96" fill-opacity="1"/><text fill="rgb(0,0,0)" stroke="none" font-family="Avenir, Helvetica, Arial, sans-serif" font-size="32px" font-style="normal" font-weight="bold" text-decoration="normal" x="400" y="776.2000014305115" text-anchor="middle" dominant-baseline="text-after-edge" fill-opacity="1">openstack_networking_router_interface_v2</text><path fill="rgb(255,255,255)" stroke="rgb(0,0,0)" paint-order="fill stroke markers" d=" M 400 305 L 722 305 L 722 305 A 8 8 0 0 1 730 313 L 730 487 L 730 487 A 8 8 0 0 1 722 495 L 78 495 L 78 495 A 8 8 0 0 1 70 487 L 70 313 L 70 313 A 8 8 0 0 1 78 305 L 400 305 Z" fill-opacity="1" stroke-opacity="1" stroke-miterlimit="10" stroke-width="5"/><rect fill="rgb(255,255,255)" stroke="none" x="104" y="256" width="592" height="96" fill-opacity="1"/><text fill="rgb(0,0,0)" stroke="none" font-family="Avenir, Helvetica, Arial, sans-serif" font-size="32px" font-style="normal" font-weight="bold" text-decoration="normal" x="400" y="320" text-anchor="middle" dominant-baseline="text-after-edge" fill-opacity="1">openstack_networking_router_v2</text><path fill="rgb(255,255,255)" stroke="rgb(0,0,0)" paint-order="fill stroke markers" d=" M 1198.2000007152558 761.2000014305115 L 1520.2000007152558 761.2000014305115 L 1520.2000007152558 761.2000014305115 A 8 8 0 0 1 1528.2000007152558 769.2000014305115 L 1528.2000007152558 1071.2000021457673 L 1528.2000007152558 1071.2000021457673 A 8 8 0 0 1 1520.2000007152558 1079.2000021457673 L 876.2000007152558 1079.2000021457673 L 876.2000007152558 1079.2000021457673 A 8 8 0 0 1 868.2000007152558 1071.2000021457673 L 868.2000007152558 769.2000014305115 L 868.2000007152558 769.2000014305115 A 8 8 0 0 1 876.2000007152558 761.2000014305115 L 1198.2000007152558 761.2000014305115 Z" fill-opacity="1" stroke-opacity="1" stroke-miterlimit="10" stroke-width="5"/><rect fill="rgb(255,255,255)" stroke="none" x="906.7000007152558" y="712.2000014305115" width="583" height="96" fill-opacity="1"/><text fill="rgb(0,0,0)" stroke="none" font-family="Avenir, Helvetica, Arial, sans-serif" font-size="32px" font-style="normal" font-weight="bold" text-decoration="normal" x="1198.2000007152558" y="776.2000014305115" text-anchor="middle" dominant-baseline="text-after-edge" fill-opacity="1">openstack_compute_instance_v2</text><path fill="rgb(255,255,255)" stroke="rgb(0,0,0)" paint-order="fill stroke markers" d=" M 400 1217.400002861023 L 722 1217.400002861023 L 722 1217.400002861023 A 8 8 0 0 1 730 1225.400002861023 L 730 1527.4000035762788 L 730 1527.4000035762788 A 8 8 0 0 1 722 1535.4000035762788 L 78 1535.4000035762788 L 78 1535.4000035762788 A 8 8 0 0 1 70 1527.4000035762788 L 70 1225.400002861023 L 70 1225.400002861023 A 8 8 0 0 1 78 1217.400002861023 L 400 1217.400002861023 Z" fill-opacity="1" stroke-opacity="1" stroke-miterlimit="10" stroke-width="5"/><rect fill="rgb(255,255,255)" stroke="none" x="99.5" y="1168.400002861023" width="601" height="96" fill-opacity="1"/><text fill="rgb(0,0,0)" stroke="none" font-family="Avenir, Helvetica, Arial, sans-serif" font-size="32px" font-style="normal" font-weight="bold" text-decoration="normal" x="400" y="1232.400002861023" text-anchor="middle" dominant-baseline="text-after-edge" fill-opacity="1">openstack_networking_subnet_v2</text><path fill="rgb(255,255,255)" stroke="rgb(0,0,0)" paint-order="fill stroke markers" d=" M 1198.2000007152558 1217.400002861023 L 1520.2000007152558 1217.400002861023 L 1520.2000007152558 1217.400002861023 A 8 8 0 0 1 1528.2000007152558 1225.400002861023 L 1528.2000007152558 1527.4000035762788 L 1528.2000007152558 1527.4000035762788 A 8 8 0 0 1 1520.2000007152558 1535.4000035762788 L 876.2000007152558 1535.4000035762788 L 876.2000007152558 1535.4000035762788 A 8 8 0 0 1 868.2000007152558 1527.4000035762788 L 868.2000007152558 1225.400002861023 L 868.2000007152558 1225.400002861023 A 8 8 0 0 1 876.2000007152558 1217.400002861023 L 1198.2000007152558 1217.400002861023 Z" fill-opacity="1" stroke-opacity="1" stroke-miterlimit="10" stroke-width="5"/><rect fill="rgb(255,255,255)" stroke="none" x="940.2000007152558" y="1168.400002861023" width="516" height="96" fill-opacity="1"/><text fill="rgb(0,0,0)" stroke="none" font-family="Avenir, Helvetica, Arial, sans-serif" font-size="32px" font-style="normal" font-weight="bold" text-decoration="normal" x="1198.2000007152558" y="1232.400002861023" text-anchor="middle" dominant-baseline="text-after-edge" fill-opacity="1">openstack_images_image_v2</text><path fill="none" stroke="url(#bhGQOyrJbfWV)" paint-order="fill stroke markers" d=" M 400 945.2000021457673 L 400 692.1000010728836 L 400 692.1000010728836 L 400 439" stroke-linejoin="round" stroke-miterlimit="10" stroke-width="10"/><path fill="none" stroke="url(#bfsTKUyftSVg)" paint-order="fill stroke markers" d=" M 400 1023.2000021457673 L 400 1212.3000028610231 L 400 1212.3000028610231 L 400 1401.4000035762788" stroke-linejoin="round" stroke-miterlimit="10" stroke-width="10"/><path fill="none" stroke="url(#lQzvUXMugevK)" paint-order="fill stroke markers" d=" M 400 1401.4000035762788 L 400 920.2000017881394 L 1198.2000007152558 920.2000017881394 L 1198.2000007152558 439" stroke-linejoin="round" stroke-miterlimit="10" stroke-width="10"/><path fill="none" stroke="url(#TrPKGVnEMIIX)" paint-order="fill stroke markers" d=" M 1198.2000007152558 895.2000014305115 L 1198.2000007152558 1084.3000021457674 L 1198.2000007152558 1084.3000021457674 L 1198.2000007152558 1273.400002861023" stroke-linejoin="round" stroke-miterlimit="10" stroke-width="10"/><path fill="none" stroke="url(#zNHbplfiHPgB)" paint-order="fill stroke markers" d=" M 1198.2000007152558 1023.2000021457673 L 1198.2000007152558 1212.3000028610231 L 1198.2000007152558 1212.3000028610231 L 1198.2000007152558 1401.4000035762788" stroke-linejoin="round" stroke-miterlimit="10" stroke-width="10"/><path fill="none" stroke="url(#VWIKbUyQyezT)" paint-order="fill stroke markers" d=" M 400 1273.400002861023 L 400 920.2000017881394 L 1198.2000007152558 920.2000017881394 L 1198.2000007152558 567.0000007152557" stroke-linejoin="round" stroke-miterlimit="10" stroke-width="10"/><path fill="none" stroke="url(#wfnoBvzZgGJE)" paint-order="fill stroke markers" d=" M 400 817.2000014305115 L 400 628.1000007152558 L 400 628.1000007152558 L 400 439" stroke-linejoin="round" stroke-miterlimit="10" stroke-width="10"/><path fill="none" stroke="url(#GQtnRsPUfGrc)" paint-order="fill stroke markers" d=" M 400 895.2000014305115 L 400 1084.3000021457674 L 400 1084.3000021457674 L 400 1273.400002861023" stroke-linejoin="round" stroke-miterlimit="10" stroke-width="10"/><path fill="rgb(40,167,69)" stroke="url(#GQtnRsPUfGrc)" paint-order="stroke fill markers" d=" M 1198.2000007152558 361 L 1464.2000007152558 361 L 1464.2000007152558 361 A 8 8 0 0 1 1472.2000007152558 369 L 1472.2000007152558 431 L 1472.2000007152558 431 A 8 8 0 0 1 1464.2000007152558 439 L 932.2000007152558 439 L 932.2000007152558 439 A 8 8 0 0 1 924.2000007152558 431 L 924.2000007152558 369 L 924.2000007152558 369 A 8 8 0 0 1 932.2000007152558 361 L 1198.2000007152558 361 Z" fill-opacity="1"/><text fill="rgb(255,255,255)" stroke="none" font-family="Avenir, Helvetica, Arial, sans-serif" font-size="32px" font-style="normal" font-weight="bold" text-decoration="normal" x="1198.2000007152558" y="416" text-anchor="middle" dominant-baseline="text-after-edge" fill-opacity="1">private_1</text><path fill="rgb(40,167,69)" stroke="none" paint-order="stroke fill markers" d=" M 400 817.2000014305115 L 666 817.2000014305115 L 666 817.2000014305115 A 8 8 0 0 1 674 825.2000014305115 L 674 887.2000014305115 L 674 887.2000014305115 A 8 8 0 0 1 666 895.2000014305115 L 134 895.2000014305115 L 134 895.2000014305115 A 8 8 0 0 1 126 887.2000014305115 L 126 825.2000014305115 L 126 825.2000014305115 A 8 8 0 0 1 134 817.2000014305115 L 400 817.2000014305115 Z" fill-opacity="1"/><text fill="rgb(255,255,255)" stroke="none" font-family="Avenir, Helvetica, Arial, sans-serif" font-size="32px" font-style="normal" font-weight="bold" text-decoration="normal" x="400" y="872.2000014305115" text-anchor="middle" dominant-baseline="text-after-edge" fill-opacity="1">interface_2</text><path fill="rgb(40,167,69)" stroke="none" paint-order="stroke fill markers" d=" M 400 361 L 666 361 L 666 361 A 8 8 0 0 1 674 369 L 674 431 L 674 431 A 8 8 0 0 1 666 439 L 134 439 L 134 439 A 8 8 0 0 1 126 431 L 126 369 L 126 369 A 8 8 0 0 1 134 361 L 400 361 Z" fill-opacity="1"/><text fill="rgb(255,255,255)" stroke="none" font-family="Avenir, Helvetica, Arial, sans-serif" font-size="32px" font-style="normal" font-weight="bold" text-decoration="normal" x="400" y="416" text-anchor="middle" dominant-baseline="text-after-edge" fill-opacity="1">router_1</text><path fill="rgb(40,167,69)" stroke="none" paint-order="stroke fill markers" d=" M 1198.2000007152558 817.2000014305115 L 1464.2000007152558 817.2000014305115 L 1464.2000007152558 817.2000014305115 A 8 8 0 0 1 1472.2000007152558 825.2000014305115 L 1472.2000007152558 887.2000014305115 L 1472.2000007152558 887.2000014305115 A 8 8 0 0 1 1464.2000007152558 895.2000014305115 L 932.2000007152558 895.2000014305115 L 932.2000007152558 895.2000014305115 A 8 8 0 0 1 924.2000007152558 887.2000014305115 L 924.2000007152558 825.2000014305115 L 924.2000007152558 825.2000014305115 A 8 8 0 0 1 932.2000007152558 817.2000014305115 L 1198.2000007152558 817.2000014305115 Z" fill-opacity="1"/><text fill="rgb(255,255,255)" stroke="none" font-family="Avenir, Helvetica, Arial, sans-serif" font-size="32px" font-style="normal" font-weight="bold" text-decoration="normal" x="1198.2000007152558" y="872.2000014305115" text-anchor="middle" dominant-baseline="text-after-edge" fill-opacity="1">instance_1</text><path fill="rgb(40,167,69)" stroke="none" paint-order="stroke fill markers" d=" M 1198.2000007152558 945.2000021457673 L 1464.2000007152558 945.2000021457673 L 1464.2000007152558 945.2000021457673 A 8 8 0 0 1 1472.2000007152558 953.2000021457673 L 1472.2000007152558 1015.2000021457673 L 1472.2000007152558 1015.2000021457673 A 8 8 0 0 1 1464.2000007152558 1023.2000021457673 L 932.2000007152558 1023.2000021457673 L 932.2000007152558 1023.2000021457673 A 8 8 0 0 1 924.2000007152558 1015.2000021457673 L 924.2000007152558 953.2000021457673 L 924.2000007152558 953.2000021457673 A 8 8 0 0 1 932.2000007152558 945.2000021457673 L 1198.2000007152558 945.2000021457673 Z" fill-opacity="1"/><text fill="rgb(255,255,255)" stroke="none" font-family="Avenir, Helvetica, Arial, sans-serif" font-size="32px" font-style="normal" font-weight="bold" text-decoration="normal" x="1198.2000007152558" y="1000.2000021457673" text-anchor="middle" dominant-baseline="text-after-edge" fill-opacity="1">instance_2</text><path fill="rgb(40,167,69)" stroke="none" paint-order="stroke fill markers" d=" M 400 1273.400002861023 L 666 1273.400002861023 L 666 1273.400002861023 A 8 8 0 0 1 674 1281.400002861023 L 674 1343.400002861023 L 674 1343.400002861023 A 8 8 0 0 1 666 1351.400002861023 L 134 1351.400002861023 L 134 1351.400002861023 A 8 8 0 0 1 126 1343.400002861023 L 126 1281.400002861023 L 126 1281.400002861023 A 8 8 0 0 1 134 1273.400002861023 L 400 1273.400002861023 Z" fill-opacity="1"/><text fill="rgb(255,255,255)" stroke="none" font-family="Avenir, Helvetica, Arial, sans-serif" font-size="32px" font-style="normal" font-weight="bold" text-decoration="normal" x="400" y="1328.400002861023" text-anchor="middle" dominant-baseline="text-after-edge" fill-opacity="1">subnet_2</text><path fill="rgb(40,167,69)" stroke="none" paint-order="stroke fill markers" d=" M 1198.2000007152558 489.00000071525574 L 1464.2000007152558 489.00000071525574 L 1464.2000007152558 489.00000071525574 A 8 8 0 0 1 1472.2000007152558 497.00000071525574 L 1472.2000007152558 559.0000007152557 L 1472.2000007152558 559.0000007152557 A 8 8 0 0 1 1464.2000007152558 567.0000007152557 L 932.2000007152558 567.0000007152557 L 932.2000007152558 567.0000007152557 A 8 8 0 0 1 924.2000007152558 559.0000007152557 L 924.2000007152558 497.00000071525574 L 924.2000007152558 497.00000071525574 A 8 8 0 0 1 932.2000007152558 489.00000071525574 L 1198.2000007152558 489.00000071525574 Z" fill-opacity="1"/><text fill="rgb(255,255,255)" stroke="none" font-family="Avenir, Helvetica, Arial, sans-serif" font-size="32px" font-style="normal" font-weight="bold" text-decoration="normal" x="1198.2000007152558" y="544.0000007152557" text-anchor="middle" dominant-baseline="text-after-edge" fill-opacity="1">private_2</text><path fill="rgb(40,167,69)" stroke="none" paint-order="stroke fill markers" d=" M 400 1401.4000035762788 L 666 1401.4000035762788 L 666 1401.4000035762788 A 8 8 0 0 1 674 1409.4000035762788 L 674 1471.4000035762788 L 674 1471.4000035762788 A 8 8 0 0 1 666 1479.4000035762788 L 134 1479.4000035762788 L 134 1479.4000035762788 A 8 8 0 0 1 126 1471.4000035762788 L 126 1409.4000035762788 L 126 1409.4000035762788 A 8 8 0 0 1 134 1401.4000035762788 L 400 1401.4000035762788 Z" fill-opacity="1"/><text fill="rgb(255,255,255)" stroke="none" font-family="Avenir, Helvetica, Arial, sans-serif" font-size="32px" font-style="normal" font-weight="bold" text-decoration="normal" x="400" y="1456.4000035762788" text-anchor="middle" dominant-baseline="text-after-edge" fill-opacity="1">subnet_1</text><path fill="rgb(40,167,69)" stroke="none" paint-order="stroke fill markers" d=" M 1198.2000007152558 1273.400002861023 L 1464.2000007152558 1273.400002861023 L 1464.2000007152558 1273.400002861023 A 8 8 0 0 1 1472.2000007152558 1281.400002861023 L 1472.2000007152558 1343.400002861023 L 1472.2000007152558 1343.400002861023 A 8 8 0 0 1 1464.2000007152558 1351.400002861023 L 932.2000007152558 1351.400002861023 L 932.2000007152558 1351.400002861023 A 8 8 0 0 1 924.2000007152558 1343.400002861023 L 924.2000007152558 1281.400002861023 L 924.2000007152558 1281.400002861023 A 8 8 0 0 1 932.2000007152558 1273.400002861023 L 1198.2000007152558 1273.400002861023 Z" fill-opacity="1"/><text fill="rgb(255,255,255)" stroke="none" font-family="Avenir, Helvetica, Arial, sans-serif" font-size="32px" font-style="normal" font-weight="bold" text-decoration="normal" x="1198.2000007152558" y="1328.400002861023" text-anchor="middle" dominant-baseline="text-after-edge" fill-opacity="1">ubuntu1804</text><path fill="rgb(40,167,69)" stroke="none" paint-order="stroke fill markers" d=" M 400 945.2000021457673 L 666 945.2000021457673 L 666 945.2000021457673 A 8 8 0 0 1 674 953.2000021457673 L 674 1015.2000021457673 L 674 1015.2000021457673 A 8 8 0 0 1 666 1023.2000021457673 L 134 1023.2000021457673 L 134 1023.2000021457673 A 8 8 0 0 1 126 1015.2000021457673 L 126 953.2000021457673 L 126 953.2000021457673 A 8 8 0 0 1 134 945.2000021457673 L 400 945.2000021457673 Z" fill-opacity="1"/><text fill="rgb(255,255,255)" stroke="none" font-family="Avenir, Helvetica, Arial, sans-serif" font-size="32px" font-style="normal" font-weight="bold" text-decoration="normal" x="400" y="1000.2000021457673" text-anchor="middle" dominant-baseline="text-after-edge" fill-opacity="1">interface_1</text><path fill="rgb(40,167,69)" stroke="none" paint-order="stroke fill markers" d=" M 1198.2000007152558 1401.4000035762788 L 1464.2000007152558 1401.4000035762788 L 1464.2000007152558 1401.4000035762788 A 8 8 0 0 1 1472.2000007152558 1409.4000035762788 L 1472.2000007152558 1471.4000035762788 L 1472.2000007152558 1471.4000035762788 A 8 8 0 0 1 1464.2000007152558 1479.4000035762788 L 932.2000007152558 1479.4000035762788 L 932.2000007152558 1479.4000035762788 A 8 8 0 0 1 924.2000007152558 1471.4000035762788 L 924.2000007152558 1409.4000035762788 L 924.2000007152558 1409.4000035762788 A 8 8 0 0 1 932.2000007152558 1401.4000035762788 L 1198.2000007152558 1401.4000035762788 Z" fill-opacity="1"/><text fill="rgb(255,255,255)" stroke="none" font-family="Avenir, Helvetica, Arial, sans-serif" font-size="32px" font-style="normal" font-weight="bold" text-decoration="normal" x="1198.2000007152558" y="1456.4000035762788" text-anchor="middle" dominant-baseline="text-after-edge" fill-opacity="1">cirros</text><g transform="scale(10,10) translate(-27.84999999999999,-4.75)"/></g></svg>