<svg version="1.1" xmlns="http://www.w3.org/2000/svg" xmlns:xlink="http://www.w3.org/1999/xlink" width="211.4" height="163.4"><defs><linearGradient id="GrDRLUHNRJKQ" x1="1198.2000007152558px" x2="400px" y1="439px" y2="689.2000007152558px" gradientUnits="userSpaceOnUse"><stop offset="0" stop-color="rgb(211,211,211)" stop-opacity="1"/><stop offset="1" stop-color="rgb(211,211,211)" stop-opacity="1"/></linearGradient><linearGradient id="uxmfyTqcfsBa" x1="1198.2000007152558px" x2="1198.2000007152558px" y1="439px" y2="689.2000007152558px" gradientUnits="userSpaceOnUse"><stop offset="0" stop-color="rgb(211,211,211)" stop-opacity="1"/><stop offset="1" stop-color="rgb(211,211,211)" stop-opacity="1"/></linearGradient><linearGradient id="wBbwvFdOaGNC" x1="1198.2000007152558px" x2="400px" y1="689.2000007152558px" y2="439px" gradientUnits="userSpaceOnUse"><stop offset="0" stop-color="rgb(211,211,211)" stop-opacity="1"/><stop offset="1" stop-color="rgb(211,211,211)" stop-opacity="1"/></linearGradient><linearGradient id="bXMCdUxgNdeG" x1="674px" x2="924.2000007152558px" y1="1056.4000014305116px" y2="1056.4000014305116px" gradientUnits="userSpaceOnUse"><stop offset="0" stop-color="rgb(211,211,211)" stop-opacity="1"/><stop offset="1" stop-color="rgb(211,211,211)" stop-opacity="1"/></linearGradient></defs><g transform="translate(23.69999999999999,4.75) scale(0.1,0.1)"><path fill="rgb(244,236,255)" stroke="rgb(255,255,255)" paint-order="fill stroke markers" d=" M 819.8500003576279 -45.5 L 1866.7000007152556 -45.5 L 1866.7000007152556 -45.5 A 8 8 0 0 1 1874.7000007152556 -37.5 L 1874.7000007152556 1576.4000021457673 L 1874.7000007152556 1576.4000021457673 A 8 8 0 0 1 1866.7000007152556 1584.4000021457673 L -226.9999999999999 1584.4000021457673 L -226.9999999999999 1584.4000021457673 A 8 8 0 0 1 -234.9999999999999 1576.4000021457673 L -234.9999999999999 -37.5 L -234.9999999999999 -37.5 A 8 8 0 0 1 -226.9999999999999 -45.5 L 819.8500003576279 -45.5 Z" fill-opacity="1" stroke-opacity="1" stroke-miterlimit="10" stroke-width="2"/><text fill="rgb(0,0,0)" stroke="none" font-family="Avenir, Helvetica, Arial, sans-serif" font-size="32px" font-style="normal" font-weight="bold" text-decoration="normal" x="819.8500003576279" y="29.5" text-anchor="middle" dominant-baseline="text-after-edge" fill-opacity="1">.</text><path fill="rgb(255,255,255)" stroke="rgb(211,211,211)" paint-order="fill stroke markers" d=" M 819.8500003576279 156 L 1665.2000007152558 156 L 1665.2000007152558 156 A 8 8 0 0 1 1673.2000007152558 164 L 1673.2000007152558 1374.9000021457673 L 1673.2000007152558 1374.9000021457673 A 8 8 0 0 1 1665.2000007152558 1382.9000021457673 L -25.5 1382.9000021457673 L -25.5 1382.9000021457673 A 8 8 0 0 1 -33.5 1374.9000021457673 L -33.5 164 L -33.5 164 A 8 8 0 0 1 -25.5 156 L 819.8500003576279 156 Z" fill-opacity="1" stroke-opacity="1" stroke-miterlimit="10"/><text fill="rgb(0,0,0)" stroke="none" font-family="Avenir, Helvetica, Arial, sans-serif" font-size="32px" font-style="normal" font-weight="bold" text-decoration="normal" x="819.8500003576279" y="231" text-anchor="middle" dominant-baseline="text-after-edge" fill-opacity="1">main.tf</text><path fill="rgb(255,255,255)" stroke="rgb(0,0,0)" paint-order="fill stroke markers" d=" M 1198.2000007152558 961.4000014305116 L 1520.2000007152558 961.4000014305116 L 1520.2000007152558 961.4000014305116 A 8 8 0 0 1 1528.2000007152558 969.4000014305116 L 1528.2000007152558 1271.4000021457673 L 1528.2000007152558 1271.4000021457673 A 8 8 0 0 1 1520.2000007152558 1279.4000021457673 L 876.2000007152558 1279.4000021457673 L 876.2000007152558 1279.4000021457673 A 8 8 0 0 1 868.2000007152558 1271.4000021457673 L 868.2000007152558 969.4000014305116 L 868.2000007152558 969.4000014305116 A 8 8 0 0 1 876.2000007152558 961.4000014305116 L 1198.2000007152558 961.4000014305116 Z" fill-opacity="1" stroke-opacity="1" stroke-miterlimit="10" stroke-width="5"/><rect fill="rgb(255,255,255)" stroke="none" x="940.2000007152558" y="912.4000014305116" width="516" height="96" fill-opacity="1"/><text fill="rgb(0,0,0)" stroke="none" font-family="Avenir, Helvetica, Arial, sans-serif" font-size="32px" font-style="normal" font-weight="bold" text-decoration="normal" x="1198.2000007152558" y="976.4000014305116" text-anchor="middle" dominant-baseline="text-after-edge" fill-opacity="1">openstack_images_image_v2</text><path fill="rgb(255,255,255)" stroke="rgb(0,0,0)" paint-order="fill stroke markers" d=" M 400 305 L 722 305 L 722 305 A 8 8 0 0 1 730 313 L 730 487 L 730 487 A 8 8 0 0 1 722 495 L 78 495 L 78 495 A 8 8 0 0 1 70 487 L 70 313 L 70 313 A 8 8 0 0 1 78 305 L 400 305 Z" fill-opacity="1" stroke-opacity="1" stroke-miterlimit="10" stroke-width="5"/><rect fill="rgb(255,255,255)" stroke="none" x="87.5" y="256" width="625" height="96" fill-opacity="1"/><text fill="rgb(0,0,0)" stroke="none" font-family="Avenir, Helvetica, Arial, sans-serif" font-size="32px" font-style="normal" font-weight="bold" text-decoration="normal" x="400" y="320" text-anchor="middle" dominant-baseline="text-after-edge" fill-opacity="1">openstack_networking_network_v2</text><path fill="rgb(255,255,255)" stroke="rgb(0,0,0)" paint-order="fill stroke markers" d=" M 1198.2000007152558 305 L 1520.2000007152558 305 L 1520.2000007152558 305 A 8 8 0 0 1 1528.2000007152558 313 L 1528.2000007152558 487 L 1528.2000007152558 487 A 8 8 0 0 1 1520.2000007152558 495 L 876.2000007152558 495 L 876.2000007152558 495 A 8 8 0 0 1 868.2000007152558 487 L 868.2000007152558 313 L 868.2000007152558 313 A 8 8 0 0 1 876.2000007152558 305 L 1198.2000007152558 305 Z" fill-opacity="1" stroke-opacity="1" stroke-miterlimit="10" stroke-width="5"/><rect fill="rgb(255,255,255)" stroke="none" x="823.2000007152558" y="256" width="750" height="96" fill-opacity="1"/><text fill="rgb(0,0,0)" stroke="none" font-family="Avenir, Helvetica, Arial, sans-serif" font-size="32px" font-style="normal" font-weight="bold" text-decoration="normal" x="1198.2000007152558" y="320" text-anchor="middle" dominant-baseline="text-after-edge" fill-opacity="1">openstack_networking_router_interface_v2</text><path fill="rgb(255,255,255)" stroke="rgb(0,0,0)" paint-order="fill stroke markers" d=" M 400 633.2000007152558 L 722 633.2000007152558 L 722 633.2000007152558 A 8 8 0 0 1 730 641.2000007152558 L 730 815.2000007152558 L 730 815.2000007152558 A 8 8 0 0 1 722 823.2000007152558 L 78 823.2000007152558 L 78 823.2000007152558 A 8 8 0 0 1 70 815.2000007152558 L 70 641.2000007152558 L 70 641.2000007152558 A 8 8 0 0 1 78 633.2000007152558 L 400 633.2000007152558 Z" fill-opacity="1" stroke-opacity="1" stroke-miterlimit="10" stroke-width="5"/><rect fill="rgb(255,255,255)" stroke="none" x="104" y="584.2000007152558" width="592" height="96" fill-opacity="1"/><text fill="rgb(0,0,0)" stroke="none" font-family="Avenir, Helvetica, Arial, sans-serif" font-size="32px" font-style="normal" font-weight="bold" text-decoration="normal" x="400" y="648.2000007152558" text-anchor="middle" dominant-baseline="text-after-edge" fill-opacity="1">openstack_networking_router_v2</text><path fill="rgb(255,255,255)" stroke="rgb(0,0,0)" paint-order="fill stroke markers" d=" M 1198.2000007152558 633.2000007152558 L 1520.2000007152558 633.2000007152558 L 1520.2000007152558 633.2000007152558 A 8 8 0 0 1 1528.2000007152558 641.2000007152558 L 1528.2000007152558 815.2000007152558 L 1528.2000007152558 815.2000007152558 A 8 8 0 0 1 1520.2000007152558 823.2000007152558 L 876.2000007152558 823.2000007152558 L 876.2000007152558 823.2000007152558 A 8 8 0 0 1 868.2000007152558 815.2000007152558 L 868.2000007152558 641.2000007152558 L 868.2000007152558 641.2000007152558 A 8 8 0 0 1 876.2000007152558 633.2000007152558 L 1198.2000007152558 633.2000007152558 Z" fill-opacity="1" stroke-opacity="1" stroke-miterlimit="10" stroke-width="5"/><rect fill="rgb(255,255,255)" stroke="none" x="897.7000007152558" y="584.2000007152558" width="601" height="96" fill-opacity="1"/><text fill="rgb(0,0,0)" stroke="none" font-family="Avenir, Helvetica, Arial, sans-serif" font-size="32px" font-style="normal" font-weight="bold" text-decoration="normal" x="1198.2000007152558" y="648.2000007152558" text-anchor="middle" dominant-baseline="text-after-edge" fill-opacity="1">openstack_networking_subnet_v2</text><path fill="rgb(255,255,255)" stroke="rgb(0,0,0)" paint-order="fill stroke markers" d=" M 400 961.4000014305116 L 722 961.4000014305116 L 722 961.4000014305116 A 8 8 0 0 1 730 969.4000014305116 L 730 1143.4000014305116 L 730 1143.4000014305116 A 8 8 0 0 1 722 1151.4000014305116 L 78 1151.4000014305116 L 78 1151.4000014305116 A 8 8 0 0 1 70 1143.4000014305116 L 70 969.4000014305116 L 70 969.4000014305116 A 8 8 0 0 1 78 961.4000014305116 L 400 961.4000014305116 Z" fill-opacity="1" stroke-opacity="1" stroke-miterlimit="10" stroke-width="5"/><rect fill="rgb(255,255,255)" stroke="none" x="108.5" y="912.4000014305116" width="583" height="96" fill-opacity="1"/><text fill="rgb(0,0,0)" stroke="none" font-family="Avenir, Helvetica, Arial, sans-serif" font-size="32px" font-style="normal" font-weight="bold" text-decoration="normal" x="400" y="976.4000014305116" text-anchor="middle" dominant-baseline="text-after-edge" fill-opacity="1">openstack_compute_instance_v2</text><path fill="none" stroke="url(#GrDRLUHNRJKQ)" paint-order="fill stroke markers" d=" M 1198.2000007152558 439 L 1198.2000007152558 564.1000003576279 L 400 564.1000003576279 L 400 689.2000007152558" stroke-linejoin="round" stroke-miterlimit="10" stroke-width="10"/><path fill="none" stroke="url(#uxmfyTqcfsBa)" paint-order="fill stroke markers" d=" M 1198.2000007152558 439 L 1198.2000007152558 564.1000003576279 L 1198.2000007152558 564.1000003576279 L 1198.2000007152558 689.2000007152558" stroke-linejoin="round" stroke-miterlimit="10" stroke-width="10"/><path fill="none" stroke="url(#wBbwvFdOaGNC)" paint-order="fill stroke markers" d=" M 1198.2000007152558 689.2000007152558 L 1198.2000007152558 564.1000003576279 L 400 564.1000003576279 L 400 439" stroke-linejoin="round" stroke-miterlimit="10" stroke-width="10"/><path fill="none" stroke="url(#bXMCdUxgNdeG)" paint-order="fill stroke markers" d=" M 674 1056.4000014305116 L 799.1000003576279 1056.4000014305116 L 799.1000003576279 1056.4000014305116 L 924.2000007152558 1056.4000014305116" stroke-linejoin="round" stroke-miterlimit="10" stroke-width="10"/><path fill="rgb(40,167,69)" stroke="url(#bXMCdUxgNdeG)" paint-order="stroke fill markers" d=" M 1198.2000007152558 1017.4000014305116 L 1464.2000007152558 1017.4000014305116 L 1464.2000007152558 1017.4000014305116 A 8 8 0 0 1 1472.2000007152558 1025.4000014305116 L 1472.2000007152558 1087.4000014305116 L 1472.2000007152558 1087.4000014305116 A 8 8 0 0 1 1464.2000007152558 1095.4000014305116 L 932.2000007152558 1095.4000014305116 L 932.2000007152558 1095.4000014305116 A 8 8 0 0 1 924.2000007152558 1087.4000014305116 L 924.2000007152558 1025.4000014305116 L 924.2000007152558 1025.4000014305116 A 8 8 0 0 1 932.2000007152558 1017.4000014305116 L 1198.2000007152558 1017.4000014305116 Z" fill-opacity="1"/><text fill="rgb(255,255,255)" stroke="none" font-family="Avenir, Helvetica, Arial, sans-serif" font-size="32px" font-style="normal" font-weight="bold" text-decoration="normal" x="1198.2000007152558" y="1072.4000014305116" text-anchor="middle" dominant-baseline="text-after-edge" fill-opacity="1">ubuntu1804</text><path fill="rgb(40,167,69)" stroke="none" paint-order="stroke fill markers" d=" M 400 361 L 666 361 L 666 361 A 8 8 0 0 1 674 369 L 674 431 L 674 431 A 8 8 0 0 1 666 439 L 134 439 L 134 439 A 8 8 0 0 1 126 431 L 126 369 L 126 369 A 8 8 0 0 1 134 361 L 400 361 Z" fill-opacity="1"/><text fill="rgb(255,255,255)" stroke="none" font-family="Avenir, Helvetica, Arial, sans-serif" font-size="32px" font-style="normal" font-weight="bold" text-decoration="normal" x="400" y="416" text-anchor="middle" dominant-baseline="text-after-edge" fill-opacity="1">private_1</text><path fill="rgb(40,167,69)" stroke="none" paint-order="stroke fill markers" d=" M 1198.2000007152558 361 L 1464.2000007152558 361 L 1464.2000007152558 361 A 8 8 0 0 1 1472.2000007152558 369 L 1472.2000007152558 431 L 1472.2000007152558 431 A 8 8 0 0 1 1464.2000007152558 439 L 932.2000007152558 439 L 932.2000007152558 439 A 8 8 0 0 1 924.2000007152558 431 L 924.2000007152558 369 L 924.2000007152558 369 A 8 8 0 0 1 932.2000007152558 361 L 1198.2000007152558 361 Z" fill-opacity="1"/><text fill="rgb(255,255,255)" stroke="none" font-family="Avenir, Helvetica, Arial, sans-serif" font-size="32px" font-style="normal" font-weight="bold" text-decoration="normal" x="1198.2000007152558" y="416" text-anchor="middle" dominant-baseline="text-after-edge" fill-opacity="1">interface_1</text><path fill="rgb(40,167,69)" stroke="none" paint-order="stroke fill markers" d=" M 400 689.2000007152558 L 666 689.2000007152558 L 666 689.2000007152558 A 8 8 0 0 1 674 697.2000007152558 L 674 759.2000007152558 L 674 759.2000007152558 A 8 8 0 0 1 666 767.2000007152558 L 134 767.2000007152558 L 134 767.2000007152558 A 8 8 0 0 1 126 759.2000007152558 L 126 697.2000007152558 L 126 697.2000007152558 A 8 8 0 0 1 134 689.2000007152558 L 400 689.2000007152558 Z" fill-opacity="1"/><text fill="rgb(255,255,255)" stroke="none" font-family="Avenir, Helvetica, Arial, sans-serif" font-size="32px" font-style="normal" font-weight="bold" text-decoration="normal" x="400" y="744.2000007152558" text-anchor="middle" dominant-baseline="text-after-edge" fill-opacity="1">router_1</text><path fill="rgb(40,167,69)" stroke="none" paint-order="stroke fill markers" d=" M 1198.2000007152558 689.2000007152558 L 1464.2000007152558 689.2000007152558 L 1464.2000007152558 689.2000007152558 A 8 8 0 0 1 1472.2000007152558 697.2000007152558 L 1472.2000007152558 759.2000007152558 L 1472.2000007152558 759.2000007152558 A 8 8 0 0 1 1464.2000007152558 767.2000007152558 L 932.2000007152558 767.2000007152558 L 932.2000007152558 767.2000007152558 A 8 8 0 0 1 924.2000007152558 759.2000007152558 L 924.2000007152558 697.2000007152558 L 924.2000007152558 697.2000007152558 A 8 8 0 0 1 932.2000007152558 689.2000007152558 L 1198.2000007152558 689.2000007152558 Z" fill-opacity="1"/><text fill="rgb(255,255,255)" stroke="none" font-family="Avenir, Helvetica, Arial, sans-serif" font-size="32px" font-style="normal" font-weight="bold" text-decoration="normal" x="1198.2000007152558" y="744.2000007152558" text-anchor="middle" dominant-baseline="text-after-edge" fill-opacity="1">subnet_1</text><path fill="rgb(40,167,69)" stroke="none" paint-order="stroke fill markers" d=" M 400 1017.4000014305116 L 666 1017.4000014305116 L 666 1017.4000014305116 A 8 8 0 0 1 674 1025.4000014305116 L 674 1087.4000014305116 L 674 1087.4000014305116 A 8 8 0 0 1 666 1095.4000014305116 L 134 1095.4000014305116 L 134 1095.4000014305116 A 8 8 0 0 1 126 1087.4000014305116 L 126 1025.4000014305116 L 126 1025.4000014305116 A 8 8 0 0 1 134 1017.4000014305116 L 400 1017.4000014305116 Z" fill-opacity="1"/><text fill="rgb(255,255,255)" stroke="none" font-family="Avenir, Helvetica, Arial, sans-serif" font-size="32px" font-style="normal" font-weight="bold" text-decoration="normal" x="400" y="1072.4000014305116" text-anchor="middle" dominant-baseline="text-after-edge" fill-opacity="1">instance_1</text><path fill="rgb(40,167,69)" stroke="none" paint-order="stroke fill markers" d=" M 1198.2000007152558 1145.4000021457673 L 1464.2000007152558 1145.4000021457673 L 1464.2000007152558 1145.4000021457673 A 8 8 0 0 1 1472.2000007152558 1153.4000021457673 L 1472.2000007152558 1215.4000021457673 L 1472.2000007152558 1215.4000021457673 A 8 8 0 0 1 1464.2000007152558 1223.4000021457673 L 932.2000007152558 1223.4000021457673 L 932.2000007152558 1223.4000021457673 A 8 8 0 0 1 924.2000007152558 1215.4000021457673 L 924.2000007152558 1153.4000021457673 L 924.2000007152558 1153.4000021457673 A 8 8 0 0 1 932.2000007152558 1145.4000021457673 L 1198.2000007152558 1145.4000021457673 Z" fill-opacity="1"/><text fill="rgb(255,255,255)" stroke="none" font-family="Avenir, Helvetica, Arial, sans-serif" font-size="32px" font-style="normal" font-weight="bold" text-decoration="normal" x="1198.2000007152558" y="1200.4000021457673" text-anchor="middle" dominant-baseline="text-after-edge" fill-opacity="1">cirros</text><g transform="scale(10,10) translate(-23.69999999999999,-4.75)"/></g></svg>