<svg version="1.1" xmlns="http://www.w3.org/2000/svg" xmlns:xlink="http://www.w3.org/1999/xlink" width="375.90000000000003" height="283.7"><defs><linearGradient id="BTcHHwLHcTOw" x1="2096.4000014305116px" x2="1198.2000007152558px" y1="1899.1000050067905px" y2="767.2000007152558px" gradientUnits="userSpaceOnUse"><stop offset="0" stop-color="rgb(211,211,211)" stop-opacity="1"/><stop offset="1" stop-color="rgb(211,211,211)" stop-opacity="1"/></linearGradient><linearGradient id="cZJxMvsviVtN" x1="400px" x2="400px" y1="1529.4000042915345px" y2="895.2000014305115px" gradientUnits="userSpaceOnUse"><stop offset="0" stop-color="rgb(211,211,211)" stop-opacity="1"/><stop offset="1" stop-color="rgb(211,211,211)" stop-opacity="1"/></linearGradient><linearGradient id="PfNuXTcDheQp" x1="673.9999999999999px" x2="2520.6000021457676px" y1="1568.4000042915345px" y2="984.2000021457673px" gradientUnits="userSpaceOnUse"><stop offset="0" stop-color="rgb(211,211,211)" stop-opacity="1"/><stop offset="1" stop-color="rgb(211,211,211)" stop-opacity="1"/></linearGradient><linearGradient id="CXQPlSOKoHBQ" x1="400px" x2="400px" y1="1401.4000035762788px" y2="767.2000007152558px" gradientUnits="userSpaceOnUse"><stop offset="0" stop-color="rgb(211,211,211)" stop-opacity="1"/><stop offset="1" stop-color="rgb(211,211,211)" stop-opacity="1"/></linearGradient><linearGradient id="PoiygScJzVeg" x1="673.9999999999999px" x2="2520.6000021457676px" y1="1440.4000035762788px" y2="856.2000014305115px" gradientUnits="userSpaceOnUse"><stop offset="0" stop-color="rgb(211,211,211)" stop-opacity="1"/><stop offset="1" stop-color="rgb(211,211,211)" stop-opacity="1"/></linearGradient><linearGradient id="mCfHXFMOXBWy" x1="2520.6000021457676px" x2="1472.2000007152558px" y1="984.2000021457673px" y2="1568.4000042915345px" gradientUnits="userSpaceOnUse"><stop offset="0" stop-color="rgb(211,211,211)" stop-opacity="1"/><stop offset="1" stop-color="rgb(211,211,211)" stop-opacity="1"/></linearGradient><linearGradient id="NGsgznLktsHm" x1="2520.6000021457676px" x2="673.9999999999999px" y1="400px" y2="400px" gradientUnits="userSpaceOnUse"><stop offset="0" stop-color="rgb(211,211,211)" stop-opacity="1"/><stop offset="1" stop-color="rgb(211,211,211)" stop-opacity="1"/></linearGradient><linearGradient id="MNCPVczfeNCl" x1="2794.6000021457676px" x2="1996.4000014305116px" y1="439px" y2="1273.400002861023px" gradientUnits="userSpaceOnUse"><stop offset="0" stop-color="rgb(211,211,211)" stop-opacity="1"/><stop offset="1" stop-color="rgb(211,211,211)" stop-opacity="1"/></linearGradient><linearGradient id="KqfMlFnLeaVG" x1="1198.2000007152558px" x2="1198.2000007152558px" y1="439px" y2="1273.400002861023px" gradientUnits="userSpaceOnUse"><stop offset="0" stop-color="rgb(211,211,211)" stop-opacity="1"/><stop offset="1" stop-color="rgb(211,211,211)" stop-opacity="1"/></linearGradient><linearGradient id="NmWBgZCBaTIU" x1="1198.2000007152558px" x2="1996.4000014305116px" y1="439px" y2="689.2000007152558px" gradientUnits="userSpaceOnUse"><stop offset="0" stop-color="rgb(211,211,211)" stop-opacity="1"/><stop offset="1" stop-color="rgb(211,211,211)" stop-opacity="1"/></linearGradient><linearGradient id="kVHktgQPdXvg" x1="1198.2000007152558px" x2="1996.4000014305116px" y1="439px" y2="817.2000014305115px" gradientUnits="userSpaceOnUse"><stop offset="0" stop-color="rgb(211,211,211)" stop-opacity="1"/><stop offset="1" stop-color="rgb(211,211,211)" stop-opacity="1"/></linearGradient><linearGradient id="UhFJxBycNoXG" x1="2520.6000021457676px" x2="1472.2000007152558px" y1="856.2000014305115px" y2="1312.400002861023px" gradientUnits="userSpaceOnUse"><stop offset="0" stop-color="rgb(211,211,211)" stop-opacity="1"/><stop offset="1" stop-color="rgb(211,211,211)" stop-opacity="1"/></linearGradient><linearGradient id="ngrTLygdhPAu" x1="400px" x2="400px" y1="1273.400002861023px" y2="767.2000007152558px" gradientUnits="userSpaceOnUse"><stop offset="0" stop-color="rgb(211,211,211)" stop-opacity="1"/><stop offset="1" stop-color="rgb(211,211,211)" stop-opacity="1"/></linearGradient><linearGradient id="sfMysZTnVQoW" x1="673.9999999999999px" x2="2520.6000021457676px" y1="1312.400002861023px" y2="728.2000007152558px" gradientUnits="userSpaceOnUse"><stop offset="0" stop-color="rgb(211,211,211)" stop-opacity="1"/><stop offset="1" stop-color="rgb(211,211,211)" stop-opacity="1"/></linearGradient><linearGradient id="aCVQTkuypswv" x1="1996.4000014305116px" x2="1198.2000007152558px" y1="1273.400002861023px" y2="895.2000014305115px" gradientUnits="userSpaceOnUse"><stop offset="0" stop-color="rgb(211,211,211)" stop-opacity="1"/><stop offset="1" stop-color="rgb(211,211,211)" stop-opacity="1"/></linearGradient><linearGradient id="HhTiJQVxVGwG" x1="2361.9000021457673px" x2="1472.2000007152558px" y1="1540.4000035762788px" y2="728.2000007152558px" gradientUnits="userSpaceOnUse"><stop offset="0" stop-color="rgb(211,211,211)" stop-opacity="1"/><stop offset="1" stop-color="rgb(211,211,211)" stop-opacity="1"/></linearGradient><linearGradient id="xgKIilwyNdIZ" x1="2520.6000021457676px" x2="1472.2000007152558px" y1="728.2000007152558px" y2="1440.4000035762788px" gradientUnits="userSpaceOnUse"><stop offset="0" stop-color="rgb(211,211,211)" stop-opacity="1"/><stop offset="1" stop-color="rgb(211,211,211)" stop-opacity="1"/></linearGradient></defs><g transform="translate(27.85,4.75) scale(0.1,0.1)"><path fill="rgb(244,236,255)" stroke="rgb(255,255,255)" paint-order="fill stroke markers" d=" M 1600.8000010728838 -45.5 L 3470.1000021457676 -45.5 L 3470.1000021457676 -45.5 A 8 8 0 0 1 3478.1000021457676 -37.5 L 3478.1000021457676 2778.7500065088275 L 3478.1000021457676 2778.7500065088275 A 8 8 0 0 1 3470.1000021457676 2786.7500065088275 L -268.5 2786.7500065088275 L -268.5 2786.7500065088275 A 8 8 0 0 1 -276.5 2778.7500065088275 L -276.5 -37.5 L -276.5 -37.5 A 8 8 0 0 1 -268.5 -45.5 L 1600.8000010728838 -45.5 Z" fill-opacity="1" stroke-opacity="1" stroke-miterlimit="10" stroke-width="2"/><text fill="rgb(0,0,0)" stroke="none" font-family="Avenir, Helvetica, Arial, sans-serif" font-size="32px" font-style="normal" font-weight="bold" text-decoration="normal" x="1600.8000010728838" y="29.5" text-anchor="middle" dominant-baseline="text-after-edge" fill-opacity="1">.</text><path fill="rgb(255,255,255)" stroke="rgb(211,211,211)" paint-order="fill stroke markers" d=" M 1600.8000010728838 156 L 3268.6000021457676 156 L 3268.6000021457676 156 A 8 8 0 0 1 3276.6000021457676 164 L 3276.6000021457676 2577.2500065088275 L 3276.6000021457676 2577.2500065088275 A 8 8 0 0 1 3268.6000021457676 2585.2500065088275 L -67 2585.2500065088275 L -67 2585.2500065088275 A 8 8 0 0 1 -75 2577.2500065088275 L -75 164 L -75 164 A 8 8 0 0 1 -67 156 L 1600.8000010728838 156 Z" fill-opacity="1" stroke-opacity="1" stroke-miterlimit="10"/><text fill="rgb(0,0,0)" stroke="none" font-family="Avenir, Helvetica, Arial, sans-serif" font-size="32px" font-style="normal" font-weight="bold" text-decoration="normal" x="1600.8000010728838" y="231" text-anchor="middle" dominant-baseline="text-after-edge" fill-opacity="1">main.tf</text><path fill="rgb(255,255,255)" stroke="rgb(0,0,0)" paint-order="fill stroke markers" d=" M 2374.6500017881394 1137.7500027894976 L 3150.550002217293 1137.7500027894976 L 3150.550002217293 1137.7500027894976 A 8 8 0 0 1 3158.550002217293 1145.7500027894976 L 3158.550002217293 2473.7500065088275 L 3158.550002217293 2473.7500065088275 A 8 8 0 0 1 3150.550002217293 2481.7500065088275 L 1598.750001358986 2481.7500065088275 L 1598.750001358986 2481.7500065088275 A 8 8 0 0 1 1590.750001358986 2473.7500065088275 L 1590.750001358986 1145.7500027894976 L 1590.750001358986 1145.7500027894976 A 8 8 0 0 1 1598.750001358986 1137.7500027894976 L 2374.6500017881394 1137.7500027894976 Z" fill-opacity="1" stroke-opacity="1" stroke-miterlimit="10" stroke-width="5"/><rect fill="rgb(255,255,255)" stroke="none" x="2083.1500017881394" y="1088.7500027894976" width="583" height="96" fill-opacity="1"/><text fill="rgb(0,0,0)" stroke="none" font-family="Avenir, Helvetica, Arial, sans-serif" font-size="32px" font-style="normal" font-weight="bold" text-decoration="normal" x="2374.6500017881394" y="1152.7500027894976" text-anchor="middle" dominant-baseline="text-after-edge" fill-opacity="1">openstack_compute_instance_v2</text><path fill="rgb(255,255,255)" stroke="rgb(0,0,0)" paint-order="fill stroke markers" d=" M 2794.6000021457676 633.2000007152558 L 3116.6000021457676 633.2000007152558 L 3116.6000021457676 633.2000007152558 A 8 8 0 0 1 3124.6000021457676 641.2000007152558 L 3124.6000021457676 1071.2000021457673 L 3124.6000021457676 1071.2000021457673 A 8 8 0 0 1 3116.6000021457676 1079.2000021457673 L 2472.6000021457676 1079.2000021457673 L 2472.6000021457676 1079.2000021457673 A 8 8 0 0 1 2464.6000021457676 1071.2000021457673 L 2464.6000021457676 641.2000007152558 L 2464.6000021457676 641.2000007152558 A 8 8 0 0 1 2472.6000021457676 633.2000007152558 L 2794.6000021457676 633.2000007152558 Z" fill-opacity="1" stroke-opacity="1" stroke-miterlimit="10" stroke-width="5"/><rect fill="rgb(255,255,255)" stroke="none" x="2494.1000021457676" y="584.2000007152558" width="601" height="96" fill-opacity="1"/><text fill="rgb(0,0,0)" stroke="none" font-family="Avenir, Helvetica, Arial, sans-serif" font-size="32px" font-style="normal" font-weight="bold" text-decoration="normal" x="2794.6000021457676" y="648.2000007152558" text-anchor="middle" dominant-baseline="text-after-edge" fill-opacity="1">openstack_networking_subnet_v2</text><path fill="rgb(255,255,255)" stroke="rgb(0,0,0)" paint-order="fill stroke markers" d=" M 400 305 L 722 305 L 722 305 A 8 8 0 0 1 730 313 L 730 487 L 730 487 A 8 8 0 0 1 722 495 L 78 495 L 78 495 A 8 8 0 0 1 70 487 L 70 313 L 70 313 A 8 8 0 0 1 78 305 L 400 305 Z" fill-opacity="1" stroke-opacity="1" stroke-miterlimit="10" stroke-width="5"/><rect fill="rgb(255,255,255)" stroke="none" x="78" y="256" width="644" height="96" fill-opacity="1"/><text fill="rgb(0,0,0)" stroke="none" font-family="Avenir, Helvetica, Arial, sans-serif" font-size="32px" font-style="normal" font-weight="bold" text-decoration="normal" x="400" y="320" text-anchor="middle" dominant-baseline="text-after-edge" fill-opacity="1">openstack_networking_floatingip_v2</text><path fill="rgb(255,255,255)" stroke="rgb(0,0,0)" paint-order="fill stroke markers" d=" M 400 1217.400002861023 L 722 1217.400002861023 L 722 1217.400002861023 A 8 8 0 0 1 730 1225.400002861023 L 730 1655.4000042915345 L 730 1655.4000042915345 A 8 8 0 0 1 722 1663.4000042915345 L 78 1663.4000042915345 L 78 1663.4000042915345 A 8 8 0 0 1 70 1655.4000042915345 L 70 1225.400002861023 L 70 1225.400002861023 A 8 8 0 0 1 78 1217.400002861023 L 400 1217.400002861023 Z" fill-opacity="1" stroke-opacity="1" stroke-miterlimit="10" stroke-width="5"/><rect fill="rgb(255,255,255)" stroke="none" x="25" y="1168.400002861023" width="750" height="96" fill-opacity="1"/><text fill="rgb(0,0,0)" stroke="none" font-family="Avenir, Helvetica, Arial, sans-serif" font-size="32px" font-style="normal" font-weight="bold" text-decoration="normal" x="400" y="1232.400002861023" text-anchor="middle" dominant-baseline="text-after-edge" fill-opacity="1">openstack_networking_router_interface_v2</text><path fill="rgb(255,255,255)" stroke="rgb(0,0,0)" paint-order="fill stroke markers" d=" M 400 633.2000007152558 L 722 633.2000007152558 L 722 633.2000007152558 A 8 8 0 0 1 730 641.2000007152558 L 730 943.2000014305115 L 730 943.2000014305115 A 8 8 0 0 1 722 951.2000014305115 L 78 951.2000014305115 L 78 951.2000014305115 A 8 8 0 0 1 70 943.2000014305115 L 70 641.2000007152558 L 70 641.2000007152558 A 8 8 0 0 1 78 633.2000007152558 L 400 633.2000007152558 Z" fill-opacity="1" stroke-opacity="1" stroke-miterlimit="10" stroke-width="5"/><rect fill="rgb(255,255,255)" stroke="none" x="104" y="584.2000007152558" width="592" height="96" fill-opacity="1"/><text fill="rgb(0,0,0)" stroke="none" font-family="Avenir, Helvetica, Arial, sans-serif" font-size="32px" font-style="normal" font-weight="bold" text-decoration="normal" x="400" y="648.2000007152558" text-anchor="middle" dominant-baseline="text-after-edge" fill-opacity="1">openstack_networking_router_v2</text><path fill="rgb(255,255,255)" stroke="rgb(0,0,0)" paint-order="fill stroke markers" d=" M 1198.2000007152558 1217.400002861023 L 1520.2000007152558 1217.400002861023 L 1520.2000007152558 1217.400002861023 A 8 8 0 0 1 1528.2000007152558 1225.400002861023 L 1528.2000007152558 1655.4000042915345 L 1528.2000007152558 1655.4000042915345 A 8 8 0 0 1 1520.2000007152558 1663.4000042915345 L 876.2000007152558 1663.4000042915345 L 876.2000007152558 1663.4000042915345 A 8 8 0 0 1 868.2000007152558 1655.4000042915345 L 868.2000007152558 1225.400002861023 L 868.2000007152558 1225.400002861023 A 8 8 0 0 1 876.2000007152558 1217.400002861023 L 1198.2000007152558 1217.400002861023 Z" fill-opacity="1" stroke-opacity="1" stroke-miterlimit="10" stroke-width="5"/><rect fill="rgb(255,255,255)" stroke="none" x="885.7000007152558" y="1168.400002861023" width="625" height="96" fill-opacity="1"/><text fill="rgb(0,0,0)" stroke="none" font-family="Avenir, Helvetica, Arial, sans-serif" font-size="32px" font-style="normal" font-weight="bold" text-decoration="normal" x="1198.2000007152558" y="1232.400002861023" text-anchor="middle" dominant-baseline="text-after-edge" fill-opacity="1">openstack_networking_network_v2</text><path fill="rgb(255,255,255)" stroke="rgb(0,0,0)" paint-order="fill stroke markers" d=" M 1198.2000007152558 633.2000007152558 L 1520.2000007152558 633.2000007152558 L 1520.2000007152558 633.2000007152558 A 8 8 0 0 1 1528.2000007152558 641.2000007152558 L 1528.2000007152558 943.2000014305115 L 1528.2000007152558 943.2000014305115 A 8 8 0 0 1 1520.2000007152558 951.2000014305115 L 876.2000007152558 951.2000014305115 L 876.2000007152558 951.2000014305115 A 8 8 0 0 1 868.2000007152558 943.2000014305115 L 868.2000007152558 641.2000007152558 L 868.2000007152558 641.2000007152558 A 8 8 0 0 1 876.2000007152558 633.2000007152558 L 1198.2000007152558 633.2000007152558 Z" fill-opacity="1" stroke-opacity="1" stroke-miterlimit="10" stroke-width="5"/><rect fill="rgb(255,255,255)" stroke="none" x="940.2000007152558" y="584.2000007152558" width="516" height="96" fill-opacity="1"/><text fill="rgb(0,0,0)" stroke="none" font-family="Avenir, Helvetica, Arial, sans-serif" font-size="32px" font-style="normal" font-weight="bold" text-decoration="normal" x="1198.2000007152558" y="648.2000007152558" text-anchor="middle" dominant-baseline="text-after-edge" fill-opacity="1">openstack_images_image_v2</text><path fill="rgb(255,255,255)" stroke="rgb(0,0,0)" paint-order="fill stroke markers" d=" M 1996.4000014305116 633.2000007152558 L 2318.4000014305116 633.2000007152558 L 2318.4000014305116 633.2000007152558 A 8 8 0 0 1 2326.4000014305116 641.2000007152558 L 2326.4000014305116 943.2000014305115 L 2326.4000014305116 943.2000014305115 A 8 8 0 0 1 2318.4000014305116 951.2000014305115 L 1674.4000014305116 951.2000014305115 L 1674.4000014305116 951.2000014305115 A 8 8 0 0 1 1666.4000014305116 943.2000014305115 L 1666.4000014305116 641.2000007152558 L 1666.4000014305116 641.2000007152558 A 8 8 0 0 1 1674.4000014305116 633.2000007152558 L 1996.4000014305116 633.2000007152558 Z" fill-opacity="1" stroke-opacity="1" stroke-miterlimit="10" stroke-width="5"/><rect fill="rgb(255,255,255)" stroke="none" x="1700.9000014305116" y="584.2000007152558" width="591" height="96" fill-opacity="1"/><text fill="rgb(0,0,0)" stroke="none" font-family="Avenir, Helvetica, Arial, sans-serif" font-size="32px" font-style="normal" font-weight="bold" text-decoration="normal" x="1996.4000014305116" y="648.2000007152558" text-anchor="middle" dominant-baseline="text-after-edge" fill-opacity="1">openstack_compute_secgroup_v2</text><path fill="rgb(255,255,255)" stroke="rgb(0,0,0)" paint-order="fill stroke markers" d=" M 1198.2000007152558 305 L 1520.2000007152558 305 L 1520.2000007152558 305 A 8 8 0 0 1 1528.2000007152558 313 L 1528.2000007152558 487 L 1528.2000007152558 487 A 8 8 0 0 1 1520.2000007152558 495 L 876.2000007152558 495 L 876.2000007152558 495 A 8 8 0 0 1 868.2000007152558 487 L 868.2000007152558 313 L 868.2000007152558 313 A 8 8 0 0 1 876.2000007152558 305 L 1198.2000007152558 305 Z" fill-opacity="1" stroke-opacity="1" stroke-miterlimit="10" stroke-width="5"/><rect fill="rgb(255,255,255)" stroke="none" x="919.2000007152558" y="256" width="558" height="96" fill-opacity="1"/><text fill="rgb(0,0,0)" stroke="none" font-family="Avenir, Helvetica, Arial, sans-serif" font-size="32px" font-style="normal" font-weight="bold" text-decoration="normal" x="1198.2000007152558" y="320" text-anchor="middle" dominant-baseline="text-after-edge" fill-opacity="1">openstack_networking_port_v2</text><path fill="rgb(255,255,255)" stroke="rgb(0,0,0)" paint-order="fill stroke markers" d=" M 1996.4000014305116 305 L 2318.4000014305116 305 L 2318.4000014305116 305 A 8 8 0 0 1 2326.4000014305116 313 L 2326.4000014305116 487 L 2326.4000014305116 487 A 8 8 0 0 1 2318.4000014305116 495 L 1674.4000014305116 495 L 1674.4000014305116 495 A 8 8 0 0 1 1666.4000014305116 487 L 1666.4000014305116 313 L 1666.4000014305116 313 A 8 8 0 0 1 1674.4000014305116 305 L 1996.4000014305116 305 Z" fill-opacity="1" stroke-opacity="1" stroke-miterlimit="10" stroke-width="5"/><rect fill="rgb(255,255,255)" stroke="none" x="1725.9000014305116" y="256" width="541" height="96" fill-opacity="1"/><text fill="rgb(0,0,0)" stroke="none" font-family="Avenir, Helvetica, Arial, sans-serif" font-size="32px" font-style="normal" font-weight="bold" text-decoration="normal" x="1996.4000014305116" y="320" text-anchor="middle" dominant-baseline="text-after-edge" fill-opacity="1">openstack_compute_flavor_v2</text><path fill="rgb(255,255,255)" stroke="rgb(0,0,0)" paint-order="fill stroke markers" d=" M 2794.6000021457676 305 L 3116.6000021457676 305 L 3116.6000021457676 305 A 8 8 0 0 1 3124.6000021457676 313 L 3124.6000021457676 487 L 3124.6000021457676 487 A 8 8 0 0 1 3116.6000021457676 495 L 2472.6000021457676 495 L 2472.6000021457676 495 A 8 8 0 0 1 2464.6000021457676 487 L 2464.6000021457676 313 L 2464.6000021457676 313 A 8 8 0 0 1 2472.6000021457676 305 L 2794.6000021457676 305 Z" fill-opacity="1" stroke-opacity="1" stroke-miterlimit="10" stroke-width="5"/><rect fill="rgb(255,255,255)" stroke="none" x="2412.6000021457676" y="256" width="764" height="96" fill-opacity="1"/><text fill="rgb(0,0,0)" stroke="none" font-family="Avenir, Helvetica, Arial, sans-serif" font-size="32px" font-style="normal" font-weight="bold" text-decoration="normal" x="2794.6000021457676" y="320" text-anchor="middle" dominant-baseline="text-after-edge" fill-opacity="1">openstack_compute_floatingip_associate_v2</text><path fill="rgb(255,255,255)" stroke="rgb(0,0,0)" paint-order="fill stroke markers" d=" M 2694.4000021457673 1317.400002861023 L 3016.4000021457673 1317.400002861023 L 3016.4000021457673 1317.400002861023 A 8 8 0 0 1 3024.4000021457673 1325.400002861023 L 3024.4000021457673 1755.4000042915345 L 3024.4000021457673 1755.4000042915345 A 8 8 0 0 1 3016.4000021457673 1763.4000042915345 L 2372.4000021457673 1763.4000042915345 L 2372.4000021457673 1763.4000042915345 A 8 8 0 0 1 2364.4000021457673 1755.4000042915345 L 2364.4000021457673 1325.400002861023 L 2364.4000021457673 1325.400002861023 A 8 8 0 0 1 2372.4000021457673 1317.400002861023 L 2694.4000021457673 1317.400002861023 Z" fill-opacity="1" stroke-opacity="1" stroke-miterlimit="10" stroke-width="5"/><rect fill="rgb(255,255,255)" stroke="none" x="2578.4000021457673" y="1268.400002861023" width="232" height="96" fill-opacity="1"/><text fill="rgb(0,0,0)" stroke="none" font-family="Avenir, Helvetica, Arial, sans-serif" font-size="32px" font-style="normal" font-weight="bold" text-decoration="normal" x="2694.4000021457673" y="1332.400002861023" text-anchor="middle" dominant-baseline="text-after-edge" fill-opacity="1">instance_3</text><path fill="rgb(255,255,255)" stroke="rgb(0,0,0)" paint-order="fill stroke markers" d=" M 2096.4000014305116 1901.6000050067905 L 2418.4000014305116 1901.6000050067905 L 2418.4000014305116 1901.6000050067905 A 8 8 0 0 1 2426.4000014305116 1909.6000050067905 L 2426.4000014305116 2339.600006437302 L 2426.4000014305116 2339.600006437302 A 8 8 0 0 1 2418.4000014305116 2347.600006437302 L 1774.4000014305116 2347.600006437302 L 1774.4000014305116 2347.600006437302 A 8 8 0 0 1 1766.4000014305116 2339.600006437302 L 1766.4000014305116 1909.6000050067905 L 1766.4000014305116 1909.6000050067905 A 8 8 0 0 1 1774.4000014305116 1901.6000050067905 L 2096.4000014305116 1901.6000050067905 Z" fill-opacity="1" stroke-opacity="1" stroke-miterlimit="10" stroke-width="5"/><rect fill="rgb(255,255,255)" stroke="none" x="1980.4000014305116" y="1852.6000050067905" width="232" height="96" fill-opacity="1"/><text fill="rgb(0,0,0)" stroke="none" font-family="Avenir, Helvetica, Arial, sans-serif" font-size="32px" font-style="normal" font-weight="bold" text-decoration="normal" x="2096.4000014305116" y="1916.6000050067905" text-anchor="middle" dominant-baseline="text-after-edge" fill-opacity="1">instance_2</text><path fill="none" stroke="url(#BTcHHwLHcTOw)" paint-order="fill stroke markers" d=" M 2096.4000014305116 1899.1000050067905 L 2096.4000014305116 1333.150002861023 L 1198.2000007152558 1333.150002861023 L 1198.2000007152558 767.2000007152558" stroke-linejoin="round" stroke-miterlimit="10" stroke-width="10"/><path fill="none" stroke="url(#cZJxMvsviVtN)" paint-order="fill stroke markers" d=" M 400 1529.4000042915345 L 400 1212.3000028610231 L 400 1212.3000028610231 L 400 895.2000014305115" stroke-linejoin="round" stroke-miterlimit="10" stroke-width="10"/><path fill="none" stroke="url(#PfNuXTcDheQp)" paint-order="fill stroke markers" d=" M 673.9999999999999 1568.4000042915345 L 1597.3000010728838 1568.4000042915345 L 1597.3000010728838 984.2000021457673 L 2520.6000021457676 984.2000021457673" stroke-linejoin="round" stroke-miterlimit="10" stroke-width="10"/><path fill="none" stroke="url(#CXQPlSOKoHBQ)" paint-order="fill stroke markers" d=" M 400 1401.4000035762788 L 400 1084.3000021457674 L 400 1084.3000021457674 L 400 767.2000007152558" stroke-linejoin="round" stroke-miterlimit="10" stroke-width="10"/><path fill="none" stroke="url(#PoiygScJzVeg)" paint-order="fill stroke markers" d=" M 673.9999999999999 1440.4000035762788 L 1597.3000010728838 1440.4000035762788 L 1597.3000010728838 856.2000014305115 L 2520.6000021457676 856.2000014305115" stroke-linejoin="round" stroke-miterlimit="10" stroke-width="10"/><path fill="none" stroke="url(#mCfHXFMOXBWy)" paint-order="fill stroke markers" d=" M 2520.6000021457676 984.2000021457673 L 1996.4000014305116 984.2000021457673 L 1996.4000014305116 1568.4000042915345 L 1472.2000007152558 1568.4000042915345" stroke-linejoin="round" stroke-miterlimit="10" stroke-width="10"/><path fill="none" stroke="url(#NGsgznLktsHm)" paint-order="fill stroke markers" d=" M 2520.6000021457676 400 L 1597.3000010728838 400 L 1597.3000010728838 400 L 673.9999999999999 400" stroke-linejoin="round" stroke-miterlimit="10" stroke-width="10"/><path fill="none" stroke="url(#MNCPVczfeNCl)" paint-order="fill stroke markers" d=" M 2794.6000021457676 439 L 2794.6000021457676 856.2000014305115 L 1996.4000014305116 856.2000014305115 L 1996.4000014305116 1273.400002861023" stroke-linejoin="round" stroke-miterlimit="10" stroke-width="10"/><path fill="none" stroke="url(#KqfMlFnLeaVG)" paint-order="fill stroke markers" d=" M 1198.2000007152558 439 L 1198.2000007152558 856.2000014305115 L 1198.2000007152558 856.2000014305115 L 1198.2000007152558 1273.400002861023" stroke-linejoin="round" stroke-miterlimit="10" stroke-width="10"/><path fill="none" stroke="url(#NmWBgZCBaTIU)" paint-order="fill stroke markers" d=" M 1198.2000007152558 439 L 1198.2000007152558 564.1000003576279 L 1996.4000014305116 564.1000003576279 L 1996.4000014305116 689.2000007152558" stroke-linejoin="round" stroke-miterlimit="10" stroke-width="10"/><path fill="none" stroke="url(#kVHktgQPdXvg)" paint-order="fill stroke markers" d=" M 1198.2000007152558 439 L 1198.2000007152558 628.1000007152558 L 1996.4000014305116 628.1000007152558 L 1996.4000014305116 817.2000014305115" stroke-linejoin="round" stroke-miterlimit="10" stroke-width="10"/><path fill="none" stroke="url(#UhFJxBycNoXG)" paint-order="fill stroke markers" d=" M 2520.6000021457676 856.2000014305115 L 1996.4000014305116 856.2000014305115 L 1996.4000014305116 1312.400002861023 L 1472.2000007152558 1312.400002861023" stroke-linejoin="round" stroke-miterlimit="10" stroke-width="10"/><path fill="none" stroke="url(#ngrTLygdhPAu)" paint-order="fill stroke markers" d=" M 400 1273.400002861023 L 400 1020.3000017881395 L 400 1020.3000017881395 L 400 767.2000007152558" stroke-linejoin="round" stroke-miterlimit="10" stroke-width="10"/><path fill="none" stroke="url(#sfMysZTnVQoW)" paint-order="fill stroke markers" d=" M 673.9999999999999 1312.400002861023 L 1597.3000010728838 1312.400002861023 L 1597.3000010728838 728.2000007152558 L 2520.6000021457676 728.2000007152558" stroke-linejoin="round" stroke-miterlimit="10" stroke-width="10"/><path fill="none" stroke="url(#aCVQTkuypswv)" paint-order="fill stroke markers" d=" M 1996.4000014305116 1273.400002861023 L 1996.4000014305116 1084.3000021457674 L 1198.2000007152558 1084.3000021457674 L 1198.2000007152558 895.2000014305115" stroke-linejoin="round" stroke-miterlimit="10" stroke-width="10"/><path fill="none" stroke="url(#HhTiJQVxVGwG)" paint-order="fill stroke markers" d=" M 2361.9000021457673 1540.4000035762788 L 1917.0500014305117 1540.4000035762788 L 1917.0500014305117 728.2000007152558 L 1472.2000007152558 728.2000007152558" stroke-linejoin="round" stroke-miterlimit="10" stroke-width="10"/><path fill="none" stroke="url(#xgKIilwyNdIZ)" paint-order="fill stroke markers" d=" M 2520.6000021457676 728.2000007152558 L 1996.4000014305116 728.2000007152558 L 1996.4000014305116 1440.4000035762788 L 1472.2000007152558 1440.4000035762788" stroke-linejoin="round" stroke-miterlimit="10" stroke-width="10"/><path fill="rgb(40,167,69)" stroke="url(#xgKIilwyNdIZ)" paint-order="stroke fill markers" d=" M 1996.4000014305116 1273.400002861023 L 2262.4000014305116 1273.400002861023 L 2262.4000014305116 1273.400002861023 A 8 8 0 0 1 2270.4000014305116 1281.400002861023 L 2270.4000014305116 1343.400002861023 L 2270.4000014305116 1343.400002861023 A 8 8 0 0 1 2262.4000014305116 1351.400002861023 L 1730.4000014305116 1351.400002861023 L 1730.4000014305116 1351.400002861023 A 8 8 0 0 1 1722.4000014305116 1343.400002861023 L 1722.4000014305116 1281.400002861023 L 1722.4000014305116 1281.400002861023 A 8 8 0 0 1 1730.4000014305116 1273.400002861023 L 1996.4000014305116 1273.400002861023 Z" fill-opacity="1"/><text fill="rgb(255,255,255)" stroke="none" font-family="Avenir, Helvetica, Arial, sans-serif" font-size="32px" font-style="normal" font-weight="bold" text-decoration="normal" x="1996.4000014305116" y="1328.400002861023" text-anchor="middle" dominant-baseline="text-after-edge" fill-opacity="1">instance_1</text><path fill="rgb(40,167,69)" stroke="none" paint-order="stroke fill markers" d=" M 2694.4000021457673 1373.400002861023 L 2960.4000021457673 1373.400002861023 L 2960.4000021457673 1373.400002861023 A 8 8 0 0 1 2968.4000021457673 1381.400002861023 L 2968.4000021457673 1443.400002861023 L 2968.4000021457673 1443.400002861023 A 8 8 0 0 1 2960.4000021457673 1451.400002861023 L 2428.4000021457673 1451.400002861023 L 2428.4000021457673 1451.400002861023 A 8 8 0 0 1 2420.4000021457673 1443.400002861023 L 2420.4000021457673 1381.400002861023 L 2420.4000021457673 1381.400002861023 A 8 8 0 0 1 2428.4000021457673 1373.400002861023 L 2694.4000021457673 1373.400002861023 Z" fill-opacity="1"/><text fill="rgb(255,255,255)" stroke="none" font-family="Avenir, Helvetica, Arial, sans-serif" font-size="32px" font-style="normal" font-weight="bold" text-decoration="normal" x="2694.4000021457673" y="1428.400002861023" text-anchor="middle" dominant-baseline="text-after-edge" fill-opacity="1">instance_3[0]</text><path fill="rgb(40,167,69)" stroke="none" paint-order="stroke fill markers" d=" M 2694.4000021457673 1501.4000035762788 L 2960.4000021457673 1501.4000035762788 L 2960.4000021457673 1501.4000035762788 A 8 8 0 0 1 2968.4000021457673 1509.4000035762788 L 2968.4000021457673 1571.4000035762788 L 2968.4000021457673 1571.4000035762788 A 8 8 0 0 1 2960.4000021457673 1579.4000035762788 L 2428.4000021457673 1579.4000035762788 L 2428.4000021457673 1579.4000035762788 A 8 8 0 0 1 2420.4000021457673 1571.4000035762788 L 2420.4000021457673 1509.4000035762788 L 2420.4000021457673 1509.4000035762788 A 8 8 0 0 1 2428.4000021457673 1501.4000035762788 L 2694.4000021457673 1501.4000035762788 Z" fill-opacity="1"/><text fill="rgb(255,255,255)" stroke="none" font-family="Avenir, Helvetica, Arial, sans-serif" font-size="32px" font-style="normal" font-weight="bold" text-decoration="normal" x="2694.4000021457673" y="1556.4000035762788" text-anchor="middle" dominant-baseline="text-after-edge" fill-opacity="1">instance_3[1]</text><path fill="rgb(40,167,69)" stroke="none" paint-order="stroke fill markers" d=" M 2694.4000021457673 1629.4000042915345 L 2960.4000021457673 1629.4000042915345 L 2960.4000021457673 1629.4000042915345 A 8 8 0 0 1 2968.4000021457673 1637.4000042915345 L 2968.4000021457673 1699.4000042915345 L 2968.4000021457673 1699.4000042915345 A 8 8 0 0 1 2960.4000021457673 1707.4000042915345 L 2428.4000021457673 1707.4000042915345 L 2428.4000021457673 1707.4000042915345 A 8 8 0 0 1 2420.4000021457673 1699.4000042915345 L 2420.4000021457673 1637.4000042915345 L 2420.4000021457673 1637.4000042915345 A 8 8 0 0 1 2428.4000021457673 1629.4000042915345 L 2694.4000021457673 1629.4000042915345 Z" fill-opacity="1"/><text fill="rgb(255,255,255)" stroke="none" font-family="Avenir, Helvetica, Arial, sans-serif" font-size="32px" font-style="normal" font-weight="bold" text-decoration="normal" x="2694.4000021457673" y="1684.4000042915345" text-anchor="middle" dominant-baseline="text-after-edge" fill-opacity="1">instance_3[2]</text><path fill="rgb(40,167,69)" stroke="none" paint-order="stroke fill markers" d=" M 2794.6000021457676 689.2000007152558 L 3060.6000021457676 689.2000007152558 L 3060.6000021457676 689.2000007152558 A 8 8 0 0 1 3068.6000021457676 697.2000007152558 L 3068.6000021457676 759.2000007152558 L 3068.6000021457676 759.2000007152558 A 8 8 0 0 1 3060.6000021457676 767.2000007152558 L 2528.6000021457676 767.2000007152558 L 2528.6000021457676 767.2000007152558 A 8 8 0 0 1 2520.6000021457676 759.2000007152558 L 2520.6000021457676 697.2000007152558 L 2520.6000021457676 697.2000007152558 A 8 8 0 0 1 2528.6000021457676 689.2000007152558 L 2794.6000021457676 689.2000007152558 Z" fill-opacity="1"/><text fill="rgb(255,255,255)" stroke="none" font-family="Avenir, Helvetica, Arial, sans-serif" font-size="32px" font-style="normal" font-weight="bold" text-decoration="normal" x="2794.6000021457676" y="744.2000007152558" text-anchor="middle" dominant-baseline="text-after-edge" fill-opacity="1">subnet_2</text><path fill="rgb(40,167,69)" stroke="none" paint-order="stroke fill markers" d=" M 400 361 L 666 361 L 666 361 A 8 8 0 0 1 674 369 L 674 431 L 674 431 A 8 8 0 0 1 666 439 L 134 439 L 134 439 A 8 8 0 0 1 126 431 L 126 369 L 126 369 A 8 8 0 0 1 134 361 L 400 361 Z" fill-opacity="1"/><text fill="rgb(255,255,255)" stroke="none" font-family="Avenir, Helvetica, Arial, sans-serif" font-size="32px" font-style="normal" font-weight="bold" text-decoration="normal" x="400" y="416" text-anchor="middle" dominant-baseline="text-after-edge" fill-opacity="1">http</text><path fill="rgb(40,167,69)" stroke="none" paint-order="stroke fill markers" d=" M 2794.6000021457676 817.2000014305115 L 3060.6000021457676 817.2000014305115 L 3060.6000021457676 817.2000014305115 A 8 8 0 0 1 3068.6000021457676 825.2000014305115 L 3068.6000021457676 887.2000014305115 L 3068.6000021457676 887.2000014305115 A 8 8 0 0 1 3060.6000021457676 895.2000014305115 L 2528.6000021457676 895.2000014305115 L 2528.6000021457676 895.2000014305115 A 8 8 0 0 1 2520.6000021457676 887.2000014305115 L 2520.6000021457676 825.2000014305115 L 2520.6000021457676 825.2000014305115 A 8 8 0 0 1 2528.6000021457676 817.2000014305115 L 2794.6000021457676 817.2000014305115 Z" fill-opacity="1"/><text fill="rgb(255,255,255)" stroke="none" font-family="Avenir, Helvetica, Arial, sans-serif" font-size="32px" font-style="normal" font-weight="bold" text-decoration="normal" x="2794.6000021457676" y="872.2000014305115" text-anchor="middle" dominant-baseline="text-after-edge" fill-opacity="1">subnet_1</text><path fill="rgb(40,167,69)" stroke="none" paint-order="stroke fill markers" d=" M 400 1273.400002861023 L 666 1273.400002861023 L 666 1273.400002861023 A 8 8 0 0 1 674 1281.400002861023 L 674 1343.400002861023 L 674 1343.400002861023 A 8 8 0 0 1 666 1351.400002861023 L 134 1351.400002861023 L 134 1351.400002861023 A 8 8 0 0 1 126 1343.400002861023 L 126 1281.400002861023 L 126 1281.400002861023 A 8 8 0 0 1 134 1273.400002861023 L 400 1273.400002861023 Z" fill-opacity="1"/><text fill="rgb(255,255,255)" stroke="none" font-family="Avenir, Helvetica, Arial, sans-serif" font-size="32px" font-style="normal" font-weight="bold" text-decoration="normal" x="400" y="1328.400002861023" text-anchor="middle" dominant-baseline="text-after-edge" fill-opacity="1">interface_2</text><path fill="rgb(40,167,69)" stroke="none" paint-order="stroke fill markers" d=" M 2096.4000014305116 1957.6000050067903 L 2362.4000014305116 1957.6000050067903 L 2362.4000014305116 1957.6000050067903 A 8 8 0 0 1 2370.4000014305116 1965.6000050067903 L 2370.4000014305116 2027.6000050067903 L 2370.4000014305116 2027.6000050067903 A 8 8 0 0 1 2362.4000014305116 2035.6000050067903 L 1830.4000014305116 2035.6000050067903 L 1830.4000014305116 2035.6000050067903 A 8 8 0 0 1 1822.4000014305116 2027.6000050067903 L 1822.4000014305116 1965.6000050067903 L 1822.4000014305116 1965.6000050067903 A 8 8 0 0 1 1830.4000014305116 1957.6000050067903 L 2096.4000014305116 1957.6000050067903 Z" fill-opacity="1"/><text fill="rgb(255,255,255)" stroke="none" font-family="Avenir, Helvetica, Arial, sans-serif" font-size="32px" font-style="normal" font-weight="bold" text-decoration="normal" x="2096.4000014305116" y="2012.6000050067903" text-anchor="middle" dominant-baseline="text-after-edge" fill-opacity="1">instance_2[0]</text><path fill="rgb(40,167,69)" stroke="none" paint-order="stroke fill markers" d=" M 2096.4000014305116 2085.6000057220463 L 2362.4000014305116 2085.6000057220463 L 2362.4000014305116 2085.6000057220463 A 8 8 0 0 1 2370.4000014305116 2093.6000057220463 L 2370.4000014305116 2155.6000057220463 L 2370.4000014305116 2155.6000057220463 A 8 8 0 0 1 2362.4000014305116 2163.6000057220463 L 1830.4000014305116 2163.6000057220463 L 1830.4000014305116 2163.6000057220463 A 8 8 0 0 1 1822.4000014305116 2155.6000057220463 L 1822.4000014305116 2093.6000057220463 L 1822.4000014305116 2093.6000057220463 A 8 8 0 0 1 1830.4000014305116 2085.6000057220463 L 2096.4000014305116 2085.6000057220463 Z" fill-opacity="1"/><text fill="rgb(255,255,255)" stroke="none" font-family="Avenir, Helvetica, Arial, sans-serif" font-size="32px" font-style="normal" font-weight="bold" text-decoration="normal" x="2096.4000014305116" y="2140.6000057220463" text-anchor="middle" dominant-baseline="text-after-edge" fill-opacity="1">instance_2[1]</text><path fill="rgb(40,167,69)" stroke="none" paint-order="stroke fill markers" d=" M 2096.4000014305116 2213.600006437302 L 2362.4000014305116 2213.600006437302 L 2362.4000014305116 2213.600006437302 A 8 8 0 0 1 2370.4000014305116 2221.600006437302 L 2370.4000014305116 2283.600006437302 L 2370.4000014305116 2283.600006437302 A 8 8 0 0 1 2362.4000014305116 2291.600006437302 L 1830.4000014305116 2291.600006437302 L 1830.4000014305116 2291.600006437302 A 8 8 0 0 1 1822.4000014305116 2283.600006437302 L 1822.4000014305116 2221.600006437302 L 1822.4000014305116 2221.600006437302 A 8 8 0 0 1 1830.4000014305116 2213.600006437302 L 2096.4000014305116 2213.600006437302 Z" fill-opacity="1"/><text fill="rgb(255,255,255)" stroke="none" font-family="Avenir, Helvetica, Arial, sans-serif" font-size="32px" font-style="normal" font-weight="bold" text-decoration="normal" x="2096.4000014305116" y="2268.600006437302" text-anchor="middle" dominant-baseline="text-after-edge" fill-opacity="1">instance_2[2]</text><path fill="rgb(40,167,69)" stroke="none" paint-order="stroke fill markers" d=" M 400 689.2000007152558 L 666 689.2000007152558 L 666 689.2000007152558 A 8 8 0 0 1 674 697.2000007152558 L 674 759.2000007152558 L 674 759.2000007152558 A 8 8 0 0 1 666 767.2000007152558 L 134 767.2000007152558 L 134 767.2000007152558 A 8 8 0 0 1 126 759.2000007152558 L 126 697.2000007152558 L 126 697.2000007152558 A 8 8 0 0 1 134 689.2000007152558 L 400 689.2000007152558 Z" fill-opacity="1"/><text fill="rgb(255,255,255)" stroke="none" font-family="Avenir, Helvetica, Arial, sans-serif" font-size="32px" font-style="normal" font-weight="bold" text-decoration="normal" x="400" y="744.2000007152558" text-anchor="middle" dominant-baseline="text-after-edge" fill-opacity="1">router_1</text><path fill="rgb(40,167,69)" stroke="none" paint-order="stroke fill markers" d=" M 1198.2000007152558 1273.400002861023 L 1464.2000007152558 1273.400002861023 L 1464.2000007152558 1273.400002861023 A 8 8 0 0 1 1472.2000007152558 1281.400002861023 L 1472.2000007152558 1343.400002861023 L 1472.2000007152558 1343.400002861023 A 8 8 0 0 1 1464.2000007152558 1351.400002861023 L 932.2000007152558 1351.400002861023 L 932.2000007152558 1351.400002861023 A 8 8 0 0 1 924.2000007152558 1343.400002861023 L 924.2000007152558 1281.400002861023 L 924.2000007152558 1281.400002861023 A 8 8 0 0 1 932.2000007152558 1273.400002861023 L 1198.2000007152558 1273.400002861023 Z" fill-opacity="1"/><text fill="rgb(255,255,255)" stroke="none" font-family="Avenir, Helvetica, Arial, sans-serif" font-size="32px" font-style="normal" font-weight="bold" text-decoration="normal" x="1198.2000007152558" y="1328.400002861023" text-anchor="middle" dominant-baseline="text-after-edge" fill-opacity="1">private_1</text><path fill="rgb(40,167,69)" stroke="none" paint-order="stroke fill markers" d=" M 1198.2000007152558 1401.4000035762788 L 1464.2000007152558 1401.4000035762788 L 1464.2000007152558 1401.4000035762788 A 8 8 0 0 1 1472.2000007152558 1409.4000035762788 L 1472.2000007152558 1471.4000035762788 L 1472.2000007152558 1471.4000035762788 A 8 8 0 0 1 1464.2000007152558 1479.4000035762788 L 932.2000007152558 1479.4000035762788 L 932.2000007152558 1479.4000035762788 A 8 8 0 0 1 924.2000007152558 1471.4000035762788 L 924.2000007152558 1409.4000035762788 L 924.2000007152558 1409.4000035762788 A 8 8 0 0 1 932.2000007152558 1401.4000035762788 L 1198.2000007152558 1401.4000035762788 Z" fill-opacity="1"/><text fill="rgb(255,255,255)" stroke="none" font-family="Avenir, Helvetica, Arial, sans-serif" font-size="32px" font-style="normal" font-weight="bold" text-decoration="normal" x="1198.2000007152558" y="1456.4000035762788" text-anchor="middle" dominant-baseline="text-after-edge" fill-opacity="1">private_2</text><path fill="rgb(40,167,69)" stroke="none" paint-order="stroke fill markers" d=" M 1198.2000007152558 689.2000007152558 L 1464.2000007152558 689.2000007152558 L 1464.2000007152558 689.2000007152558 A 8 8 0 0 1 1472.2000007152558 697.2000007152558 L 1472.2000007152558 759.2000007152558 L 1472.2000007152558 759.2000007152558 A 8 8 0 0 1 1464.2000007152558 767.2000007152558 L 932.2000007152558 767.2000007152558 L 932.2000007152558 767.2000007152558 A 8 8 0 0 1 924.2000007152558 759.2000007152558 L 924.2000007152558 697.2000007152558 L 924.2000007152558 697.2000007152558 A 8 8 0 0 1 932.2000007152558 689.2000007152558 L 1198.2000007152558 689.2000007152558 Z" fill-opacity="1"/><text fill="rgb(255,255,255)" stroke="none" font-family="Avenir, Helvetica, Arial, sans-serif" font-size="32px" font-style="normal" font-weight="bold" text-decoration="normal" x="1198.2000007152558" y="744.2000007152558" text-anchor="middle" dominant-baseline="text-after-edge" fill-opacity="1">cirros</text><path fill="rgb(40,167,69)" stroke="none" paint-order="stroke fill markers" d=" M 1996.4000014305116 689.2000007152558 L 2262.4000014305116 689.2000007152558 L 2262.4000014305116 689.2000007152558 A 8 8 0 0 1 2270.4000014305116 697.2000007152558 L 2270.4000014305116 759.2000007152558 L 2270.4000014305116 759.2000007152558 A 8 8 0 0 1 2262.4000014305116 767.2000007152558 L 1730.4000014305116 767.2000007152558 L 1730.4000014305116 767.2000007152558 A 8 8 0 0 1 1722.4000014305116 759.2000007152558 L 1722.4000014305116 697.2000007152558 L 1722.4000014305116 697.2000007152558 A 8 8 0 0 1 1730.4000014305116 689.2000007152558 L 1996.4000014305116 689.2000007152558 Z" fill-opacity="1"/><text fill="rgb(255,255,255)" stroke="none" font-family="Avenir, Helvetica, Arial, sans-serif" font-size="32px" font-style="normal" font-weight="bold" text-decoration="normal" x="1996.4000014305116" y="744.2000007152558" text-anchor="middle" dominant-baseline="text-after-edge" fill-opacity="1">http</text><path fill="rgb(40,167,69)" stroke="none" paint-order="stroke fill markers" d=" M 400 1401.4000035762788 L 666 1401.4000035762788 L 666 1401.4000035762788 A 8 8 0 0 1 674 1409.4000035762788 L 674 1471.4000035762788 L 674 1471.4000035762788 A 8 8 0 0 1 666 1479.4000035762788 L 134 1479.4000035762788 L 134 1479.4000035762788 A 8 8 0 0 1 126 1471.4000035762788 L 126 1409.4000035762788 L 126 1409.4000035762788 A 8 8 0 0 1 134 1401.4000035762788 L 400 1401.4000035762788 Z" fill-opacity="1"/><text fill="rgb(255,255,255)" stroke="none" font-family="Avenir, Helvetica, Arial, sans-serif" font-size="32px" font-style="normal" font-weight="bold" text-decoration="normal" x="400" y="1456.4000035762788" text-anchor="middle" dominant-baseline="text-after-edge" fill-opacity="1">interface_1</text><path fill="rgb(40,167,69)" stroke="none" paint-order="stroke fill markers" d=" M 1198.2000007152558 817.2000014305115 L 1464.2000007152558 817.2000014305115 L 1464.2000007152558 817.2000014305115 A 8 8 0 0 1 1472.2000007152558 825.2000014305115 L 1472.2000007152558 887.2000014305115 L 1472.2000007152558 887.2000014305115 A 8 8 0 0 1 1464.2000007152558 895.2000014305115 L 932.2000007152558 895.2000014305115 L 932.2000007152558 895.2000014305115 A 8 8 0 0 1 924.2000007152558 887.2000014305115 L 924.2000007152558 825.2000014305115 L 924.2000007152558 825.2000014305115 A 8 8 0 0 1 932.2000007152558 817.2000014305115 L 1198.2000007152558 817.2000014305115 Z" fill-opacity="1"/><text fill="rgb(255,255,255)" stroke="none" font-family="Avenir, Helvetica, Arial, sans-serif" font-size="32px" font-style="normal" font-weight="bold" text-decoration="normal" x="1198.2000007152558" y="872.2000014305115" text-anchor="middle" dominant-baseline="text-after-edge" fill-opacity="1">ubuntu1804</text><path fill="rgb(40,167,69)" stroke="none" paint-order="stroke fill markers" d=" M 1996.4000014305116 817.2000014305115 L 2262.4000014305116 817.2000014305115 L 2262.4000014305116 817.2000014305115 A 8 8 0 0 1 2270.4000014305116 825.2000014305115 L 2270.4000014305116 887.2000014305115 L 2270.4000014305116 887.2000014305115 A 8 8 0 0 1 2262.4000014305116 895.2000014305115 L 1730.4000014305116 895.2000014305115 L 1730.4000014305116 895.2000014305115 A 8 8 0 0 1 1722.4000014305116 887.2000014305115 L 1722.4000014305116 825.2000014305115 L 1722.4000014305116 825.2000014305115 A 8 8 0 0 1 1730.4000014305116 817.2000014305115 L 1996.4000014305116 817.2000014305115 Z" fill-opacity="1"/><text fill="rgb(255,255,255)" stroke="none" font-family="Avenir, Helvetica, Arial, sans-serif" font-size="32px" font-style="normal" font-weight="bold" text-decoration="normal" x="1996.4000014305116" y="872.2000014305115" text-anchor="middle" dominant-baseline="text-after-edge" fill-opacity="1">service</text><path fill="rgb(40,167,69)" stroke="none" paint-order="stroke fill markers" d=" M 400 1529.4000042915345 L 666 1529.4000042915345 L 666 1529.4000042915345 A 8 8 0 0 1 674 1537.4000042915345 L 674 1599.4000042915345 L 674 1599.4000042915345 A 8 8 0 0 1 666 1607.4000042915345 L 134 1607.4000042915345 L 134 1607.4000042915345 A 8 8 0 0 1 126 1599.4000042915345 L 126 1537.4000042915345 L 126 1537.4000042915345 A 8 8 0 0 1 134 1529.4000042915345 L 400 1529.4000042915345 Z" fill-opacity="1"/><text fill="rgb(255,255,255)" stroke="none" font-family="Avenir, Helvetica, Arial, sans-serif" font-size="32px" font-style="normal" font-weight="bold" text-decoration="normal" x="400" y="1584.4000042915345" text-anchor="middle" dominant-baseline="text-after-edge" fill-opacity="1">interface_3</text><path fill="rgb(40,167,69)" stroke="none" paint-order="stroke fill markers" d=" M 400 817.2000014305115 L 666 817.2000014305115 L 666 817.2000014305115 A 8 8 0 0 1 674 825.2000014305115 L 674 887.2000014305115 L 674 887.2000014305115 A 8 8 0 0 1 666 895.2000014305115 L 134 895.2000014305115 L 134 895.2000014305115 A 8 8 0 0 1 126 887.2000014305115 L 126 825.2000014305115 L 126 825.2000014305115 A 8 8 0 0 1 134 817.2000014305115 L 400 817.2000014305115 Z" fill-opacity="1"/><text fill="rgb(255,255,255)" stroke="none" font-family="Avenir, Helvetica, Arial, sans-serif" font-size="32px" font-style="normal" font-weight="bold" text-decoration="normal" x="400" y="872.2000014305115" text-anchor="middle" dominant-baseline="text-after-edge" fill-opacity="1">router_2</text><path fill="rgb(40,167,69)" stroke="none" paint-order="stroke fill markers" d=" M 1198.2000007152558 1529.4000042915345 L 1464.2000007152558 1529.4000042915345 L 1464.2000007152558 1529.4000042915345 A 8 8 0 0 1 1472.2000007152558 1537.4000042915345 L 1472.2000007152558 1599.4000042915345 L 1472.2000007152558 1599.4000042915345 A 8 8 0 0 1 1464.2000007152558 1607.4000042915345 L 932.2000007152558 1607.4000042915345 L 932.2000007152558 1607.4000042915345 A 8 8 0 0 1 924.2000007152558 1599.4000042915345 L 924.2000007152558 1537.4000042915345 L 924.2000007152558 1537.4000042915345 A 8 8 0 0 1 932.2000007152558 1529.4000042915345 L 1198.2000007152558 1529.4000042915345 Z" fill-opacity="1"/><text fill="rgb(255,255,255)" stroke="none" font-family="Avenir, Helvetica, Arial, sans-serif" font-size="32px" font-style="normal" font-weight="bold" text-decoration="normal" x="1198.2000007152558" y="1584.4000042915345" text-anchor="middle" dominant-baseline="text-after-edge" fill-opacity="1">private_3</text><path fill="rgb(40,167,69)" stroke="none" paint-order="stroke fill markers" d=" M 1198.2000007152558 361 L 1464.2000007152558 361 L 1464.2000007152558 361 A 8 8 0 0 1 1472.2000007152558 369 L 1472.2000007152558 431 L 1472.2000007152558 431 A 8 8 0 0 1 1464.2000007152558 439 L 932.2000007152558 439 L 932.2000007152558 439 A 8 8 0 0 1 924.2000007152558 431 L 924.2000007152558 369 L 924.2000007152558 369 A 8 8 0 0 1 932.2000007152558 361 L 1198.2000007152558 361 Z" fill-opacity="1"/><text fill="rgb(255,255,255)" stroke="none" font-family="Avenir, Helvetica, Arial, sans-serif" font-size="32px" font-style="normal" font-weight="bold" text-decoration="normal" x="1198.2000007152558" y="416" text-anchor="middle" dominant-baseline="text-after-edge" fill-opacity="1">http</text><path fill="rgb(40,167,69)" stroke="none" paint-order="stroke fill markers" d=" M 2794.6000021457676 945.2000021457673 L 3060.6000021457676 945.2000021457673 L 3060.6000021457676 945.2000021457673 A 8 8 0 0 1 3068.6000021457676 953.2000021457673 L 3068.6000021457676 1015.2000021457673 L 3068.6000021457676 1015.2000021457673 A 8 8 0 0 1 3060.6000021457676 1023.2000021457673 L 2528.6000021457676 1023.2000021457673 L 2528.6000021457676 1023.2000021457673 A 8 8 0 0 1 2520.6000021457676 1015.2000021457673 L 2520.6000021457676 953.2000021457673 L 2520.6000021457676 953.2000021457673 A 8 8 0 0 1 2528.6000021457676 945.2000021457673 L 2794.6000021457676 945.2000021457673 Z" fill-opacity="1"/><text fill="rgb(255,255,255)" stroke="none" font-family="Avenir, Helvetica, Arial, sans-serif" font-size="32px" font-style="normal" font-weight="bold" text-decoration="normal" x="2794.6000021457676" y="1000.2000021457673" text-anchor="middle" dominant-baseline="text-after-edge" fill-opacity="1">subnet_3</text><path fill="rgb(40,167,69)" stroke="none" paint-order="stroke fill markers" d=" M 1996.4000014305116 361 L 2262.4000014305116 361 L 2262.4000014305116 361 A 8 8 0 0 1 2270.4000014305116 369 L 2270.4000014305116 431 L 2270.4000014305116 431 A 8 8 0 0 1 2262.4000014305116 439 L 1730.4000014305116 439 L 1730.4000014305116 439 A 8 8 0 0 1 1722.4000014305116 431 L 1722.4000014305116 369 L 1722.4000014305116 369 A 8 8 0 0 1 1730.4000014305116 361 L 1996.4000014305116 361 Z" fill-opacity="1"/><text fill="rgb(255,255,255)" stroke="none" font-family="Avenir, Helvetica, Arial, sans-serif" font-size="32px" font-style="normal" font-weight="bold" text-decoration="normal" x="1996.4000014305116" y="416" text-anchor="middle" dominant-baseline="text-after-edge" fill-opacity="1">flavor_1</text><path fill="rgb(40,167,69)" stroke="none" paint-order="stroke fill markers" d=" M 2794.6000021457676 361 L 3060.6000021457676 361 L 3060.6000021457676 361 A 8 8 0 0 1 3068.6000021457676 369 L 3068.6000021457676 431 L 3068.6000021457676 431 A 8 8 0 0 1 3060.6000021457676 439 L 2528.6000021457676 439 L 2528.6000021457676 439 A 8 8 0 0 1 2520.6000021457676 431 L 2520.6000021457676 369 L 2520.6000021457676 369 A 8 8 0 0 1 2528.6000021457676 361 L 2794.6000021457676 361 Z" fill-opacity="1"/><text fill="rgb(255,255,255)" stroke="none" font-family="Avenir, Helvetica, Arial, sans-serif" font-size="32px" font-style="normal" font-weight="bold" text-decoration="normal" x="2794.6000021457676" y="416" text-anchor="middle" dominant-baseline="text-after-edge" fill-opacity="1">http</text><g transform="scale(10,10) translate(-27.85,-4.75)"/></g></svg>