<svg version="1.1" xmlns="http://www.w3.org/2000/svg" xmlns:xlink="http://www.w3.org/1999/xlink" width="291.90000000000003" height="221.9"><defs><linearGradient id="TGxaFoiLNLNO" x1="1996.4000014305116px" x2="1198.2000007152558px" y1="1273.400002861023px" y2="895.2000014305115px" gradientUnits="userSpaceOnUse"><stop offset="0" stop-color="rgb(211,211,211)" stop-opacity="1"/><stop offset="1" stop-color="rgb(211,211,211)" stop-opacity="1"/></linearGradient><linearGradient id="PLgkbPoIRBDp" x1="1996.4000014305116px" x2="1198.2000007152558px" y1="1145.4000021457673px" y2="767.2000007152558px" gradientUnits="userSpaceOnUse"><stop offset="0" stop-color="rgb(211,211,211)" stop-opacity="1"/><stop offset="1" stop-color="rgb(211,211,211)" stop-opacity="1"/></linearGradient><linearGradient id="lKRtzEqSpsAw" x1="1198.2000007152558px" x2="400px" y1="1273.400002861023px" y2="767.2000007152558px" gradientUnits="userSpaceOnUse"><stop offset="0" stop-color="rgb(211,211,211)" stop-opacity="1"/><stop offset="1" stop-color="rgb(211,211,211)" stop-opacity="1"/></linearGradient><linearGradient id="tmsAeAcXyvTn" x1="1198.2000007152558px" x2="1996.4000014305116px" y1="1273.400002861023px" y2="895.2000014305115px" gradientUnits="userSpaceOnUse"><stop offset="0" stop-color="rgb(211,211,211)" stop-opacity="1"/><stop offset="1" stop-color="rgb(211,211,211)" stop-opacity="1"/></linearGradient><linearGradient id="QqFKXKSqRPFX" x1="1722.4000014305116px" x2="674px" y1="728.2000007152558px" y2="1312.400002861023px" gradientUnits="userSpaceOnUse"><stop offset="0" stop-color="rgb(211,211,211)" stop-opacity="1"/><stop offset="1" stop-color="rgb(211,211,211)" stop-opacity="1"/></linearGradient><linearGradient id="qrqBnswdoNeR" x1="400px" x2="400px" y1="439px" y2="1601.6000035762788px" gradientUnits="userSpaceOnUse"><stop offset="0" stop-color="rgb(211,211,211)" stop-opacity="1"/><stop offset="1" stop-color="rgb(211,211,211)" stop-opacity="1"/></linearGradient><linearGradient id="npfbRCxONJNF" x1="400px" x2="400px" y1="439px" y2="1729.6000042915346px" gradientUnits="userSpaceOnUse"><stop offset="0" stop-color="rgb(211,211,211)" stop-opacity="1"/><stop offset="1" stop-color="rgb(211,211,211)" stop-opacity="1"/></linearGradient><linearGradient id="XhyszLoEVUNP" x1="400px" x2="400px" y1="439px" y2="1145.4000021457673px" gradientUnits="userSpaceOnUse"><stop offset="0" stop-color="rgb(211,211,211)" stop-opacity="1"/><stop offset="1" stop-color="rgb(211,211,211)" stop-opacity="1"/></linearGradient><linearGradient id="NbtVHgwTdZWa" x1="1722.4000014305116px" x2="1472.2000007152558px" y1="400px" y2="400px" gradientUnits="userSpaceOnUse"><stop offset="0" stop-color="rgb(211,211,211)" stop-opacity="1"/><stop offset="1" stop-color="rgb(211,211,211)" stop-opacity="1"/></linearGradient><linearGradient id="OoJAqQzSNbpH" x1="1996.4000014305116px" x2="1996.4000014305116px" y1="439px" y2="1273.400002861023px" gradientUnits="userSpaceOnUse"><stop offset="0" stop-color="rgb(211,211,211)" stop-opacity="1"/><stop offset="1" stop-color="rgb(211,211,211)" stop-opacity="1"/></linearGradient><linearGradient id="QgTSVXrkRNyb" x1="1722.4000014305116px" x2="674px" y1="856.2000014305115px" y2="1184.4000021457673px" gradientUnits="userSpaceOnUse"><stop offset="0" stop-color="rgb(211,211,211)" stop-opacity="1"/><stop offset="1" stop-color="rgb(211,211,211)" stop-opacity="1"/></linearGradient><linearGradient id="DPItcaCmWDmA" x1="1198.2000007152558px" x2="400px" y1="1145.4000021457673px" y2="767.2000007152558px" gradientUnits="userSpaceOnUse"><stop offset="0" stop-color="rgb(211,211,211)" stop-opacity="1"/><stop offset="1" stop-color="rgb(211,211,211)" stop-opacity="1"/></linearGradient><linearGradient id="KsrJpZbkgMDl" x1="1198.2000007152558px" x2="1996.4000014305116px" y1="1145.4000021457673px" y2="767.2000007152558px" gradientUnits="userSpaceOnUse"><stop offset="0" stop-color="rgb(211,211,211)" stop-opacity="1"/><stop offset="1" stop-color="rgb(211,211,211)" stop-opacity="1"/></linearGradient></defs><g transform="translate(23.700000000000003,4.75) scale(0.1,0.1)"><path fill="rgb(244,236,255)" stroke="rgb(255,255,255)" paint-order="fill stroke markers" d=" M 1222.4500007152558 -45.5 L 2671.9000014305116 -45.5 L 2671.9000014305116 -45.5 A 8 8 0 0 1 2679.9000014305116 -37.5 L 2679.9000014305116 2160.600004291535 L 2679.9000014305116 2160.600004291535 A 8 8 0 0 1 2671.9000014305116 2168.600004291535 L -227 2168.600004291535 L -227 2168.600004291535 A 8 8 0 0 1 -235 2160.600004291535 L -235 -37.5 L -235 -37.5 A 8 8 0 0 1 -227 -45.5 L 1222.4500007152558 -45.5 Z" fill-opacity="1" stroke-opacity="1" stroke-miterlimit="10" stroke-width="2"/><text fill="rgb(0,0,0)" stroke="none" font-family="Avenir, Helvetica, Arial, sans-serif" font-size="32px" font-style="normal" font-weight="bold" text-decoration="normal" x="1222.4500007152558" y="29.5" text-anchor="middle" dominant-baseline="text-after-edge" fill-opacity="1">.</text><path fill="rgb(255,255,255)" stroke="rgb(211,211,211)" paint-order="fill stroke markers" d=" M 1222.4500007152558 156.0000000000001 L 2470.4000014305116 156.0000000000001 L 2470.4000014305116 156.0000000000001 A 8 8 0 0 1 2478.4000014305116 164.0000000000001 L 2478.4000014305116 1959.1000042915348 L 2478.4000014305116 1959.1000042915348 A 8 8 0 0 1 2470.4000014305116 1967.1000042915348 L -25.5 1967.1000042915348 L -25.5 1967.1000042915348 A 8 8 0 0 1 -33.5 1959.1000042915348 L -33.5 164.0000000000001 L -33.5 164.0000000000001 A 8 8 0 0 1 -25.5 156.0000000000001 L 1222.4500007152558 156.0000000000001 Z" fill-opacity="1" stroke-opacity="1" stroke-miterlimit="10"/><text fill="rgb(0,0,0)" stroke="none" font-family="Avenir, Helvetica, Arial, sans-serif" font-size="32px" font-style="normal" font-weight="bold" text-decoration="normal" x="1222.4500007152558" y="231.0000000000001" text-anchor="middle" dominant-baseline="text-after-edge" fill-opacity="1">main.tf</text><path fill="rgb(255,255,255)" stroke="rgb(0,0,0)" paint-order="fill stroke markers" d=" M 400 305 L 722 305 L 722 305 A 8 8 0 0 1 730 313 L 730 487 L 730 487 A 8 8 0 0 1 722 495 L 78 495 L 78 495 A 8 8 0 0 1 70 487 L 70 313 L 70 313 A 8 8 0 0 1 78 305 L 400 305 Z" fill-opacity="1" stroke-opacity="1" stroke-miterlimit="10" stroke-width="5"/><rect fill="rgb(255,255,255)" stroke="none" x="121" y="256" width="558" height="96" fill-opacity="1"/><text fill="rgb(0,0,0)" stroke="none" font-family="Avenir, Helvetica, Arial, sans-serif" font-size="32px" font-style="normal" font-weight="bold" text-decoration="normal" x="400" y="320" text-anchor="middle" dominant-baseline="text-after-edge" fill-opacity="1">openstack_networking_port_v2</text><path fill="rgb(255,255,255)" stroke="rgb(0,0,0)" paint-order="fill stroke markers" d=" M 1198.2000007152558 305 L 1520.2000007152558 305 L 1520.2000007152558 305 A 8 8 0 0 1 1528.2000007152558 313 L 1528.2000007152558 487 L 1528.2000007152558 487 A 8 8 0 0 1 1520.2000007152558 495 L 876.2000007152558 495 L 876.2000007152558 495 A 8 8 0 0 1 868.2000007152558 487 L 868.2000007152558 313 L 868.2000007152558 313 A 8 8 0 0 1 876.2000007152558 305 L 1198.2000007152558 305 Z" fill-opacity="1" stroke-opacity="1" stroke-miterlimit="10" stroke-width="5"/><rect fill="rgb(255,255,255)" stroke="none" x="876.2000007152558" y="256" width="644" height="96" fill-opacity="1"/><text fill="rgb(0,0,0)" stroke="none" font-family="Avenir, Helvetica, Arial, sans-serif" font-size="32px" font-style="normal" font-weight="bold" text-decoration="normal" x="1198.2000007152558" y="320" text-anchor="middle" dominant-baseline="text-after-edge" fill-opacity="1">openstack_networking_floatingip_v2</text><path fill="rgb(255,255,255)" stroke="rgb(0,0,0)" paint-order="fill stroke markers" d=" M 1198.2000007152558 633.2000007152558 L 1520.2000007152558 633.2000007152558 L 1520.2000007152558 633.2000007152558 A 8 8 0 0 1 1528.2000007152558 641.2000007152558 L 1528.2000007152558 943.2000014305115 L 1528.2000007152558 943.2000014305115 A 8 8 0 0 1 1520.2000007152558 951.2000014305115 L 876.2000007152558 951.2000014305115 L 876.2000007152558 951.2000014305115 A 8 8 0 0 1 868.2000007152558 943.2000014305115 L 868.2000007152558 641.2000007152558 L 868.2000007152558 641.2000007152558 A 8 8 0 0 1 876.2000007152558 633.2000007152558 L 1198.2000007152558 633.2000007152558 Z" fill-opacity="1" stroke-opacity="1" stroke-miterlimit="10" stroke-width="5"/><rect fill="rgb(255,255,255)" stroke="none" x="940.2000007152558" y="584.2000007152558" width="516" height="96" fill-opacity="1"/><text fill="rgb(0,0,0)" stroke="none" font-family="Avenir, Helvetica, Arial, sans-serif" font-size="32px" font-style="normal" font-weight="bold" text-decoration="normal" x="1198.2000007152558" y="648.2000007152558" text-anchor="middle" dominant-baseline="text-after-edge" fill-opacity="1">openstack_images_image_v2</text><path fill="rgb(255,255,255)" stroke="rgb(0,0,0)" paint-order="fill stroke markers" d=" M 1996.4000014305116 633.2000007152558 L 2318.4000014305116 633.2000007152558 L 2318.4000014305116 633.2000007152558 A 8 8 0 0 1 2326.4000014305116 641.2000007152558 L 2326.4000014305116 943.2000014305115 L 2326.4000014305116 943.2000014305115 A 8 8 0 0 1 2318.4000014305116 951.2000014305115 L 1674.4000014305116 951.2000014305115 L 1674.4000014305116 951.2000014305115 A 8 8 0 0 1 1666.4000014305116 943.2000014305115 L 1666.4000014305116 641.2000007152558 L 1666.4000014305116 641.2000007152558 A 8 8 0 0 1 1674.4000014305116 633.2000007152558 L 1996.4000014305116 633.2000007152558 Z" fill-opacity="1" stroke-opacity="1" stroke-miterlimit="10" stroke-width="5"/><rect fill="rgb(255,255,255)" stroke="none" x="1695.9000014305116" y="584.2000007152558" width="601" height="96" fill-opacity="1"/><text fill="rgb(0,0,0)" stroke="none" font-family="Avenir, Helvetica, Arial, sans-serif" font-size="32px" font-style="normal" font-weight="bold" text-decoration="normal" x="1996.4000014305116" y="648.2000007152558" text-anchor="middle" dominant-baseline="text-after-edge" fill-opacity="1">openstack_networking_subnet_v2</text><path fill="rgb(255,255,255)" stroke="rgb(0,0,0)" paint-order="fill stroke markers" d=" M 400 1089.4000021457673 L 722 1089.4000021457673 L 722 1089.4000021457673 A 8 8 0 0 1 730 1097.4000021457673 L 730 1399.400002861023 L 730 1399.400002861023 A 8 8 0 0 1 722 1407.400002861023 L 78 1407.400002861023 L 78 1407.400002861023 A 8 8 0 0 1 70 1399.400002861023 L 70 1097.4000021457673 L 70 1097.4000021457673 A 8 8 0 0 1 78 1089.4000021457673 L 400 1089.4000021457673 Z" fill-opacity="1" stroke-opacity="1" stroke-miterlimit="10" stroke-width="5"/><rect fill="rgb(255,255,255)" stroke="none" x="87.5" y="1040.4000021457673" width="625" height="96" fill-opacity="1"/><text fill="rgb(0,0,0)" stroke="none" font-family="Avenir, Helvetica, Arial, sans-serif" font-size="32px" font-style="normal" font-weight="bold" text-decoration="normal" x="400" y="1104.4000021457673" text-anchor="middle" dominant-baseline="text-after-edge" fill-opacity="1">openstack_networking_network_v2</text><path fill="rgb(255,255,255)" stroke="rgb(0,0,0)" paint-order="fill stroke markers" d=" M 1996.4000014305116 305 L 2318.4000014305116 305 L 2318.4000014305116 305 A 8 8 0 0 1 2326.4000014305116 313 L 2326.4000014305116 487 L 2326.4000014305116 487 A 8 8 0 0 1 2318.4000014305116 495 L 1674.4000014305116 495 L 1674.4000014305116 495 A 8 8 0 0 1 1666.4000014305116 487 L 1666.4000014305116 313 L 1666.4000014305116 313 A 8 8 0 0 1 1674.4000014305116 305 L 1996.4000014305116 305 Z" fill-opacity="1" stroke-opacity="1" stroke-miterlimit="10" stroke-width="5"/><rect fill="rgb(255,255,255)" stroke="none" x="1614.4000014305116" y="256" width="764" height="96" fill-opacity="1"/><text fill="rgb(0,0,0)" stroke="none" font-family="Avenir, Helvetica, Arial, sans-serif" font-size="32px" font-style="normal" font-weight="bold" text-decoration="normal" x="1996.4000014305116" y="320" text-anchor="middle" dominant-baseline="text-after-edge" fill-opacity="1">openstack_compute_floatingip_associate_v2</text><path fill="rgb(255,255,255)" stroke="rgb(0,0,0)" paint-order="fill stroke markers" d=" M 400 633.2000007152558 L 722 633.2000007152558 L 722 633.2000007152558 A 8 8 0 0 1 730 641.2000007152558 L 730 815.2000007152558 L 730 815.2000007152558 A 8 8 0 0 1 722 823.2000007152558 L 78 823.2000007152558 L 78 823.2000007152558 A 8 8 0 0 1 70 815.2000007152558 L 70 641.2000007152558 L 70 641.2000007152558 A 8 8 0 0 1 78 633.2000007152558 L 400 633.2000007152558 Z" fill-opacity="1" stroke-opacity="1" stroke-miterlimit="10" stroke-width="5"/><rect fill="rgb(255,255,255)" stroke="none" x="104" y="584.2000007152558" width="592" height="96" fill-opacity="1"/><text fill="rgb(0,0,0)" stroke="none" font-family="Avenir, Helvetica, Arial, sans-serif" font-size="32px" font-style="normal" font-weight="bold" text-decoration="normal" x="400" y="648.2000007152558" text-anchor="middle" dominant-baseline="text-after-edge" fill-opacity="1">openstack_networking_router_v2</text><path fill="rgb(255,255,255)" stroke="rgb(0,0,0)" paint-order="fill stroke markers" d=" M 1198.2000007152558 1089.4000021457673 L 1520.2000007152558 1089.4000021457673 L 1520.2000007152558 1089.4000021457673 A 8 8 0 0 1 1528.2000007152558 1097.4000021457673 L 1528.2000007152558 1399.400002861023 L 1528.2000007152558 1399.400002861023 A 8 8 0 0 1 1520.2000007152558 1407.400002861023 L 876.2000007152558 1407.400002861023 L 876.2000007152558 1407.400002861023 A 8 8 0 0 1 868.2000007152558 1399.400002861023 L 868.2000007152558 1097.4000021457673 L 868.2000007152558 1097.4000021457673 A 8 8 0 0 1 876.2000007152558 1089.4000021457673 L 1198.2000007152558 1089.4000021457673 Z" fill-opacity="1" stroke-opacity="1" stroke-miterlimit="10" stroke-width="5"/><rect fill="rgb(255,255,255)" stroke="none" x="823.2000007152558" y="1040.4000021457673" width="750" height="96" fill-opacity="1"/><text fill="rgb(0,0,0)" stroke="none" font-family="Avenir, Helvetica, Arial, sans-serif" font-size="32px" font-style="normal" font-weight="bold" text-decoration="normal" x="1198.2000007152558" y="1104.4000021457673" text-anchor="middle" dominant-baseline="text-after-edge" fill-opacity="1">openstack_networking_router_interface_v2</text><path fill="rgb(255,255,255)" stroke="rgb(0,0,0)" paint-order="fill stroke markers" d=" M 1996.4000014305116 1089.4000021457673 L 2318.4000014305116 1089.4000021457673 L 2318.4000014305116 1089.4000021457673 A 8 8 0 0 1 2326.4000014305116 1097.4000021457673 L 2326.4000014305116 1399.400002861023 L 2326.4000014305116 1399.400002861023 A 8 8 0 0 1 2318.4000014305116 1407.400002861023 L 1674.4000014305116 1407.400002861023 L 1674.4000014305116 1407.400002861023 A 8 8 0 0 1 1666.4000014305116 1399.400002861023 L 1666.4000014305116 1097.4000021457673 L 1666.4000014305116 1097.4000021457673 A 8 8 0 0 1 1674.4000014305116 1089.4000021457673 L 1996.4000014305116 1089.4000021457673 Z" fill-opacity="1" stroke-opacity="1" stroke-miterlimit="10" stroke-width="5"/><rect fill="rgb(255,255,255)" stroke="none" x="1704.9000014305116" y="1040.4000021457673" width="583" height="96" fill-opacity="1"/><text fill="rgb(0,0,0)" stroke="none" font-family="Avenir, Helvetica, Arial, sans-serif" font-size="32px" font-style="normal" font-weight="bold" text-decoration="normal" x="1996.4000014305116" y="1104.4000021457673" text-anchor="middle" dominant-baseline="text-after-edge" fill-opacity="1">openstack_compute_instance_v2</text><path fill="rgb(255,255,255)" stroke="rgb(0,0,0)" paint-order="fill stroke markers" d=" M 400 1545.6000035762788 L 722 1545.6000035762788 L 722 1545.6000035762788 A 8 8 0 0 1 730 1553.6000035762788 L 730 1855.6000042915346 L 730 1855.6000042915346 A 8 8 0 0 1 722 1863.6000042915346 L 78 1863.6000042915346 L 78 1863.6000042915346 A 8 8 0 0 1 70 1855.6000042915346 L 70 1553.6000035762788 L 70 1553.6000035762788 A 8 8 0 0 1 78 1545.6000035762788 L 400 1545.6000035762788 Z" fill-opacity="1" stroke-opacity="1" stroke-miterlimit="10" stroke-width="5"/><rect fill="rgb(255,255,255)" stroke="none" x="104.5" y="1496.6000035762788" width="591" height="96" fill-opacity="1"/><text fill="rgb(0,0,0)" stroke="none" font-family="Avenir, Helvetica, Arial, sans-serif" font-size="32px" font-style="normal" font-weight="bold" text-decoration="normal" x="400" y="1560.6000035762788" text-anchor="middle" dominant-baseline="text-after-edge" fill-opacity="1">openstack_compute_secgroup_v2</text><path fill="none" stroke="url(#TGxaFoiLNLNO)" paint-order="fill stroke markers" d=" M 1996.4000014305116 1273.400002861023 L 1996.4000014305116 1084.3000021457674 L 1198.2000007152558 1084.3000021457674 L 1198.2000007152558 895.2000014305115" stroke-linejoin="round" stroke-miterlimit="10" stroke-width="10"/><path fill="none" stroke="url(#PLgkbPoIRBDp)" paint-order="fill stroke markers" d=" M 1996.4000014305116 1145.4000021457673 L 1996.4000014305116 956.3000014305115 L 1198.2000007152558 956.3000014305115 L 1198.2000007152558 767.2000007152558" stroke-linejoin="round" stroke-miterlimit="10" stroke-width="10"/><path fill="none" stroke="url(#lKRtzEqSpsAw)" paint-order="fill stroke markers" d=" M 1198.2000007152558 1273.400002861023 L 1198.2000007152558 1020.3000017881395 L 400 1020.3000017881395 L 400 767.2000007152558" stroke-linejoin="round" stroke-miterlimit="10" stroke-width="10"/><path fill="none" stroke="url(#tmsAeAcXyvTn)" paint-order="fill stroke markers" d=" M 1198.2000007152558 1273.400002861023 L 1198.2000007152558 1084.3000021457674 L 1996.4000014305116 1084.3000021457674 L 1996.4000014305116 895.2000014305115" stroke-linejoin="round" stroke-miterlimit="10" stroke-width="10"/><path fill="none" stroke="url(#QqFKXKSqRPFX)" paint-order="fill stroke markers" d=" M 1722.4000014305116 728.2000007152558 L 1198.2000007152558 728.2000007152558 L 1198.2000007152558 1312.400002861023 L 674 1312.400002861023" stroke-linejoin="round" stroke-miterlimit="10" stroke-width="10"/><path fill="none" stroke="url(#qrqBnswdoNeR)" paint-order="fill stroke markers" d=" M 400 439 L 400 1020.3000017881394 L 400 1020.3000017881394 L 400 1601.6000035762788" stroke-linejoin="round" stroke-miterlimit="10" stroke-width="10"/><path fill="none" stroke="url(#npfbRCxONJNF)" paint-order="fill stroke markers" d=" M 400 439 L 400 1084.3000021457674 L 400 1084.3000021457674 L 400 1729.6000042915346" stroke-linejoin="round" stroke-miterlimit="10" stroke-width="10"/><path fill="none" stroke="url(#XhyszLoEVUNP)" paint-order="fill stroke markers" d=" M 400 439 L 400 792.2000010728837 L 400 792.2000010728837 L 400 1145.4000021457673" stroke-linejoin="round" stroke-miterlimit="10" stroke-width="10"/><path fill="none" stroke="url(#NbtVHgwTdZWa)" paint-order="fill stroke markers" d=" M 1722.4000014305116 400 L 1597.3000010728838 400 L 1597.3000010728838 400 L 1472.2000007152558 400" stroke-linejoin="round" stroke-miterlimit="10" stroke-width="10"/><path fill="none" stroke="url(#OoJAqQzSNbpH)" paint-order="fill stroke markers" d=" M 1996.4000014305116 439 L 1996.4000014305116 856.2000014305115 L 1996.4000014305116 856.2000014305115 L 1996.4000014305116 1273.400002861023" stroke-linejoin="round" stroke-miterlimit="10" stroke-width="10"/><path fill="none" stroke="url(#QgTSVXrkRNyb)" paint-order="fill stroke markers" d=" M 1722.4000014305116 856.2000014305115 L 1198.2000007152558 856.2000014305115 L 1198.2000007152558 1184.4000021457673 L 674 1184.4000021457673" stroke-linejoin="round" stroke-miterlimit="10" stroke-width="10"/><path fill="none" stroke="url(#DPItcaCmWDmA)" paint-order="fill stroke markers" d=" M 1198.2000007152558 1145.4000021457673 L 1198.2000007152558 956.3000014305115 L 400 956.3000014305115 L 400 767.2000007152558" stroke-linejoin="round" stroke-miterlimit="10" stroke-width="10"/><path fill="none" stroke="url(#KsrJpZbkgMDl)" paint-order="fill stroke markers" d=" M 1198.2000007152558 1145.4000021457673 L 1198.2000007152558 956.3000014305115 L 1996.4000014305116 956.3000014305115 L 1996.4000014305116 767.2000007152558" stroke-linejoin="round" stroke-miterlimit="10" stroke-width="10"/><path fill="rgb(40,167,69)" stroke="url(#KsrJpZbkgMDl)" paint-order="stroke fill markers" d=" M 400 361 L 666 361 L 666 361 A 8 8 0 0 1 674 369 L 674 431 L 674 431 A 8 8 0 0 1 666 439 L 134 439 L 134 439 A 8 8 0 0 1 126 431 L 126 369 L 126 369 A 8 8 0 0 1 134 361 L 400 361 Z" fill-opacity="1"/><text fill="rgb(255,255,255)" stroke="none" font-family="Avenir, Helvetica, Arial, sans-serif" font-size="32px" font-style="normal" font-weight="bold" text-decoration="normal" x="400" y="416" text-anchor="middle" dominant-baseline="text-after-edge" fill-opacity="1">http</text><path fill="rgb(40,167,69)" stroke="none" paint-order="stroke fill markers" d=" M 1198.2000007152558 361 L 1464.2000007152558 361 L 1464.2000007152558 361 A 8 8 0 0 1 1472.2000007152558 369 L 1472.2000007152558 431 L 1472.2000007152558 431 A 8 8 0 0 1 1464.2000007152558 439 L 932.2000007152558 439 L 932.2000007152558 439 A 8 8 0 0 1 924.2000007152558 431 L 924.2000007152558 369 L 924.2000007152558 369 A 8 8 0 0 1 932.2000007152558 361 L 1198.2000007152558 361 Z" fill-opacity="1"/><text fill="rgb(255,255,255)" stroke="none" font-family="Avenir, Helvetica, Arial, sans-serif" font-size="32px" font-style="normal" font-weight="bold" text-decoration="normal" x="1198.2000007152558" y="416" text-anchor="middle" dominant-baseline="text-after-edge" fill-opacity="1">http</text><path fill="rgb(40,167,69)" stroke="none" paint-order="stroke fill markers" d=" M 1198.2000007152558 689.2000007152558 L 1464.2000007152558 689.2000007152558 L 1464.2000007152558 689.2000007152558 A 8 8 0 0 1 1472.2000007152558 697.2000007152558 L 1472.2000007152558 759.2000007152558 L 1472.2000007152558 759.2000007152558 A 8 8 0 0 1 1464.2000007152558 767.2000007152558 L 932.2000007152558 767.2000007152558 L 932.2000007152558 767.2000007152558 A 8 8 0 0 1 924.2000007152558 759.2000007152558 L 924.2000007152558 697.2000007152558 L 924.2000007152558 697.2000007152558 A 8 8 0 0 1 932.2000007152558 689.2000007152558 L 1198.2000007152558 689.2000007152558 Z" fill-opacity="1"/><text fill="rgb(255,255,255)" stroke="none" font-family="Avenir, Helvetica, Arial, sans-serif" font-size="32px" font-style="normal" font-weight="bold" text-decoration="normal" x="1198.2000007152558" y="744.2000007152558" text-anchor="middle" dominant-baseline="text-after-edge" fill-opacity="1">cirros</text><path fill="rgb(40,167,69)" stroke="none" paint-order="stroke fill markers" d=" M 1996.4000014305116 689.2000007152558 L 2262.4000014305116 689.2000007152558 L 2262.4000014305116 689.2000007152558 A 8 8 0 0 1 2270.4000014305116 697.2000007152558 L 2270.4000014305116 759.2000007152558 L 2270.4000014305116 759.2000007152558 A 8 8 0 0 1 2262.4000014305116 767.2000007152558 L 1730.4000014305116 767.2000007152558 L 1730.4000014305116 767.2000007152558 A 8 8 0 0 1 1722.4000014305116 759.2000007152558 L 1722.4000014305116 697.2000007152558 L 1722.4000014305116 697.2000007152558 A 8 8 0 0 1 1730.4000014305116 689.2000007152558 L 1996.4000014305116 689.2000007152558 Z" fill-opacity="1"/><text fill="rgb(255,255,255)" stroke="none" font-family="Avenir, Helvetica, Arial, sans-serif" font-size="32px" font-style="normal" font-weight="bold" text-decoration="normal" x="1996.4000014305116" y="744.2000007152558" text-anchor="middle" dominant-baseline="text-after-edge" fill-opacity="1">subnet_2</text><path fill="rgb(40,167,69)" stroke="none" paint-order="stroke fill markers" d=" M 400 1145.4000021457673 L 666 1145.4000021457673 L 666 1145.4000021457673 A 8 8 0 0 1 674 1153.4000021457673 L 674 1215.4000021457673 L 674 1215.4000021457673 A 8 8 0 0 1 666 1223.4000021457673 L 134 1223.4000021457673 L 134 1223.4000021457673 A 8 8 0 0 1 126 1215.4000021457673 L 126 1153.4000021457673 L 126 1153.4000021457673 A 8 8 0 0 1 134 1145.4000021457673 L 400 1145.4000021457673 Z" fill-opacity="1"/><text fill="rgb(255,255,255)" stroke="none" font-family="Avenir, Helvetica, Arial, sans-serif" font-size="32px" font-style="normal" font-weight="bold" text-decoration="normal" x="400" y="1200.4000021457673" text-anchor="middle" dominant-baseline="text-after-edge" fill-opacity="1">private_1</text><path fill="rgb(40,167,69)" stroke="none" paint-order="stroke fill markers" d=" M 1996.4000014305116 817.2000014305115 L 2262.4000014305116 817.2000014305115 L 2262.4000014305116 817.2000014305115 A 8 8 0 0 1 2270.4000014305116 825.2000014305115 L 2270.4000014305116 887.2000014305115 L 2270.4000014305116 887.2000014305115 A 8 8 0 0 1 2262.4000014305116 895.2000014305115 L 1730.4000014305116 895.2000014305115 L 1730.4000014305116 895.2000014305115 A 8 8 0 0 1 1722.4000014305116 887.2000014305115 L 1722.4000014305116 825.2000014305115 L 1722.4000014305116 825.2000014305115 A 8 8 0 0 1 1730.4000014305116 817.2000014305115 L 1996.4000014305116 817.2000014305115 Z" fill-opacity="1"/><text fill="rgb(255,255,255)" stroke="none" font-family="Avenir, Helvetica, Arial, sans-serif" font-size="32px" font-style="normal" font-weight="bold" text-decoration="normal" x="1996.4000014305116" y="872.2000014305115" text-anchor="middle" dominant-baseline="text-after-edge" fill-opacity="1">subnet_1</text><path fill="rgb(40,167,69)" stroke="none" paint-order="stroke fill markers" d=" M 400 1273.400002861023 L 666 1273.400002861023 L 666 1273.400002861023 A 8 8 0 0 1 674 1281.400002861023 L 674 1343.400002861023 L 674 1343.400002861023 A 8 8 0 0 1 666 1351.400002861023 L 134 1351.400002861023 L 134 1351.400002861023 A 8 8 0 0 1 126 1343.400002861023 L 126 1281.400002861023 L 126 1281.400002861023 A 8 8 0 0 1 134 1273.400002861023 L 400 1273.400002861023 Z" fill-opacity="1"/><text fill="rgb(255,255,255)" stroke="none" font-family="Avenir, Helvetica, Arial, sans-serif" font-size="32px" font-style="normal" font-weight="bold" text-decoration="normal" x="400" y="1328.400002861023" text-anchor="middle" dominant-baseline="text-after-edge" fill-opacity="1">private_2</text><path fill="rgb(40,167,69)" stroke="none" paint-order="stroke fill markers" d=" M 1198.2000007152558 817.2000014305115 L 1464.2000007152558 817.2000014305115 L 1464.2000007152558 817.2000014305115 A 8 8 0 0 1 1472.2000007152558 825.2000014305115 L 1472.2000007152558 887.2000014305115 L 1472.2000007152558 887.2000014305115 A 8 8 0 0 1 1464.2000007152558 895.2000014305115 L 932.2000007152558 895.2000014305115 L 932.2000007152558 895.2000014305115 A 8 8 0 0 1 924.2000007152558 887.2000014305115 L 924.2000007152558 825.2000014305115 L 924.2000007152558 825.2000014305115 A 8 8 0 0 1 932.2000007152558 817.2000014305115 L 1198.2000007152558 817.2000014305115 Z" fill-opacity="1"/><text fill="rgb(255,255,255)" stroke="none" font-family="Avenir, Helvetica, Arial, sans-serif" font-size="32px" font-style="normal" font-weight="bold" text-decoration="normal" x="1198.2000007152558" y="872.2000014305115" text-anchor="middle" dominant-baseline="text-after-edge" fill-opacity="1">ubuntu1804</text><path fill="rgb(40,167,69)" stroke="none" paint-order="stroke fill markers" d=" M 1996.4000014305116 361 L 2262.4000014305116 361 L 2262.4000014305116 361 A 8 8 0 0 1 2270.4000014305116 369 L 2270.4000014305116 431 L 2270.4000014305116 431 A 8 8 0 0 1 2262.4000014305116 439 L 1730.4000014305116 439 L 1730.4000014305116 439 A 8 8 0 0 1 1722.4000014305116 431 L 1722.4000014305116 369 L 1722.4000014305116 369 A 8 8 0 0 1 1730.4000014305116 361 L 1996.4000014305116 361 Z" fill-opacity="1"/><text fill="rgb(255,255,255)" stroke="none" font-family="Avenir, Helvetica, Arial, sans-serif" font-size="32px" font-style="normal" font-weight="bold" text-decoration="normal" x="1996.4000014305116" y="416" text-anchor="middle" dominant-baseline="text-after-edge" fill-opacity="1">http</text><path fill="rgb(40,167,69)" stroke="none" paint-order="stroke fill markers" d=" M 400 689.2000007152558 L 666 689.2000007152558 L 666 689.2000007152558 A 8 8 0 0 1 674 697.2000007152558 L 674 759.2000007152558 L 674 759.2000007152558 A 8 8 0 0 1 666 767.2000007152558 L 134 767.2000007152558 L 134 767.2000007152558 A 8 8 0 0 1 126 759.2000007152558 L 126 697.2000007152558 L 126 697.2000007152558 A 8 8 0 0 1 134 689.2000007152558 L 400 689.2000007152558 Z" fill-opacity="1"/><text fill="rgb(255,255,255)" stroke="none" font-family="Avenir, Helvetica, Arial, sans-serif" font-size="32px" font-style="normal" font-weight="bold" text-decoration="normal" x="400" y="744.2000007152558" text-anchor="middle" dominant-baseline="text-after-edge" fill-opacity="1">router_1</text><path fill="rgb(40,167,69)" stroke="none" paint-order="stroke fill markers" d=" M 1198.2000007152558 1145.4000021457673 L 1464.2000007152558 1145.4000021457673 L 1464.2000007152558 1145.4000021457673 A 8 8 0 0 1 1472.2000007152558 1153.4000021457673 L 1472.2000007152558 1215.4000021457673 L 1472.2000007152558 1215.4000021457673 A 8 8 0 0 1 1464.2000007152558 1223.4000021457673 L 932.2000007152558 1223.4000021457673 L 932.2000007152558 1223.4000021457673 A 8 8 0 0 1 924.2000007152558 1215.4000021457673 L 924.2000007152558 1153.4000021457673 L 924.2000007152558 1153.4000021457673 A 8 8 0 0 1 932.2000007152558 1145.4000021457673 L 1198.2000007152558 1145.4000021457673 Z" fill-opacity="1"/><text fill="rgb(255,255,255)" stroke="none" font-family="Avenir, Helvetica, Arial, sans-serif" font-size="32px" font-style="normal" font-weight="bold" text-decoration="normal" x="1198.2000007152558" y="1200.4000021457673" text-anchor="middle" dominant-baseline="text-after-edge" fill-opacity="1">interface_2</text><path fill="rgb(40,167,69)" stroke="none" paint-order="stroke fill markers" d=" M 1996.4000014305116 1145.4000021457673 L 2262.4000014305116 1145.4000021457673 L 2262.4000014305116 1145.4000021457673 A 8 8 0 0 1 2270.4000014305116 1153.4000021457673 L 2270.4000014305116 1215.4000021457673 L 2270.4000014305116 1215.4000021457673 A 8 8 0 0 1 2262.4000014305116 1223.4000021457673 L 1730.4000014305116 1223.4000021457673 L 1730.4000014305116 1223.4000021457673 A 8 8 0 0 1 1722.4000014305116 1215.4000021457673 L 1722.4000014305116 1153.4000021457673 L 1722.4000014305116 1153.4000021457673 A 8 8 0 0 1 1730.4000014305116 1145.4000021457673 L 1996.4000014305116 1145.4000021457673 Z" fill-opacity="1"/><text fill="rgb(255,255,255)" stroke="none" font-family="Avenir, Helvetica, Arial, sans-serif" font-size="32px" font-style="normal" font-weight="bold" text-decoration="normal" x="1996.4000014305116" y="1200.4000021457673" text-anchor="middle" dominant-baseline="text-after-edge" fill-opacity="1">instance_2</text><path fill="rgb(40,167,69)" stroke="none" paint-order="stroke fill markers" d=" M 400 1601.6000035762788 L 666 1601.6000035762788 L 666 1601.6000035762788 A 8 8 0 0 1 674 1609.6000035762788 L 674 1671.6000035762788 L 674 1671.6000035762788 A 8 8 0 0 1 666 1679.6000035762788 L 134 1679.6000035762788 L 134 1679.6000035762788 A 8 8 0 0 1 126 1671.6000035762788 L 126 1609.6000035762788 L 126 1609.6000035762788 A 8 8 0 0 1 134 1601.6000035762788 L 400 1601.6000035762788 Z" fill-opacity="1"/><text fill="rgb(255,255,255)" stroke="none" font-family="Avenir, Helvetica, Arial, sans-serif" font-size="32px" font-style="normal" font-weight="bold" text-decoration="normal" x="400" y="1656.6000035762788" text-anchor="middle" dominant-baseline="text-after-edge" fill-opacity="1">http</text><path fill="rgb(40,167,69)" stroke="none" paint-order="stroke fill markers" d=" M 1198.2000007152558 1273.400002861023 L 1464.2000007152558 1273.400002861023 L 1464.2000007152558 1273.400002861023 A 8 8 0 0 1 1472.2000007152558 1281.400002861023 L 1472.2000007152558 1343.400002861023 L 1472.2000007152558 1343.400002861023 A 8 8 0 0 1 1464.2000007152558 1351.400002861023 L 932.2000007152558 1351.400002861023 L 932.2000007152558 1351.400002861023 A 8 8 0 0 1 924.2000007152558 1343.400002861023 L 924.2000007152558 1281.400002861023 L 924.2000007152558 1281.400002861023 A 8 8 0 0 1 932.2000007152558 1273.400002861023 L 1198.2000007152558 1273.400002861023 Z" fill-opacity="1"/><text fill="rgb(255,255,255)" stroke="none" font-family="Avenir, Helvetica, Arial, sans-serif" font-size="32px" font-style="normal" font-weight="bold" text-decoration="normal" x="1198.2000007152558" y="1328.400002861023" text-anchor="middle" dominant-baseline="text-after-edge" fill-opacity="1">interface_1</text><path fill="rgb(40,167,69)" stroke="none" paint-order="stroke fill markers" d=" M 400 1729.6000042915346 L 666 1729.6000042915346 L 666 1729.6000042915346 A 8 8 0 0 1 674 1737.6000042915346 L 674 1799.6000042915346 L 674 1799.6000042915346 A 8 8 0 0 1 666 1807.6000042915346 L 134 1807.6000042915346 L 134 1807.6000042915346 A 8 8 0 0 1 126 1799.6000042915346 L 126 1737.6000042915346 L 126 1737.6000042915346 A 8 8 0 0 1 134 1729.6000042915346 L 400 1729.6000042915346 Z" fill-opacity="1"/><text fill="rgb(255,255,255)" stroke="none" font-family="Avenir, Helvetica, Arial, sans-serif" font-size="32px" font-style="normal" font-weight="bold" text-decoration="normal" x="400" y="1784.6000042915346" text-anchor="middle" dominant-baseline="text-after-edge" fill-opacity="1">service</text><path fill="rgb(40,167,69)" stroke="none" paint-order="stroke fill markers" d=" M 1996.4000014305116 1273.400002861023 L 2262.4000014305116 1273.400002861023 L 2262.4000014305116 1273.400002861023 A 8 8 0 0 1 2270.4000014305116 1281.400002861023 L 2270.4000014305116 1343.400002861023 L 2270.4000014305116 1343.400002861023 A 8 8 0 0 1 2262.4000014305116 1351.400002861023 L 1730.4000014305116 1351.400002861023 L 1730.4000014305116 1351.400002861023 A 8 8 0 0 1 1722.4000014305116 1343.400002861023 L 1722.4000014305116 1281.400002861023 L 1722.4000014305116 1281.400002861023 A 8 8 0 0 1 1730.4000014305116 1273.400002861023 L 1996.4000014305116 1273.400002861023 Z" fill-opacity="1"/><text fill="rgb(255,255,255)" stroke="none" font-family="Avenir, Helvetica, Arial, sans-serif" font-size="32px" font-style="normal" font-weight="bold" text-decoration="normal" x="1996.4000014305116" y="1328.400002861023" text-anchor="middle" dominant-baseline="text-after-edge" fill-opacity="1">instance_1</text><g transform="scale(10,10) translate(-23.700000000000003,-4.75)"/></g></svg>