<svg version="1.1" xmlns="http://www.w3.org/2000/svg" xmlns:xlink="http://www.w3.org/1999/xlink" width="296.1" height="298.7"><defs><linearGradient id="rFOhBvEEkWUx" x1="1198.2000007152558px" x2="1198.2000007152558px" y1="439px" y2="1145.4000021457673px" gradientUnits="userSpaceOnUse"><stop offset="0" stop-color="rgb(211,211,211)" stop-opacity="1"/><stop offset="1" stop-color="rgb(211,211,211)" stop-opacity="1"/></linearGradient><linearGradient id="VWGTSRcbecQH" x1="1198.2000007152558px" x2="400px" y1="439px" y2="1145.4000021457673px" gradientUnits="userSpaceOnUse"><stop offset="0" stop-color="rgb(211,211,211)" stop-opacity="1"/><stop offset="1" stop-color="rgb(211,211,211)" stop-opacity="1"/></linearGradient><linearGradient id="fRpgTqkfUmMC" x1="1198.2000007152558px" x2="400px" y1="439px" y2="1273.400002861023px" gradientUnits="userSpaceOnUse"><stop offset="0" stop-color="rgb(211,211,211)" stop-opacity="1"/><stop offset="1" stop-color="rgb(211,211,211)" stop-opacity="1"/></linearGradient><linearGradient id="biusLTrPLQUb" x1="1198.2000007152558px" x2="1996.4000014305116px" y1="1729.6000042915346px" y2="895.2000014305115px" gradientUnits="userSpaceOnUse"><stop offset="0" stop-color="rgb(211,211,211)" stop-opacity="1"/><stop offset="1" stop-color="rgb(211,211,211)" stop-opacity="1"/></linearGradient><linearGradient id="giTweDLJiHAF" x1="1198.2000007152558px" x2="1996.4000014305116px" y1="1857.6000050067903px" y2="895.2000014305115px" gradientUnits="userSpaceOnUse"><stop offset="0" stop-color="rgb(211,211,211)" stop-opacity="1"/><stop offset="1" stop-color="rgb(211,211,211)" stop-opacity="1"/></linearGradient><linearGradient id="kDckTRzIpQgp" x1="1198.2000007152558px" x2="1996.4000014305116px" y1="2113.600006437302px" y2="895.2000014305115px" gradientUnits="userSpaceOnUse"><stop offset="0" stop-color="rgb(211,211,211)" stop-opacity="1"/><stop offset="1" stop-color="rgb(211,211,211)" stop-opacity="1"/></linearGradient><linearGradient id="BZmRDFVvyUpH" x1="1198.2000007152558px" x2="1996.4000014305116px" y1="1985.600005722046px" y2="895.2000014305115px" gradientUnits="userSpaceOnUse"><stop offset="0" stop-color="rgb(211,211,211)" stop-opacity="1"/><stop offset="1" stop-color="rgb(211,211,211)" stop-opacity="1"/></linearGradient><linearGradient id="lbamVoeKMDIB" x1="1996.4000014305116px" x2="1198.2000007152558px" y1="439px" y2="689.2000007152558px" gradientUnits="userSpaceOnUse"><stop offset="0" stop-color="rgb(211,211,211)" stop-opacity="1"/><stop offset="1" stop-color="rgb(211,211,211)" stop-opacity="1"/></linearGradient><linearGradient id="JcKLsSVfNJcq" x1="1996.4000014305116px" x2="1198.2000007152558px" y1="439px" y2="2369.6000078678135px" gradientUnits="userSpaceOnUse"><stop offset="0" stop-color="rgb(211,211,211)" stop-opacity="1"/><stop offset="1" stop-color="rgb(211,211,211)" stop-opacity="1"/></linearGradient><linearGradient id="RklmGZOLFTwQ" x1="400px" x2="400px" y1="1729.6000042915346px" y2="439px" gradientUnits="userSpaceOnUse"><stop offset="0" stop-color="rgb(211,211,211)" stop-opacity="1"/><stop offset="1" stop-color="rgb(211,211,211)" stop-opacity="1"/></linearGradient><linearGradient id="KENKHoHaVkiP" x1="674px" x2="1722.4000014305116px" y1="1768.6000042915346px" y2="1440.4000035762788px" gradientUnits="userSpaceOnUse"><stop offset="0" stop-color="rgb(211,211,211)" stop-opacity="1"/><stop offset="1" stop-color="rgb(211,211,211)" stop-opacity="1"/></linearGradient><linearGradient id="ZCTHkuRtiDTm" x1="400px" x2="400px" y1="1857.6000050067903px" y2="439px" gradientUnits="userSpaceOnUse"><stop offset="0" stop-color="rgb(211,211,211)" stop-opacity="1"/><stop offset="1" stop-color="rgb(211,211,211)" stop-opacity="1"/></linearGradient><linearGradient id="lkCsskXqcvlL" x1="674px" x2="1722.4000014305116px" y1="1896.6000050067903px" y2="1184.4000021457673px" gradientUnits="userSpaceOnUse"><stop offset="0" stop-color="rgb(211,211,211)" stop-opacity="1"/><stop offset="1" stop-color="rgb(211,211,211)" stop-opacity="1"/></linearGradient><linearGradient id="EEdQAykWXHhz" x1="1722.4000014305116px" x2="1472.2000007152558px" y1="1184.4000021457673px" y2="1440.4000035762788px" gradientUnits="userSpaceOnUse"><stop offset="0" stop-color="rgb(211,211,211)" stop-opacity="1"/><stop offset="1" stop-color="rgb(211,211,211)" stop-opacity="1"/></linearGradient><linearGradient id="FkzZCOXvLyVD" x1="1722.4000014305116px" x2="1472.2000007152558px" y1="1312.400002861023px" y2="1312.400002861023px" gradientUnits="userSpaceOnUse"><stop offset="0" stop-color="rgb(211,211,211)" stop-opacity="1"/><stop offset="1" stop-color="rgb(211,211,211)" stop-opacity="1"/></linearGradient><linearGradient id="brqSLzTECvMX" x1="1198.2000007152558px" x2="1996.4000014305116px" y1="2241.6000071525577px" y2="895.2000014305115px" gradientUnits="userSpaceOnUse"><stop offset="0" stop-color="rgb(211,211,211)" stop-opacity="1"/><stop offset="1" stop-color="rgb(211,211,211)" stop-opacity="1"/></linearGradient><linearGradient id="WVdkRUulVpmm" x1="1198.2000007152558px" x2="1996.4000014305116px" y1="2369.6000078678135px" y2="767.2000007152558px" gradientUnits="userSpaceOnUse"><stop offset="0" stop-color="rgb(211,211,211)" stop-opacity="1"/><stop offset="1" stop-color="rgb(211,211,211)" stop-opacity="1"/></linearGradient><linearGradient id="DRofCJAwDdMX" x1="1198.2000007152558px" x2="1996.4000014305116px" y1="2497.600008583069px" y2="895.2000014305115px" gradientUnits="userSpaceOnUse"><stop offset="0" stop-color="rgb(211,211,211)" stop-opacity="1"/><stop offset="1" stop-color="rgb(211,211,211)" stop-opacity="1"/></linearGradient><linearGradient id="MOToTTGKVBkq" x1="1722.4000014305116px" x2="1472.2000007152558px" y1="1440.4000035762788px" y2="1184.4000021457673px" gradientUnits="userSpaceOnUse"><stop offset="0" stop-color="rgb(211,211,211)" stop-opacity="1"/><stop offset="1" stop-color="rgb(211,211,211)" stop-opacity="1"/></linearGradient><linearGradient id="PIehAezNmGbz" x1="400px" x2="400px" y1="1985.600005722046px" y2="439px" gradientUnits="userSpaceOnUse"><stop offset="0" stop-color="rgb(211,211,211)" stop-opacity="1"/><stop offset="1" stop-color="rgb(211,211,211)" stop-opacity="1"/></linearGradient><linearGradient id="bZzuGarQDKRW" x1="674px" x2="1722.4000014305116px" y1="2024.600005722046px" y2="1312.400002861023px" gradientUnits="userSpaceOnUse"><stop offset="0" stop-color="rgb(211,211,211)" stop-opacity="1"/><stop offset="1" stop-color="rgb(211,211,211)" stop-opacity="1"/></linearGradient></defs><g transform="translate(27.85,4.75) scale(0.1,0.1)"><path fill="rgb(244,236,255)" stroke="rgb(255,255,255)" paint-order="fill stroke markers" d=" M 1201.7000007152558 -45.5 L 2671.9000014305116 -45.5 L 2671.9000014305116 -45.5 A 8 8 0 0 1 2679.9000014305116 -37.5 L 2679.9000014305116 2928.600008583069 L 2679.9000014305116 2928.600008583069 A 8 8 0 0 1 2671.9000014305116 2936.600008583069 L -268.5 2936.600008583069 L -268.5 2936.600008583069 A 8 8 0 0 1 -276.5 2928.600008583069 L -276.5 -37.5 L -276.5 -37.5 A 8 8 0 0 1 -268.5 -45.5 L 1201.7000007152558 -45.5 Z" fill-opacity="1" stroke-opacity="1" stroke-miterlimit="10" stroke-width="2"/><text fill="rgb(0,0,0)" stroke="none" font-family="Avenir, Helvetica, Arial, sans-serif" font-size="32px" font-style="normal" font-weight="bold" text-decoration="normal" x="1201.7000007152558" y="29.5" text-anchor="middle" dominant-baseline="text-after-edge" fill-opacity="1">.</text><path fill="rgb(255,255,255)" stroke="rgb(211,211,211)" paint-order="fill stroke markers" d=" M 1201.7000007152558 156 L 2470.4000014305116 156 L 2470.4000014305116 156 A 8 8 0 0 1 2478.4000014305116 164 L 2478.4000014305116 2727.100008583069 L 2478.4000014305116 2727.100008583069 A 8 8 0 0 1 2470.4000014305116 2735.100008583069 L -67 2735.100008583069 L -67 2735.100008583069 A 8 8 0 0 1 -75 2727.100008583069 L -75 164 L -75 164 A 8 8 0 0 1 -67 156 L 1201.7000007152558 156 Z" fill-opacity="1" stroke-opacity="1" stroke-miterlimit="10"/><text fill="rgb(0,0,0)" stroke="none" font-family="Avenir, Helvetica, Arial, sans-serif" font-size="32px" font-style="normal" font-weight="bold" text-decoration="normal" x="1201.7000007152558" y="231" text-anchor="middle" dominant-baseline="text-after-edge" fill-opacity="1">main.tf</text><path fill="rgb(255,255,255)" stroke="rgb(0,0,0)" paint-order="fill stroke markers" d=" M 1198.2000007152558 1673.6000042915348 L 1520.2000007152558 1673.6000042915348 L 1520.2000007152558 1673.6000042915348 A 8 8 0 0 1 1528.2000007152558 1681.6000042915348 L 1528.2000007152558 2623.600008583069 L 1528.2000007152558 2623.600008583069 A 8 8 0 0 1 1520.2000007152558 2631.600008583069 L 876.2000007152558 2631.600008583069 L 876.2000007152558 2631.600008583069 A 8 8 0 0 1 868.2000007152558 2623.600008583069 L 868.2000007152558 1681.6000042915348 L 868.2000007152558 1681.6000042915348 A 8 8 0 0 1 876.2000007152558 1673.6000042915348 L 1198.2000007152558 1673.6000042915348 Z" fill-opacity="1" stroke-opacity="1" stroke-miterlimit="10" stroke-width="5"/><rect fill="rgb(255,255,255)" stroke="none" x="906.7000007152558" y="1624.6000042915348" width="583" height="96" fill-opacity="1"/><text fill="rgb(0,0,0)" stroke="none" font-family="Avenir, Helvetica, Arial, sans-serif" font-size="32px" font-style="normal" font-weight="bold" text-decoration="normal" x="1198.2000007152558" y="1688.6000042915348" text-anchor="middle" dominant-baseline="text-after-edge" fill-opacity="1">openstack_compute_instance_v2</text><path fill="rgb(255,255,255)" stroke="rgb(0,0,0)" paint-order="fill stroke markers" d=" M 1996.4000014305116 633.2000007152558 L 2318.4000014305116 633.2000007152558 L 2318.4000014305116 633.2000007152558 A 8 8 0 0 1 2326.4000014305116 641.2000007152558 L 2326.4000014305116 943.2000014305115 L 2326.4000014305116 943.2000014305115 A 8 8 0 0 1 2318.4000014305116 951.2000014305115 L 1674.4000014305116 951.2000014305115 L 1674.4000014305116 951.2000014305115 A 8 8 0 0 1 1666.4000014305116 943.2000014305115 L 1666.4000014305116 641.2000007152558 L 1666.4000014305116 641.2000007152558 A 8 8 0 0 1 1674.4000014305116 633.2000007152558 L 1996.4000014305116 633.2000007152558 Z" fill-opacity="1" stroke-opacity="1" stroke-miterlimit="10" stroke-width="5"/><rect fill="rgb(255,255,255)" stroke="none" x="1738.4000014305116" y="584.2000007152558" width="516" height="96" fill-opacity="1"/><text fill="rgb(0,0,0)" stroke="none" font-family="Avenir, Helvetica, Arial, sans-serif" font-size="32px" font-style="normal" font-weight="bold" text-decoration="normal" x="1996.4000014305116" y="648.2000007152558" text-anchor="middle" dominant-baseline="text-after-edge" fill-opacity="1">openstack_images_image_v2</text><path fill="rgb(255,255,255)" stroke="rgb(0,0,0)" paint-order="fill stroke markers" d=" M 400 305 L 722 305 L 722 305 A 8 8 0 0 1 730 313 L 730 487 L 730 487 A 8 8 0 0 1 722 495 L 78 495 L 78 495 A 8 8 0 0 1 70 487 L 70 313 L 70 313 A 8 8 0 0 1 78 305 L 400 305 Z" fill-opacity="1" stroke-opacity="1" stroke-miterlimit="10" stroke-width="5"/><rect fill="rgb(255,255,255)" stroke="none" x="104" y="256" width="592" height="96" fill-opacity="1"/><text fill="rgb(0,0,0)" stroke="none" font-family="Avenir, Helvetica, Arial, sans-serif" font-size="32px" font-style="normal" font-weight="bold" text-decoration="normal" x="400" y="320" text-anchor="middle" dominant-baseline="text-after-edge" fill-opacity="1">openstack_networking_router_v2</text><path fill="rgb(255,255,255)" stroke="rgb(0,0,0)" paint-order="fill stroke markers" d=" M 1198.2000007152558 305 L 1520.2000007152558 305 L 1520.2000007152558 305 A 8 8 0 0 1 1528.2000007152558 313 L 1528.2000007152558 487 L 1528.2000007152558 487 A 8 8 0 0 1 1520.2000007152558 495 L 876.2000007152558 495 L 876.2000007152558 495 A 8 8 0 0 1 868.2000007152558 487 L 868.2000007152558 313 L 868.2000007152558 313 A 8 8 0 0 1 876.2000007152558 305 L 1198.2000007152558 305 Z" fill-opacity="1" stroke-opacity="1" stroke-miterlimit="10" stroke-width="5"/><rect fill="rgb(255,255,255)" stroke="none" x="919.2000007152558" y="256" width="558" height="96" fill-opacity="1"/><text fill="rgb(0,0,0)" stroke="none" font-family="Avenir, Helvetica, Arial, sans-serif" font-size="32px" font-style="normal" font-weight="bold" text-decoration="normal" x="1198.2000007152558" y="320" text-anchor="middle" dominant-baseline="text-after-edge" fill-opacity="1">openstack_networking_port_v2</text><path fill="rgb(255,255,255)" stroke="rgb(0,0,0)" paint-order="fill stroke markers" d=" M 1198.2000007152558 1089.4000021457673 L 1520.2000007152558 1089.4000021457673 L 1520.2000007152558 1089.4000021457673 A 8 8 0 0 1 1528.2000007152558 1097.4000021457673 L 1528.2000007152558 1527.4000035762788 L 1528.2000007152558 1527.4000035762788 A 8 8 0 0 1 1520.2000007152558 1535.4000035762788 L 876.2000007152558 1535.4000035762788 L 876.2000007152558 1535.4000035762788 A 8 8 0 0 1 868.2000007152558 1527.4000035762788 L 868.2000007152558 1097.4000021457673 L 868.2000007152558 1097.4000021457673 A 8 8 0 0 1 876.2000007152558 1089.4000021457673 L 1198.2000007152558 1089.4000021457673 Z" fill-opacity="1" stroke-opacity="1" stroke-miterlimit="10" stroke-width="5"/><rect fill="rgb(255,255,255)" stroke="none" x="885.7000007152558" y="1040.4000021457673" width="625" height="96" fill-opacity="1"/><text fill="rgb(0,0,0)" stroke="none" font-family="Avenir, Helvetica, Arial, sans-serif" font-size="32px" font-style="normal" font-weight="bold" text-decoration="normal" x="1198.2000007152558" y="1104.4000021457673" text-anchor="middle" dominant-baseline="text-after-edge" fill-opacity="1">openstack_networking_network_v2</text><path fill="rgb(255,255,255)" stroke="rgb(0,0,0)" paint-order="fill stroke markers" d=" M 1996.4000014305116 305 L 2318.4000014305116 305 L 2318.4000014305116 305 A 8 8 0 0 1 2326.4000014305116 313 L 2326.4000014305116 487 L 2326.4000014305116 487 A 8 8 0 0 1 2318.4000014305116 495 L 1674.4000014305116 495 L 1674.4000014305116 495 A 8 8 0 0 1 1666.4000014305116 487 L 1666.4000014305116 313 L 1666.4000014305116 313 A 8 8 0 0 1 1674.4000014305116 305 L 1996.4000014305116 305 Z" fill-opacity="1" stroke-opacity="1" stroke-miterlimit="10" stroke-width="5"/><rect fill="rgb(255,255,255)" stroke="none" x="1614.4000014305116" y="256" width="764" height="96" fill-opacity="1"/><text fill="rgb(0,0,0)" stroke="none" font-family="Avenir, Helvetica, Arial, sans-serif" font-size="32px" font-style="normal" font-weight="bold" text-decoration="normal" x="1996.4000014305116" y="320" text-anchor="middle" dominant-baseline="text-after-edge" fill-opacity="1">openstack_compute_floatingip_associate_v2</text><path fill="rgb(255,255,255)" stroke="rgb(0,0,0)" paint-order="fill stroke markers" d=" M 1996.4000014305116 1089.4000021457673 L 2318.4000014305116 1089.4000021457673 L 2318.4000014305116 1089.4000021457673 A 8 8 0 0 1 2326.4000014305116 1097.4000021457673 L 2326.4000014305116 1527.4000035762788 L 2326.4000014305116 1527.4000035762788 A 8 8 0 0 1 2318.4000014305116 1535.4000035762788 L 1674.4000014305116 1535.4000035762788 L 1674.4000014305116 1535.4000035762788 A 8 8 0 0 1 1666.4000014305116 1527.4000035762788 L 1666.4000014305116 1097.4000021457673 L 1666.4000014305116 1097.4000021457673 A 8 8 0 0 1 1674.4000014305116 1089.4000021457673 L 1996.4000014305116 1089.4000021457673 Z" fill-opacity="1" stroke-opacity="1" stroke-miterlimit="10" stroke-width="5"/><rect fill="rgb(255,255,255)" stroke="none" x="1695.9000014305116" y="1040.4000021457673" width="601" height="96" fill-opacity="1"/><text fill="rgb(0,0,0)" stroke="none" font-family="Avenir, Helvetica, Arial, sans-serif" font-size="32px" font-style="normal" font-weight="bold" text-decoration="normal" x="1996.4000014305116" y="1104.4000021457673" text-anchor="middle" dominant-baseline="text-after-edge" fill-opacity="1">openstack_networking_subnet_v2</text><path fill="rgb(255,255,255)" stroke="rgb(0,0,0)" paint-order="fill stroke markers" d=" M 400 633.2000007152558 L 722 633.2000007152558 L 722 633.2000007152558 A 8 8 0 0 1 730 641.2000007152558 L 730 815.2000007152558 L 730 815.2000007152558 A 8 8 0 0 1 722 823.2000007152558 L 78 823.2000007152558 L 78 823.2000007152558 A 8 8 0 0 1 70 815.2000007152558 L 70 641.2000007152558 L 70 641.2000007152558 A 8 8 0 0 1 78 633.2000007152558 L 400 633.2000007152558 Z" fill-opacity="1" stroke-opacity="1" stroke-miterlimit="10" stroke-width="5"/><rect fill="rgb(255,255,255)" stroke="none" x="129.5" y="584.2000007152558" width="541" height="96" fill-opacity="1"/><text fill="rgb(0,0,0)" stroke="none" font-family="Avenir, Helvetica, Arial, sans-serif" font-size="32px" font-style="normal" font-weight="bold" text-decoration="normal" x="400" y="648.2000007152558" text-anchor="middle" dominant-baseline="text-after-edge" fill-opacity="1">openstack_compute_flavor_v2</text><path fill="rgb(255,255,255)" stroke="rgb(0,0,0)" paint-order="fill stroke markers" d=" M 400 1089.4000021457673 L 722 1089.4000021457673 L 722 1089.4000021457673 A 8 8 0 0 1 730 1097.4000021457673 L 730 1399.400002861023 L 730 1399.400002861023 A 8 8 0 0 1 722 1407.400002861023 L 78 1407.400002861023 L 78 1407.400002861023 A 8 8 0 0 1 70 1399.400002861023 L 70 1097.4000021457673 L 70 1097.4000021457673 A 8 8 0 0 1 78 1089.4000021457673 L 400 1089.4000021457673 Z" fill-opacity="1" stroke-opacity="1" stroke-miterlimit="10" stroke-width="5"/><rect fill="rgb(255,255,255)" stroke="none" x="104.5" y="1040.4000021457673" width="591" height="96" fill-opacity="1"/><text fill="rgb(0,0,0)" stroke="none" font-family="Avenir, Helvetica, Arial, sans-serif" font-size="32px" font-style="normal" font-weight="bold" text-decoration="normal" x="400" y="1104.4000021457673" text-anchor="middle" dominant-baseline="text-after-edge" fill-opacity="1">openstack_compute_secgroup_v2</text><path fill="rgb(255,255,255)" stroke="rgb(0,0,0)" paint-order="fill stroke markers" d=" M 400 1673.6000042915348 L 722 1673.6000042915348 L 722 1673.6000042915348 A 8 8 0 0 1 730 1681.6000042915348 L 730 2111.6000057220463 L 730 2111.6000057220463 A 8 8 0 0 1 722 2119.6000057220463 L 78 2119.6000057220463 L 78 2119.6000057220463 A 8 8 0 0 1 70 2111.6000057220463 L 70 1681.6000042915348 L 70 1681.6000042915348 A 8 8 0 0 1 78 1673.6000042915348 L 400 1673.6000042915348 Z" fill-opacity="1" stroke-opacity="1" stroke-miterlimit="10" stroke-width="5"/><rect fill="rgb(255,255,255)" stroke="none" x="25" y="1624.6000042915348" width="750" height="96" fill-opacity="1"/><text fill="rgb(0,0,0)" stroke="none" font-family="Avenir, Helvetica, Arial, sans-serif" font-size="32px" font-style="normal" font-weight="bold" text-decoration="normal" x="400" y="1688.6000042915348" text-anchor="middle" dominant-baseline="text-after-edge" fill-opacity="1">openstack_networking_router_interface_v2</text><path fill="rgb(255,255,255)" stroke="rgb(0,0,0)" paint-order="fill stroke markers" d=" M 1198.2000007152558 633.2000007152558 L 1520.2000007152558 633.2000007152558 L 1520.2000007152558 633.2000007152558 A 8 8 0 0 1 1528.2000007152558 641.2000007152558 L 1528.2000007152558 815.2000007152558 L 1528.2000007152558 815.2000007152558 A 8 8 0 0 1 1520.2000007152558 823.2000007152558 L 876.2000007152558 823.2000007152558 L 876.2000007152558 823.2000007152558 A 8 8 0 0 1 868.2000007152558 815.2000007152558 L 868.2000007152558 641.2000007152558 L 868.2000007152558 641.2000007152558 A 8 8 0 0 1 876.2000007152558 633.2000007152558 L 1198.2000007152558 633.2000007152558 Z" fill-opacity="1" stroke-opacity="1" stroke-miterlimit="10" stroke-width="5"/><rect fill="rgb(255,255,255)" stroke="none" x="876.2000007152558" y="584.2000007152558" width="644" height="96" fill-opacity="1"/><text fill="rgb(0,0,0)" stroke="none" font-family="Avenir, Helvetica, Arial, sans-serif" font-size="32px" font-style="normal" font-weight="bold" text-decoration="normal" x="1198.2000007152558" y="648.2000007152558" text-anchor="middle" dominant-baseline="text-after-edge" fill-opacity="1">openstack_networking_floatingip_v2</text><path fill="none" stroke="url(#rFOhBvEEkWUx)" paint-order="fill stroke markers" d=" M 1198.2000007152558 439 L 1198.2000007152558 792.2000010728837 L 1198.2000007152558 792.2000010728837 L 1198.2000007152558 1145.4000021457673" stroke-linejoin="round" stroke-miterlimit="10" stroke-width="10"/><path fill="none" stroke="url(#VWGTSRcbecQH)" paint-order="fill stroke markers" d=" M 1198.2000007152558 439 L 1198.2000007152558 792.2000010728837 L 400 792.2000010728837 L 400 1145.4000021457673" stroke-linejoin="round" stroke-miterlimit="10" stroke-width="10"/><path fill="none" stroke="url(#fRpgTqkfUmMC)" paint-order="fill stroke markers" d=" M 1198.2000007152558 439 L 1198.2000007152558 856.2000014305115 L 400 856.2000014305115 L 400 1273.400002861023" stroke-linejoin="round" stroke-miterlimit="10" stroke-width="10"/><path fill="none" stroke="url(#biusLTrPLQUb)" paint-order="fill stroke markers" d=" M 1198.2000007152558 1729.6000042915346 L 1198.2000007152558 1312.400002861023 L 1996.4000014305116 1312.400002861023 L 1996.4000014305116 895.2000014305115" stroke-linejoin="round" stroke-miterlimit="10" stroke-width="10"/><path fill="none" stroke="url(#giTweDLJiHAF)" paint-order="fill stroke markers" d=" M 1198.2000007152558 1857.6000050067903 L 1198.2000007152558 1376.400003218651 L 1996.4000014305116 1376.400003218651 L 1996.4000014305116 895.2000014305115" stroke-linejoin="round" stroke-miterlimit="10" stroke-width="10"/><path fill="none" stroke="url(#kDckTRzIpQgp)" paint-order="fill stroke markers" d=" M 1198.2000007152558 2113.600006437302 L 1198.2000007152558 1504.4000039339066 L 1996.4000014305116 1504.4000039339066 L 1996.4000014305116 895.2000014305115" stroke-linejoin="round" stroke-miterlimit="10" stroke-width="10"/><path fill="none" stroke="url(#BZmRDFVvyUpH)" paint-order="fill stroke markers" d=" M 1198.2000007152558 1985.600005722046 L 1198.2000007152558 1440.4000035762788 L 1996.4000014305116 1440.4000035762788 L 1996.4000014305116 895.2000014305115" stroke-linejoin="round" stroke-miterlimit="10" stroke-width="10"/><path fill="none" stroke="url(#lbamVoeKMDIB)" paint-order="fill stroke markers" d=" M 1996.4000014305116 439 L 1996.4000014305116 564.1000003576279 L 1198.2000007152558 564.1000003576279 L 1198.2000007152558 689.2000007152558" stroke-linejoin="round" stroke-miterlimit="10" stroke-width="10"/><path fill="none" stroke="url(#JcKLsSVfNJcq)" paint-order="fill stroke markers" d=" M 1996.4000014305116 439 L 1996.4000014305116 1404.3000039339067 L 1198.2000007152558 1404.3000039339067 L 1198.2000007152558 2369.6000078678135" stroke-linejoin="round" stroke-miterlimit="10" stroke-width="10"/><path fill="none" stroke="url(#RklmGZOLFTwQ)" paint-order="fill stroke markers" d=" M 400 1729.6000042915346 L 400 1084.3000021457674 L 400 1084.3000021457674 L 400 439" stroke-linejoin="round" stroke-miterlimit="10" stroke-width="10"/><path fill="none" stroke="url(#KENKHoHaVkiP)" paint-order="fill stroke markers" d=" M 674 1768.6000042915346 L 1198.2000007152558 1768.6000042915346 L 1198.2000007152558 1440.4000035762788 L 1722.4000014305116 1440.4000035762788" stroke-linejoin="round" stroke-miterlimit="10" stroke-width="10"/><path fill="none" stroke="url(#ZCTHkuRtiDTm)" paint-order="fill stroke markers" d=" M 400 1857.6000050067903 L 400 1148.3000025033953 L 400 1148.3000025033953 L 400 439" stroke-linejoin="round" stroke-miterlimit="10" stroke-width="10"/><path fill="none" stroke="url(#lkCsskXqcvlL)" paint-order="fill stroke markers" d=" M 674 1896.6000050067903 L 1198.2000007152558 1896.6000050067903 L 1198.2000007152558 1184.4000021457673 L 1722.4000014305116 1184.4000021457673" stroke-linejoin="round" stroke-miterlimit="10" stroke-width="10"/><path fill="none" stroke="url(#EEdQAykWXHhz)" paint-order="fill stroke markers" d=" M 1722.4000014305116 1184.4000021457673 L 1597.3000010728838 1184.4000021457673 L 1597.3000010728838 1440.4000035762788 L 1472.2000007152558 1440.4000035762788" stroke-linejoin="round" stroke-miterlimit="10" stroke-width="10"/><path fill="none" stroke="url(#FkzZCOXvLyVD)" paint-order="fill stroke markers" d=" M 1722.4000014305116 1312.400002861023 L 1597.3000010728838 1312.400002861023 L 1597.3000010728838 1312.400002861023 L 1472.2000007152558 1312.400002861023" stroke-linejoin="round" stroke-miterlimit="10" stroke-width="10"/><path fill="none" stroke="url(#brqSLzTECvMX)" paint-order="fill stroke markers" d=" M 1198.2000007152558 2241.6000071525577 L 1198.2000007152558 1568.4000042915345 L 1996.4000014305116 1568.4000042915345 L 1996.4000014305116 895.2000014305115" stroke-linejoin="round" stroke-miterlimit="10" stroke-width="10"/><path fill="none" stroke="url(#WVdkRUulVpmm)" paint-order="fill stroke markers" d=" M 1198.2000007152558 2369.6000078678135 L 1198.2000007152558 1568.4000042915345 L 1996.4000014305116 1568.4000042915345 L 1996.4000014305116 767.2000007152558" stroke-linejoin="round" stroke-miterlimit="10" stroke-width="10"/><path fill="none" stroke="url(#DRofCJAwDdMX)" paint-order="fill stroke markers" d=" M 1198.2000007152558 2497.600008583069 L 1198.2000007152558 1696.4000050067903 L 1996.4000014305116 1696.4000050067903 L 1996.4000014305116 895.2000014305115" stroke-linejoin="round" stroke-miterlimit="10" stroke-width="10"/><path fill="none" stroke="url(#MOToTTGKVBkq)" paint-order="fill stroke markers" d=" M 1722.4000014305116 1440.4000035762788 L 1597.3000010728838 1440.4000035762788 L 1597.3000010728838 1184.4000021457673 L 1472.2000007152558 1184.4000021457673" stroke-linejoin="round" stroke-miterlimit="10" stroke-width="10"/><path fill="none" stroke="url(#PIehAezNmGbz)" paint-order="fill stroke markers" d=" M 400 1985.600005722046 L 400 1212.3000028610231 L 400 1212.3000028610231 L 400 439" stroke-linejoin="round" stroke-miterlimit="10" stroke-width="10"/><path fill="none" stroke="url(#bZzuGarQDKRW)" paint-order="fill stroke markers" d=" M 674 2024.600005722046 L 1198.2000007152558 2024.600005722046 L 1198.2000007152558 1312.400002861023 L 1722.4000014305116 1312.400002861023" stroke-linejoin="round" stroke-miterlimit="10" stroke-width="10"/><path fill="rgb(40,167,69)" stroke="url(#bZzuGarQDKRW)" paint-order="stroke fill markers" d=" M 1198.2000007152558 1729.6000042915346 L 1464.2000007152558 1729.6000042915346 L 1464.2000007152558 1729.6000042915346 A 8 8 0 0 1 1472.2000007152558 1737.6000042915346 L 1472.2000007152558 1799.6000042915346 L 1472.2000007152558 1799.6000042915346 A 8 8 0 0 1 1464.2000007152558 1807.6000042915346 L 932.2000007152558 1807.6000042915346 L 932.2000007152558 1807.6000042915346 A 8 8 0 0 1 924.2000007152558 1799.6000042915346 L 924.2000007152558 1737.6000042915346 L 924.2000007152558 1737.6000042915346 A 8 8 0 0 1 932.2000007152558 1729.6000042915346 L 1198.2000007152558 1729.6000042915346 Z" fill-opacity="1"/><text fill="rgb(255,255,255)" stroke="none" font-family="Avenir, Helvetica, Arial, sans-serif" font-size="32px" font-style="normal" font-weight="bold" text-decoration="normal" x="1198.2000007152558" y="1784.6000042915346" text-anchor="middle" dominant-baseline="text-after-edge" fill-opacity="1">instance_3</text><path fill="rgb(40,167,69)" stroke="none" paint-order="stroke fill markers" d=" M 1996.4000014305116 689.2000007152558 L 2262.4000014305116 689.2000007152558 L 2262.4000014305116 689.2000007152558 A 8 8 0 0 1 2270.4000014305116 697.2000007152558 L 2270.4000014305116 759.2000007152558 L 2270.4000014305116 759.2000007152558 A 8 8 0 0 1 2262.4000014305116 767.2000007152558 L 1730.4000014305116 767.2000007152558 L 1730.4000014305116 767.2000007152558 A 8 8 0 0 1 1722.4000014305116 759.2000007152558 L 1722.4000014305116 697.2000007152558 L 1722.4000014305116 697.2000007152558 A 8 8 0 0 1 1730.4000014305116 689.2000007152558 L 1996.4000014305116 689.2000007152558 Z" fill-opacity="1"/><text fill="rgb(255,255,255)" stroke="none" font-family="Avenir, Helvetica, Arial, sans-serif" font-size="32px" font-style="normal" font-weight="bold" text-decoration="normal" x="1996.4000014305116" y="744.2000007152558" text-anchor="middle" dominant-baseline="text-after-edge" fill-opacity="1">ubuntu1804</text><path fill="rgb(40,167,69)" stroke="none" paint-order="stroke fill markers" d=" M 400 361 L 666 361 L 666 361 A 8 8 0 0 1 674 369 L 674 431 L 674 431 A 8 8 0 0 1 666 439 L 134 439 L 134 439 A 8 8 0 0 1 126 431 L 126 369 L 126 369 A 8 8 0 0 1 134 361 L 400 361 Z" fill-opacity="1"/><text fill="rgb(255,255,255)" stroke="none" font-family="Avenir, Helvetica, Arial, sans-serif" font-size="32px" font-style="normal" font-weight="bold" text-decoration="normal" x="400" y="416" text-anchor="middle" dominant-baseline="text-after-edge" fill-opacity="1">router_1</text><path fill="rgb(40,167,69)" stroke="none" paint-order="stroke fill markers" d=" M 1198.2000007152558 1857.6000050067903 L 1464.2000007152558 1857.6000050067903 L 1464.2000007152558 1857.6000050067903 A 8 8 0 0 1 1472.2000007152558 1865.6000050067903 L 1472.2000007152558 1927.6000050067903 L 1472.2000007152558 1927.6000050067903 A 8 8 0 0 1 1464.2000007152558 1935.6000050067903 L 932.2000007152558 1935.6000050067903 L 932.2000007152558 1935.6000050067903 A 8 8 0 0 1 924.2000007152558 1927.6000050067903 L 924.2000007152558 1865.6000050067903 L 924.2000007152558 1865.6000050067903 A 8 8 0 0 1 932.2000007152558 1857.6000050067903 L 1198.2000007152558 1857.6000050067903 Z" fill-opacity="1"/><text fill="rgb(255,255,255)" stroke="none" font-family="Avenir, Helvetica, Arial, sans-serif" font-size="32px" font-style="normal" font-weight="bold" text-decoration="normal" x="1198.2000007152558" y="1912.6000050067903" text-anchor="middle" dominant-baseline="text-after-edge" fill-opacity="1">instance_7</text><path fill="rgb(40,167,69)" stroke="none" paint-order="stroke fill markers" d=" M 1996.4000014305116 817.2000014305115 L 2262.4000014305116 817.2000014305115 L 2262.4000014305116 817.2000014305115 A 8 8 0 0 1 2270.4000014305116 825.2000014305115 L 2270.4000014305116 887.2000014305115 L 2270.4000014305116 887.2000014305115 A 8 8 0 0 1 2262.4000014305116 895.2000014305115 L 1730.4000014305116 895.2000014305115 L 1730.4000014305116 895.2000014305115 A 8 8 0 0 1 1722.4000014305116 887.2000014305115 L 1722.4000014305116 825.2000014305115 L 1722.4000014305116 825.2000014305115 A 8 8 0 0 1 1730.4000014305116 817.2000014305115 L 1996.4000014305116 817.2000014305115 Z" fill-opacity="1"/><text fill="rgb(255,255,255)" stroke="none" font-family="Avenir, Helvetica, Arial, sans-serif" font-size="32px" font-style="normal" font-weight="bold" text-decoration="normal" x="1996.4000014305116" y="872.2000014305115" text-anchor="middle" dominant-baseline="text-after-edge" fill-opacity="1">cirros</text><path fill="rgb(40,167,69)" stroke="none" paint-order="stroke fill markers" d=" M 1198.2000007152558 361 L 1464.2000007152558 361 L 1464.2000007152558 361 A 8 8 0 0 1 1472.2000007152558 369 L 1472.2000007152558 431 L 1472.2000007152558 431 A 8 8 0 0 1 1464.2000007152558 439 L 932.2000007152558 439 L 932.2000007152558 439 A 8 8 0 0 1 924.2000007152558 431 L 924.2000007152558 369 L 924.2000007152558 369 A 8 8 0 0 1 932.2000007152558 361 L 1198.2000007152558 361 Z" fill-opacity="1"/><text fill="rgb(255,255,255)" stroke="none" font-family="Avenir, Helvetica, Arial, sans-serif" font-size="32px" font-style="normal" font-weight="bold" text-decoration="normal" x="1198.2000007152558" y="416" text-anchor="middle" dominant-baseline="text-after-edge" fill-opacity="1">http</text><path fill="rgb(40,167,69)" stroke="none" paint-order="stroke fill markers" d=" M 1198.2000007152558 1985.600005722046 L 1464.2000007152558 1985.600005722046 L 1464.2000007152558 1985.600005722046 A 8 8 0 0 1 1472.2000007152558 1993.600005722046 L 1472.2000007152558 2055.6000057220463 L 1472.2000007152558 2055.6000057220463 A 8 8 0 0 1 1464.2000007152558 2063.6000057220463 L 932.2000007152558 2063.6000057220463 L 932.2000007152558 2063.6000057220463 A 8 8 0 0 1 924.2000007152558 2055.6000057220463 L 924.2000007152558 1993.600005722046 L 924.2000007152558 1993.600005722046 A 8 8 0 0 1 932.2000007152558 1985.600005722046 L 1198.2000007152558 1985.600005722046 Z" fill-opacity="1"/><text fill="rgb(255,255,255)" stroke="none" font-family="Avenir, Helvetica, Arial, sans-serif" font-size="32px" font-style="normal" font-weight="bold" text-decoration="normal" x="1198.2000007152558" y="2040.600005722046" text-anchor="middle" dominant-baseline="text-after-edge" fill-opacity="1">instance_6</text><path fill="rgb(40,167,69)" stroke="none" paint-order="stroke fill markers" d=" M 1198.2000007152558 1145.4000021457673 L 1464.2000007152558 1145.4000021457673 L 1464.2000007152558 1145.4000021457673 A 8 8 0 0 1 1472.2000007152558 1153.4000021457673 L 1472.2000007152558 1215.4000021457673 L 1472.2000007152558 1215.4000021457673 A 8 8 0 0 1 1464.2000007152558 1223.4000021457673 L 932.2000007152558 1223.4000021457673 L 932.2000007152558 1223.4000021457673 A 8 8 0 0 1 924.2000007152558 1215.4000021457673 L 924.2000007152558 1153.4000021457673 L 924.2000007152558 1153.4000021457673 A 8 8 0 0 1 932.2000007152558 1145.4000021457673 L 1198.2000007152558 1145.4000021457673 Z" fill-opacity="1"/><text fill="rgb(255,255,255)" stroke="none" font-family="Avenir, Helvetica, Arial, sans-serif" font-size="32px" font-style="normal" font-weight="bold" text-decoration="normal" x="1198.2000007152558" y="1200.4000021457673" text-anchor="middle" dominant-baseline="text-after-edge" fill-opacity="1">private_1</text><path fill="rgb(40,167,69)" stroke="none" paint-order="stroke fill markers" d=" M 1198.2000007152558 1273.400002861023 L 1464.2000007152558 1273.400002861023 L 1464.2000007152558 1273.400002861023 A 8 8 0 0 1 1472.2000007152558 1281.400002861023 L 1472.2000007152558 1343.400002861023 L 1472.2000007152558 1343.400002861023 A 8 8 0 0 1 1464.2000007152558 1351.400002861023 L 932.2000007152558 1351.400002861023 L 932.2000007152558 1351.400002861023 A 8 8 0 0 1 924.2000007152558 1343.400002861023 L 924.2000007152558 1281.400002861023 L 924.2000007152558 1281.400002861023 A 8 8 0 0 1 932.2000007152558 1273.400002861023 L 1198.2000007152558 1273.400002861023 Z" fill-opacity="1"/><text fill="rgb(255,255,255)" stroke="none" font-family="Avenir, Helvetica, Arial, sans-serif" font-size="32px" font-style="normal" font-weight="bold" text-decoration="normal" x="1198.2000007152558" y="1328.400002861023" text-anchor="middle" dominant-baseline="text-after-edge" fill-opacity="1">private_2</text><path fill="rgb(40,167,69)" stroke="none" paint-order="stroke fill markers" d=" M 1996.4000014305116 361 L 2262.4000014305116 361 L 2262.4000014305116 361 A 8 8 0 0 1 2270.4000014305116 369 L 2270.4000014305116 431 L 2270.4000014305116 431 A 8 8 0 0 1 2262.4000014305116 439 L 1730.4000014305116 439 L 1730.4000014305116 439 A 8 8 0 0 1 1722.4000014305116 431 L 1722.4000014305116 369 L 1722.4000014305116 369 A 8 8 0 0 1 1730.4000014305116 361 L 1996.4000014305116 361 Z" fill-opacity="1"/><text fill="rgb(255,255,255)" stroke="none" font-family="Avenir, Helvetica, Arial, sans-serif" font-size="32px" font-style="normal" font-weight="bold" text-decoration="normal" x="1996.4000014305116" y="416" text-anchor="middle" dominant-baseline="text-after-edge" fill-opacity="1">http</text><path fill="rgb(40,167,69)" stroke="none" paint-order="stroke fill markers" d=" M 1198.2000007152558 2113.600006437302 L 1464.2000007152558 2113.600006437302 L 1464.2000007152558 2113.600006437302 A 8 8 0 0 1 1472.2000007152558 2121.600006437302 L 1472.2000007152558 2183.600006437302 L 1472.2000007152558 2183.600006437302 A 8 8 0 0 1 1464.2000007152558 2191.600006437302 L 932.2000007152558 2191.600006437302 L 932.2000007152558 2191.600006437302 A 8 8 0 0 1 924.2000007152558 2183.600006437302 L 924.2000007152558 2121.600006437302 L 924.2000007152558 2121.600006437302 A 8 8 0 0 1 932.2000007152558 2113.600006437302 L 1198.2000007152558 2113.600006437302 Z" fill-opacity="1"/><text fill="rgb(255,255,255)" stroke="none" font-family="Avenir, Helvetica, Arial, sans-serif" font-size="32px" font-style="normal" font-weight="bold" text-decoration="normal" x="1198.2000007152558" y="2168.600006437302" text-anchor="middle" dominant-baseline="text-after-edge" fill-opacity="1">instance_4</text><path fill="rgb(40,167,69)" stroke="none" paint-order="stroke fill markers" d=" M 1198.2000007152558 1401.4000035762788 L 1464.2000007152558 1401.4000035762788 L 1464.2000007152558 1401.4000035762788 A 8 8 0 0 1 1472.2000007152558 1409.4000035762788 L 1472.2000007152558 1471.4000035762788 L 1472.2000007152558 1471.4000035762788 A 8 8 0 0 1 1464.2000007152558 1479.4000035762788 L 932.2000007152558 1479.4000035762788 L 932.2000007152558 1479.4000035762788 A 8 8 0 0 1 924.2000007152558 1471.4000035762788 L 924.2000007152558 1409.4000035762788 L 924.2000007152558 1409.4000035762788 A 8 8 0 0 1 932.2000007152558 1401.4000035762788 L 1198.2000007152558 1401.4000035762788 Z" fill-opacity="1"/><text fill="rgb(255,255,255)" stroke="none" font-family="Avenir, Helvetica, Arial, sans-serif" font-size="32px" font-style="normal" font-weight="bold" text-decoration="normal" x="1198.2000007152558" y="1456.4000035762788" text-anchor="middle" dominant-baseline="text-after-edge" fill-opacity="1">private_3</text><path fill="rgb(40,167,69)" stroke="none" paint-order="stroke fill markers" d=" M 1996.4000014305116 1145.4000021457673 L 2262.4000014305116 1145.4000021457673 L 2262.4000014305116 1145.4000021457673 A 8 8 0 0 1 2270.4000014305116 1153.4000021457673 L 2270.4000014305116 1215.4000021457673 L 2270.4000014305116 1215.4000021457673 A 8 8 0 0 1 2262.4000014305116 1223.4000021457673 L 1730.4000014305116 1223.4000021457673 L 1730.4000014305116 1223.4000021457673 A 8 8 0 0 1 1722.4000014305116 1215.4000021457673 L 1722.4000014305116 1153.4000021457673 L 1722.4000014305116 1153.4000021457673 A 8 8 0 0 1 1730.4000014305116 1145.4000021457673 L 1996.4000014305116 1145.4000021457673 Z" fill-opacity="1"/><text fill="rgb(255,255,255)" stroke="none" font-family="Avenir, Helvetica, Arial, sans-serif" font-size="32px" font-style="normal" font-weight="bold" text-decoration="normal" x="1996.4000014305116" y="1200.4000021457673" text-anchor="middle" dominant-baseline="text-after-edge" fill-opacity="1">subnet_3</text><path fill="rgb(40,167,69)" stroke="none" paint-order="stroke fill markers" d=" M 400 689.2000007152558 L 666 689.2000007152558 L 666 689.2000007152558 A 8 8 0 0 1 674 697.2000007152558 L 674 759.2000007152558 L 674 759.2000007152558 A 8 8 0 0 1 666 767.2000007152558 L 134 767.2000007152558 L 134 767.2000007152558 A 8 8 0 0 1 126 759.2000007152558 L 126 697.2000007152558 L 126 697.2000007152558 A 8 8 0 0 1 134 689.2000007152558 L 400 689.2000007152558 Z" fill-opacity="1"/><text fill="rgb(255,255,255)" stroke="none" font-family="Avenir, Helvetica, Arial, sans-serif" font-size="32px" font-style="normal" font-weight="bold" text-decoration="normal" x="400" y="744.2000007152558" text-anchor="middle" dominant-baseline="text-after-edge" fill-opacity="1">flavor_1</text><path fill="rgb(40,167,69)" stroke="none" paint-order="stroke fill markers" d=" M 400 1145.4000021457673 L 666 1145.4000021457673 L 666 1145.4000021457673 A 8 8 0 0 1 674 1153.4000021457673 L 674 1215.4000021457673 L 674 1215.4000021457673 A 8 8 0 0 1 666 1223.4000021457673 L 134 1223.4000021457673 L 134 1223.4000021457673 A 8 8 0 0 1 126 1215.4000021457673 L 126 1153.4000021457673 L 126 1153.4000021457673 A 8 8 0 0 1 134 1145.4000021457673 L 400 1145.4000021457673 Z" fill-opacity="1"/><text fill="rgb(255,255,255)" stroke="none" font-family="Avenir, Helvetica, Arial, sans-serif" font-size="32px" font-style="normal" font-weight="bold" text-decoration="normal" x="400" y="1200.4000021457673" text-anchor="middle" dominant-baseline="text-after-edge" fill-opacity="1">http</text><path fill="rgb(40,167,69)" stroke="none" paint-order="stroke fill markers" d=" M 1996.4000014305116 1273.400002861023 L 2262.4000014305116 1273.400002861023 L 2262.4000014305116 1273.400002861023 A 8 8 0 0 1 2270.4000014305116 1281.400002861023 L 2270.4000014305116 1343.400002861023 L 2270.4000014305116 1343.400002861023 A 8 8 0 0 1 2262.4000014305116 1351.400002861023 L 1730.4000014305116 1351.400002861023 L 1730.4000014305116 1351.400002861023 A 8 8 0 0 1 1722.4000014305116 1343.400002861023 L 1722.4000014305116 1281.400002861023 L 1722.4000014305116 1281.400002861023 A 8 8 0 0 1 1730.4000014305116 1273.400002861023 L 1996.4000014305116 1273.400002861023 Z" fill-opacity="1"/><text fill="rgb(255,255,255)" stroke="none" font-family="Avenir, Helvetica, Arial, sans-serif" font-size="32px" font-style="normal" font-weight="bold" text-decoration="normal" x="1996.4000014305116" y="1328.400002861023" text-anchor="middle" dominant-baseline="text-after-edge" fill-opacity="1">subnet_2</text><path fill="rgb(40,167,69)" stroke="none" paint-order="stroke fill markers" d=" M 1198.2000007152558 2241.6000071525577 L 1464.2000007152558 2241.6000071525577 L 1464.2000007152558 2241.6000071525577 A 8 8 0 0 1 1472.2000007152558 2249.6000071525577 L 1472.2000007152558 2311.6000071525577 L 1472.2000007152558 2311.6000071525577 A 8 8 0 0 1 1464.2000007152558 2319.6000071525577 L 932.2000007152558 2319.6000071525577 L 932.2000007152558 2319.6000071525577 A 8 8 0 0 1 924.2000007152558 2311.6000071525577 L 924.2000007152558 2249.6000071525577 L 924.2000007152558 2249.6000071525577 A 8 8 0 0 1 932.2000007152558 2241.6000071525577 L 1198.2000007152558 2241.6000071525577 Z" fill-opacity="1"/><text fill="rgb(255,255,255)" stroke="none" font-family="Avenir, Helvetica, Arial, sans-serif" font-size="32px" font-style="normal" font-weight="bold" text-decoration="normal" x="1198.2000007152558" y="2296.6000071525577" text-anchor="middle" dominant-baseline="text-after-edge" fill-opacity="1">instance_2</text><path fill="rgb(40,167,69)" stroke="none" paint-order="stroke fill markers" d=" M 400 1273.400002861023 L 666 1273.400002861023 L 666 1273.400002861023 A 8 8 0 0 1 674 1281.400002861023 L 674 1343.400002861023 L 674 1343.400002861023 A 8 8 0 0 1 666 1351.400002861023 L 134 1351.400002861023 L 134 1351.400002861023 A 8 8 0 0 1 126 1343.400002861023 L 126 1281.400002861023 L 126 1281.400002861023 A 8 8 0 0 1 134 1273.400002861023 L 400 1273.400002861023 Z" fill-opacity="1"/><text fill="rgb(255,255,255)" stroke="none" font-family="Avenir, Helvetica, Arial, sans-serif" font-size="32px" font-style="normal" font-weight="bold" text-decoration="normal" x="400" y="1328.400002861023" text-anchor="middle" dominant-baseline="text-after-edge" fill-opacity="1">service</text><path fill="rgb(40,167,69)" stroke="none" paint-order="stroke fill markers" d=" M 400 1729.6000042915346 L 666 1729.6000042915346 L 666 1729.6000042915346 A 8 8 0 0 1 674 1737.6000042915346 L 674 1799.6000042915346 L 674 1799.6000042915346 A 8 8 0 0 1 666 1807.6000042915346 L 134 1807.6000042915346 L 134 1807.6000042915346 A 8 8 0 0 1 126 1799.6000042915346 L 126 1737.6000042915346 L 126 1737.6000042915346 A 8 8 0 0 1 134 1729.6000042915346 L 400 1729.6000042915346 Z" fill-opacity="1"/><text fill="rgb(255,255,255)" stroke="none" font-family="Avenir, Helvetica, Arial, sans-serif" font-size="32px" font-style="normal" font-weight="bold" text-decoration="normal" x="400" y="1784.6000042915346" text-anchor="middle" dominant-baseline="text-after-edge" fill-opacity="1">interface_1</text><path fill="rgb(40,167,69)" stroke="none" paint-order="stroke fill markers" d=" M 400 1857.6000050067903 L 666 1857.6000050067903 L 666 1857.6000050067903 A 8 8 0 0 1 674 1865.6000050067903 L 674 1927.6000050067903 L 674 1927.6000050067903 A 8 8 0 0 1 666 1935.6000050067903 L 134 1935.6000050067903 L 134 1935.6000050067903 A 8 8 0 0 1 126 1927.6000050067903 L 126 1865.6000050067903 L 126 1865.6000050067903 A 8 8 0 0 1 134 1857.6000050067903 L 400 1857.6000050067903 Z" fill-opacity="1"/><text fill="rgb(255,255,255)" stroke="none" font-family="Avenir, Helvetica, Arial, sans-serif" font-size="32px" font-style="normal" font-weight="bold" text-decoration="normal" x="400" y="1912.6000050067903" text-anchor="middle" dominant-baseline="text-after-edge" fill-opacity="1">interface_3</text><path fill="rgb(40,167,69)" stroke="none" paint-order="stroke fill markers" d=" M 1198.2000007152558 2369.6000078678135 L 1464.2000007152558 2369.6000078678135 L 1464.2000007152558 2369.6000078678135 A 8 8 0 0 1 1472.2000007152558 2377.6000078678135 L 1472.2000007152558 2439.6000078678135 L 1472.2000007152558 2439.6000078678135 A 8 8 0 0 1 1464.2000007152558 2447.6000078678135 L 932.2000007152558 2447.6000078678135 L 932.2000007152558 2447.6000078678135 A 8 8 0 0 1 924.2000007152558 2439.6000078678135 L 924.2000007152558 2377.6000078678135 L 924.2000007152558 2377.6000078678135 A 8 8 0 0 1 932.2000007152558 2369.6000078678135 L 1198.2000007152558 2369.6000078678135 Z" fill-opacity="1"/><text fill="rgb(255,255,255)" stroke="none" font-family="Avenir, Helvetica, Arial, sans-serif" font-size="32px" font-style="normal" font-weight="bold" text-decoration="normal" x="1198.2000007152558" y="2424.6000078678135" text-anchor="middle" dominant-baseline="text-after-edge" fill-opacity="1">instance_1</text><path fill="rgb(40,167,69)" stroke="none" paint-order="stroke fill markers" d=" M 1198.2000007152558 689.2000007152558 L 1464.2000007152558 689.2000007152558 L 1464.2000007152558 689.2000007152558 A 8 8 0 0 1 1472.2000007152558 697.2000007152558 L 1472.2000007152558 759.2000007152558 L 1472.2000007152558 759.2000007152558 A 8 8 0 0 1 1464.2000007152558 767.2000007152558 L 932.2000007152558 767.2000007152558 L 932.2000007152558 767.2000007152558 A 8 8 0 0 1 924.2000007152558 759.2000007152558 L 924.2000007152558 697.2000007152558 L 924.2000007152558 697.2000007152558 A 8 8 0 0 1 932.2000007152558 689.2000007152558 L 1198.2000007152558 689.2000007152558 Z" fill-opacity="1"/><text fill="rgb(255,255,255)" stroke="none" font-family="Avenir, Helvetica, Arial, sans-serif" font-size="32px" font-style="normal" font-weight="bold" text-decoration="normal" x="1198.2000007152558" y="744.2000007152558" text-anchor="middle" dominant-baseline="text-after-edge" fill-opacity="1">http</text><path fill="rgb(40,167,69)" stroke="none" paint-order="stroke fill markers" d=" M 400 1985.600005722046 L 666 1985.600005722046 L 666 1985.600005722046 A 8 8 0 0 1 674 1993.600005722046 L 674 2055.6000057220463 L 674 2055.6000057220463 A 8 8 0 0 1 666 2063.6000057220463 L 134 2063.6000057220463 L 134 2063.6000057220463 A 8 8 0 0 1 126 2055.6000057220463 L 126 1993.600005722046 L 126 1993.600005722046 A 8 8 0 0 1 134 1985.600005722046 L 400 1985.600005722046 Z" fill-opacity="1"/><text fill="rgb(255,255,255)" stroke="none" font-family="Avenir, Helvetica, Arial, sans-serif" font-size="32px" font-style="normal" font-weight="bold" text-decoration="normal" x="400" y="2040.600005722046" text-anchor="middle" dominant-baseline="text-after-edge" fill-opacity="1">interface_2</text><path fill="rgb(40,167,69)" stroke="none" paint-order="stroke fill markers" d=" M 1198.2000007152558 2497.600008583069 L 1464.2000007152558 2497.600008583069 L 1464.2000007152558 2497.600008583069 A 8 8 0 0 1 1472.2000007152558 2505.600008583069 L 1472.2000007152558 2567.600008583069 L 1472.2000007152558 2567.600008583069 A 8 8 0 0 1 1464.2000007152558 2575.600008583069 L 932.2000007152558 2575.600008583069 L 932.2000007152558 2575.600008583069 A 8 8 0 0 1 924.2000007152558 2567.600008583069 L 924.2000007152558 2505.600008583069 L 924.2000007152558 2505.600008583069 A 8 8 0 0 1 932.2000007152558 2497.600008583069 L 1198.2000007152558 2497.600008583069 Z" fill-opacity="1"/><text fill="rgb(255,255,255)" stroke="none" font-family="Avenir, Helvetica, Arial, sans-serif" font-size="32px" font-style="normal" font-weight="bold" text-decoration="normal" x="1198.2000007152558" y="2552.600008583069" text-anchor="middle" dominant-baseline="text-after-edge" fill-opacity="1">instance_5</text><path fill="rgb(40,167,69)" stroke="none" paint-order="stroke fill markers" d=" M 1996.4000014305116 1401.4000035762788 L 2262.4000014305116 1401.4000035762788 L 2262.4000014305116 1401.4000035762788 A 8 8 0 0 1 2270.4000014305116 1409.4000035762788 L 2270.4000014305116 1471.4000035762788 L 2270.4000014305116 1471.4000035762788 A 8 8 0 0 1 2262.4000014305116 1479.4000035762788 L 1730.4000014305116 1479.4000035762788 L 1730.4000014305116 1479.4000035762788 A 8 8 0 0 1 1722.4000014305116 1471.4000035762788 L 1722.4000014305116 1409.4000035762788 L 1722.4000014305116 1409.4000035762788 A 8 8 0 0 1 1730.4000014305116 1401.4000035762788 L 1996.4000014305116 1401.4000035762788 Z" fill-opacity="1"/><text fill="rgb(255,255,255)" stroke="none" font-family="Avenir, Helvetica, Arial, sans-serif" font-size="32px" font-style="normal" font-weight="bold" text-decoration="normal" x="1996.4000014305116" y="1456.4000035762788" text-anchor="middle" dominant-baseline="text-after-edge" fill-opacity="1">subnet_1</text><g transform="scale(10,10) translate(-27.85,-4.75)"/></g></svg>