<svg version="1.1" xmlns="http://www.w3.org/2000/svg" xmlns:xlink="http://www.w3.org/1999/xlink" width="291.90000000000003" height="221.9"><defs><linearGradient id="fpyVUEADXEea" x1="1722.4000014305116px" x2="674px" y1="728.2000007152558px" y2="400px" gradientUnits="userSpaceOnUse"><stop offset="0" stop-color="rgb(211,211,211)" stop-opacity="1"/><stop offset="1" stop-color="rgb(211,211,211)" stop-opacity="1"/></linearGradient><linearGradient id="hLfaoUiZwCXr" x1="1996.4000014305116px" x2="1198.2000007152558px" y1="767.2000007152558px" y2="1473.600002861023px" gradientUnits="userSpaceOnUse"><stop offset="0" stop-color="rgb(211,211,211)" stop-opacity="1"/><stop offset="1" stop-color="rgb(211,211,211)" stop-opacity="1"/></linearGradient><linearGradient id="mmhrduBwtxsa" x1="1198.2000007152558px" x2="1198.2000007152558px" y1="1017.4000014305116px" y2="767.2000007152558px" gradientUnits="userSpaceOnUse"><stop offset="0" stop-color="rgb(211,211,211)" stop-opacity="1"/><stop offset="1" stop-color="rgb(211,211,211)" stop-opacity="1"/></linearGradient><linearGradient id="wWGCGdDJTsxQ" x1="1198.2000007152558px" x2="1996.4000014305116px" y1="1017.4000014305116px" y2="439px" gradientUnits="userSpaceOnUse"><stop offset="0" stop-color="rgb(211,211,211)" stop-opacity="1"/><stop offset="1" stop-color="rgb(211,211,211)" stop-opacity="1"/></linearGradient><linearGradient id="GNdHFXUHoqhs" x1="1198.2000007152558px" x2="1996.4000014305116px" y1="1473.600002861023px" y2="1223.4000021457673px" gradientUnits="userSpaceOnUse"><stop offset="0" stop-color="rgb(211,211,211)" stop-opacity="1"/><stop offset="1" stop-color="rgb(211,211,211)" stop-opacity="1"/></linearGradient><linearGradient id="ePKgMrAdQAKZ" x1="1198.2000007152558px" x2="400px" y1="439px" y2="1017.4000014305116px" gradientUnits="userSpaceOnUse"><stop offset="0" stop-color="rgb(211,211,211)" stop-opacity="1"/><stop offset="1" stop-color="rgb(211,211,211)" stop-opacity="1"/></linearGradient><linearGradient id="KSLsqexfqFLs" x1="1198.2000007152558px" x2="400px" y1="439px" y2="1601.6000035762788px" gradientUnits="userSpaceOnUse"><stop offset="0" stop-color="rgb(211,211,211)" stop-opacity="1"/><stop offset="1" stop-color="rgb(211,211,211)" stop-opacity="1"/></linearGradient><linearGradient id="BtLoTzcZoqIc" x1="1198.2000007152558px" x2="400px" y1="439px" y2="1473.600002861023px" gradientUnits="userSpaceOnUse"><stop offset="0" stop-color="rgb(211,211,211)" stop-opacity="1"/><stop offset="1" stop-color="rgb(211,211,211)" stop-opacity="1"/></linearGradient><linearGradient id="nXlNyUkbCybK" x1="1722.4000014305116px" x2="674px" y1="400px" y2="1056.4000014305116px" gradientUnits="userSpaceOnUse"><stop offset="0" stop-color="rgb(211,211,211)" stop-opacity="1"/><stop offset="1" stop-color="rgb(211,211,211)" stop-opacity="1"/></linearGradient><linearGradient id="VURDTVeEdHgQ" x1="1198.2000007152558px" x2="1996.4000014305116px" y1="1601.6000035762788px" y2="1095.4000014305116px" gradientUnits="userSpaceOnUse"><stop offset="0" stop-color="rgb(211,211,211)" stop-opacity="1"/><stop offset="1" stop-color="rgb(211,211,211)" stop-opacity="1"/></linearGradient><linearGradient id="ngbNbnCFSfOG" x1="1198.2000007152558px" x2="1996.4000014305116px" y1="1729.6000042915346px" y2="1095.4000014305116px" gradientUnits="userSpaceOnUse"><stop offset="0" stop-color="rgb(211,211,211)" stop-opacity="1"/><stop offset="1" stop-color="rgb(211,211,211)" stop-opacity="1"/></linearGradient></defs><g transform="translate(23.700000000000003,4.75) scale(0.1,0.1)"><path fill="rgb(244,236,255)" stroke="rgb(255,255,255)" paint-order="fill stroke markers" d=" M 1222.4500007152558 -45.5 L 2671.9000014305116 -45.5 L 2671.9000014305116 -45.5 A 8 8 0 0 1 2679.9000014305116 -37.5 L 2679.9000014305116 2160.600004291535 L 2679.9000014305116 2160.600004291535 A 8 8 0 0 1 2671.9000014305116 2168.600004291535 L -227 2168.600004291535 L -227 2168.600004291535 A 8 8 0 0 1 -235 2160.600004291535 L -235 -37.5 L -235 -37.5 A 8 8 0 0 1 -227 -45.5 L 1222.4500007152558 -45.5 Z" fill-opacity="1" stroke-opacity="1" stroke-miterlimit="10" stroke-width="2"/><text fill="rgb(0,0,0)" stroke="none" font-family="Avenir, Helvetica, Arial, sans-serif" font-size="32px" font-style="normal" font-weight="bold" text-decoration="normal" x="1222.4500007152558" y="29.5" text-anchor="middle" dominant-baseline="text-after-edge" fill-opacity="1">.</text><path fill="rgb(255,255,255)" stroke="rgb(211,211,211)" paint-order="fill stroke markers" d=" M 1222.4500007152558 156.0000000000001 L 2470.4000014305116 156.0000000000001 L 2470.4000014305116 156.0000000000001 A 8 8 0 0 1 2478.4000014305116 164.0000000000001 L 2478.4000014305116 1959.1000042915348 L 2478.4000014305116 1959.1000042915348 A 8 8 0 0 1 2470.4000014305116 1967.1000042915348 L -25.5 1967.1000042915348 L -25.5 1967.1000042915348 A 8 8 0 0 1 -33.5 1959.1000042915348 L -33.5 164.0000000000001 L -33.5 164.0000000000001 A 8 8 0 0 1 -25.5 156.0000000000001 L 1222.4500007152558 156.0000000000001 Z" fill-opacity="1" stroke-opacity="1" stroke-miterlimit="10"/><text fill="rgb(0,0,0)" stroke="none" font-family="Avenir, Helvetica, Arial, sans-serif" font-size="32px" font-style="normal" font-weight="bold" text-decoration="normal" x="1222.4500007152558" y="231.0000000000001" text-anchor="middle" dominant-baseline="text-after-edge" fill-opacity="1">main.tf</text><path fill="rgb(255,255,255)" stroke="rgb(0,0,0)" paint-order="fill stroke markers" d=" M 1198.2000007152558 1417.600002861023 L 1520.2000007152558 1417.600002861023 L 1520.2000007152558 1417.600002861023 A 8 8 0 0 1 1528.2000007152558 1425.600002861023 L 1528.2000007152558 1855.6000042915346 L 1528.2000007152558 1855.6000042915346 A 8 8 0 0 1 1520.2000007152558 1863.6000042915346 L 876.2000007152558 1863.6000042915346 L 876.2000007152558 1863.6000042915346 A 8 8 0 0 1 868.2000007152558 1855.6000042915346 L 868.2000007152558 1425.600002861023 L 868.2000007152558 1425.600002861023 A 8 8 0 0 1 876.2000007152558 1417.600002861023 L 1198.2000007152558 1417.600002861023 Z" fill-opacity="1" stroke-opacity="1" stroke-miterlimit="10" stroke-width="5"/><rect fill="rgb(255,255,255)" stroke="none" x="906.7000007152558" y="1368.600002861023" width="583" height="96" fill-opacity="1"/><text fill="rgb(0,0,0)" stroke="none" font-family="Avenir, Helvetica, Arial, sans-serif" font-size="32px" font-style="normal" font-weight="bold" text-decoration="normal" x="1198.2000007152558" y="1432.600002861023" text-anchor="middle" dominant-baseline="text-after-edge" fill-opacity="1">openstack_compute_instance_v2</text><path fill="rgb(255,255,255)" stroke="rgb(0,0,0)" paint-order="fill stroke markers" d=" M 400 305 L 722 305 L 722 305 A 8 8 0 0 1 730 313 L 730 487 L 730 487 A 8 8 0 0 1 722 495 L 78 495 L 78 495 A 8 8 0 0 1 70 487 L 70 313 L 70 313 A 8 8 0 0 1 78 305 L 400 305 Z" fill-opacity="1" stroke-opacity="1" stroke-miterlimit="10" stroke-width="5"/><rect fill="rgb(255,255,255)" stroke="none" x="78" y="256" width="644" height="96" fill-opacity="1"/><text fill="rgb(0,0,0)" stroke="none" font-family="Avenir, Helvetica, Arial, sans-serif" font-size="32px" font-style="normal" font-weight="bold" text-decoration="normal" x="400" y="320" text-anchor="middle" dominant-baseline="text-after-edge" fill-opacity="1">openstack_networking_floatingip_v2</text><path fill="rgb(255,255,255)" stroke="rgb(0,0,0)" paint-order="fill stroke markers" d=" M 1198.2000007152558 305 L 1520.2000007152558 305 L 1520.2000007152558 305 A 8 8 0 0 1 1528.2000007152558 313 L 1528.2000007152558 487 L 1528.2000007152558 487 A 8 8 0 0 1 1520.2000007152558 495 L 876.2000007152558 495 L 876.2000007152558 495 A 8 8 0 0 1 868.2000007152558 487 L 868.2000007152558 313 L 868.2000007152558 313 A 8 8 0 0 1 876.2000007152558 305 L 1198.2000007152558 305 Z" fill-opacity="1" stroke-opacity="1" stroke-miterlimit="10" stroke-width="5"/><rect fill="rgb(255,255,255)" stroke="none" x="919.2000007152558" y="256" width="558" height="96" fill-opacity="1"/><text fill="rgb(0,0,0)" stroke="none" font-family="Avenir, Helvetica, Arial, sans-serif" font-size="32px" font-style="normal" font-weight="bold" text-decoration="normal" x="1198.2000007152558" y="320" text-anchor="middle" dominant-baseline="text-after-edge" fill-opacity="1">openstack_networking_port_v2</text><path fill="rgb(255,255,255)" stroke="rgb(0,0,0)" paint-order="fill stroke markers" d=" M 1996.4000014305116 305 L 2318.4000014305116 305 L 2318.4000014305116 305 A 8 8 0 0 1 2326.4000014305116 313 L 2326.4000014305116 487 L 2326.4000014305116 487 A 8 8 0 0 1 2318.4000014305116 495 L 1674.4000014305116 495 L 1674.4000014305116 495 A 8 8 0 0 1 1666.4000014305116 487 L 1666.4000014305116 313 L 1666.4000014305116 313 A 8 8 0 0 1 1674.4000014305116 305 L 1996.4000014305116 305 Z" fill-opacity="1" stroke-opacity="1" stroke-miterlimit="10" stroke-width="5"/><rect fill="rgb(255,255,255)" stroke="none" x="1695.9000014305116" y="256" width="601" height="96" fill-opacity="1"/><text fill="rgb(0,0,0)" stroke="none" font-family="Avenir, Helvetica, Arial, sans-serif" font-size="32px" font-style="normal" font-weight="bold" text-decoration="normal" x="1996.4000014305116" y="320" text-anchor="middle" dominant-baseline="text-after-edge" fill-opacity="1">openstack_networking_subnet_v2</text><path fill="rgb(255,255,255)" stroke="rgb(0,0,0)" paint-order="fill stroke markers" d=" M 1996.4000014305116 961.4000014305116 L 2318.4000014305116 961.4000014305116 L 2318.4000014305116 961.4000014305116 A 8 8 0 0 1 2326.4000014305116 969.4000014305116 L 2326.4000014305116 1271.4000021457673 L 2326.4000014305116 1271.4000021457673 A 8 8 0 0 1 2318.4000014305116 1279.4000021457673 L 1674.4000014305116 1279.4000021457673 L 1674.4000014305116 1279.4000021457673 A 8 8 0 0 1 1666.4000014305116 1271.4000021457673 L 1666.4000014305116 969.4000014305116 L 1666.4000014305116 969.4000014305116 A 8 8 0 0 1 1674.4000014305116 961.4000014305116 L 1996.4000014305116 961.4000014305116 Z" fill-opacity="1" stroke-opacity="1" stroke-miterlimit="10" stroke-width="5"/><rect fill="rgb(255,255,255)" stroke="none" x="1738.4000014305116" y="912.4000014305116" width="516" height="96" fill-opacity="1"/><text fill="rgb(0,0,0)" stroke="none" font-family="Avenir, Helvetica, Arial, sans-serif" font-size="32px" font-style="normal" font-weight="bold" text-decoration="normal" x="1996.4000014305116" y="976.4000014305116" text-anchor="middle" dominant-baseline="text-after-edge" fill-opacity="1">openstack_images_image_v2</text><path fill="rgb(255,255,255)" stroke="rgb(0,0,0)" paint-order="fill stroke markers" d=" M 400 1417.600002861023 L 722 1417.600002861023 L 722 1417.600002861023 A 8 8 0 0 1 730 1425.600002861023 L 730 1727.6000035762788 L 730 1727.6000035762788 A 8 8 0 0 1 722 1735.6000035762788 L 78 1735.6000035762788 L 78 1735.6000035762788 A 8 8 0 0 1 70 1727.6000035762788 L 70 1425.600002861023 L 70 1425.600002861023 A 8 8 0 0 1 78 1417.600002861023 L 400 1417.600002861023 Z" fill-opacity="1" stroke-opacity="1" stroke-miterlimit="10" stroke-width="5"/><rect fill="rgb(255,255,255)" stroke="none" x="104.5" y="1368.600002861023" width="591" height="96" fill-opacity="1"/><text fill="rgb(0,0,0)" stroke="none" font-family="Avenir, Helvetica, Arial, sans-serif" font-size="32px" font-style="normal" font-weight="bold" text-decoration="normal" x="400" y="1432.600002861023" text-anchor="middle" dominant-baseline="text-after-edge" fill-opacity="1">openstack_compute_secgroup_v2</text><path fill="rgb(255,255,255)" stroke="rgb(0,0,0)" paint-order="fill stroke markers" d=" M 400 633.2000007152558 L 722 633.2000007152558 L 722 633.2000007152558 A 8 8 0 0 1 730 641.2000007152558 L 730 815.2000007152558 L 730 815.2000007152558 A 8 8 0 0 1 722 823.2000007152558 L 78 823.2000007152558 L 78 823.2000007152558 A 8 8 0 0 1 70 815.2000007152558 L 70 641.2000007152558 L 70 641.2000007152558 A 8 8 0 0 1 78 633.2000007152558 L 400 633.2000007152558 Z" fill-opacity="1" stroke-opacity="1" stroke-miterlimit="10" stroke-width="5"/><rect fill="rgb(255,255,255)" stroke="none" x="129.5" y="584.2000007152558" width="541" height="96" fill-opacity="1"/><text fill="rgb(0,0,0)" stroke="none" font-family="Avenir, Helvetica, Arial, sans-serif" font-size="32px" font-style="normal" font-weight="bold" text-decoration="normal" x="400" y="648.2000007152558" text-anchor="middle" dominant-baseline="text-after-edge" fill-opacity="1">openstack_compute_flavor_v2</text><path fill="rgb(255,255,255)" stroke="rgb(0,0,0)" paint-order="fill stroke markers" d=" M 1198.2000007152558 633.2000007152558 L 1520.2000007152558 633.2000007152558 L 1520.2000007152558 633.2000007152558 A 8 8 0 0 1 1528.2000007152558 641.2000007152558 L 1528.2000007152558 815.2000007152558 L 1528.2000007152558 815.2000007152558 A 8 8 0 0 1 1520.2000007152558 823.2000007152558 L 876.2000007152558 823.2000007152558 L 876.2000007152558 823.2000007152558 A 8 8 0 0 1 868.2000007152558 815.2000007152558 L 868.2000007152558 641.2000007152558 L 868.2000007152558 641.2000007152558 A 8 8 0 0 1 876.2000007152558 633.2000007152558 L 1198.2000007152558 633.2000007152558 Z" fill-opacity="1" stroke-opacity="1" stroke-miterlimit="10" stroke-width="5"/><rect fill="rgb(255,255,255)" stroke="none" x="902.2000007152558" y="584.2000007152558" width="592" height="96" fill-opacity="1"/><text fill="rgb(0,0,0)" stroke="none" font-family="Avenir, Helvetica, Arial, sans-serif" font-size="32px" font-style="normal" font-weight="bold" text-decoration="normal" x="1198.2000007152558" y="648.2000007152558" text-anchor="middle" dominant-baseline="text-after-edge" fill-opacity="1">openstack_networking_router_v2</text><path fill="rgb(255,255,255)" stroke="rgb(0,0,0)" paint-order="fill stroke markers" d=" M 1996.4000014305116 633.2000007152558 L 2318.4000014305116 633.2000007152558 L 2318.4000014305116 633.2000007152558 A 8 8 0 0 1 2326.4000014305116 641.2000007152558 L 2326.4000014305116 815.2000007152558 L 2326.4000014305116 815.2000007152558 A 8 8 0 0 1 2318.4000014305116 823.2000007152558 L 1674.4000014305116 823.2000007152558 L 1674.4000014305116 823.2000007152558 A 8 8 0 0 1 1666.4000014305116 815.2000007152558 L 1666.4000014305116 641.2000007152558 L 1666.4000014305116 641.2000007152558 A 8 8 0 0 1 1674.4000014305116 633.2000007152558 L 1996.4000014305116 633.2000007152558 Z" fill-opacity="1" stroke-opacity="1" stroke-miterlimit="10" stroke-width="5"/><rect fill="rgb(255,255,255)" stroke="none" x="1614.4000014305116" y="584.2000007152558" width="764" height="96" fill-opacity="1"/><text fill="rgb(0,0,0)" stroke="none" font-family="Avenir, Helvetica, Arial, sans-serif" font-size="32px" font-style="normal" font-weight="bold" text-decoration="normal" x="1996.4000014305116" y="648.2000007152558" text-anchor="middle" dominant-baseline="text-after-edge" fill-opacity="1">openstack_compute_floatingip_associate_v2</text><path fill="rgb(255,255,255)" stroke="rgb(0,0,0)" paint-order="fill stroke markers" d=" M 400 961.4000014305116 L 722 961.4000014305116 L 722 961.4000014305116 A 8 8 0 0 1 730 969.4000014305116 L 730 1143.4000014305116 L 730 1143.4000014305116 A 8 8 0 0 1 722 1151.4000014305116 L 78 1151.4000014305116 L 78 1151.4000014305116 A 8 8 0 0 1 70 1143.4000014305116 L 70 969.4000014305116 L 70 969.4000014305116 A 8 8 0 0 1 78 961.4000014305116 L 400 961.4000014305116 Z" fill-opacity="1" stroke-opacity="1" stroke-miterlimit="10" stroke-width="5"/><rect fill="rgb(255,255,255)" stroke="none" x="87.5" y="912.4000014305116" width="625" height="96" fill-opacity="1"/><text fill="rgb(0,0,0)" stroke="none" font-family="Avenir, Helvetica, Arial, sans-serif" font-size="32px" font-style="normal" font-weight="bold" text-decoration="normal" x="400" y="976.4000014305116" text-anchor="middle" dominant-baseline="text-after-edge" fill-opacity="1">openstack_networking_network_v2</text><path fill="rgb(255,255,255)" stroke="rgb(0,0,0)" paint-order="fill stroke markers" d=" M 1198.2000007152558 961.4000014305116 L 1520.2000007152558 961.4000014305116 L 1520.2000007152558 961.4000014305116 A 8 8 0 0 1 1528.2000007152558 969.4000014305116 L 1528.2000007152558 1143.4000014305116 L 1528.2000007152558 1143.4000014305116 A 8 8 0 0 1 1520.2000007152558 1151.4000014305116 L 876.2000007152558 1151.4000014305116 L 876.2000007152558 1151.4000014305116 A 8 8 0 0 1 868.2000007152558 1143.4000014305116 L 868.2000007152558 969.4000014305116 L 868.2000007152558 969.4000014305116 A 8 8 0 0 1 876.2000007152558 961.4000014305116 L 1198.2000007152558 961.4000014305116 Z" fill-opacity="1" stroke-opacity="1" stroke-miterlimit="10" stroke-width="5"/><rect fill="rgb(255,255,255)" stroke="none" x="823.2000007152558" y="912.4000014305116" width="750" height="96" fill-opacity="1"/><text fill="rgb(0,0,0)" stroke="none" font-family="Avenir, Helvetica, Arial, sans-serif" font-size="32px" font-style="normal" font-weight="bold" text-decoration="normal" x="1198.2000007152558" y="976.4000014305116" text-anchor="middle" dominant-baseline="text-after-edge" fill-opacity="1">openstack_networking_router_interface_v2</text><path fill="none" stroke="url(#fpyVUEADXEea)" paint-order="fill stroke markers" d=" M 1722.4000014305116 728.2000007152558 L 1198.2000007152558 728.2000007152558 L 1198.2000007152558 400 L 674 400" stroke-linejoin="round" stroke-miterlimit="10" stroke-width="10"/><path fill="none" stroke="url(#hLfaoUiZwCXr)" paint-order="fill stroke markers" d=" M 1996.4000014305116 767.2000007152558 L 1996.4000014305116 1120.4000017881394 L 1198.2000007152558 1120.4000017881394 L 1198.2000007152558 1473.600002861023" stroke-linejoin="round" stroke-miterlimit="10" stroke-width="10"/><path fill="none" stroke="url(#mmhrduBwtxsa)" paint-order="fill stroke markers" d=" M 1198.2000007152558 1017.4000014305116 L 1198.2000007152558 892.3000010728837 L 1198.2000007152558 892.3000010728837 L 1198.2000007152558 767.2000007152558" stroke-linejoin="round" stroke-miterlimit="10" stroke-width="10"/><path fill="none" stroke="url(#wWGCGdDJTsxQ)" paint-order="fill stroke markers" d=" M 1198.2000007152558 1017.4000014305116 L 1198.2000007152558 728.2000007152558 L 1996.4000014305116 728.2000007152558 L 1996.4000014305116 439" stroke-linejoin="round" stroke-miterlimit="10" stroke-width="10"/><path fill="none" stroke="url(#GNdHFXUHoqhs)" paint-order="fill stroke markers" d=" M 1198.2000007152558 1473.600002861023 L 1198.2000007152558 1348.500002503395 L 1996.4000014305116 1348.500002503395 L 1996.4000014305116 1223.4000021457673" stroke-linejoin="round" stroke-miterlimit="10" stroke-width="10"/><path fill="none" stroke="url(#ePKgMrAdQAKZ)" paint-order="fill stroke markers" d=" M 1198.2000007152558 439 L 1198.2000007152558 728.2000007152558 L 400 728.2000007152558 L 400 1017.4000014305116" stroke-linejoin="round" stroke-miterlimit="10" stroke-width="10"/><path fill="none" stroke="url(#KSLsqexfqFLs)" paint-order="fill stroke markers" d=" M 1198.2000007152558 439 L 1198.2000007152558 1020.3000017881394 L 400 1020.3000017881394 L 400 1601.6000035762788" stroke-linejoin="round" stroke-miterlimit="10" stroke-width="10"/><path fill="none" stroke="url(#BtLoTzcZoqIc)" paint-order="fill stroke markers" d=" M 1198.2000007152558 439 L 1198.2000007152558 956.3000014305115 L 400 956.3000014305115 L 400 1473.600002861023" stroke-linejoin="round" stroke-miterlimit="10" stroke-width="10"/><path fill="none" stroke="url(#nXlNyUkbCybK)" paint-order="fill stroke markers" d=" M 1722.4000014305116 400 L 1198.2000007152558 400 L 1198.2000007152558 1056.4000014305116 L 674 1056.4000014305116" stroke-linejoin="round" stroke-miterlimit="10" stroke-width="10"/><path fill="none" stroke="url(#VURDTVeEdHgQ)" paint-order="fill stroke markers" d=" M 1198.2000007152558 1601.6000035762788 L 1198.2000007152558 1348.500002503395 L 1996.4000014305116 1348.500002503395 L 1996.4000014305116 1095.4000014305116" stroke-linejoin="round" stroke-miterlimit="10" stroke-width="10"/><path fill="none" stroke="url(#ngbNbnCFSfOG)" paint-order="fill stroke markers" d=" M 1198.2000007152558 1729.6000042915346 L 1198.2000007152558 1412.500002861023 L 1996.4000014305116 1412.500002861023 L 1996.4000014305116 1095.4000014305116" stroke-linejoin="round" stroke-miterlimit="10" stroke-width="10"/><path fill="rgb(40,167,69)" stroke="url(#ngbNbnCFSfOG)" paint-order="stroke fill markers" d=" M 1198.2000007152558 1473.600002861023 L 1464.2000007152558 1473.600002861023 L 1464.2000007152558 1473.600002861023 A 8 8 0 0 1 1472.2000007152558 1481.600002861023 L 1472.2000007152558 1543.600002861023 L 1472.2000007152558 1543.600002861023 A 8 8 0 0 1 1464.2000007152558 1551.600002861023 L 932.2000007152558 1551.600002861023 L 932.2000007152558 1551.600002861023 A 8 8 0 0 1 924.2000007152558 1543.600002861023 L 924.2000007152558 1481.600002861023 L 924.2000007152558 1481.600002861023 A 8 8 0 0 1 932.2000007152558 1473.600002861023 L 1198.2000007152558 1473.600002861023 Z" fill-opacity="1"/><text fill="rgb(255,255,255)" stroke="none" font-family="Avenir, Helvetica, Arial, sans-serif" font-size="32px" font-style="normal" font-weight="bold" text-decoration="normal" x="1198.2000007152558" y="1528.600002861023" text-anchor="middle" dominant-baseline="text-after-edge" fill-opacity="1">instance_1</text><path fill="rgb(40,167,69)" stroke="none" paint-order="stroke fill markers" d=" M 400 361 L 666 361 L 666 361 A 8 8 0 0 1 674 369 L 674 431 L 674 431 A 8 8 0 0 1 666 439 L 134 439 L 134 439 A 8 8 0 0 1 126 431 L 126 369 L 126 369 A 8 8 0 0 1 134 361 L 400 361 Z" fill-opacity="1"/><text fill="rgb(255,255,255)" stroke="none" font-family="Avenir, Helvetica, Arial, sans-serif" font-size="32px" font-style="normal" font-weight="bold" text-decoration="normal" x="400" y="416" text-anchor="middle" dominant-baseline="text-after-edge" fill-opacity="1">http</text><path fill="rgb(40,167,69)" stroke="none" paint-order="stroke fill markers" d=" M 1198.2000007152558 361 L 1464.2000007152558 361 L 1464.2000007152558 361 A 8 8 0 0 1 1472.2000007152558 369 L 1472.2000007152558 431 L 1472.2000007152558 431 A 8 8 0 0 1 1464.2000007152558 439 L 932.2000007152558 439 L 932.2000007152558 439 A 8 8 0 0 1 924.2000007152558 431 L 924.2000007152558 369 L 924.2000007152558 369 A 8 8 0 0 1 932.2000007152558 361 L 1198.2000007152558 361 Z" fill-opacity="1"/><text fill="rgb(255,255,255)" stroke="none" font-family="Avenir, Helvetica, Arial, sans-serif" font-size="32px" font-style="normal" font-weight="bold" text-decoration="normal" x="1198.2000007152558" y="416" text-anchor="middle" dominant-baseline="text-after-edge" fill-opacity="1">http</text><path fill="rgb(40,167,69)" stroke="none" paint-order="stroke fill markers" d=" M 1996.4000014305116 361 L 2262.4000014305116 361 L 2262.4000014305116 361 A 8 8 0 0 1 2270.4000014305116 369 L 2270.4000014305116 431 L 2270.4000014305116 431 A 8 8 0 0 1 2262.4000014305116 439 L 1730.4000014305116 439 L 1730.4000014305116 439 A 8 8 0 0 1 1722.4000014305116 431 L 1722.4000014305116 369 L 1722.4000014305116 369 A 8 8 0 0 1 1730.4000014305116 361 L 1996.4000014305116 361 Z" fill-opacity="1"/><text fill="rgb(255,255,255)" stroke="none" font-family="Avenir, Helvetica, Arial, sans-serif" font-size="32px" font-style="normal" font-weight="bold" text-decoration="normal" x="1996.4000014305116" y="416" text-anchor="middle" dominant-baseline="text-after-edge" fill-opacity="1">subnet_1</text><path fill="rgb(40,167,69)" stroke="none" paint-order="stroke fill markers" d=" M 1198.2000007152558 1601.6000035762788 L 1464.2000007152558 1601.6000035762788 L 1464.2000007152558 1601.6000035762788 A 8 8 0 0 1 1472.2000007152558 1609.6000035762788 L 1472.2000007152558 1671.6000035762788 L 1472.2000007152558 1671.6000035762788 A 8 8 0 0 1 1464.2000007152558 1679.6000035762788 L 932.2000007152558 1679.6000035762788 L 932.2000007152558 1679.6000035762788 A 8 8 0 0 1 924.2000007152558 1671.6000035762788 L 924.2000007152558 1609.6000035762788 L 924.2000007152558 1609.6000035762788 A 8 8 0 0 1 932.2000007152558 1601.6000035762788 L 1198.2000007152558 1601.6000035762788 Z" fill-opacity="1"/><text fill="rgb(255,255,255)" stroke="none" font-family="Avenir, Helvetica, Arial, sans-serif" font-size="32px" font-style="normal" font-weight="bold" text-decoration="normal" x="1198.2000007152558" y="1656.6000035762788" text-anchor="middle" dominant-baseline="text-after-edge" fill-opacity="1">instance_3</text><path fill="rgb(40,167,69)" stroke="none" paint-order="stroke fill markers" d=" M 1996.4000014305116 1017.4000014305116 L 2262.4000014305116 1017.4000014305116 L 2262.4000014305116 1017.4000014305116 A 8 8 0 0 1 2270.4000014305116 1025.4000014305116 L 2270.4000014305116 1087.4000014305116 L 2270.4000014305116 1087.4000014305116 A 8 8 0 0 1 2262.4000014305116 1095.4000014305116 L 1730.4000014305116 1095.4000014305116 L 1730.4000014305116 1095.4000014305116 A 8 8 0 0 1 1722.4000014305116 1087.4000014305116 L 1722.4000014305116 1025.4000014305116 L 1722.4000014305116 1025.4000014305116 A 8 8 0 0 1 1730.4000014305116 1017.4000014305116 L 1996.4000014305116 1017.4000014305116 Z" fill-opacity="1"/><text fill="rgb(255,255,255)" stroke="none" font-family="Avenir, Helvetica, Arial, sans-serif" font-size="32px" font-style="normal" font-weight="bold" text-decoration="normal" x="1996.4000014305116" y="1072.4000014305116" text-anchor="middle" dominant-baseline="text-after-edge" fill-opacity="1">cirros</text><path fill="rgb(40,167,69)" stroke="none" paint-order="stroke fill markers" d=" M 400 1473.600002861023 L 666 1473.600002861023 L 666 1473.600002861023 A 8 8 0 0 1 674 1481.600002861023 L 674 1543.600002861023 L 674 1543.600002861023 A 8 8 0 0 1 666 1551.600002861023 L 134 1551.600002861023 L 134 1551.600002861023 A 8 8 0 0 1 126 1543.600002861023 L 126 1481.600002861023 L 126 1481.600002861023 A 8 8 0 0 1 134 1473.600002861023 L 400 1473.600002861023 Z" fill-opacity="1"/><text fill="rgb(255,255,255)" stroke="none" font-family="Avenir, Helvetica, Arial, sans-serif" font-size="32px" font-style="normal" font-weight="bold" text-decoration="normal" x="400" y="1528.600002861023" text-anchor="middle" dominant-baseline="text-after-edge" fill-opacity="1">service</text><path fill="rgb(40,167,69)" stroke="none" paint-order="stroke fill markers" d=" M 400 689.2000007152558 L 666 689.2000007152558 L 666 689.2000007152558 A 8 8 0 0 1 674 697.2000007152558 L 674 759.2000007152558 L 674 759.2000007152558 A 8 8 0 0 1 666 767.2000007152558 L 134 767.2000007152558 L 134 767.2000007152558 A 8 8 0 0 1 126 759.2000007152558 L 126 697.2000007152558 L 126 697.2000007152558 A 8 8 0 0 1 134 689.2000007152558 L 400 689.2000007152558 Z" fill-opacity="1"/><text fill="rgb(255,255,255)" stroke="none" font-family="Avenir, Helvetica, Arial, sans-serif" font-size="32px" font-style="normal" font-weight="bold" text-decoration="normal" x="400" y="744.2000007152558" text-anchor="middle" dominant-baseline="text-after-edge" fill-opacity="1">flavor_1</text><path fill="rgb(40,167,69)" stroke="none" paint-order="stroke fill markers" d=" M 1996.4000014305116 1145.4000021457673 L 2262.4000014305116 1145.4000021457673 L 2262.4000014305116 1145.4000021457673 A 8 8 0 0 1 2270.4000014305116 1153.4000021457673 L 2270.4000014305116 1215.4000021457673 L 2270.4000014305116 1215.4000021457673 A 8 8 0 0 1 2262.4000014305116 1223.4000021457673 L 1730.4000014305116 1223.4000021457673 L 1730.4000014305116 1223.4000021457673 A 8 8 0 0 1 1722.4000014305116 1215.4000021457673 L 1722.4000014305116 1153.4000021457673 L 1722.4000014305116 1153.4000021457673 A 8 8 0 0 1 1730.4000014305116 1145.4000021457673 L 1996.4000014305116 1145.4000021457673 Z" fill-opacity="1"/><text fill="rgb(255,255,255)" stroke="none" font-family="Avenir, Helvetica, Arial, sans-serif" font-size="32px" font-style="normal" font-weight="bold" text-decoration="normal" x="1996.4000014305116" y="1200.4000021457673" text-anchor="middle" dominant-baseline="text-after-edge" fill-opacity="1">ubuntu1804</text><path fill="rgb(40,167,69)" stroke="none" paint-order="stroke fill markers" d=" M 400 1601.6000035762788 L 666 1601.6000035762788 L 666 1601.6000035762788 A 8 8 0 0 1 674 1609.6000035762788 L 674 1671.6000035762788 L 674 1671.6000035762788 A 8 8 0 0 1 666 1679.6000035762788 L 134 1679.6000035762788 L 134 1679.6000035762788 A 8 8 0 0 1 126 1671.6000035762788 L 126 1609.6000035762788 L 126 1609.6000035762788 A 8 8 0 0 1 134 1601.6000035762788 L 400 1601.6000035762788 Z" fill-opacity="1"/><text fill="rgb(255,255,255)" stroke="none" font-family="Avenir, Helvetica, Arial, sans-serif" font-size="32px" font-style="normal" font-weight="bold" text-decoration="normal" x="400" y="1656.6000035762788" text-anchor="middle" dominant-baseline="text-after-edge" fill-opacity="1">http</text><path fill="rgb(40,167,69)" stroke="none" paint-order="stroke fill markers" d=" M 1198.2000007152558 689.2000007152558 L 1464.2000007152558 689.2000007152558 L 1464.2000007152558 689.2000007152558 A 8 8 0 0 1 1472.2000007152558 697.2000007152558 L 1472.2000007152558 759.2000007152558 L 1472.2000007152558 759.2000007152558 A 8 8 0 0 1 1464.2000007152558 767.2000007152558 L 932.2000007152558 767.2000007152558 L 932.2000007152558 767.2000007152558 A 8 8 0 0 1 924.2000007152558 759.2000007152558 L 924.2000007152558 697.2000007152558 L 924.2000007152558 697.2000007152558 A 8 8 0 0 1 932.2000007152558 689.2000007152558 L 1198.2000007152558 689.2000007152558 Z" fill-opacity="1"/><text fill="rgb(255,255,255)" stroke="none" font-family="Avenir, Helvetica, Arial, sans-serif" font-size="32px" font-style="normal" font-weight="bold" text-decoration="normal" x="1198.2000007152558" y="744.2000007152558" text-anchor="middle" dominant-baseline="text-after-edge" fill-opacity="1">router_1</text><path fill="rgb(40,167,69)" stroke="none" paint-order="stroke fill markers" d=" M 1198.2000007152558 1729.6000042915346 L 1464.2000007152558 1729.6000042915346 L 1464.2000007152558 1729.6000042915346 A 8 8 0 0 1 1472.2000007152558 1737.6000042915346 L 1472.2000007152558 1799.6000042915346 L 1472.2000007152558 1799.6000042915346 A 8 8 0 0 1 1464.2000007152558 1807.6000042915346 L 932.2000007152558 1807.6000042915346 L 932.2000007152558 1807.6000042915346 A 8 8 0 0 1 924.2000007152558 1799.6000042915346 L 924.2000007152558 1737.6000042915346 L 924.2000007152558 1737.6000042915346 A 8 8 0 0 1 932.2000007152558 1729.6000042915346 L 1198.2000007152558 1729.6000042915346 Z" fill-opacity="1"/><text fill="rgb(255,255,255)" stroke="none" font-family="Avenir, Helvetica, Arial, sans-serif" font-size="32px" font-style="normal" font-weight="bold" text-decoration="normal" x="1198.2000007152558" y="1784.6000042915346" text-anchor="middle" dominant-baseline="text-after-edge" fill-opacity="1">instance_2</text><path fill="rgb(40,167,69)" stroke="none" paint-order="stroke fill markers" d=" M 1996.4000014305116 689.2000007152558 L 2262.4000014305116 689.2000007152558 L 2262.4000014305116 689.2000007152558 A 8 8 0 0 1 2270.4000014305116 697.2000007152558 L 2270.4000014305116 759.2000007152558 L 2270.4000014305116 759.2000007152558 A 8 8 0 0 1 2262.4000014305116 767.2000007152558 L 1730.4000014305116 767.2000007152558 L 1730.4000014305116 767.2000007152558 A 8 8 0 0 1 1722.4000014305116 759.2000007152558 L 1722.4000014305116 697.2000007152558 L 1722.4000014305116 697.2000007152558 A 8 8 0 0 1 1730.4000014305116 689.2000007152558 L 1996.4000014305116 689.2000007152558 Z" fill-opacity="1"/><text fill="rgb(255,255,255)" stroke="none" font-family="Avenir, Helvetica, Arial, sans-serif" font-size="32px" font-style="normal" font-weight="bold" text-decoration="normal" x="1996.4000014305116" y="744.2000007152558" text-anchor="middle" dominant-baseline="text-after-edge" fill-opacity="1">http</text><path fill="rgb(40,167,69)" stroke="none" paint-order="stroke fill markers" d=" M 400 1017.4000014305116 L 666 1017.4000014305116 L 666 1017.4000014305116 A 8 8 0 0 1 674 1025.4000014305116 L 674 1087.4000014305116 L 674 1087.4000014305116 A 8 8 0 0 1 666 1095.4000014305116 L 134 1095.4000014305116 L 134 1095.4000014305116 A 8 8 0 0 1 126 1087.4000014305116 L 126 1025.4000014305116 L 126 1025.4000014305116 A 8 8 0 0 1 134 1017.4000014305116 L 400 1017.4000014305116 Z" fill-opacity="1"/><text fill="rgb(255,255,255)" stroke="none" font-family="Avenir, Helvetica, Arial, sans-serif" font-size="32px" font-style="normal" font-weight="bold" text-decoration="normal" x="400" y="1072.4000014305116" text-anchor="middle" dominant-baseline="text-after-edge" fill-opacity="1">private_1</text><path fill="rgb(40,167,69)" stroke="none" paint-order="stroke fill markers" d=" M 1198.2000007152558 1017.4000014305116 L 1464.2000007152558 1017.4000014305116 L 1464.2000007152558 1017.4000014305116 A 8 8 0 0 1 1472.2000007152558 1025.4000014305116 L 1472.2000007152558 1087.4000014305116 L 1472.2000007152558 1087.4000014305116 A 8 8 0 0 1 1464.2000007152558 1095.4000014305116 L 932.2000007152558 1095.4000014305116 L 932.2000007152558 1095.4000014305116 A 8 8 0 0 1 924.2000007152558 1087.4000014305116 L 924.2000007152558 1025.4000014305116 L 924.2000007152558 1025.4000014305116 A 8 8 0 0 1 932.2000007152558 1017.4000014305116 L 1198.2000007152558 1017.4000014305116 Z" fill-opacity="1"/><text fill="rgb(255,255,255)" stroke="none" font-family="Avenir, Helvetica, Arial, sans-serif" font-size="32px" font-style="normal" font-weight="bold" text-decoration="normal" x="1198.2000007152558" y="1072.4000014305116" text-anchor="middle" dominant-baseline="text-after-edge" fill-opacity="1">interface_1</text><g transform="scale(10,10) translate(-23.700000000000003,-4.75)"/></g></svg>